*
*
G04 PADS 9.4.1 Build Number: 494907 generated Gerber (RS-274-X) file*
G04 PC Version=2.1*
*
%IN "09051-00135-A.pcb"*%
*
%MOIN*%
*
%FSLAX35Y35*%
*
*
*
*
G04 PC Standard Apertures*
*
*
G04 Thermal Relief Aperture macro.*
%AMTER*
1,1,$1,0,0*
1,0,$1-$2,0,0*
21,0,$3,$4,0,0,45*
21,0,$3,$4,0,0,135*
%
*
*
G04 Annular Aperture macro.*
%AMANN*
1,1,$1,0,0*
1,0,$2,0,0*
%
*
*
G04 Odd Aperture macro.*
%AMODD*
1,1,$1,0,0*
1,0,$1-0.005,0,0*
%
*
*
G04 PC Custom Aperture Macros*
*
*
*
*
*
*
G04 PC Aperture Table*
*
%ADD012C,0.001*%
%ADD027C,0.03937*%
%ADD078R,0.031X0.031*%
%ADD150R,0.12402X0.12402*%
%ADD164R,0.07874X0.07874*%
%ADD198R,0.059X0.051*%
%ADD199R,0.01181X0.04291*%
%ADD200R,0.04291X0.01181*%
%ADD201R,0.043X0.039*%
%ADD202R,0.135X0.072*%
%ADD203R,0.051X0.059*%
%ADD205R,0.07874X0.01969*%
%ADD208R,0.06X0.1*%
%ADD209R,0.08661X0.05118*%
%ADD210R,0.063X0.071*%
%ADD211R,0.13386X0.0748*%
%ADD212R,0.09843X0.0748*%
%ADD213R,0.09X0.07*%
%ADD214R,0.024X0.07*%
%ADD215R,0.00984X0.02756*%
%ADD216R,0.02756X0.00984*%
%ADD217R,0.05709X0.05709*%
%ADD218R,0.03268X0.0248*%
%ADD219R,0.1063X0.11811*%
%ADD220R,0.01181X0.0315*%
%ADD221R,0.10236X0.10236*%
%ADD222R,0.05472X0.05512*%
%ADD223R,0.13228X0.19134*%
%ADD278R,0.09843X0.05906*%
*
*
*
*
G04 PC Circuitry*
G04 Layer Name 09051-00135-A.pcb - circuitry*
%LPD*%
*
*
G04 PC Custom Flashes*
G04 Layer Name 09051-00135-A.pcb - flashes*
%LPD*%
*
*
G04 PC Circuitry*
G04 Layer Name 09051-00135-A.pcb - circuitry*
%LPD*%
*
G54D12*
G54D27*
G01X1865000Y1910534D03*
X2135000Y1290534D03*
G54D78*
X1893000Y1399684D03*
Y1393784D03*
Y1356584D03*
Y1350684D03*
Y1313484D03*
Y1307584D03*
X2107000Y1313484D03*
Y1307584D03*
Y1356584D03*
Y1350684D03*
X1955950Y1688034D03*
X1950050D03*
X2002450D03*
X1996550D03*
X2066500Y1447484D03*
Y1441584D03*
X2107000Y1399684D03*
Y1393784D03*
G54D150*
X1965500Y1322534D03*
Y1408734D03*
Y1365634D03*
X2034500Y1322534D03*
Y1365634D03*
Y1408734D03*
G54D164*
X1926326Y1291434D03*
X1942074D03*
G54D198*
X1954500Y1514834D03*
Y1507234D03*
X1955200Y1808334D03*
Y1815934D03*
G54D199*
X1959594Y1312770D03*
X1961563D03*
X1963531D03*
X1965500D03*
X1967469D03*
X1969437D03*
X1971406D03*
Y1332298D03*
X1969437D03*
X1967469D03*
X1965500D03*
X1963531D03*
X1961563D03*
X1959594D03*
Y1398970D03*
X1961563D03*
X1963531D03*
X1965500D03*
X1967469D03*
X1969437D03*
X1971406D03*
Y1418498D03*
X1969437D03*
X1967469D03*
X1965500D03*
X1963531D03*
X1961563D03*
X1959594D03*
Y1355870D03*
X1961563D03*
X1963531D03*
X1965500D03*
X1967469D03*
X1969437D03*
X1971406D03*
Y1375398D03*
X1969437D03*
X1967469D03*
X1965500D03*
X1963531D03*
X1961563D03*
X1959594D03*
X2040406Y1332298D03*
X2038437D03*
X2036469D03*
X2034500D03*
X2032531D03*
X2030563D03*
X2028594D03*
Y1312770D03*
X2030563D03*
X2032531D03*
X2034500D03*
X2036469D03*
X2038437D03*
X2040406D03*
Y1375398D03*
X2038437D03*
X2036469D03*
X2034500D03*
X2032531D03*
X2030563D03*
X2028594D03*
Y1355870D03*
X2030563D03*
X2032531D03*
X2034500D03*
X2036469D03*
X2038437D03*
X2040406D03*
Y1418498D03*
X2038437D03*
X2036469D03*
X2034500D03*
X2032531D03*
X2030563D03*
X2028594D03*
Y1398970D03*
X2030563D03*
X2032531D03*
X2034500D03*
X2036469D03*
X2038437D03*
X2040406D03*
G54D200*
X1975264Y1316629D03*
Y1318597D03*
Y1320566D03*
Y1322534D03*
Y1324503D03*
Y1326471D03*
Y1328440D03*
X1955736D03*
Y1326471D03*
Y1324503D03*
Y1322534D03*
Y1320566D03*
Y1318597D03*
Y1316629D03*
X1975264Y1402829D03*
Y1404797D03*
Y1406766D03*
Y1408734D03*
Y1410703D03*
Y1412671D03*
Y1414640D03*
X1955736D03*
Y1412671D03*
Y1410703D03*
Y1408734D03*
Y1406766D03*
Y1404797D03*
Y1402829D03*
X1975264Y1359729D03*
Y1361697D03*
Y1363666D03*
Y1365634D03*
Y1367603D03*
Y1369571D03*
Y1371540D03*
X1955736D03*
Y1369571D03*
Y1367603D03*
Y1365634D03*
Y1363666D03*
Y1361697D03*
Y1359729D03*
X2024736Y1328440D03*
Y1326471D03*
Y1324503D03*
Y1322534D03*
Y1320566D03*
Y1318597D03*
Y1316629D03*
X2044264D03*
Y1318597D03*
Y1320566D03*
Y1322534D03*
Y1324503D03*
Y1326471D03*
Y1328440D03*
X2024736Y1371540D03*
Y1369571D03*
Y1367603D03*
Y1365634D03*
Y1363666D03*
Y1361697D03*
Y1359729D03*
X2044264D03*
Y1361697D03*
Y1363666D03*
Y1365634D03*
Y1367603D03*
Y1369571D03*
Y1371540D03*
X2024736Y1414640D03*
Y1412671D03*
Y1410703D03*
Y1408734D03*
Y1406766D03*
Y1404797D03*
Y1402829D03*
X2044264D03*
Y1404797D03*
Y1406766D03*
Y1408734D03*
Y1410703D03*
Y1412671D03*
Y1414640D03*
G54D201*
X2041700Y1579834D03*
X2048500D03*
X2054900Y1576634D03*
X2061700D03*
X2028600D03*
X2035400D03*
X2054900Y1586134D03*
X2061700D03*
X2054900Y1595534D03*
X2061700D03*
X2054900Y1614434D03*
X2061700D03*
X2041600Y1598734D03*
X2048400D03*
X2028600Y1595534D03*
X2035400D03*
X2041600Y1589334D03*
X2048400D03*
X2028600Y1586134D03*
X2035400D03*
X2064600Y1639734D03*
X2057800D03*
X1965500Y1304034D03*
X1972300D03*
X1965500Y1390234D03*
X1972300D03*
X1965500Y1347134D03*
X1972300D03*
X2034500Y1341034D03*
X2027700D03*
X2034500Y1384134D03*
X2027700D03*
X2054900Y1655434D03*
X2061700D03*
X2054900Y1664834D03*
X2061700D03*
X1912900Y1486034D03*
X1906100D03*
X1912900Y1493934D03*
X1906100D03*
X1912900Y1501834D03*
X1906100D03*
X1912900Y1509734D03*
X1906100D03*
X1898600Y1743534D03*
X1905400D03*
X2028600Y1664834D03*
X2035400D03*
X2041600Y1668034D03*
X2048400D03*
X2028600Y1677434D03*
X2035400D03*
X2041600Y1680634D03*
X2048400D03*
X1912900Y1470334D03*
X1906100D03*
X1912900Y1478134D03*
X1906100D03*
X1898600Y1769034D03*
X1905400D03*
X1898600Y1761034D03*
X1905400D03*
X1898600Y1735534D03*
X1905400D03*
X2028600Y1614434D03*
X2035400D03*
X2041600Y1617634D03*
X2048400D03*
X2054900Y1605034D03*
X2061700D03*
X2054900Y1677434D03*
X2061700D03*
X2028600Y1605034D03*
X2035400D03*
X2041600Y1608234D03*
X2048400D03*
X2034500Y1427234D03*
X2027700D03*
X2028600Y1655434D03*
X2035400D03*
X2041600Y1658634D03*
X2048400D03*
G54D202*
X1948500Y1744585D03*
Y1713483D03*
X1995000Y1744585D03*
Y1713483D03*
X2001500Y1442983D03*
Y1474085D03*
G54D203*
X1901900Y1517534D03*
X1909500D03*
X1998300Y1783534D03*
X1990700D03*
X1951800D03*
X1944200D03*
G54D205*
X1903839Y1548370D03*
X1921161D03*
X1903839Y1551520D03*
X1921161D03*
X1903839Y1554669D03*
X1921161D03*
X1903839Y1557819D03*
X1921161D03*
X1903839Y1560969D03*
X1921161D03*
X1903839Y1564118D03*
X1921161D03*
X1903839Y1567268D03*
X1921161D03*
X1903839Y1570417D03*
X1921161D03*
X1903839Y1573567D03*
X1921161D03*
X1903839Y1576717D03*
X1921161D03*
X1903839Y1579866D03*
X1921161D03*
X1903839Y1583016D03*
X1921161D03*
X1903839Y1586165D03*
X1921161D03*
X1903839Y1589315D03*
X1921161D03*
X1903839Y1592465D03*
X1921161D03*
X1903839Y1595614D03*
X1921161D03*
X1903839Y1598764D03*
X1921161D03*
X1903839Y1601914D03*
X1921161D03*
X1903839Y1605063D03*
X1921161D03*
X1903839Y1608213D03*
X1921161D03*
X1903839Y1611362D03*
X1921161D03*
X1903839Y1614512D03*
X1921161D03*
X1903839Y1617662D03*
X1921161D03*
X1903839Y1620811D03*
X1921161D03*
X1903839Y1623961D03*
X1921161D03*
X1903839Y1627110D03*
X1921161D03*
X1903839Y1630260D03*
X1921161D03*
X1903839Y1633410D03*
X1921161D03*
X1903839Y1636559D03*
X1921161D03*
X1903839Y1639709D03*
X1921161D03*
X1903839Y1642858D03*
X1921161D03*
X1903839Y1646008D03*
X1921161D03*
X1903839Y1649158D03*
X1921161D03*
X1903839Y1652307D03*
X1921161D03*
X1903839Y1655457D03*
X1921161D03*
X1903839Y1658606D03*
X1921161D03*
X1903839Y1661756D03*
X1921161D03*
X1903839Y1664906D03*
X1921161D03*
X1903839Y1668055D03*
X1921161D03*
X1903839Y1671205D03*
X1921161D03*
X1903839Y1674354D03*
X1921161D03*
X1903839Y1677504D03*
X1921161D03*
X1903839Y1680654D03*
X1921161D03*
X1903839Y1683803D03*
X1921161D03*
X1903839Y1686953D03*
X1921161D03*
X1903839Y1690102D03*
X1921161D03*
X1903839Y1693252D03*
X1921161D03*
X1903839Y1696402D03*
X1921161D03*
X1903839Y1699551D03*
X1921161D03*
X1903839Y1702701D03*
X1921161D03*
X2078839Y1548370D03*
X2096161D03*
X2078839Y1551520D03*
X2096161D03*
X2078839Y1554669D03*
X2096161D03*
X2078839Y1557819D03*
X2096161D03*
X2078839Y1560969D03*
X2096161D03*
X2078839Y1564118D03*
X2096161D03*
X2078839Y1567268D03*
X2096161D03*
X2078839Y1570417D03*
X2096161D03*
X2078839Y1573567D03*
X2096161D03*
X2078839Y1576717D03*
X2096161D03*
X2078839Y1579866D03*
X2096161D03*
X2078839Y1583016D03*
X2096161D03*
X2078839Y1586165D03*
X2096161D03*
X2078839Y1589315D03*
X2096161D03*
X2078839Y1592465D03*
X2096161D03*
X2078839Y1595614D03*
X2096161D03*
X2078839Y1598764D03*
X2096161D03*
X2078839Y1601914D03*
X2096161D03*
X2078839Y1605063D03*
X2096161D03*
X2078839Y1608213D03*
X2096161D03*
X2078839Y1611362D03*
X2096161D03*
X2078839Y1614512D03*
X2096161D03*
X2078839Y1617662D03*
X2096161D03*
X2078839Y1620811D03*
X2096161D03*
X2078839Y1623961D03*
X2096161D03*
X2078839Y1627110D03*
X2096161D03*
X2078839Y1630260D03*
X2096161D03*
X2078839Y1633410D03*
X2096161D03*
X2078839Y1636559D03*
X2096161D03*
X2078839Y1639709D03*
X2096161D03*
X2078839Y1642858D03*
X2096161D03*
X2078839Y1646008D03*
X2096161D03*
X2078839Y1649158D03*
X2096161D03*
X2078839Y1652307D03*
X2096161D03*
X2078839Y1655457D03*
X2096161D03*
X2078839Y1658606D03*
X2096161D03*
X2078839Y1661756D03*
X2096161D03*
X2078839Y1664906D03*
X2096161D03*
X2078839Y1668055D03*
X2096161D03*
X2078839Y1671205D03*
X2096161D03*
X2078839Y1674354D03*
X2096161D03*
X2078839Y1677504D03*
X2096161D03*
X2078839Y1680654D03*
X2096161D03*
X2078839Y1683803D03*
X2096161D03*
X2078839Y1686953D03*
X2096161D03*
X2078839Y1690102D03*
X2096161D03*
X2078839Y1693252D03*
X2096161D03*
X2078839Y1696402D03*
X2096161D03*
X2078839Y1699551D03*
X2096161D03*
X2078839Y1702701D03*
X2096161D03*
G54D208*
X1988250Y1699034D03*
X2001750D03*
X1955250D03*
X1941750D03*
G54D209*
X1940000Y1310723D03*
Y1334345D03*
Y1353823D03*
Y1377445D03*
X2060000D03*
Y1353823D03*
Y1334345D03*
Y1310723D03*
X1940000Y1396923D03*
Y1420545D03*
X2060000D03*
Y1396923D03*
G54D210*
X2000000Y1337634D03*
X1989000D03*
X2000000Y1423834D03*
X1989000D03*
X2000000Y1380734D03*
X1989000D03*
X2000000Y1306834D03*
X2011000D03*
X2000000Y1349934D03*
X2011000D03*
X2000000Y1393034D03*
X2011000D03*
G54D211*
X1930600Y1437095D03*
Y1452773D03*
X1940500Y1472695D03*
Y1488373D03*
X1950000Y1437095D03*
Y1452773D03*
G54D212*
X2029000Y1433542D03*
Y1459526D03*
X2049000Y1433542D03*
Y1459526D03*
Y1470542D03*
Y1496526D03*
X2029000Y1470542D03*
Y1496526D03*
G54D213*
X1975400Y1437134D03*
Y1459134D03*
G54D214*
X1968500Y1437134D03*
Y1459134D03*
G54D215*
X1967247Y1471322D03*
X1969216D03*
X1971184D03*
X1973153D03*
Y1482346D03*
X1971184D03*
X1969216D03*
X1967247D03*
G54D216*
X1975712Y1473881D03*
Y1475850D03*
Y1477819D03*
Y1479787D03*
X1964688D03*
Y1477819D03*
Y1475850D03*
Y1473881D03*
G54D217*
X1970228Y1476770D03*
G54D218*
X1954500Y1479824D03*
Y1471044D03*
G54D219*
X1998273Y1813034D03*
X1969927D03*
G54D220*
X1954799Y1772910D03*
X1951650D03*
X1948500D03*
X1945350D03*
X1942201D03*
Y1757359D03*
X1945350D03*
X1948500D03*
X1951650D03*
X1954799D03*
X2001299Y1772910D03*
X1998150D03*
X1995000D03*
X1991850D03*
X1988701D03*
Y1757359D03*
X1991850D03*
X1995000D03*
X1998150D03*
X2001299D03*
G54D221*
X1948492Y1765126D03*
X1994992D03*
G54D222*
X1922378Y1758601D03*
X1929622D03*
X1968878D03*
X1976122D03*
G54D223*
X1926000Y1774278D03*
X1972500D03*
G54D278*
X1921521Y1814034D03*
X1937879D03*
X1921421Y1795834D03*
X1937779D03*
X0Y0D02*
M02*
