*
*
G04 PADS 9.4.1 Build Number: 494907 generated Gerber (RS-274-X) file*
G04 PC Version=2.1*
*
%IN "09051-00135-A.pcb"*%
*
%MOIN*%
*
%FSLAX35Y35*%
*
*
*
*
G04 PC Standard Apertures*
*
*
G04 Thermal Relief Aperture macro.*
%AMTER*
1,1,$1,0,0*
1,0,$1-$2,0,0*
21,0,$3,$4,0,0,45*
21,0,$3,$4,0,0,135*
%
*
*
G04 Annular Aperture macro.*
%AMANN*
1,1,$1,0,0*
1,0,$2,0,0*
%
*
*
G04 Odd Aperture macro.*
%AMODD*
1,1,$1,0,0*
1,0,$1-0.005,0,0*
%
*
*
G04 PC Custom Aperture Macros*
*
*
*
*
*
*
G04 PC Aperture Table*
*
%ADD010C,0.01*%
%ADD012C,0.001*%
%ADD016C,0.02*%
%ADD018C,0.015*%
%ADD101C,0.062*%
%ADD155C,0.05512*%
*
*
*
*
G04 PC Circuitry*
G04 Layer Name 09051-00135-A.pcb - circuitry*
%LPD*%
*
*
G04 PC Custom Flashes*
G04 Layer Name 09051-00135-A.pcb - flashes*
%LPD*%
*
*
G04 PC Circuitry*
G04 Layer Name 09051-00135-A.pcb - circuitry*
%LPD*%
*
G54D10*
G01X1973591Y1910694D02*
X1972000Y1907631D01*
X1974386*
X1973591Y1910694D02*
Y1906100D01*
X1975700Y1339600D02*
Y1342400D01*
X1975800Y1342500*
X1990900Y1352600D02*
X2006600Y1336900D01*
Y1316600*
X2012600Y1310600*
X2019100*
X1990900Y1352600D02*
Y1362300D01*
X1997200Y1368600*
Y1394300*
X1998000Y1395100*
X2002000Y1384300D02*
X2005900Y1380400D01*
Y1368000*
X2009300Y1364600*
Y1359900*
X2019700Y1349500*
Y1345900*
X2021000Y1344600*
X2002000Y1384300D02*
Y1391000D01*
X2005400Y1394400*
X2011200Y1384600D02*
X2013400Y1382400D01*
Y1369600*
X2015900Y1367100*
X2011200Y1384600D02*
Y1432700D01*
X2013400Y1434900*
X1984900Y1368700D02*
X1988450Y1372250D01*
Y1464500*
X1993500Y1469500*
Y1530100*
X2016200Y1359131D02*
X2017600Y1360531D01*
X2017200Y1371500D02*
X2018800Y1373100D01*
X1945500Y1426200D02*
X1945700Y1426152D01*
Y1425900*
X1946300Y1425300*
Y1413100*
X1948900Y1410500*
X1952100*
X1953500Y1409100*
Y1406100*
X1958200Y1401400*
Y1381100*
X1958800Y1380500*
Y1358600*
X1961600Y1355800*
Y1351100*
X1992900Y1427400D02*
X1995700Y1424600D01*
Y1399500*
X1998000Y1397200*
Y1395100*
X1992900Y1427400D02*
Y1465300D01*
X1995400Y1467800*
X2003375Y1419225D02*
X2005400Y1417200D01*
Y1394400*
X2003375Y1419225D02*
Y1448550D01*
X2003500Y1448675*
X2004800Y1450000*
X1999500Y1391500D02*
X2003300Y1395300D01*
Y1416700*
X1999500Y1391500D02*
Y1379300D01*
X2002100Y1376700*
Y1368100*
X2007600Y1362600*
Y1356900*
X2012500Y1352000*
Y1336600*
X2015600Y1333500*
X2012900Y1399500D02*
X2018800Y1393600D01*
Y1373100*
X2012900Y1399500D02*
Y1430100D01*
X2015100Y1432300*
X1928000Y1461200D02*
X1933400Y1455800D01*
Y1399900*
X1953300Y1380100*
X1947700Y1431100D02*
X1948700Y1430100D01*
Y1419200*
X1955500Y1412400*
Y1407200*
X1961000Y1401700*
X1964400*
X1967800Y1398300*
Y1375300*
X1972000Y1371100*
Y1346300*
X1975800Y1342500*
X2005700Y1440817D02*
X2007600Y1438917D01*
Y1368600*
X2014600Y1361600*
X2005700Y1440817D02*
Y1448100D01*
X2007500Y1449900*
X2007750Y1441950D02*
X2009500Y1440200D01*
Y1369800*
X2017600Y1361700*
Y1360531*
X2007750Y1441950D02*
Y1446800D01*
X2009200Y1448150*
X1997700Y1449100D02*
X2000200Y1451600D01*
Y1455300*
X1997700Y1449100D02*
Y1435050D01*
X1998550Y1434200*
Y1421450*
X2003300Y1416700*
X1976200Y1482200D02*
X1978600Y1484600D01*
Y1559700*
X1976200Y1482200D02*
Y1478400D01*
X1978600Y1476000*
Y1356000*
X1980600Y1354000*
Y1333400*
X1992500Y1534100D02*
X1995400Y1531200D01*
Y1467800*
X1992500Y1534100D02*
Y1599200D01*
X1995500Y1602200*
Y1605200*
X2003400Y1526800D02*
X2007500Y1522700D01*
Y1449900*
X2006800Y1527200D02*
X2009200Y1524800D01*
Y1448150*
X2001900Y1518300D02*
X2004800Y1515400D01*
Y1450000*
X1997700Y1522300D02*
Y1457800D01*
X2000200Y1455300*
X1995900Y1546300D02*
X2013400Y1528400D01*
Y1434900*
X1963450Y1552500D02*
Y1552450D01*
X1968300Y1547600*
X1976400Y1561900D02*
X1978600Y1559700D01*
X1968000Y1588700D02*
Y1568600D01*
X1971050Y1565550*
X1971100*
Y1558800*
X1976200Y1553700*
Y1547300*
X2010400Y1578000D02*
X2031100Y1557400D01*
X2007600Y1576500D02*
X2007700D01*
X2027400Y1556800*
X2002700Y1577000D02*
Y1573500D01*
X2003500Y1572700*
X2005800*
X2023600Y1554900*
Y1552500*
X2025800Y1550700*
X2000500Y1578900D02*
X2000600Y1578800D01*
Y1572500*
X2002300Y1570800*
X2004600*
X2020500Y1554900*
X1997700Y1552100D02*
X2003100Y1546700D01*
Y1541300*
X2015100Y1529300*
Y1432300*
X2005100Y1575200D02*
X2005700D01*
X2026900Y1554000*
X1997000Y1558000D02*
X1997200D01*
X2005200Y1550000*
Y1542200*
X2016700Y1531000*
Y1429600*
X2021100Y1426500*
Y1358400*
X2021700Y1357800*
Y1347200*
X2023800Y1345100*
X2062100Y1571200D02*
Y1758300D01*
X2062200*
X2062100Y1571200D02*
X2069700Y1563600D01*
X1946700Y1597800D02*
Y1596100D01*
X1958100Y1584600*
Y1562800*
X1970800Y1550100*
X1957700Y1626300D02*
X1963200Y1620800D01*
Y1566400*
X1968200Y1561400*
X1958200Y1592700D02*
X1958300D01*
X1960300Y1590700*
Y1564800*
X1960500*
X1973100Y1552200*
X1999900Y1591900D02*
X2022050Y1569750D01*
X2023550*
X2023600Y1569800*
X1999900Y1591900D02*
Y1602600D01*
X2002100Y1604800*
Y1604900*
X1990150Y1605700D02*
X1993950Y1609500D01*
X1994100*
X1990150Y1605700D02*
Y1533500D01*
X1993500Y1530100*
X1997800Y1604200D02*
X2000000Y1606400D01*
Y1611700*
X1997800Y1604200D02*
Y1572800D01*
X2010800Y1559800*
Y1544300*
X1995500Y1595400D02*
X1995400D01*
Y1571500*
X2008000Y1558900*
Y1542900*
X2009000Y1541900*
X2024300Y1595000D02*
X2034300D01*
X2041100Y1601800*
Y1648900*
X1897500Y1699100D02*
X1903200Y1693400D01*
Y1559900*
X1909100Y1554000*
X1910900Y1689600D02*
X1911000Y1689700D01*
X1914000*
X1915200Y1688500*
Y1683300*
X1919300Y1679200*
X1979800*
X2006400Y1652500*
X1980100Y1690600D02*
X1982400Y1688300D01*
Y1686800*
X2006500Y1662800*
X2007300*
X1980000Y1686400D02*
X2007300Y1659100D01*
X1980900Y1681800D02*
X1981600D01*
X2003400Y1660000*
X2024600Y1686200D02*
X2027300Y1683500D01*
Y1654500*
X2036300Y1645300*
X2037900*
X2024600Y1686200D02*
Y1824600D01*
X2028200Y1828200*
X2048400*
X2050200Y1830000*
X2051800Y1686400D02*
X2055451Y1682749D01*
Y1508649*
X2061200Y1502900*
X2087700*
Y1502126*
X2065400Y1681100D02*
X2065500Y1681200D01*
X2067800Y1683500*
Y1743974*
X2071700Y1747874*
X2087700*
X1926100Y1716400D02*
X1931800D01*
X1965400Y1750000*
X2032500Y1817700D02*
X2035100Y1820300D01*
X2077100*
X2079600Y1822800*
Y1862500*
X2082100Y1865000*
X2096500*
X2032500Y1817700D02*
Y1692800D01*
X2035300Y1690000*
Y1662400*
X2045600Y1652100*
X2028600Y1820500D02*
X2032200Y1824100D01*
X2052300*
X2054000Y1825800*
Y1863000*
X2056000Y1865000*
X2067500*
X2028600Y1820500D02*
Y1690400D01*
X2031400Y1687600*
Y1658600*
X2041100Y1648900*
X1980500Y1865000D02*
X1992000D01*
X1995200Y1861800*
Y1829400*
X1996400Y1828200*
X2013100*
X2016800Y1824500*
Y1615800*
X2018700Y1613900*
X2024300*
X1951500Y1865000D02*
Y1864800D01*
X1961600*
X1965100Y1861300*
Y1827900*
X1969100Y1823900*
X2010100*
X2012500Y1821500*
Y1586900*
X2015000*
X2018600Y1583300*
X2045500*
X2053200Y1575600*
Y1570100*
X2009500Y1865000D02*
X2017200D01*
X2020800Y1861400*
Y1625200*
X2022600Y1623400*
X2024300*
X2038500Y1865000D02*
Y1865100D01*
X2048400*
X2050200Y1863300*
Y1830000*
X1852500Y1925000D02*
X2147500D01*
Y1275000*
X1852500*
Y1925000*
X1970600Y1913100D02*
X1975800D01*
Y1903600*
X1970600*
Y1913100*
G54D12*
G54D16*
X1980600Y1333400D03*
X1975700Y1339600D03*
X2019100Y1310600D03*
X2021000Y1344600D03*
X2015600Y1333500D03*
X2023800Y1345100D03*
X1953300Y1380100D03*
X1961600Y1351100D03*
X1984900Y1368700D03*
X2014600Y1361600D03*
X2016200Y1359131D03*
X2017200Y1371500D03*
X2015900Y1367100D03*
X1945500Y1426200D03*
X1928000Y1461200D03*
X1947700Y1431100D03*
X1968300Y1547600D03*
X1976200Y1547300D03*
X2010800Y1544300D03*
X2003400Y1526800D03*
X2006800Y1527200D03*
X2001900Y1518300D03*
X1997700Y1522300D03*
X1995900Y1546300D03*
X2009000Y1541900D03*
X1909100Y1554000D03*
X1963450Y1552500D03*
X1976400Y1561900D03*
X1970800Y1550100D03*
X1968200Y1561400D03*
X1968000Y1588700D03*
X1973100Y1552200D03*
X2010400Y1578000D03*
X2007600Y1576500D03*
X2002700Y1577000D03*
X2020500Y1554900D03*
X2000500Y1578900D03*
X1997700Y1552100D03*
X2005100Y1575200D03*
X1997000Y1558000D03*
X2031100Y1557400D03*
X2023600Y1569800D03*
X2027400Y1556800D03*
X2025800Y1550700D03*
X2053200Y1570100D03*
X2026900Y1554000D03*
X2069700Y1563600D03*
X1946700Y1597800D03*
X1957700Y1626300D03*
X1958200Y1592700D03*
X2002100Y1604900D03*
X1994100Y1609500D03*
X1995500Y1605200D03*
X2000000Y1611700D03*
X1995500Y1595400D03*
X2024300Y1595000D03*
Y1613900D03*
Y1623400D03*
X2007300Y1662800D03*
X2006400Y1652500D03*
X2007300Y1659100D03*
X2003400Y1660000D03*
X2045600Y1652100D03*
X2037900Y1645300D03*
X1897500Y1699100D03*
X1910900Y1689600D03*
X1980100Y1690600D03*
X1980000Y1686400D03*
X1980900Y1681800D03*
X2051800Y1686400D03*
X2065500Y1681200D03*
X1926100Y1716400D03*
X1965400Y1750000D03*
X2062200Y1758300D03*
X1955000Y1820800D03*
G54D18*
X2105184Y1564800D02*
G75*
G03X2105184I-2350J0D01*
G01X2104650Y1588800D02*
G03X2104650I-2550J0D01*
G01X2090425Y1537992D02*
G03X2090425I-2925J0D01*
G01X2089950Y1547100D02*
G03X2089950I-2550J0D01*
G01X2090050Y1563500D02*
G03X2090050I-2550J0D01*
G01X2090125Y1639175D02*
G03X2090125I-2550J0D01*
G01X2090150Y1670900D02*
G03X2090150I-2550J0D01*
G01X2089550Y1699000D02*
G03X2089550I-2550J0D01*
G01X2091212Y1712008D02*
G03X2091212I-3712J0D01*
G01X2072050Y1666700D02*
G03X2072050I-2350J0D01*
G01X2108050Y1809900D02*
G03X2108050I-10550J0D01*
G01X2100950Y1835000D02*
G03X2100950I-4450J0D01*
G01Y1845000D02*
G03X2100950I-4450J0D01*
G01Y1855000D02*
G03X2100950I-4450J0D01*
G01X2101150Y1875000D02*
G03X2101150I-4650J0D01*
G01X2100950Y1885000D02*
G03X2100950I-4450J0D01*
G01X2108050Y1907500D02*
G03X2108050I-10550J0D01*
G01X2071950Y1835000D02*
G03X2071950I-4450J0D01*
G01Y1845000D02*
G03X2071950I-4450J0D01*
G01Y1855000D02*
G03X2071950I-4450J0D01*
G01X2072150Y1875000D02*
G03X2072150I-4650J0D01*
G01X2071950Y1885000D02*
G03X2071950I-4450J0D01*
G01Y1902500D02*
G03X2071950I-4450J0D01*
G01X2072150Y1912500D02*
G03X2072150I-4650J0D01*
G01X2043150Y1875000D02*
G03X2043150I-4650J0D01*
G01X2042950Y1885000D02*
G03X2042950I-4450J0D01*
G01Y1902500D02*
G03X2042950I-4450J0D01*
G01X2043150Y1912500D02*
G03X2043150I-4650J0D01*
G01X2023550D02*
G03X2023550I-2350J0D01*
G01X2014150Y1875000D02*
G03X2014150I-4650J0D01*
G01X2013950Y1885000D02*
G03X2013950I-4450J0D01*
G01X2012750Y1902600D02*
G03X2012750I-2550J0D01*
G01X2012250Y1912500D02*
G03X2012250I-2550J0D01*
G01X1996550Y1869900D02*
G03X1996550I-2550J0D01*
G01X1985150Y1875000D02*
G03X1985150I-4650J0D01*
G01X1984950Y1885000D02*
G03X1984950I-4450J0D01*
G01X1973050Y1848400D02*
G03X1973050I-2550J0D01*
G01Y1854500D02*
G03X1973050I-2550J0D01*
G01X1956150Y1875000D02*
G03X1956150I-4650J0D01*
G01X1955950Y1885000D02*
G03X1955950I-4450J0D01*
G01X1957350Y1820800D02*
G03X1957350I-2350J0D01*
G01X1955950Y1835000D02*
G03X1955950I-4450J0D01*
G01Y1845000D02*
G03X1955950I-4450J0D01*
G01Y1855000D02*
G03X1955950I-4450J0D01*
G01X1984950Y1835000D02*
G03X1984950I-4450J0D01*
G01Y1845000D02*
G03X1984950I-4450J0D01*
G01Y1855000D02*
G03X1984950I-4450J0D01*
G01X2013950Y1835000D02*
G03X2013950I-4450J0D01*
G01Y1845000D02*
G03X2013950I-4450J0D01*
G01Y1855000D02*
G03X2013950I-4450J0D01*
G01X2042950Y1835000D02*
G03X2042950I-4450J0D01*
G01Y1845000D02*
G03X2042950I-4450J0D01*
G01Y1855000D02*
G03X2042950I-4450J0D01*
G01X2052650Y1652300D02*
G03X2052650I-2350J0D01*
G01X2050750Y1661800D02*
G03X2050750I-2350J0D01*
G01X2110750Y1919749D02*
Y1920936D01*
X2110158Y1923250D02*
G03X2110750Y1920936I3842J-250D01*
G01X2110158Y1923250D02*
X1937950D01*
Y1816450*
X2006650*
Y1700937*
Y1696063D02*
G03Y1700937I750J2437D01*
G01Y1696063D02*
Y1690050D01*
Y1684950D02*
G03Y1690050I50J2550D01*
G01Y1684950D02*
Y1665262D01*
X2006813Y1665099*
X2008749Y1660950D02*
G03X2006813Y1665099I-1449J1850D01*
G01X2006650Y1656842D02*
G03X2008749Y1660950I650J2258D01*
G01X2006650Y1656842D02*
Y1654870D01*
X2006688Y1654832*
X2006650Y1650163D02*
G03X2006688Y1654832I-250J2337D01*
G01X2006650Y1650163D02*
Y1645485D01*
Y1640915D02*
G03Y1645485I-550J2285D01*
G01Y1640915D02*
Y1587766D01*
X2022526Y1571890*
X2023624Y1567450D02*
G03X2022526Y1571890I-24J2350D01*
G01X2023624Y1567450D02*
X2031378Y1559734D01*
X2029477Y1555701D02*
G03X2031378Y1559734I1623J1699D01*
G01X2028992Y1555071D02*
G03X2029477Y1555701I-1592J1729D01*
G01X2027849Y1551850D02*
G03X2028992Y1555071I-949J2150D01*
G01X2023507Y1550186D02*
G03X2027849Y1551850I2293J514D01*
G01X2023507Y1550186D02*
X2022428Y1551068D01*
X2021750Y1552500D02*
G03X2022428Y1551068I1850J0D01*
G01X2021750Y1552500D02*
Y1552910D01*
X2019950Y1552615D02*
G03X2021750Y1552910I550J2285D01*
G01X2017847Y1554937D02*
G03X2019950Y1552615I-247J-2337D01*
G01X2017847Y1554937D02*
X2012612Y1560171D01*
X2012650Y1559800D02*
G03X2012612Y1560171I-1850J0D01*
G01X2012650Y1559800D02*
Y1548424D01*
X2013150Y1544309D02*
G03X2012650Y1548424I850J2191D01*
G01X2011347Y1542015D02*
G03X2013150Y1544309I-547J2285D01*
G01X2010221Y1539892D02*
G03X2011347Y1542015I-1221J2008D01*
G01X2010221Y1539892D02*
X2017991Y1532325D01*
X2018550Y1531000D02*
G03X2017991Y1532325I-1850J0D01*
G01X2018550Y1531000D02*
Y1516450D01*
X2043250*
Y1499450*
X2055750*
Y1456950*
X2100751*
X2105049D02*
G03X2100751I-2149J950D01*
G01X2105049D02*
X2110750D01*
Y1590936*
Y1595064D02*
G03Y1590936I3250J-2064D01*
G01Y1595064D02*
Y1596251D01*
Y1599749D02*
G03Y1596251I2250J-1749D01*
G01Y1599749D02*
Y1600251D01*
Y1603749D02*
G03Y1600251I2250J-1749D01*
G01Y1603749D02*
Y1604936D01*
Y1609064D02*
G03Y1604936I3250J-2064D01*
G01Y1609064D02*
Y1753436D01*
Y1757564D02*
G03Y1753436I3250J-2064D01*
G01Y1757564D02*
Y1758751D01*
Y1762249D02*
G03Y1758751I2250J-1749D01*
G01Y1762249D02*
Y1762751D01*
Y1766249D02*
G03Y1762751I2250J-1749D01*
G01Y1766249D02*
Y1767436D01*
Y1771564D02*
G03Y1767436I3250J-2064D01*
G01Y1771564D02*
Y1906936D01*
Y1911064D02*
G03Y1906936I3250J-2064D01*
G01Y1911064D02*
Y1912251D01*
Y1915749D02*
G03Y1912251I2250J-1749D01*
G01Y1915749D02*
Y1916251D01*
Y1919749D02*
G03Y1916251I2250J-1749D01*
G01X2105184Y1564800D02*
G03X2105184I-2350J0D01*
G01X2103908Y1577502D02*
G03X2100292I-1808J1798D01*
G01X2103866Y1574450D02*
G03X2103908Y1577502I-1766J1550D01*
G01X2104033Y1571563D02*
G03X2103866Y1574450I-1933J1337D01*
G01X2100167Y1571563D02*
G03X2104033I1933J-1663D01*
G01X2100334Y1574450D02*
G03X2100167Y1571563I1766J-1550D01*
G01X2100292Y1577502D02*
G03X2100334Y1574450I1808J-1502D01*
G01X2104650Y1588800D02*
G03X2104650I-2550J0D01*
G01X2104195Y1605565D02*
G03X2104231Y1609810I-1395J2135D01*
G01X2103866Y1602950D02*
G03X2104195Y1605565I-1766J1550D01*
G01X2103952Y1599953D02*
G03X2103866Y1602950I-1852J1447D01*
G01X2100248Y1599953D02*
G03X2103952I1852J-1753D01*
G01X2100334Y1602950D02*
G03X2100248Y1599953I1766J-1550D01*
G01X2100641Y1606343D02*
G03X2100334Y1602950I1459J-1843D01*
G01X2100601Y1608990D02*
G03X2100641Y1606343I2199J-1290D01*
G01X2100427Y1612450D02*
G03X2100601Y1608990I1673J-1650D01*
G01X2100167Y1615437D02*
G03X2100427Y1612450I1933J-1337D01*
G01X2104033Y1615437D02*
G03X2100167I-1933J1663D01*
G01X2103773Y1612450D02*
G03X2104033Y1615437I-1673J1650D01*
G01X2104231Y1609810D02*
G03X2103773Y1612450I-2131J990D01*
G01X2100167Y1628163D02*
G03X2104033I1933J-1663D01*
G01X2100427Y1631150D02*
G03X2100167Y1628163I1673J-1650D01*
G01X2103773Y1631150D02*
G03X2100427I-1673J1650D01*
G01X2104033Y1628163D02*
G03X2103773Y1631150I-1933J1337D01*
G01X2104231Y1655890D02*
G03X2100601Y1656710I-1431J2110D01*
G01X2103866Y1653350D02*
G03X2104231Y1655890I-1766J1550D01*
G01X2104195Y1650735D02*
G03X2103866Y1653350I-2095J1065D01*
G01X2104195Y1646465D02*
G03Y1650735I-1395J2135D01*
G01X2103909Y1643900D02*
G03X2104195Y1646465I-1809J1500D01*
G01X2100291Y1643900D02*
G03X2103909I1809J-1500D01*
G01X2100641Y1647243D02*
G03X2100291Y1643900I1459J-1843D01*
G01X2100641Y1649957D02*
G03Y1647243I2159J-1357D01*
G01X2100334Y1653350D02*
G03X2100641Y1649957I1766J-1550D01*
G01X2100601Y1656710D02*
G03X2100334Y1653350I1499J-1810D01*
G01X2104195Y1687465D02*
G03X2100641Y1688243I-1395J2135D01*
G01X2103773Y1684750D02*
G03X2104195Y1687465I-1673J1650D01*
G01X2104231Y1682110D02*
G03X2103773Y1684750I-2131J990D01*
G01X2104231Y1677890D02*
G03Y1682110I-1431J2110D01*
G01X2103866Y1675350D02*
G03X2104231Y1677890I-1766J1550D01*
G01X2100334Y1675350D02*
G03X2103866I1766J-1550D01*
G01X2100601Y1678710D02*
G03X2100334Y1675350I1499J-1810D01*
G01X2100601Y1681290D02*
G03Y1678710I2199J-1290D01*
G01X2100427Y1684750D02*
G03X2100601Y1681290I1673J-1650D01*
G01X2100641Y1688243D02*
G03X2100427Y1684750I1459J-1843D01*
G01X2088866Y1478937D02*
G03X2086534I-1166J3937D01*
G01X2088866Y1471063D02*
G03Y1478937I-1166J3937D01*
G01X2086534Y1471063D02*
G03X2088866I1166J-3937D01*
G01X2086534Y1478937D02*
G03Y1471063I1166J-3937D01*
G01X2090425Y1537992D02*
G03X2090425I-2925J0D01*
G01X2089950Y1547100D02*
G03X2089950I-2550J0D01*
G01X2090050Y1563500D02*
G03X2090050I-2550J0D01*
G01X2090125Y1639175D02*
G03X2090125I-2550J0D01*
G01X2090150Y1670900D02*
G03X2090150I-2550J0D01*
G01X2089550Y1699000D02*
G03X2089550I-2550J0D01*
G01X2091212Y1712008D02*
G03X2091212I-3712J0D01*
G01X2072050Y1666700D02*
G03X2072050I-2350J0D01*
G01X2088866Y1743937D02*
G03X2084034Y1749724I-1166J3937D01*
G01X2088866Y1736063D02*
G03Y1743937I-1166J3937D01*
G01X2086534Y1736063D02*
G03X2088866I1166J-3937D01*
G01X2086534Y1743937D02*
G03Y1736063I1166J-3937D01*
G01X2084034Y1746024D02*
G03X2086534Y1743937I3666J1850D01*
G01X2084034Y1746024D02*
X2072466D01*
X2069650Y1743208*
Y1701790*
Y1696810D02*
G03Y1701790I550J2490D01*
G01Y1696810D02*
Y1683500D01*
X2069108Y1682192D02*
G03X2069650Y1683500I-1308J1308D01*
G01X2069108Y1682192D02*
X2067833Y1680917D01*
X2063950Y1679434D02*
G03X2067833Y1680917I1550J1766D01*
G01X2063950Y1679434D02*
Y1671049D01*
Y1667351D02*
G03Y1671049I1450J1849D01*
G01Y1667351D02*
Y1571966D01*
X2069983Y1565933*
X2067367Y1563317D02*
G03X2069983Y1565933I2333J283D01*
G01X2067367Y1563317D02*
X2060792Y1569892D01*
X2060250Y1571200D02*
G03X2060792Y1569892I1850J0D01*
G01X2060250Y1571200D02*
Y1671386D01*
X2057301Y1669128D02*
G03X2060250Y1671386I599J2272D01*
G01X2057301Y1669128D02*
Y1509415D01*
X2061966Y1504750*
X2084542*
X2086534Y1506063D02*
G03X2084542Y1504750I1166J-3937D01*
G01X2086534Y1513937D02*
G03Y1506063I1166J-3937D01*
G01X2088866Y1513937D02*
G03X2086534I-1166J3937D01*
G01X2088866Y1506063D02*
G03Y1513937I-1166J3937D01*
G01X2083738Y1501050D02*
G03X2088866Y1506063I3962J1076D01*
G01X2083738Y1501050D02*
X2061200D01*
X2059892Y1501592D02*
G03X2061200Y1501050I1308J1308D01*
G01X2059892Y1501592D02*
X2054143Y1507341D01*
X2053601Y1508649D02*
G03X2054143Y1507341I1850J-0D01*
G01X2053601Y1508649D02*
Y1567784D01*
X2051350Y1571549D02*
G03X2053601Y1567784I1850J-1449D01*
G01X2051350Y1571549D02*
Y1574834D01*
X2044734Y1581450*
X2023449*
X2023683Y1577500D02*
G03X2023449Y1581450I-1383J1900D01*
G01X2020917Y1577500D02*
G03X2023683I1383J-1900D01*
G01X2021151Y1581450D02*
G03X2020917Y1577500I1149J-2050D01*
G01X2021151Y1581450D02*
X2018600D01*
X2017292Y1581992D02*
G03X2018600Y1581450I1308J1308D01*
G01X2017292Y1581992D02*
X2014234Y1585050D01*
X2012500*
X2010650Y1586900D02*
G03X2012500Y1585050I1850J0D01*
G01X2010650Y1586900D02*
Y1820734D01*
X2009334Y1822050*
X1969100*
X1967792Y1822592D02*
G03X1969100Y1822050I1308J1308D01*
G01X1967792Y1822592D02*
X1963792Y1826592D01*
X1963250Y1827900D02*
G03X1963792Y1826592I1850J0D01*
G01X1963250Y1827900D02*
Y1860534D01*
X1960834Y1862950*
X1955450*
X1955633Y1866650D02*
G03X1955450Y1862950I-4133J-1650D01*
G01X1955633Y1866650D02*
X1961600D01*
X1962908Y1866108D02*
G03X1961600Y1866650I-1308J-1308D01*
G01X1962908Y1866108D02*
X1966408Y1862608D01*
X1966950Y1861300D02*
G03X1966408Y1862608I-1850J0D01*
G01X1966950Y1861300D02*
Y1828666D01*
X1969866Y1825750*
X2010100*
X2011408Y1825208D02*
G03X2010100Y1825750I-1308J-1308D01*
G01X2011408Y1825208D02*
X2013808Y1822808D01*
X2014350Y1821500D02*
G03X2013808Y1822808I-1850J0D01*
G01X2014350Y1821500D02*
Y1588750D01*
X2015000*
X2016308Y1588208D02*
G03X2015000Y1588750I-1308J-1308D01*
G01X2016308Y1588208D02*
X2019366Y1585150D01*
X2021993*
X2022530Y1587146D02*
G03X2021993Y1585150I1770J-1546D01*
G01X2025970Y1587254D02*
G03X2022530Y1587146I-1770J1546D01*
G01X2026607Y1585150D02*
G03X2025970Y1587254I-2307J450D01*
G01X2026607Y1585150D02*
X2045500D01*
X2046808Y1584608D02*
G03X2045500Y1585150I-1308J-1308D01*
G01X2046808Y1584608D02*
X2047625Y1583791D01*
X2050491Y1580925D02*
G03X2047625Y1583791I-591J2275D01*
G01X2050491Y1580925D02*
X2053601Y1577815D01*
Y1636700*
Y1641700D02*
G03Y1636700I-501J-2500D01*
G01Y1641700D02*
Y1681983D01*
X2051517Y1684067*
X2050178Y1688101D02*
G03X2051517Y1684067I1622J-1701D01*
G01X2053522Y1687999D02*
G03X2050178Y1688101I-1622J1701D01*
G01X2054133Y1686683D02*
G03X2053522Y1687999I-2333J-283D01*
G01X2054133Y1686683D02*
X2056759Y1684057D01*
X2057301Y1682749D02*
G03X2056759Y1684057I-1850J-0D01*
G01X2057301Y1682749D02*
Y1673672D01*
X2060250Y1671414D02*
G03X2057301Y1673672I-2350J-14D01*
G01X2060250Y1671414D02*
Y1756989D01*
X2063950Y1756732D02*
G03X2060250Y1756989I-1750J1568D01*
G01X2063950Y1756732D02*
Y1682966D01*
X2065217Y1683533D02*
G03X2063950Y1682966I283J-2333D01*
G01X2065217Y1683533D02*
X2065950Y1684266D01*
Y1743974*
X2066492Y1745282D02*
G03X2065950Y1743974I1308J-1308D01*
G01X2066492Y1745282D02*
X2070392Y1749182D01*
X2071700Y1749724D02*
G03X2070392Y1749182I0J-1850D01*
G01X2071700Y1749724D02*
X2084034D01*
X2088866Y1778937D02*
G03X2086534I-1166J3937D01*
G01X2088866Y1771063D02*
G03Y1778937I-1166J3937D01*
G01X2086534Y1771063D02*
G03X2088866I1166J-3937D01*
G01X2086534Y1778937D02*
G03Y1771063I1166J-3937D01*
G01X2108050Y1809900D02*
G03X2108050I-10550J0D01*
G01X2100950Y1835000D02*
G03X2100950I-4450J0D01*
G01Y1845000D02*
G03X2100950I-4450J0D01*
G01Y1855000D02*
G03X2100950I-4450J0D01*
G01X2092453Y1863150D02*
G03Y1866850I4047J1850D01*
G01Y1863150D02*
X2082866D01*
X2081450Y1861734*
Y1822800*
X2080908Y1821492D02*
G03X2081450Y1822800I-1308J1308D01*
G01X2080908Y1821492D02*
X2078408Y1818992D01*
X2077100Y1818450D02*
G03X2078408Y1818992I0J1850D01*
G01X2077100Y1818450D02*
X2035866D01*
X2034350Y1816934*
Y1693566*
X2036608Y1691308*
X2037148Y1690084D02*
G03X2036608Y1691308I-1848J-84D01*
G01X2039132Y1685936D02*
G03X2037148Y1690084I-1432J1864D01*
G01X2037150Y1681742D02*
G03X2039132Y1685936I650J2258D01*
G01X2037150Y1681742D02*
Y1671485D01*
Y1666915D02*
G03Y1671485I550J2285D01*
G01Y1666915D02*
Y1663166D01*
X2045883Y1654433*
X2043267Y1651817D02*
G03X2045883Y1654433I2333J283D01*
G01X2043267Y1651817D02*
X2036353Y1658731D01*
X2035260Y1657356D02*
G03X2036353Y1658731I-1160J2044D01*
G01X2035260Y1657356D02*
X2042408Y1650208D01*
X2042950Y1648900D02*
G03X2042408Y1650208I-1850J0D01*
G01X2042950Y1648900D02*
Y1601800D01*
X2042408Y1600492D02*
G03X2042950Y1601800I-1308J1308D01*
G01X2042408Y1600492D02*
X2035608Y1593692D01*
X2034300Y1593150D02*
G03X2035608Y1593692I0J1850D01*
G01X2034300Y1593150D02*
X2025749D01*
Y1596850D02*
G03Y1593150I-1449J-1850D01*
G01Y1596850D02*
X2030127D01*
X2033473D02*
G03X2030127I-1673J1650D01*
G01X2033473D02*
X2033534D01*
X2039250Y1602566*
Y1643376*
X2036451Y1643450D02*
G03X2039250Y1643376I1449J1850D01*
G01X2036451Y1643450D02*
X2036300D01*
X2034978Y1644006D02*
G03X2036300Y1643450I1322J1294D01*
G01X2034978Y1644006D02*
X2025978Y1653206D01*
X2025954Y1653231D02*
G03X2025978Y1653206I1346J1269D01*
G01X2022650Y1653227D02*
G03X2025954Y1653231I1650J1673D01*
G01X2022650Y1653227D02*
Y1628366D01*
X2025970Y1625054D02*
G03X2022650Y1628366I-1770J1546D01*
G01X2022851Y1621550D02*
G03X2025970Y1625054I1449J1850D01*
G01X2022851Y1621550D02*
X2022600D01*
X2021292Y1622092D02*
G03X2022600Y1621550I1308J1308D01*
G01X2021292Y1622092D02*
X2019492Y1623892D01*
X2018950Y1625200D02*
G03X2019492Y1623892I1850J0D01*
G01X2018950Y1625200D02*
Y1860634D01*
X2016434Y1863150*
X2013547*
Y1866850D02*
G03Y1863150I-4047J-1850D01*
G01Y1866850D02*
X2017200D01*
X2018508Y1866308D02*
G03X2017200Y1866850I-1308J-1308D01*
G01X2018508Y1866308D02*
X2022108Y1862708D01*
X2022650Y1861400D02*
G03X2022108Y1862708I-1850J0D01*
G01X2022650Y1861400D02*
Y1665249D01*
X2025450Y1666558D02*
G03X2022650Y1665249I-650J-2258D01*
G01X2025450Y1666558D02*
Y1682734D01*
X2023292Y1684892*
X2022750Y1686200D02*
G03X2023292Y1684892I1850J0D01*
G01X2022750Y1686200D02*
Y1824600D01*
X2023292Y1825908D02*
G03X2022750Y1824600I1308J-1308D01*
G01X2023292Y1825908D02*
X2026892Y1829508D01*
X2028200Y1830050D02*
G03X2026892Y1829508I0J-1850D01*
G01X2028200Y1830050D02*
X2047634D01*
X2048350Y1830766*
Y1862534*
X2047634Y1863250*
X2042591*
X2042500Y1866950D02*
G03X2042591Y1863250I-4000J-1950D01*
G01X2042500Y1866950D02*
X2048400D01*
X2049708Y1866408D02*
G03X2048400Y1866950I-1308J-1308D01*
G01X2049708Y1866408D02*
X2051508Y1864608D01*
X2052050Y1863300D02*
G03X2051508Y1864608I-1850J0D01*
G01X2052050Y1863300D02*
Y1830000D01*
X2051508Y1828692D02*
G03X2052050Y1830000I-1308J1308D01*
G01X2051508Y1828692D02*
X2049708Y1826892D01*
X2048400Y1826350D02*
G03X2049708Y1826892I0J1850D01*
G01X2048400Y1826350D02*
X2028966D01*
X2026450Y1823834*
Y1686966*
X2028608Y1684808*
X2029150Y1683500D02*
G03X2028608Y1684808I-1850J0D01*
G01X2029150Y1683500D02*
Y1655254D01*
X2035559Y1648703*
X2036805Y1650579D02*
G03X2035559Y1648703I1095J-2079D01*
G01X2036805Y1650579D02*
X2030092Y1657292D01*
X2029550Y1658600D02*
G03X2030092Y1657292I1850J0D01*
G01X2029550Y1658600D02*
Y1686834D01*
X2027292Y1689092*
X2026750Y1690400D02*
G03X2027292Y1689092I1850J0D01*
G01X2026750Y1690400D02*
Y1820500D01*
X2027292Y1821808D02*
G03X2026750Y1820500I1308J-1308D01*
G01X2027292Y1821808D02*
X2030892Y1825408D01*
X2032200Y1825950D02*
G03X2030892Y1825408I0J-1850D01*
G01X2032200Y1825950D02*
X2051534D01*
X2052150Y1826566*
Y1863000*
X2052692Y1864308D02*
G03X2052150Y1863000I1308J-1308D01*
G01X2052692Y1864308D02*
X2054692Y1866308D01*
X2056000Y1866850D02*
G03X2054692Y1866308I0J-1850D01*
G01X2056000Y1866850D02*
X2063453D01*
Y1863150D02*
G03Y1866850I4047J1850D01*
G01Y1863150D02*
X2056766D01*
X2055850Y1862234*
Y1825800*
X2055308Y1824492D02*
G03X2055850Y1825800I-1308J1308D01*
G01X2055308Y1824492D02*
X2053608Y1822792D01*
X2052300Y1822250D02*
G03X2053608Y1822792I0J1850D01*
G01X2052300Y1822250D02*
X2032966D01*
X2030450Y1819734*
Y1691166*
X2032708Y1688908*
X2033250Y1687600D02*
G03X2032708Y1688908I-1850J0D01*
G01X2033250Y1687600D02*
Y1661591D01*
X2033590Y1661694D02*
G03X2033250Y1661591I510J-2294D01*
G01X2033450Y1662400D02*
G03X2033590Y1661694I1850J0D01*
G01X2033450Y1662400D02*
Y1689234D01*
X2031192Y1691492*
X2030650Y1692800D02*
G03X2031192Y1691492I1850J0D01*
G01X2030650Y1692800D02*
Y1817700D01*
X2031192Y1819008D02*
G03X2030650Y1817700I1308J-1308D01*
G01X2031192Y1819008D02*
X2033792Y1821608D01*
X2035100Y1822150D02*
G03X2033792Y1821608I0J-1850D01*
G01X2035100Y1822150D02*
X2076334D01*
X2077750Y1823566*
Y1862500*
X2078292Y1863808D02*
G03X2077750Y1862500I1308J-1308D01*
G01X2078292Y1863808D02*
X2080792Y1866308D01*
X2082100Y1866850D02*
G03X2080792Y1866308I0J-1850D01*
G01X2082100Y1866850D02*
X2092453D01*
X2101150Y1875000D02*
G03X2101150I-4650J0D01*
G01X2100950Y1885000D02*
G03X2100950I-4450J0D01*
G01X2108050Y1907500D02*
G03X2108050I-10550J0D01*
G01X2071950Y1835000D02*
G03X2071950I-4450J0D01*
G01Y1845000D02*
G03X2071950I-4450J0D01*
G01Y1855000D02*
G03X2071950I-4450J0D01*
G01X2072150Y1875000D02*
G03X2072150I-4650J0D01*
G01X2071950Y1885000D02*
G03X2071950I-4450J0D01*
G01Y1902500D02*
G03X2071950I-4450J0D01*
G01X2072150Y1912500D02*
G03X2072150I-4650J0D01*
G01X2043150Y1875000D02*
G03X2043150I-4650J0D01*
G01X2042950Y1885000D02*
G03X2042950I-4450J0D01*
G01Y1902500D02*
G03X2042950I-4450J0D01*
G01X2043150Y1912500D02*
G03X2043150I-4650J0D01*
G01X2023550D02*
G03X2023550I-2350J0D01*
G01X2014150Y1875000D02*
G03X2014150I-4650J0D01*
G01X2013950Y1885000D02*
G03X2013950I-4450J0D01*
G01X2012750Y1902600D02*
G03X2012750I-2550J0D01*
G01X2012250Y1912500D02*
G03X2012250I-2550J0D01*
G01X1996550Y1869900D02*
G03X1996550I-2550J0D01*
G01X1985150Y1875000D02*
G03X1985150I-4650J0D01*
G01X1984950Y1885000D02*
G03X1984950I-4450J0D01*
G01X1973050Y1848400D02*
G03X1973050I-2550J0D01*
G01Y1854500D02*
G03X1973050I-2550J0D01*
G01X1956150Y1875000D02*
G03X1956150I-4650J0D01*
G01X1955950Y1885000D02*
G03X1955950I-4450J0D01*
G01X1997750Y1914000D02*
Y1902500D01*
X1997000Y1901750D02*
G03X1997750Y1902500I0J750D01*
G01X1997000Y1901750D02*
X1953500D01*
X1952750Y1902500D02*
G03X1953500Y1901750I750J0D01*
G01X1952750Y1902500D02*
Y1914000D01*
X1953500Y1914750D02*
G03X1952750Y1914000I0J-750D01*
G01X1953500Y1914750D02*
X1997000D01*
X1997750Y1914000D02*
G03X1997000Y1914750I-750J0D01*
G01X1957350Y1820800D02*
G03X1957350I-2350J0D01*
G01X1955950Y1835000D02*
G03X1955950I-4450J0D01*
G01Y1845000D02*
G03X1955950I-4450J0D01*
G01Y1855000D02*
G03X1955950I-4450J0D01*
G01X1984950Y1835000D02*
G03X1984950I-4450J0D01*
G01Y1845000D02*
G03X1984950I-4450J0D01*
G01Y1855000D02*
G03X1984950I-4450J0D01*
G01X2013950Y1835000D02*
G03X2013950I-4450J0D01*
G01Y1845000D02*
G03X2013950I-4450J0D01*
G01Y1855000D02*
G03X2013950I-4450J0D01*
G01X2033041Y1634225D02*
G03X2029559Y1634675I-1541J1775D01*
X2033041Y1634225I1541J-1775*
G01X2025511Y1605534D02*
G03X2022489Y1606666I-911J2166D01*
G01X2025680Y1603932D02*
G03X2025511Y1605534I-2280J568D01*
G01X2024636Y1599554D02*
G03X2025680Y1603932I-136J2346D01*
G01X2022164Y1601646D02*
G03X2024636Y1599554I136J-2346D01*
G01X2022220Y1602468D02*
G03X2022164Y1601646I2280J-568D01*
G01X2022489Y1606666D02*
G03X2022220Y1602468I911J-2166D01*
G01X2022851Y1612050D02*
G03X2025970Y1615554I1449J1850D01*
G01X2022851Y1612050D02*
X2018700D01*
X2017392Y1612592D02*
G03X2018700Y1612050I1308J1308D01*
G01X2017392Y1612592D02*
X2015492Y1614492D01*
X2014950Y1615800D02*
G03X2015492Y1614492I1850J0D01*
G01X2014950Y1615800D02*
Y1823734D01*
X2012334Y1826350*
X1996400*
X1995092Y1826892D02*
G03X1996400Y1826350I1308J1308D01*
G01X1995092Y1826892D02*
X1993892Y1828092D01*
X1993350Y1829400D02*
G03X1993892Y1828092I1850J0D01*
G01X1993350Y1829400D02*
Y1861034D01*
X1991234Y1863150*
X1984547*
Y1866850D02*
G03Y1863150I-4047J-1850D01*
G01Y1866850D02*
X1992000D01*
X1993308Y1866308D02*
G03X1992000Y1866850I-1308J-1308D01*
G01X1993308Y1866308D02*
X1996508Y1863108D01*
X1997050Y1861800D02*
G03X1996508Y1863108I-1850J0D01*
G01X1997050Y1861800D02*
Y1830166D01*
X1997166Y1830050*
X2013100*
X2014408Y1829508D02*
G03X2013100Y1830050I-1308J-1308D01*
G01X2014408Y1829508D02*
X2018108Y1825808D01*
X2018650Y1824500D02*
G03X2018108Y1825808I-1850J0D01*
G01X2018650Y1824500D02*
Y1616566D01*
X2019466Y1615750*
X2022276*
X2025970Y1615554D02*
G03X2022276Y1615750I-1770J1546D01*
G01X2042950Y1835000D02*
G03X2042950I-4450J0D01*
G01Y1845000D02*
G03X2042950I-4450J0D01*
G01Y1855000D02*
G03X2042950I-4450J0D01*
G01X2052650Y1652300D02*
G03X2052650I-2350J0D01*
G01X2050750Y1661800D02*
G03X2050750I-2350J0D01*
G01X1937950Y1919999D02*
X2110750D01*
X2103818Y1915949D02*
X2110750D01*
X2107089Y1911899D02*
X2110750D01*
X2108002Y1906499D02*
X2110750D01*
X2107785Y1905149D02*
X2110750D01*
X2107379Y1903799D02*
X2110750D01*
X2106762Y1902449D02*
X2110750D01*
X2105886Y1901099D02*
X2110750D01*
X2104657Y1899749D02*
X2110750D01*
X2102836Y1898399D02*
X2110750D01*
X2098940Y1897049D02*
X2110750D01*
X1937950Y1895699D02*
X2110750D01*
X1937950Y1894349D02*
X2110750D01*
X1937950Y1892999D02*
X2110750D01*
X1937950Y1891649D02*
X2110750D01*
X1937950Y1890299D02*
X2110750D01*
X2098552Y1888949D02*
X2110750D01*
X2100112Y1887599D02*
X2110750D01*
X2100771Y1886249D02*
X2110750D01*
X2100949Y1884899D02*
X2110750D01*
X2100707Y1883549D02*
X2110750D01*
X2099958Y1882199D02*
X2110750D01*
X2098103Y1880849D02*
X2110750D01*
X2097677Y1879499D02*
X2110750D01*
X2099922Y1878149D02*
X2110750D01*
X2100788Y1876799D02*
X2110750D01*
X2101128Y1875449D02*
X2110750D01*
X2101062Y1874099D02*
X2110750D01*
X2100569Y1872749D02*
X2110750D01*
X2099442Y1871399D02*
X2110750D01*
X1996546Y1870049D02*
X2110750D01*
X2098974Y1868699D02*
X2110750D01*
X2100280Y1867349D02*
X2110750D01*
X2100837Y1865999D02*
X2110750D01*
X2100936Y1864649D02*
X2110750D01*
X2100612Y1863299D02*
X2110750D01*
X2099739Y1861949D02*
X2110750D01*
X2097157Y1860599D02*
X2110750D01*
X2097823Y1859249D02*
X2110750D01*
X2099876Y1857899D02*
X2110750D01*
X2100672Y1856549D02*
X2110750D01*
X2100946Y1855199D02*
X2110750D01*
X2100799Y1853849D02*
X2110750D01*
X2100181Y1852499D02*
X2110750D01*
X2098729Y1851149D02*
X2110750D01*
X2081450Y1849799D02*
X2110750D01*
X2099312Y1848449D02*
X2110750D01*
X2100424Y1847099D02*
X2110750D01*
X2100887Y1845749D02*
X2110750D01*
X2100909Y1844399D02*
X2110750D01*
X2100499Y1843049D02*
X2110750D01*
X2099484Y1841699D02*
X2110750D01*
X2081450Y1840349D02*
X2110750D01*
X2098453Y1838999D02*
X2110750D01*
X2100076Y1837649D02*
X2110750D01*
X2100756Y1836299D02*
X2110750D01*
X2100950Y1834949D02*
X2110750D01*
X2100724Y1833599D02*
X2110750D01*
X2099998Y1832249D02*
X2110750D01*
X2098227Y1830899D02*
X2110750D01*
X2081450Y1829549D02*
X2110750D01*
X2081450Y1828199D02*
X2110750D01*
X2081450Y1826849D02*
X2110750D01*
X2081450Y1825499D02*
X2110750D01*
X2081450Y1824149D02*
X2110750D01*
X2081450Y1822799D02*
X2110750D01*
X2080865Y1821449D02*
X2110750D01*
X2100200Y1820099D02*
X2110750D01*
X2103245Y1818749D02*
X2110750D01*
X2104921Y1817399D02*
X2110750D01*
X2106073Y1816049D02*
X2110750D01*
X2106896Y1814699D02*
X2110750D01*
X2107470Y1813349D02*
X2110750D01*
X2107839Y1811999D02*
X2110750D01*
X2108023Y1810649D02*
X2110750D01*
X2108033Y1809299D02*
X2110750D01*
X2107868Y1807949D02*
X2110750D01*
X2107520Y1806599D02*
X2110750D01*
X2106969Y1805249D02*
X2110750D01*
X2106177Y1803899D02*
X2110750D01*
X2105067Y1802549D02*
X2110750D01*
X2103466Y1801199D02*
X2110750D01*
X2100705Y1799849D02*
X2110750D01*
X2034350Y1798499D02*
X2110750D01*
X2034350Y1797149D02*
X2110750D01*
X2034350Y1795799D02*
X2110750D01*
X2034350Y1794449D02*
X2110750D01*
X2034350Y1793099D02*
X2110750D01*
X2034350Y1791749D02*
X2110750D01*
X2034350Y1790399D02*
X2110750D01*
X2034350Y1789049D02*
X2110750D01*
X2034350Y1787699D02*
X2110750D01*
X2089888Y1786349D02*
X2110750D01*
X2091213Y1784999D02*
X2110750D01*
X2091732Y1783649D02*
X2110750D01*
X2091765Y1782299D02*
X2110750D01*
X2091327Y1780949D02*
X2110750D01*
X2090176Y1779599D02*
X2110750D01*
X2090211Y1778249D02*
X2110750D01*
X2091341Y1776899D02*
X2110750D01*
X2091769Y1775549D02*
X2110750D01*
X2091727Y1774199D02*
X2110750D01*
X2091197Y1772849D02*
X2110750D01*
X2064531Y1757999D02*
X2110750D01*
X2063950Y1752599D02*
X2110750D01*
X2090039Y1751249D02*
X2110750D01*
X2091272Y1749899D02*
X2110750D01*
X2091750Y1748549D02*
X2110750D01*
X2091750Y1747199D02*
X2110750D01*
X2091272Y1745849D02*
X2110750D01*
X2090038Y1744499D02*
X2110750D01*
X2090335Y1743149D02*
X2110750D01*
X2091391Y1741799D02*
X2110750D01*
X2091781Y1740449D02*
X2110750D01*
X2091706Y1739099D02*
X2110750D01*
X2091134Y1737749D02*
X2110750D01*
X2089672Y1736399D02*
X2110750D01*
X2090584Y1735049D02*
X2110750D01*
X2091493Y1733699D02*
X2110750D01*
X2091800Y1732349D02*
X2110750D01*
X2091648Y1730999D02*
X2110750D01*
X2090974Y1729649D02*
X2110750D01*
X2089187Y1728299D02*
X2110750D01*
X2069650Y1726949D02*
X2110750D01*
X2069650Y1725599D02*
X2110750D01*
X2069650Y1724249D02*
X2110750D01*
X2069650Y1722899D02*
X2110750D01*
X2069650Y1721549D02*
X2110750D01*
X2069650Y1720199D02*
X2110750D01*
X2069650Y1718849D02*
X2110750D01*
X2069650Y1717499D02*
X2110750D01*
X2069650Y1716149D02*
X2110750D01*
X2089948Y1714799D02*
X2110750D01*
X2090921Y1713449D02*
X2110750D01*
X2091211Y1712099D02*
X2110750D01*
X2090992Y1710749D02*
X2110750D01*
X2090141Y1709399D02*
X2110750D01*
X2069650Y1708049D02*
X2110750D01*
X2069650Y1706699D02*
X2110750D01*
X2069650Y1705349D02*
X2110750D01*
X2069650Y1703999D02*
X2110750D01*
X2069650Y1702649D02*
X2110750D01*
X2088104Y1701299D02*
X2110750D01*
X2089367Y1699949D02*
X2110750D01*
X2089518Y1698599D02*
X2110750D01*
X2088854Y1697249D02*
X2110750D01*
X2069650Y1695899D02*
X2110750D01*
X2069650Y1694549D02*
X2110750D01*
X2069650Y1693199D02*
X2110750D01*
X2104003Y1691849D02*
X2110750D01*
X2105186Y1690499D02*
X2110750D01*
X2105310Y1689149D02*
X2110750D01*
X2104605Y1687799D02*
X2110750D01*
X2104450Y1686449D02*
X2110750D01*
X2104057Y1685099D02*
X2110750D01*
X2104359Y1683749D02*
X2110750D01*
X2104343Y1682399D02*
X2110750D01*
X2105124Y1681049D02*
X2110750D01*
X2105332Y1679699D02*
X2110750D01*
X2104743Y1678349D02*
X2110750D01*
X2104448Y1676999D02*
X2110750D01*
X2104089Y1675649D02*
X2110750D01*
X2104396Y1674299D02*
X2110750D01*
X2104290Y1672949D02*
X2110750D01*
X2102923Y1671599D02*
X2110750D01*
X2090065Y1670249D02*
X2110750D01*
X2089180Y1668899D02*
X2110750D01*
X2071891Y1667549D02*
X2110750D01*
X2071996Y1666199D02*
X2110750D01*
X2071147Y1664849D02*
X2110750D01*
X2063950Y1663499D02*
X2110750D01*
X2063950Y1662149D02*
X2110750D01*
X2063950Y1660799D02*
X2110750D01*
X2104899Y1659449D02*
X2110750D01*
X2105348Y1658099D02*
X2110750D01*
X2105022Y1656749D02*
X2110750D01*
X2104396Y1655399D02*
X2110750D01*
X2104290Y1654049D02*
X2110750D01*
X2104271Y1652699D02*
X2110750D01*
X2104406Y1651349D02*
X2110750D01*
X2104932Y1649999D02*
X2110750D01*
X2105350Y1648649D02*
X2110750D01*
X2104993Y1647299D02*
X2110750D01*
X2104385Y1645949D02*
X2110750D01*
X2104309Y1644599D02*
X2110750D01*
X2104291Y1643249D02*
X2110750D01*
X2104396Y1641899D02*
X2110750D01*
X2103547Y1640549D02*
X2110750D01*
X2090124Y1639199D02*
X2110750D01*
X2089753Y1637849D02*
X2110750D01*
X2063950Y1636499D02*
X2110750D01*
X2102179Y1635149D02*
X2110750D01*
X2104227Y1633799D02*
X2110750D01*
X2104424Y1632449D02*
X2110750D01*
X2103822Y1631099D02*
X2110750D01*
X2104437Y1629749D02*
X2110750D01*
X2104176Y1628399D02*
X2110750D01*
X2104590Y1627049D02*
X2110750D01*
X2104521Y1625699D02*
X2110750D01*
X2103469Y1624349D02*
X2110750D01*
X2063950Y1622999D02*
X2110750D01*
X2063950Y1621649D02*
X2110750D01*
X2063950Y1620299D02*
X2110750D01*
X2103856Y1618949D02*
X2110750D01*
X2104601Y1617599D02*
X2110750D01*
X2104504Y1616249D02*
X2110750D01*
X2104310Y1614899D02*
X2110750D01*
X2104384Y1613549D02*
X2110750D01*
X2103988Y1612199D02*
X2110750D01*
X2104450Y1610849D02*
X2110750D01*
X2104608Y1609499D02*
X2110750D01*
X2104416Y1604099D02*
X2110750D01*
X2104023Y1600049D02*
X2110750D01*
X2103387Y1595999D02*
X2110750D01*
X2103908Y1590599D02*
X2110750D01*
X2104610Y1589249D02*
X2110750D01*
X2104485Y1587899D02*
X2110750D01*
X2103298Y1586549D02*
X2110750D01*
X2063950Y1585199D02*
X2110750D01*
X2063950Y1583849D02*
X2110750D01*
X2063950Y1582499D02*
X2110750D01*
X2103856Y1581149D02*
X2110750D01*
X2104601Y1579799D02*
X2110750D01*
X2104504Y1578449D02*
X2110750D01*
X2104177Y1577099D02*
X2110750D01*
X2104437Y1575749D02*
X2110750D01*
X2103910Y1574399D02*
X2110750D01*
X2104445Y1573049D02*
X2110750D01*
X2104120Y1571699D02*
X2110750D01*
X2104610Y1570349D02*
X2110750D01*
X2104485Y1568999D02*
X2110750D01*
X2103298Y1567649D02*
X2110750D01*
X2104644Y1566299D02*
X2110750D01*
X2105179Y1564949D02*
X2110750D01*
X2104853Y1563599D02*
X2110750D01*
X2089722Y1562249D02*
X2110750D01*
X2057301Y1560899D02*
X2110750D01*
X2057301Y1559549D02*
X2110750D01*
X2057301Y1558199D02*
X2110750D01*
X2057301Y1556849D02*
X2110750D01*
X2057301Y1555499D02*
X2110750D01*
X2057301Y1554149D02*
X2110750D01*
X2057301Y1552799D02*
X2110750D01*
X2057301Y1551449D02*
X2110750D01*
X2057301Y1550099D02*
X2110750D01*
X2089345Y1548749D02*
X2110750D01*
X2089932Y1547399D02*
X2110750D01*
X2089723Y1546049D02*
X2110750D01*
X2088258Y1544699D02*
X2110750D01*
X2057301Y1543349D02*
X2110750D01*
X2057301Y1541999D02*
X2110750D01*
X2088724Y1540649D02*
X2110750D01*
X2090117Y1539299D02*
X2110750D01*
X2090425Y1537949D02*
X2110750D01*
X2090072Y1536599D02*
X2110750D01*
X2088514Y1535249D02*
X2110750D01*
X2057301Y1533899D02*
X2110750D01*
X2057301Y1532549D02*
X2110750D01*
X2057301Y1531199D02*
X2110750D01*
X2057301Y1529849D02*
X2110750D01*
X2057301Y1528499D02*
X2110750D01*
X2057301Y1527149D02*
X2110750D01*
X2057301Y1525799D02*
X2110750D01*
X2057301Y1524449D02*
X2110750D01*
X2057301Y1523099D02*
X2110750D01*
X2089059Y1521749D02*
X2110750D01*
X2090938Y1520399D02*
X2110750D01*
X2091634Y1519049D02*
X2110750D01*
X2091802Y1517699D02*
X2110750D01*
X2091512Y1516349D02*
X2110750D01*
X2090631Y1514999D02*
X2110750D01*
X2089583Y1513649D02*
X2110750D01*
X2091102Y1512299D02*
X2110750D01*
X2091695Y1510949D02*
X2110750D01*
X2091786Y1509599D02*
X2110750D01*
X2091414Y1508249D02*
X2110750D01*
X2090391Y1506899D02*
X2110750D01*
X2089968Y1505549D02*
X2110750D01*
X2091244Y1504199D02*
X2110750D01*
X2091742Y1502849D02*
X2110750D01*
X2091758Y1501499D02*
X2110750D01*
X2091298Y1500149D02*
X2110750D01*
X2090106Y1498799D02*
X2110750D01*
X2055750Y1497449D02*
X2110750D01*
X2055750Y1496099D02*
X2110750D01*
X2055750Y1494749D02*
X2110750D01*
X2055750Y1493399D02*
X2110750D01*
X2055750Y1492049D02*
X2110750D01*
X2055750Y1490699D02*
X2110750D01*
X2055750Y1489349D02*
X2110750D01*
X2055750Y1487999D02*
X2110750D01*
X2089316Y1486649D02*
X2110750D01*
X2091014Y1485299D02*
X2110750D01*
X2091663Y1483949D02*
X2110750D01*
X2091797Y1482599D02*
X2110750D01*
X2091471Y1481249D02*
X2110750D01*
X2090529Y1479899D02*
X2110750D01*
X2089765Y1478549D02*
X2110750D01*
X2091168Y1477199D02*
X2110750D01*
X2091717Y1475849D02*
X2110750D01*
X2091775Y1474499D02*
X2110750D01*
X2091365Y1473149D02*
X2110750D01*
X2090271Y1471799D02*
X2110750D01*
X2090112Y1470449D02*
X2110750D01*
X2091301Y1469099D02*
X2110750D01*
X2091758Y1467749D02*
X2110750D01*
X2091741Y1466399D02*
X2110750D01*
X2091242Y1465049D02*
X2110750D01*
X2089961Y1463699D02*
X2110750D01*
X2055750Y1462349D02*
X2110750D01*
X2055750Y1460999D02*
X2110750D01*
X2104470Y1459649D02*
X2110750D01*
X2105216Y1458299D02*
X2110750D01*
X2091793Y1767449D02*
X2110742D01*
X2089845Y1771499D02*
X2110709D01*
X2091675Y1766099D02*
X2110641D01*
X2034350Y1762049D02*
X2110607D01*
X1937950Y1921349D02*
X2110522D01*
X2063950Y1594649D02*
X2110521D01*
X2063950Y1753949D02*
X2110476D01*
X2104250Y1605449D02*
X2110476D01*
X2107600Y1910549D02*
X2110475D01*
X2064303Y1759349D02*
X2110393D01*
X2089422Y1763399D02*
X2110371D01*
X2108044Y1907849D02*
X2110326D01*
X2063950Y1756649D02*
X2110325D01*
X2105310Y1608149D02*
X2110325D01*
X2063950Y1591949D02*
X2110296D01*
X2106346Y1913249D02*
X2110251D01*
X2104024Y1602749D02*
X2110250D01*
X2101410Y1917299D02*
X2110238D01*
X2104601Y1598699D02*
X2110237D01*
X2104504Y1597349D02*
X2110225D01*
X1937950Y1918649D02*
X2110225D01*
X2091450Y1768799D02*
X2110214D01*
X2104450Y1601399D02*
X2110214D01*
X2105305Y1914599D02*
X2110214D01*
X2090479Y1770149D02*
X2110205D01*
X1937950Y1922699D02*
X2110162D01*
X2063950Y1593299D02*
X2110162D01*
X2091048Y1764749D02*
X2110161D01*
X2034350Y1760699D02*
X2110157D01*
X2063950Y1755299D02*
X2110155D01*
X2105185Y1606799D02*
X2110155D01*
X2107912Y1909199D02*
X2110155D01*
X2063950Y1635149D02*
X2102021D01*
X2069650Y1691849D02*
X2101597D01*
X2055750Y1459649D02*
X2101330D01*
X2090052Y1671599D02*
X2101277D01*
X2069618Y1566299D02*
X2101023D01*
X2063950Y1586549D02*
X2100902D01*
X2068268Y1567649D02*
X2100902D01*
X2090048Y1563599D02*
X2100814D01*
X2063950Y1595999D02*
X2100813D01*
X2063950Y1624349D02*
X2100731D01*
X2063950Y1659449D02*
X2100701D01*
X2089723Y1640549D02*
X2100653D01*
X2063950Y1647299D02*
X2100607D01*
X2063950Y1649999D02*
X2100591D01*
X2055750Y1458299D02*
X2100584D01*
X2063950Y1656749D02*
X2100578D01*
X2089599Y1564949D02*
X2100488D01*
X2067965Y1681049D02*
X2100476D01*
X2063950Y1606799D02*
X2100415D01*
X2069650Y1690499D02*
X2100414D01*
X2063950Y1631099D02*
X2100378D01*
X2063950Y1618949D02*
X2100344D01*
X2063950Y1581149D02*
X2100344D01*
X2063950Y1590599D02*
X2100292D01*
X2069650Y1689149D02*
X2100290D01*
X2063950Y1574399D02*
X2100290D01*
X2063950Y1608149D02*
X2100290D01*
X2067308Y1679699D02*
X2100268D01*
X2063950Y1658099D02*
X2100252D01*
X2063950Y1648649D02*
X2100250D01*
X2063950Y1678349D02*
X2100250D01*
X2069650Y1687799D02*
X2100212D01*
X2063950Y1612199D02*
X2100212D01*
X2063950Y1600049D02*
X2100177D01*
X2063950Y1602749D02*
X2100176D01*
X2069650Y1685099D02*
X2100143D01*
X2063950Y1609499D02*
X2100143D01*
X2063950Y1675649D02*
X2100111D01*
X2064218Y1571699D02*
X2100080D01*
X2063950Y1628399D02*
X2100024D01*
X2063950Y1577099D02*
X2100023D01*
X2063950Y1633799D02*
X2099973D01*
X2063950Y1605449D02*
X2099950D01*
X2063950Y1652699D02*
X2099929D01*
X2089118Y1672949D02*
X2099910D01*
X2063950Y1654049D02*
X2099910D01*
X2063950Y1643249D02*
X2099909D01*
X2063950Y1644599D02*
X2099891D01*
X2063950Y1614899D02*
X2099890D01*
X2069287Y1682399D02*
X2099857D01*
X2069650Y1683749D02*
X2099841D01*
X2063950Y1613549D02*
X2099816D01*
X2063950Y1645949D02*
X2099815D01*
X2063950Y1641899D02*
X2099804D01*
X2063950Y1674299D02*
X2099804D01*
X2063950Y1655399D02*
X2099804D01*
X2063950Y1651349D02*
X2099794D01*
X2063950Y1604099D02*
X2099784D01*
X2063950Y1632449D02*
X2099776D01*
X2063950Y1575749D02*
X2099763D01*
X2063950Y1629749D02*
X2099763D01*
X2063950Y1573049D02*
X2099755D01*
X2063950Y1676999D02*
X2099752D01*
X2069650Y1686449D02*
X2099750D01*
X2063950Y1610849D02*
X2099750D01*
X2063950Y1601399D02*
X2099750D01*
X2063950Y1587899D02*
X2099715D01*
X2066918Y1568999D02*
X2099715D01*
X2063950Y1616249D02*
X2099696D01*
X2063950Y1597349D02*
X2099696D01*
X2063950Y1578449D02*
X2099696D01*
X2063950Y1625699D02*
X2099679D01*
X2063950Y1627049D02*
X2099610D01*
X2063950Y1617599D02*
X2099599D01*
X2063950Y1598699D02*
X2099599D01*
X2063950Y1579799D02*
X2099599D01*
X2063950Y1589249D02*
X2099590D01*
X2065568Y1570349D02*
X2099590D01*
X1937950Y1897049D02*
X2096060D01*
X2081450Y1860599D02*
X2095843D01*
X2068677Y1879499D02*
X2095323D01*
X2081450Y1859249D02*
X2095177D01*
X2069103Y1880849D02*
X2094897D01*
X2079515Y1820099D02*
X2094800D01*
X2081450Y1830899D02*
X2094773D01*
X2081450Y1838999D02*
X2094547D01*
X2069552Y1888949D02*
X2094448D01*
X2034350Y1799849D02*
X2094295D01*
X2081450Y1851149D02*
X2094271D01*
X2069974Y1868699D02*
X2094026D01*
X2081450Y1848449D02*
X2093688D01*
X1937950Y1917299D02*
X2093590D01*
X2070442Y1871399D02*
X2093558D01*
X2081450Y1841699D02*
X2093516D01*
X2081665Y1861949D02*
X2093261D01*
X2081450Y1857899D02*
X2093124D01*
X2070922Y1878149D02*
X2093078D01*
X2070958Y1882199D02*
X2093042D01*
X2081450Y1832249D02*
X2093002D01*
X2081450Y1837649D02*
X2092924D01*
X2071112Y1887599D02*
X2092888D01*
X2081450Y1852499D02*
X2092819D01*
X2071280Y1867349D02*
X2092720D01*
X2081450Y1847099D02*
X2092576D01*
X2081450Y1843049D02*
X2092501D01*
X2071569Y1872749D02*
X2092431D01*
X2081450Y1856549D02*
X2092328D01*
X2071707Y1883549D02*
X2092293D01*
X2081450Y1833599D02*
X2092276D01*
X2081450Y1836299D02*
X2092244D01*
X2071771Y1886249D02*
X2092229D01*
X2071788Y1876799D02*
X2092212D01*
X2081450Y1853849D02*
X2092201D01*
X2069227Y1898399D02*
X2092164D01*
X2081450Y1845749D02*
X2092113D01*
X2081450Y1844399D02*
X2092091D01*
X2081450Y1855199D02*
X2092054D01*
X2071949Y1884899D02*
X2092051D01*
X2081450Y1834949D02*
X2092050D01*
X2072062Y1874099D02*
X2091938D01*
X2072128Y1875449D02*
X2091872D01*
X2078108Y1818749D02*
X2091755D01*
X2034350Y1801199D02*
X2091534D01*
X2070619Y1915949D02*
X2091182D01*
X2070998Y1899749D02*
X2090343D01*
X2034815Y1817399D02*
X2090079D01*
X2034350Y1802549D02*
X2089933D01*
X2071649Y1914599D02*
X2089695D01*
X2071724Y1901099D02*
X2089114D01*
X2034350Y1816049D02*
X2088927D01*
X2034350Y1803899D02*
X2088823D01*
X2072089Y1913249D02*
X2088654D01*
X2071950Y1902449D02*
X2088238D01*
X2034350Y1814699D02*
X2088104D01*
X2034350Y1805249D02*
X2088031D01*
X2072111Y1911899D02*
X2087911D01*
X2071756Y1903799D02*
X2087621D01*
X2034350Y1813349D02*
X2087530D01*
X2034350Y1806599D02*
X2087480D01*
X2071721Y1910549D02*
X2087400D01*
X2071076Y1905149D02*
X2087215D01*
X2034350Y1811999D02*
X2087161D01*
X2034350Y1807949D02*
X2087132D01*
X2070775Y1909199D02*
X2087088D01*
X2069453Y1906499D02*
X2086998D01*
X2034350Y1810649D02*
X2086977D01*
X2034350Y1809299D02*
X2086967D01*
X1997750Y1907849D02*
X2086956D01*
X2057301Y1544699D02*
X2086542D01*
X2057301Y1535249D02*
X2086486D01*
X2057301Y1521749D02*
X2086341D01*
X2057301Y1540649D02*
X2086276D01*
X2069650Y1728299D02*
X2086213D01*
X2055750Y1486649D02*
X2086084D01*
X2063950Y1672949D02*
X2086082D01*
X2070530Y1668899D02*
X2086020D01*
X2034350Y1763399D02*
X2085978D01*
X2071784Y1701299D02*
X2085896D01*
X2057301Y1513649D02*
X2085817D01*
X2069650Y1736399D02*
X2085728D01*
X2055750Y1478549D02*
X2085635D01*
X2034350Y1771499D02*
X2085555D01*
X2034350Y1786349D02*
X2085512D01*
X2057301Y1548749D02*
X2085455D01*
X2055750Y1463699D02*
X2085439D01*
X2061168Y1505549D02*
X2085432D01*
X2063950Y1640549D02*
X2085426D01*
X2071624Y1564949D02*
X2085401D01*
X2063950Y1637849D02*
X2085396D01*
X2070941Y1744499D02*
X2085362D01*
X2063950Y1751249D02*
X2085361D01*
X2055750Y1498799D02*
X2085294D01*
X2055750Y1470449D02*
X2085288D01*
X2071623Y1562249D02*
X2085278D01*
X2034350Y1779599D02*
X2085224D01*
X2034350Y1778249D02*
X2085189D01*
X2063950Y1671599D02*
X2085148D01*
X2071715Y1697249D02*
X2085146D01*
X2067503Y1670249D02*
X2085135D01*
X2055750Y1471799D02*
X2085129D01*
X2057301Y1546049D02*
X2085077D01*
X2069650Y1743149D02*
X2085065D01*
X2069650Y1714799D02*
X2085052D01*
X2063950Y1639199D02*
X2085025D01*
X2059818Y1506899D02*
X2085009D01*
X2072050Y1563599D02*
X2084952D01*
X2057301Y1536599D02*
X2084928D01*
X2034350Y1770149D02*
X2084921D01*
X2057301Y1539299D02*
X2084883D01*
X2055750Y1479899D02*
X2084871D01*
X2057301Y1547399D02*
X2084868D01*
X2069650Y1709399D02*
X2084859D01*
X2069650Y1735049D02*
X2084816D01*
X2057301Y1514999D02*
X2084769D01*
X2072666Y1699949D02*
X2084633D01*
X2057301Y1537949D02*
X2084575D01*
X2072652Y1698599D02*
X2084482D01*
X2057301Y1520399D02*
X2084462D01*
X2069650Y1729649D02*
X2084426D01*
X2055750Y1485299D02*
X2084386D01*
X2034350Y1764749D02*
X2084352D01*
X2057301Y1512299D02*
X2084298D01*
X2069650Y1737749D02*
X2084266D01*
X2055750Y1477199D02*
X2084232D01*
X2034350Y1772849D02*
X2084203D01*
X2034350Y1784999D02*
X2084187D01*
X2055750Y1465049D02*
X2084158D01*
X2072291Y1745849D02*
X2084128D01*
X2063950Y1749899D02*
X2084128D01*
X2043250Y1500149D02*
X2084102D01*
X2055750Y1469099D02*
X2084099D01*
X2069650Y1713449D02*
X2084079D01*
X2034350Y1780949D02*
X2084073D01*
X2034350Y1776899D02*
X2084059D01*
X2055750Y1473149D02*
X2084035D01*
X2069650Y1741799D02*
X2084009D01*
X2069650Y1710749D02*
X2084008D01*
X2058468Y1508249D02*
X2083986D01*
X2034350Y1768799D02*
X2083950D01*
X2055750Y1481249D02*
X2083929D01*
X2069650Y1733699D02*
X2083907D01*
X2057301Y1516349D02*
X2083888D01*
X2069650Y1712099D02*
X2083789D01*
X2057301Y1519049D02*
X2083766D01*
X2069650Y1730999D02*
X2083752D01*
X2055750Y1483949D02*
X2083737D01*
X2034350Y1766099D02*
X2083725D01*
X2057301Y1510949D02*
X2083705D01*
X2069650Y1739099D02*
X2083694D01*
X2055750Y1475849D02*
X2083683D01*
X2034350Y1774199D02*
X2083673D01*
X2034350Y1783649D02*
X2083668D01*
X2055750Y1466399D02*
X2083659D01*
X2055750Y1467749D02*
X2083642D01*
X2034350Y1782299D02*
X2083635D01*
X2034350Y1775549D02*
X2083631D01*
X2055750Y1474499D02*
X2083625D01*
X2069650Y1740449D02*
X2083619D01*
X2057301Y1509599D02*
X2083614D01*
X2034350Y1767449D02*
X2083607D01*
X2055750Y1482599D02*
X2083603D01*
X2069650Y1732349D02*
X2083600D01*
X2057301Y1517699D02*
X2083598D01*
X2071837Y1865999D02*
X2080482D01*
X2071936Y1864649D02*
X2079132D01*
X2071612Y1863299D02*
X2077931D01*
X2070739Y1861949D02*
X2077750D01*
X2068157Y1860599D02*
X2077750D01*
X2068823Y1859249D02*
X2077750D01*
X2070876Y1857899D02*
X2077750D01*
X2071672Y1856549D02*
X2077750D01*
X2071946Y1855199D02*
X2077750D01*
X2071799Y1853849D02*
X2077750D01*
X2071181Y1852499D02*
X2077750D01*
X2069729Y1851149D02*
X2077750D01*
X2055850Y1849799D02*
X2077750D01*
X2070312Y1848449D02*
X2077750D01*
X2071424Y1847099D02*
X2077750D01*
X2071887Y1845749D02*
X2077750D01*
X2071909Y1844399D02*
X2077750D01*
X2071499Y1843049D02*
X2077750D01*
X2070484Y1841699D02*
X2077750D01*
X2055850Y1840349D02*
X2077750D01*
X2069453Y1838999D02*
X2077750D01*
X2071076Y1837649D02*
X2077750D01*
X2071756Y1836299D02*
X2077750D01*
X2071950Y1834949D02*
X2077750D01*
X2071724Y1833599D02*
X2077750D01*
X2070998Y1832249D02*
X2077750D01*
X2069227Y1830899D02*
X2077750D01*
X2055850Y1829549D02*
X2077750D01*
X2055850Y1828199D02*
X2077750D01*
X2055850Y1826849D02*
X2077750D01*
X2055825Y1825499D02*
X2077750D01*
X2054965Y1824149D02*
X2077750D01*
X2053615Y1822799D02*
X2076982D01*
X2063950Y1748549D02*
X2069758D01*
X2067731Y1668899D02*
X2068870D01*
X2063950Y1747199D02*
X2068408D01*
X2063950Y1664849D02*
X2068253D01*
X2057301Y1562249D02*
X2067777D01*
X2067072Y1667549D02*
X2067509D01*
X2063950Y1666199D02*
X2067404D01*
X2057301Y1563599D02*
X2067085D01*
X2063950Y1745849D02*
X2067058D01*
X2055850Y1860599D02*
X2066843D01*
X2039677Y1879499D02*
X2066323D01*
X2055850Y1859249D02*
X2066177D01*
X2063950Y1744499D02*
X2066026D01*
X2063950Y1743149D02*
X2065950D01*
X2063950Y1741799D02*
X2065950D01*
X2063950Y1740449D02*
X2065950D01*
X2063950Y1739099D02*
X2065950D01*
X2063950Y1737749D02*
X2065950D01*
X2063950Y1736399D02*
X2065950D01*
X2063950Y1735049D02*
X2065950D01*
X2063950Y1733699D02*
X2065950D01*
X2063950Y1732349D02*
X2065950D01*
X2063950Y1730999D02*
X2065950D01*
X2063950Y1729649D02*
X2065950D01*
X2063950Y1728299D02*
X2065950D01*
X2063950Y1726949D02*
X2065950D01*
X2063950Y1725599D02*
X2065950D01*
X2063950Y1724249D02*
X2065950D01*
X2063950Y1722899D02*
X2065950D01*
X2063950Y1721549D02*
X2065950D01*
X2063950Y1720199D02*
X2065950D01*
X2063950Y1718849D02*
X2065950D01*
X2063950Y1717499D02*
X2065950D01*
X2063950Y1716149D02*
X2065950D01*
X2063950Y1714799D02*
X2065950D01*
X2063950Y1713449D02*
X2065950D01*
X2063950Y1712099D02*
X2065950D01*
X2063950Y1710749D02*
X2065950D01*
X2063950Y1709399D02*
X2065950D01*
X2063950Y1708049D02*
X2065950D01*
X2063950Y1706699D02*
X2065950D01*
X2063950Y1705349D02*
X2065950D01*
X2063950Y1703999D02*
X2065950D01*
X2063950Y1702649D02*
X2065950D01*
X2063950Y1701299D02*
X2065950D01*
X2063950Y1699949D02*
X2065950D01*
X2063950Y1698599D02*
X2065950D01*
X2063950Y1697249D02*
X2065950D01*
X2063950Y1695899D02*
X2065950D01*
X2063950Y1694549D02*
X2065950D01*
X2063950Y1693199D02*
X2065950D01*
X2063950Y1691849D02*
X2065950D01*
X2063950Y1690499D02*
X2065950D01*
X2063950Y1689149D02*
X2065950D01*
X2063950Y1687799D02*
X2065950D01*
X2063950Y1686449D02*
X2065950D01*
X2063950Y1685099D02*
X2065950D01*
X2040103Y1880849D02*
X2065897D01*
X2040227Y1898399D02*
X2065773D01*
X2055850Y1830899D02*
X2065773D01*
X2057301Y1564949D02*
X2065735D01*
X2040453Y1906499D02*
X2065547D01*
X2055850Y1838999D02*
X2065547D01*
X2040552Y1888949D02*
X2065448D01*
X2063950Y1683749D02*
X2065432D01*
X2055850Y1851149D02*
X2065271D01*
X2040974Y1868699D02*
X2065026D01*
X2055850Y1848449D02*
X2064688D01*
X2041442Y1871399D02*
X2064558D01*
X2055850Y1841699D02*
X2064516D01*
X2057301Y1566299D02*
X2064385D01*
X2041619Y1915949D02*
X2064381D01*
X2055850Y1861949D02*
X2064261D01*
X2041775Y1909199D02*
X2064225D01*
X2055850Y1857899D02*
X2064124D01*
X2041922Y1878149D02*
X2064078D01*
X2041958Y1882199D02*
X2064042D01*
X2041998Y1899749D02*
X2064002D01*
X2055850Y1832249D02*
X2064002D01*
X2042076Y1905149D02*
X2063924D01*
X2055850Y1837649D02*
X2063924D01*
X2042112Y1887599D02*
X2063888D01*
X2055850Y1852499D02*
X2063819D01*
X2042280Y1867349D02*
X2063720D01*
X2055850Y1847099D02*
X2063576D01*
X2055850Y1843049D02*
X2063501D01*
X2042569Y1872749D02*
X2063431D01*
X2042649Y1914599D02*
X2063351D01*
X2055850Y1856549D02*
X2063328D01*
X2042707Y1883549D02*
X2063293D01*
X2042721Y1910549D02*
X2063279D01*
X2042724Y1901099D02*
X2063276D01*
X2055850Y1833599D02*
X2063276D01*
X2042756Y1903799D02*
X2063244D01*
X2055850Y1836299D02*
X2063244D01*
X2042771Y1886249D02*
X2063229D01*
X2042788Y1876799D02*
X2063212D01*
X2055850Y1853849D02*
X2063201D01*
X2055850Y1845749D02*
X2063113D01*
X2055850Y1844399D02*
X2063091D01*
X2055850Y1855199D02*
X2063054D01*
X2042949Y1884899D02*
X2063051D01*
X2042950Y1902449D02*
X2063050D01*
X2055850Y1834949D02*
X2063050D01*
X2057301Y1567649D02*
X2063035D01*
X2043062Y1874099D02*
X2062938D01*
X2043089Y1913249D02*
X2062911D01*
X2043111Y1911899D02*
X2062889D01*
X2043128Y1875449D02*
X2062872D01*
X2057301Y1568999D02*
X2061685D01*
X2057301Y1570349D02*
X2060457D01*
X2034350Y1756649D02*
X2060250D01*
X2034350Y1755299D02*
X2060250D01*
X2034350Y1753949D02*
X2060250D01*
X2034350Y1752599D02*
X2060250D01*
X2034350Y1751249D02*
X2060250D01*
X2034350Y1749899D02*
X2060250D01*
X2034350Y1748549D02*
X2060250D01*
X2034350Y1747199D02*
X2060250D01*
X2034350Y1745849D02*
X2060250D01*
X2034350Y1744499D02*
X2060250D01*
X2034350Y1743149D02*
X2060250D01*
X2034350Y1741799D02*
X2060250D01*
X2034350Y1740449D02*
X2060250D01*
X2034350Y1739099D02*
X2060250D01*
X2034350Y1737749D02*
X2060250D01*
X2034350Y1736399D02*
X2060250D01*
X2034350Y1735049D02*
X2060250D01*
X2034350Y1733699D02*
X2060250D01*
X2034350Y1732349D02*
X2060250D01*
X2034350Y1730999D02*
X2060250D01*
X2034350Y1729649D02*
X2060250D01*
X2034350Y1728299D02*
X2060250D01*
X2034350Y1726949D02*
X2060250D01*
X2034350Y1725599D02*
X2060250D01*
X2034350Y1724249D02*
X2060250D01*
X2034350Y1722899D02*
X2060250D01*
X2034350Y1721549D02*
X2060250D01*
X2034350Y1720199D02*
X2060250D01*
X2034350Y1718849D02*
X2060250D01*
X2034350Y1717499D02*
X2060250D01*
X2034350Y1716149D02*
X2060250D01*
X2034350Y1714799D02*
X2060250D01*
X2034350Y1713449D02*
X2060250D01*
X2034350Y1712099D02*
X2060250D01*
X2034350Y1710749D02*
X2060250D01*
X2034350Y1709399D02*
X2060250D01*
X2034350Y1708049D02*
X2060250D01*
X2034350Y1706699D02*
X2060250D01*
X2034350Y1705349D02*
X2060250D01*
X2034350Y1703999D02*
X2060250D01*
X2034350Y1702649D02*
X2060250D01*
X2034350Y1701299D02*
X2060250D01*
X2034350Y1699949D02*
X2060250D01*
X2034350Y1698599D02*
X2060250D01*
X2034350Y1697249D02*
X2060250D01*
X2034350Y1695899D02*
X2060250D01*
X2034350Y1694549D02*
X2060250D01*
X2034718Y1693199D02*
X2060250D01*
X2052852Y1691849D02*
X2060250D01*
X2054110Y1690499D02*
X2060250D01*
X2054184Y1689149D02*
X2060250D01*
X2053688Y1687799D02*
X2060250D01*
X2054368Y1686449D02*
X2060250D01*
X2055718Y1685099D02*
X2060250D01*
X2057008Y1683749D02*
X2060250D01*
X2057301Y1682399D02*
X2060250D01*
X2057301Y1681049D02*
X2060250D01*
X2057301Y1679699D02*
X2060250D01*
X2057301Y1678349D02*
X2060250D01*
X2057301Y1676999D02*
X2060250D01*
X2057301Y1675649D02*
X2060250D01*
X2057301Y1674299D02*
X2060250D01*
X2059668Y1672949D02*
X2060250D01*
X2060242Y1671599D02*
X2060250D01*
X2059949Y1670249D02*
X2060250D01*
X2057301Y1668899D02*
X2060250D01*
X2057301Y1667549D02*
X2060250D01*
X2057301Y1666199D02*
X2060250D01*
X2057301Y1664849D02*
X2060250D01*
X2057301Y1663499D02*
X2060250D01*
X2057301Y1662149D02*
X2060250D01*
X2057301Y1660799D02*
X2060250D01*
X2057301Y1659449D02*
X2060250D01*
X2057301Y1658099D02*
X2060250D01*
X2057301Y1656749D02*
X2060250D01*
X2057301Y1655399D02*
X2060250D01*
X2057301Y1654049D02*
X2060250D01*
X2057301Y1652699D02*
X2060250D01*
X2057301Y1651349D02*
X2060250D01*
X2057301Y1649999D02*
X2060250D01*
X2057301Y1648649D02*
X2060250D01*
X2057301Y1647299D02*
X2060250D01*
X2057301Y1645949D02*
X2060250D01*
X2057301Y1644599D02*
X2060250D01*
X2057301Y1643249D02*
X2060250D01*
X2057301Y1641899D02*
X2060250D01*
X2057301Y1640549D02*
X2060250D01*
X2057301Y1639199D02*
X2060250D01*
X2057301Y1637849D02*
X2060250D01*
X2057301Y1636499D02*
X2060250D01*
X2057301Y1635149D02*
X2060250D01*
X2057301Y1633799D02*
X2060250D01*
X2057301Y1632449D02*
X2060250D01*
X2057301Y1631099D02*
X2060250D01*
X2057301Y1629749D02*
X2060250D01*
X2057301Y1628399D02*
X2060250D01*
X2057301Y1627049D02*
X2060250D01*
X2057301Y1625699D02*
X2060250D01*
X2057301Y1624349D02*
X2060250D01*
X2057301Y1622999D02*
X2060250D01*
X2057301Y1621649D02*
X2060250D01*
X2057301Y1620299D02*
X2060250D01*
X2057301Y1618949D02*
X2060250D01*
X2057301Y1617599D02*
X2060250D01*
X2057301Y1616249D02*
X2060250D01*
X2057301Y1614899D02*
X2060250D01*
X2057301Y1613549D02*
X2060250D01*
X2057301Y1612199D02*
X2060250D01*
X2057301Y1610849D02*
X2060250D01*
X2057301Y1609499D02*
X2060250D01*
X2057301Y1608149D02*
X2060250D01*
X2057301Y1606799D02*
X2060250D01*
X2057301Y1605449D02*
X2060250D01*
X2057301Y1604099D02*
X2060250D01*
X2057301Y1602749D02*
X2060250D01*
X2057301Y1601399D02*
X2060250D01*
X2057301Y1600049D02*
X2060250D01*
X2057301Y1598699D02*
X2060250D01*
X2057301Y1597349D02*
X2060250D01*
X2057301Y1595999D02*
X2060250D01*
X2057301Y1594649D02*
X2060250D01*
X2057301Y1593299D02*
X2060250D01*
X2057301Y1591949D02*
X2060250D01*
X2057301Y1590599D02*
X2060250D01*
X2057301Y1589249D02*
X2060250D01*
X2057301Y1587899D02*
X2060250D01*
X2057301Y1586549D02*
X2060250D01*
X2057301Y1585199D02*
X2060250D01*
X2057301Y1583849D02*
X2060250D01*
X2057301Y1582499D02*
X2060250D01*
X2057301Y1581149D02*
X2060250D01*
X2057301Y1579799D02*
X2060250D01*
X2057301Y1578449D02*
X2060250D01*
X2057301Y1577099D02*
X2060250D01*
X2057301Y1575749D02*
X2060250D01*
X2057301Y1574399D02*
X2060250D01*
X2057301Y1573049D02*
X2060250D01*
X2057301Y1571699D02*
X2060250D01*
X2034350Y1759349D02*
X2060097D01*
X2043250Y1501499D02*
X2059992D01*
X2034350Y1757999D02*
X2059869D01*
X2043250Y1502849D02*
X2058635D01*
X2043250Y1504199D02*
X2057285D01*
X2043250Y1505549D02*
X2055935D01*
X2043250Y1506899D02*
X2054585D01*
X2050118Y1865999D02*
X2054382D01*
X2043250Y1508249D02*
X2053645D01*
X2037150Y1681049D02*
X2053601D01*
X2037150Y1679699D02*
X2053601D01*
X2037150Y1678349D02*
X2053601D01*
X2037150Y1676999D02*
X2053601D01*
X2037150Y1675649D02*
X2053601D01*
X2037150Y1674299D02*
X2053601D01*
X2037150Y1672949D02*
X2053601D01*
X2037150Y1671599D02*
X2053601D01*
X2039803Y1670249D02*
X2053601D01*
X2040031Y1668899D02*
X2053601D01*
X2039372Y1667549D02*
X2053601D01*
X2037150Y1666199D02*
X2053601D01*
X2037150Y1664849D02*
X2053601D01*
X2050024Y1663499D02*
X2053601D01*
X2050724Y1662149D02*
X2053601D01*
X2050526Y1660799D02*
X2053601D01*
X2040868Y1659449D02*
X2053601D01*
X2042218Y1658099D02*
X2053601D01*
X2043568Y1656749D02*
X2053601D01*
X2044918Y1655399D02*
X2053601D01*
X2051870Y1654049D02*
X2053601D01*
X2052616Y1652699D02*
X2053601D01*
X2052449Y1651349D02*
X2053601D01*
X2050776Y1649999D02*
X2053601D01*
X2042950Y1648649D02*
X2053601D01*
X2042950Y1647299D02*
X2053601D01*
X2042950Y1645949D02*
X2053601D01*
X2042950Y1644599D02*
X2053601D01*
X2042950Y1643249D02*
X2053601D01*
X2042950Y1641899D02*
X2053601D01*
X2042950Y1636499D02*
X2053601D01*
X2042950Y1635149D02*
X2053601D01*
X2042950Y1633799D02*
X2053601D01*
X2042950Y1632449D02*
X2053601D01*
X2042950Y1631099D02*
X2053601D01*
X2042950Y1629749D02*
X2053601D01*
X2042950Y1628399D02*
X2053601D01*
X2042950Y1627049D02*
X2053601D01*
X2042950Y1625699D02*
X2053601D01*
X2042950Y1624349D02*
X2053601D01*
X2042950Y1622999D02*
X2053601D01*
X2042950Y1621649D02*
X2053601D01*
X2042950Y1620299D02*
X2053601D01*
X2042950Y1618949D02*
X2053601D01*
X2042950Y1617599D02*
X2053601D01*
X2042950Y1616249D02*
X2053601D01*
X2042950Y1614899D02*
X2053601D01*
X2042950Y1613549D02*
X2053601D01*
X2042950Y1612199D02*
X2053601D01*
X2042950Y1610849D02*
X2053601D01*
X2042950Y1609499D02*
X2053601D01*
X2042950Y1608149D02*
X2053601D01*
X2042950Y1606799D02*
X2053601D01*
X2042950Y1605449D02*
X2053601D01*
X2042950Y1604099D02*
X2053601D01*
X2042950Y1602749D02*
X2053601D01*
X2042906Y1601399D02*
X2053601D01*
X2041965Y1600049D02*
X2053601D01*
X2040615Y1598699D02*
X2053601D01*
X2039265Y1597349D02*
X2053601D01*
X2037915Y1595999D02*
X2053601D01*
X2036565Y1594649D02*
X2053601D01*
X2035027Y1593299D02*
X2053601D01*
X2014350Y1591949D02*
X2053601D01*
X2025712Y1590599D02*
X2053601D01*
X2026507Y1589249D02*
X2053601D01*
X2026370Y1587899D02*
X2053601D01*
X2026450Y1586549D02*
X2053601D01*
X2051136Y1585199D02*
X2053601D01*
X2052159Y1583849D02*
X2053601D01*
X2052143Y1582499D02*
X2053601D01*
X2051047Y1581149D02*
X2053601D01*
X2051618Y1579799D02*
X2053601D01*
X2052968Y1578449D02*
X2053601D01*
X2024546Y1567649D02*
X2053601D01*
X2024781Y1566299D02*
X2053601D01*
X2026137Y1564949D02*
X2053601D01*
X2027494Y1563599D02*
X2053601D01*
X2028850Y1562249D02*
X2053601D01*
X2030207Y1560899D02*
X2053601D01*
X2032052Y1559549D02*
X2053601D01*
X2033310Y1558199D02*
X2053601D01*
X2033384Y1556849D02*
X2053601D01*
X2032481Y1555499D02*
X2053601D01*
X2029245Y1554149D02*
X2053601D01*
X2028920Y1552799D02*
X2053601D01*
X2028028Y1551449D02*
X2053601D01*
X2028072Y1550099D02*
X2053601D01*
X2027110Y1548749D02*
X2053601D01*
X2016171Y1547399D02*
X2053601D01*
X2016306Y1546049D02*
X2053601D01*
X2015509Y1544699D02*
X2053601D01*
X2012949Y1543349D02*
X2053601D01*
X2011348Y1541999D02*
X2053601D01*
X2010989Y1540649D02*
X2053601D01*
X2010831Y1539299D02*
X2053601D01*
X2012217Y1537949D02*
X2053601D01*
X2013603Y1536599D02*
X2053601D01*
X2014989Y1535249D02*
X2053601D01*
X2016375Y1533899D02*
X2053601D01*
X2017761Y1532549D02*
X2053601D01*
X2018539Y1531199D02*
X2053601D01*
X2018550Y1529849D02*
X2053601D01*
X2018550Y1528499D02*
X2053601D01*
X2018550Y1527149D02*
X2053601D01*
X2018550Y1525799D02*
X2053601D01*
X2018550Y1524449D02*
X2053601D01*
X2018550Y1523099D02*
X2053601D01*
X2018550Y1521749D02*
X2053601D01*
X2018550Y1520399D02*
X2053601D01*
X2018550Y1519049D02*
X2053601D01*
X2018550Y1517699D02*
X2053601D01*
X2043250Y1516349D02*
X2053601D01*
X2043250Y1514999D02*
X2053601D01*
X2043250Y1513649D02*
X2053601D01*
X2043250Y1512299D02*
X2053601D01*
X2043250Y1510949D02*
X2053601D01*
X2043250Y1509599D02*
X2053601D01*
X2039520Y1682399D02*
X2053185D01*
X2051468Y1864649D02*
X2053032D01*
X2052050Y1863299D02*
X2052174D01*
X2052050Y1861949D02*
X2052150D01*
X2052050Y1860599D02*
X2052150D01*
X2052050Y1859249D02*
X2052150D01*
X2052050Y1857899D02*
X2052150D01*
X2052050Y1856549D02*
X2052150D01*
X2052050Y1855199D02*
X2052150D01*
X2052050Y1853849D02*
X2052150D01*
X2052050Y1852499D02*
X2052150D01*
X2052050Y1851149D02*
X2052150D01*
X2052050Y1849799D02*
X2052150D01*
X2052050Y1848449D02*
X2052150D01*
X2052050Y1847099D02*
X2052150D01*
X2052050Y1845749D02*
X2052150D01*
X2052050Y1844399D02*
X2052150D01*
X2052050Y1843049D02*
X2052150D01*
X2052050Y1841699D02*
X2052150D01*
X2052050Y1840349D02*
X2052150D01*
X2052050Y1838999D02*
X2052150D01*
X2052050Y1837649D02*
X2052150D01*
X2052050Y1836299D02*
X2052150D01*
X2052050Y1834949D02*
X2052150D01*
X2052050Y1833599D02*
X2052150D01*
X2052050Y1832249D02*
X2052150D01*
X2052050Y1830899D02*
X2052150D01*
X2051994Y1829549D02*
X2052150D01*
X2051015Y1828199D02*
X2052150D01*
X2049664Y1826849D02*
X2052150D01*
X2040137Y1683749D02*
X2051835D01*
X2024320Y1574399D02*
X2051350D01*
X2021368Y1573049D02*
X2051350D01*
X2024985Y1571699D02*
X2051350D01*
X2025809Y1568999D02*
X2051124D01*
X2036068Y1691849D02*
X2050948D01*
X2042950Y1637849D02*
X2050937D01*
X2042950Y1640549D02*
X2050936D01*
X2025885Y1570349D02*
X2050863D01*
X2042950Y1639199D02*
X2050550D01*
X2024645Y1575749D02*
X2050435D01*
X2040050Y1687799D02*
X2049912D01*
X2039877Y1685099D02*
X2049843D01*
X2046652Y1649999D02*
X2049824D01*
X2037082Y1690499D02*
X2049690D01*
X2039624Y1689149D02*
X2049616D01*
X2039623Y1686449D02*
X2049450D01*
X2024110Y1577099D02*
X2049085D01*
X2046913Y1654049D02*
X2048730D01*
X2026616Y1585199D02*
X2048664D01*
X2041739Y1861949D02*
X2048350D01*
X2039157Y1860599D02*
X2048350D01*
X2039823Y1859249D02*
X2048350D01*
X2041876Y1857899D02*
X2048350D01*
X2042672Y1856549D02*
X2048350D01*
X2042946Y1855199D02*
X2048350D01*
X2042799Y1853849D02*
X2048350D01*
X2042181Y1852499D02*
X2048350D01*
X2040729Y1851149D02*
X2048350D01*
X2022650Y1849799D02*
X2048350D01*
X2041312Y1848449D02*
X2048350D01*
X2042424Y1847099D02*
X2048350D01*
X2042887Y1845749D02*
X2048350D01*
X2042909Y1844399D02*
X2048350D01*
X2042499Y1843049D02*
X2048350D01*
X2041484Y1841699D02*
X2048350D01*
X2022650Y1840349D02*
X2048350D01*
X2040453Y1838999D02*
X2048350D01*
X2042076Y1837649D02*
X2048350D01*
X2042756Y1836299D02*
X2048350D01*
X2042950Y1834949D02*
X2048350D01*
X2042724Y1833599D02*
X2048350D01*
X2041998Y1832249D02*
X2048350D01*
X2040227Y1830899D02*
X2048350D01*
X2047827Y1651349D02*
X2048151D01*
X2047872Y1652699D02*
X2047984D01*
X2024449Y1578449D02*
X2047735D01*
X2047568Y1583849D02*
X2047641D01*
X2037150Y1663499D02*
X2046776D01*
X2024616Y1579799D02*
X2046385D01*
X2039518Y1660799D02*
X2046274D01*
X2038168Y1662149D02*
X2046076D01*
X2023870Y1581149D02*
X2045035D01*
X2042588Y1649999D02*
X2044548D01*
X2041268Y1651349D02*
X2043373D01*
X2039918Y1652699D02*
X2042385D01*
X2038568Y1654049D02*
X2041035D01*
X2037218Y1655399D02*
X2039685D01*
X2039047Y1643249D02*
X2039250D01*
X2022650Y1641899D02*
X2039250D01*
X2022650Y1640549D02*
X2039250D01*
X2022650Y1639199D02*
X2039250D01*
X2032951Y1637849D02*
X2039250D01*
X2033796Y1636499D02*
X2039250D01*
X2033690Y1635149D02*
X2039250D01*
X2033271Y1633799D02*
X2039250D01*
X2033406Y1632449D02*
X2039250D01*
X2032609Y1631099D02*
X2039250D01*
X2022650Y1629749D02*
X2039250D01*
X2025712Y1628399D02*
X2039250D01*
X2026507Y1627049D02*
X2039250D01*
X2026370Y1625699D02*
X2039250D01*
X2026450Y1624349D02*
X2039250D01*
X2026616Y1622999D02*
X2039250D01*
X2025867Y1621649D02*
X2039250D01*
X2018650Y1620299D02*
X2039250D01*
X2025651Y1618949D02*
X2039250D01*
X2026496Y1617599D02*
X2039250D01*
X2026390Y1616249D02*
X2039250D01*
X2026427Y1614899D02*
X2039250D01*
X2026624Y1613549D02*
X2039250D01*
X2025921Y1612199D02*
X2039250D01*
X2014350Y1610849D02*
X2039250D01*
X2026112Y1609499D02*
X2039250D01*
X2026907Y1608149D02*
X2039250D01*
X2026770Y1606799D02*
X2039250D01*
X2025550Y1605449D02*
X2039250D01*
X2025716Y1604099D02*
X2039250D01*
X2026691Y1602749D02*
X2039250D01*
X2035868Y1656749D02*
X2038335D01*
X2026796Y1601399D02*
X2038082D01*
X2022650Y1860599D02*
X2037843D01*
X2010677Y1879499D02*
X2037323D01*
X2022650Y1859249D02*
X2037177D01*
X2036057Y1658099D02*
X2036985D01*
X2011103Y1880849D02*
X2036897D01*
X1937950Y1898399D02*
X2036773D01*
X2022650Y1830899D02*
X2036773D01*
X2022650Y1643249D02*
X2036753D01*
X2033568Y1600049D02*
X2036732D01*
X1997750Y1906499D02*
X2036547D01*
X2022650Y1838999D02*
X2036547D01*
X2011552Y1888949D02*
X2036448D01*
X2022650Y1851149D02*
X2036271D01*
X2034291Y1649999D02*
X2036090D01*
X2032971Y1651349D02*
X2036035D01*
X2011974Y1868699D02*
X2036026D01*
X2022650Y1848449D02*
X2035688D01*
X2012442Y1871399D02*
X2035558D01*
X2022650Y1841699D02*
X2035516D01*
X2034142Y1598699D02*
X2035382D01*
X1937950Y1915949D02*
X2035381D01*
X2022567Y1861949D02*
X2035261D01*
X1997750Y1909199D02*
X2035225D01*
X2022650Y1857899D02*
X2035124D01*
X2012922Y1878149D02*
X2035078D01*
X2012958Y1882199D02*
X2035042D01*
X1937950Y1899749D02*
X2035002D01*
X2022650Y1832249D02*
X2035002D01*
X2010282Y1905149D02*
X2034924D01*
X2022650Y1837649D02*
X2034924D01*
X2013112Y1887599D02*
X2034888D01*
X2022650Y1852499D02*
X2034819D01*
X2013280Y1867349D02*
X2034720D01*
X2031650Y1652699D02*
X2034685D01*
X2022650Y1847099D02*
X2034576D01*
X2022650Y1843049D02*
X2034501D01*
X2013569Y1872749D02*
X2034431D01*
X2022650Y1644599D02*
X2034398D01*
X2021518Y1863299D02*
X2034388D01*
X2022257Y1914599D02*
X2034351D01*
X2022650Y1856549D02*
X2034328D01*
X2013707Y1883549D02*
X2034293D01*
X2022510Y1910549D02*
X2034279D01*
X2012261Y1901099D02*
X2034276D01*
X2022650Y1833599D02*
X2034276D01*
X2012451Y1903799D02*
X2034244D01*
X2022650Y1836299D02*
X2034244D01*
X2013771Y1886249D02*
X2034229D01*
X2013788Y1876799D02*
X2034212D01*
X2022650Y1853849D02*
X2034201D01*
X2018818Y1865999D02*
X2034163D01*
X2022650Y1845749D02*
X2034113D01*
X2022650Y1844399D02*
X2034091D01*
X2020168Y1864649D02*
X2034064D01*
X2022650Y1855199D02*
X2034054D01*
X2013949Y1884899D02*
X2034051D01*
X2012746Y1902449D02*
X2034050D01*
X2022650Y1834949D02*
X2034050D01*
X2033849Y1597349D02*
X2034032D01*
X2014062Y1874099D02*
X2033938D01*
X2023428Y1913249D02*
X2033911D01*
X2023472Y1911899D02*
X2033889D01*
X2014128Y1875449D02*
X2033872D01*
X2032165Y1821449D02*
X2033632D01*
X2033250Y1662149D02*
X2033467D01*
X2032468Y1689149D02*
X2033450D01*
X2033239Y1687799D02*
X2033450D01*
X2033250Y1686449D02*
X2033450D01*
X2033250Y1685099D02*
X2033450D01*
X2033250Y1683749D02*
X2033450D01*
X2033250Y1682399D02*
X2033450D01*
X2033250Y1681049D02*
X2033450D01*
X2033250Y1679699D02*
X2033450D01*
X2033250Y1678349D02*
X2033450D01*
X2033250Y1676999D02*
X2033450D01*
X2033250Y1675649D02*
X2033450D01*
X2033250Y1674299D02*
X2033450D01*
X2033250Y1672949D02*
X2033450D01*
X2033250Y1671599D02*
X2033450D01*
X2033250Y1670249D02*
X2033450D01*
X2033250Y1668899D02*
X2033450D01*
X2033250Y1667549D02*
X2033450D01*
X2033250Y1666199D02*
X2033450D01*
X2033250Y1664849D02*
X2033450D01*
X2033250Y1663499D02*
X2033450D01*
X2030330Y1654049D02*
X2033335D01*
X2022650Y1645949D02*
X2033077D01*
X2030815Y1820099D02*
X2032282D01*
X2031118Y1690499D02*
X2032185D01*
X2029150Y1655399D02*
X2031985D01*
X2022650Y1647299D02*
X2031757D01*
X2028115Y1825499D02*
X2030989D01*
X2030450Y1818749D02*
X2030976D01*
X2030450Y1691849D02*
X2030913D01*
X2030450Y1817399D02*
X2030650D01*
X2030450Y1816049D02*
X2030650D01*
X2030450Y1814699D02*
X2030650D01*
X2030450Y1813349D02*
X2030650D01*
X2030450Y1811999D02*
X2030650D01*
X2030450Y1810649D02*
X2030650D01*
X2030450Y1809299D02*
X2030650D01*
X2030450Y1807949D02*
X2030650D01*
X2030450Y1806599D02*
X2030650D01*
X2030450Y1805249D02*
X2030650D01*
X2030450Y1803899D02*
X2030650D01*
X2030450Y1802549D02*
X2030650D01*
X2030450Y1801199D02*
X2030650D01*
X2030450Y1799849D02*
X2030650D01*
X2030450Y1798499D02*
X2030650D01*
X2030450Y1797149D02*
X2030650D01*
X2030450Y1795799D02*
X2030650D01*
X2030450Y1794449D02*
X2030650D01*
X2030450Y1793099D02*
X2030650D01*
X2030450Y1791749D02*
X2030650D01*
X2030450Y1790399D02*
X2030650D01*
X2030450Y1789049D02*
X2030650D01*
X2030450Y1787699D02*
X2030650D01*
X2030450Y1786349D02*
X2030650D01*
X2030450Y1784999D02*
X2030650D01*
X2030450Y1783649D02*
X2030650D01*
X2030450Y1782299D02*
X2030650D01*
X2030450Y1780949D02*
X2030650D01*
X2030450Y1779599D02*
X2030650D01*
X2030450Y1778249D02*
X2030650D01*
X2030450Y1776899D02*
X2030650D01*
X2030450Y1775549D02*
X2030650D01*
X2030450Y1774199D02*
X2030650D01*
X2030450Y1772849D02*
X2030650D01*
X2030450Y1771499D02*
X2030650D01*
X2030450Y1770149D02*
X2030650D01*
X2030450Y1768799D02*
X2030650D01*
X2030450Y1767449D02*
X2030650D01*
X2030450Y1766099D02*
X2030650D01*
X2030450Y1764749D02*
X2030650D01*
X2030450Y1763399D02*
X2030650D01*
X2030450Y1762049D02*
X2030650D01*
X2030450Y1760699D02*
X2030650D01*
X2030450Y1759349D02*
X2030650D01*
X2030450Y1757999D02*
X2030650D01*
X2030450Y1756649D02*
X2030650D01*
X2030450Y1755299D02*
X2030650D01*
X2030450Y1753949D02*
X2030650D01*
X2030450Y1752599D02*
X2030650D01*
X2030450Y1751249D02*
X2030650D01*
X2030450Y1749899D02*
X2030650D01*
X2030450Y1748549D02*
X2030650D01*
X2030450Y1747199D02*
X2030650D01*
X2030450Y1745849D02*
X2030650D01*
X2030450Y1744499D02*
X2030650D01*
X2030450Y1743149D02*
X2030650D01*
X2030450Y1741799D02*
X2030650D01*
X2030450Y1740449D02*
X2030650D01*
X2030450Y1739099D02*
X2030650D01*
X2030450Y1737749D02*
X2030650D01*
X2030450Y1736399D02*
X2030650D01*
X2030450Y1735049D02*
X2030650D01*
X2030450Y1733699D02*
X2030650D01*
X2030450Y1732349D02*
X2030650D01*
X2030450Y1730999D02*
X2030650D01*
X2030450Y1729649D02*
X2030650D01*
X2030450Y1728299D02*
X2030650D01*
X2030450Y1726949D02*
X2030650D01*
X2030450Y1725599D02*
X2030650D01*
X2030450Y1724249D02*
X2030650D01*
X2030450Y1722899D02*
X2030650D01*
X2030450Y1721549D02*
X2030650D01*
X2030450Y1720199D02*
X2030650D01*
X2030450Y1718849D02*
X2030650D01*
X2030450Y1717499D02*
X2030650D01*
X2030450Y1716149D02*
X2030650D01*
X2030450Y1714799D02*
X2030650D01*
X2030450Y1713449D02*
X2030650D01*
X2030450Y1712099D02*
X2030650D01*
X2030450Y1710749D02*
X2030650D01*
X2030450Y1709399D02*
X2030650D01*
X2030450Y1708049D02*
X2030650D01*
X2030450Y1706699D02*
X2030650D01*
X2030450Y1705349D02*
X2030650D01*
X2030450Y1703999D02*
X2030650D01*
X2030450Y1702649D02*
X2030650D01*
X2030450Y1701299D02*
X2030650D01*
X2030450Y1699949D02*
X2030650D01*
X2030450Y1698599D02*
X2030650D01*
X2030450Y1697249D02*
X2030650D01*
X2030450Y1695899D02*
X2030650D01*
X2030450Y1694549D02*
X2030650D01*
X2030450Y1693199D02*
X2030650D01*
X2029150Y1656749D02*
X2030635D01*
X2022650Y1648649D02*
X2030436D01*
X2022650Y1637849D02*
X2030049D01*
X2025947Y1600049D02*
X2030032D01*
X2024379Y1597349D02*
X2029751D01*
X2029357Y1555499D02*
X2029719D01*
X2026765Y1824149D02*
X2029632D01*
X2029150Y1658099D02*
X2029619D01*
X2022650Y1631099D02*
X2029591D01*
X2026968Y1686449D02*
X2029550D01*
X2028318Y1685099D02*
X2029550D01*
X2029133Y1683749D02*
X2029550D01*
X2029150Y1682399D02*
X2029550D01*
X2029150Y1681049D02*
X2029550D01*
X2029150Y1679699D02*
X2029550D01*
X2029150Y1678349D02*
X2029550D01*
X2029150Y1676999D02*
X2029550D01*
X2029150Y1675649D02*
X2029550D01*
X2029150Y1674299D02*
X2029550D01*
X2029150Y1672949D02*
X2029550D01*
X2029150Y1671599D02*
X2029550D01*
X2029150Y1670249D02*
X2029550D01*
X2029150Y1668899D02*
X2029550D01*
X2029150Y1667549D02*
X2029550D01*
X2029150Y1666199D02*
X2029550D01*
X2029150Y1664849D02*
X2029550D01*
X2029150Y1663499D02*
X2029550D01*
X2029150Y1662149D02*
X2029550D01*
X2029150Y1660799D02*
X2029550D01*
X2029150Y1659449D02*
X2029550D01*
X2024572Y1598699D02*
X2029458D01*
X2022650Y1635149D02*
X2029310D01*
X2022650Y1636499D02*
X2029204D01*
X2022650Y1649999D02*
X2029115D01*
X2022650Y1633799D02*
X2028929D01*
X2022650Y1632449D02*
X2028794D01*
X2026450Y1687799D02*
X2028585D01*
X2026450Y1822799D02*
X2028282D01*
X2022650Y1651349D02*
X2027795D01*
X2026450Y1689149D02*
X2027237D01*
X2026450Y1821449D02*
X2027012D01*
X2022650Y1829549D02*
X2026934D01*
X2026450Y1820099D02*
X2026750D01*
X2026450Y1818749D02*
X2026750D01*
X2026450Y1817399D02*
X2026750D01*
X2026450Y1816049D02*
X2026750D01*
X2026450Y1814699D02*
X2026750D01*
X2026450Y1813349D02*
X2026750D01*
X2026450Y1811999D02*
X2026750D01*
X2026450Y1810649D02*
X2026750D01*
X2026450Y1809299D02*
X2026750D01*
X2026450Y1807949D02*
X2026750D01*
X2026450Y1806599D02*
X2026750D01*
X2026450Y1805249D02*
X2026750D01*
X2026450Y1803899D02*
X2026750D01*
X2026450Y1802549D02*
X2026750D01*
X2026450Y1801199D02*
X2026750D01*
X2026450Y1799849D02*
X2026750D01*
X2026450Y1798499D02*
X2026750D01*
X2026450Y1797149D02*
X2026750D01*
X2026450Y1795799D02*
X2026750D01*
X2026450Y1794449D02*
X2026750D01*
X2026450Y1793099D02*
X2026750D01*
X2026450Y1791749D02*
X2026750D01*
X2026450Y1790399D02*
X2026750D01*
X2026450Y1789049D02*
X2026750D01*
X2026450Y1787699D02*
X2026750D01*
X2026450Y1786349D02*
X2026750D01*
X2026450Y1784999D02*
X2026750D01*
X2026450Y1783649D02*
X2026750D01*
X2026450Y1782299D02*
X2026750D01*
X2026450Y1780949D02*
X2026750D01*
X2026450Y1779599D02*
X2026750D01*
X2026450Y1778249D02*
X2026750D01*
X2026450Y1776899D02*
X2026750D01*
X2026450Y1775549D02*
X2026750D01*
X2026450Y1774199D02*
X2026750D01*
X2026450Y1772849D02*
X2026750D01*
X2026450Y1771499D02*
X2026750D01*
X2026450Y1770149D02*
X2026750D01*
X2026450Y1768799D02*
X2026750D01*
X2026450Y1767449D02*
X2026750D01*
X2026450Y1766099D02*
X2026750D01*
X2026450Y1764749D02*
X2026750D01*
X2026450Y1763399D02*
X2026750D01*
X2026450Y1762049D02*
X2026750D01*
X2026450Y1760699D02*
X2026750D01*
X2026450Y1759349D02*
X2026750D01*
X2026450Y1757999D02*
X2026750D01*
X2026450Y1756649D02*
X2026750D01*
X2026450Y1755299D02*
X2026750D01*
X2026450Y1753949D02*
X2026750D01*
X2026450Y1752599D02*
X2026750D01*
X2026450Y1751249D02*
X2026750D01*
X2026450Y1749899D02*
X2026750D01*
X2026450Y1748549D02*
X2026750D01*
X2026450Y1747199D02*
X2026750D01*
X2026450Y1745849D02*
X2026750D01*
X2026450Y1744499D02*
X2026750D01*
X2026450Y1743149D02*
X2026750D01*
X2026450Y1741799D02*
X2026750D01*
X2026450Y1740449D02*
X2026750D01*
X2026450Y1739099D02*
X2026750D01*
X2026450Y1737749D02*
X2026750D01*
X2026450Y1736399D02*
X2026750D01*
X2026450Y1735049D02*
X2026750D01*
X2026450Y1733699D02*
X2026750D01*
X2026450Y1732349D02*
X2026750D01*
X2026450Y1730999D02*
X2026750D01*
X2026450Y1729649D02*
X2026750D01*
X2026450Y1728299D02*
X2026750D01*
X2026450Y1726949D02*
X2026750D01*
X2026450Y1725599D02*
X2026750D01*
X2026450Y1724249D02*
X2026750D01*
X2026450Y1722899D02*
X2026750D01*
X2026450Y1721549D02*
X2026750D01*
X2026450Y1720199D02*
X2026750D01*
X2026450Y1718849D02*
X2026750D01*
X2026450Y1717499D02*
X2026750D01*
X2026450Y1716149D02*
X2026750D01*
X2026450Y1714799D02*
X2026750D01*
X2026450Y1713449D02*
X2026750D01*
X2026450Y1712099D02*
X2026750D01*
X2026450Y1710749D02*
X2026750D01*
X2026450Y1709399D02*
X2026750D01*
X2026450Y1708049D02*
X2026750D01*
X2026450Y1706699D02*
X2026750D01*
X2026450Y1705349D02*
X2026750D01*
X2026450Y1703999D02*
X2026750D01*
X2026450Y1702649D02*
X2026750D01*
X2026450Y1701299D02*
X2026750D01*
X2026450Y1699949D02*
X2026750D01*
X2026450Y1698599D02*
X2026750D01*
X2026450Y1697249D02*
X2026750D01*
X2026450Y1695899D02*
X2026750D01*
X2026450Y1694549D02*
X2026750D01*
X2026450Y1693199D02*
X2026750D01*
X2026450Y1691849D02*
X2026750D01*
X2026450Y1690499D02*
X2026750D01*
X2025123Y1652699D02*
X2026474D01*
X2022650Y1828199D02*
X2025582D01*
X2022650Y1682399D02*
X2025450D01*
X2022650Y1681049D02*
X2025450D01*
X2022650Y1679699D02*
X2025450D01*
X2022650Y1678349D02*
X2025450D01*
X2022650Y1676999D02*
X2025450D01*
X2022650Y1675649D02*
X2025450D01*
X2022650Y1674299D02*
X2025450D01*
X2022650Y1672949D02*
X2025450D01*
X2022650Y1671599D02*
X2025450D01*
X2022650Y1670249D02*
X2025450D01*
X2022650Y1668899D02*
X2025450D01*
X2022650Y1667549D02*
X2025450D01*
X2014683Y1548749D02*
X2024490D01*
X2022650Y1683749D02*
X2024435D01*
X2022650Y1826849D02*
X2024232D01*
X2023610Y1597349D02*
X2024221D01*
X2012650Y1550099D02*
X2023528D01*
X2022650Y1652699D02*
X2023477D01*
X2022650Y1666199D02*
X2023415D01*
X2022650Y1685099D02*
X2023113D01*
X2014350Y1609499D02*
X2023088D01*
X2022650Y1825499D02*
X2022983D01*
X2022650Y1824149D02*
X2022750D01*
X2022650Y1822799D02*
X2022750D01*
X2022650Y1821449D02*
X2022750D01*
X2022650Y1820099D02*
X2022750D01*
X2022650Y1818749D02*
X2022750D01*
X2022650Y1817399D02*
X2022750D01*
X2022650Y1816049D02*
X2022750D01*
X2022650Y1814699D02*
X2022750D01*
X2022650Y1813349D02*
X2022750D01*
X2022650Y1811999D02*
X2022750D01*
X2022650Y1810649D02*
X2022750D01*
X2022650Y1809299D02*
X2022750D01*
X2022650Y1807949D02*
X2022750D01*
X2022650Y1806599D02*
X2022750D01*
X2022650Y1805249D02*
X2022750D01*
X2022650Y1803899D02*
X2022750D01*
X2022650Y1802549D02*
X2022750D01*
X2022650Y1801199D02*
X2022750D01*
X2022650Y1799849D02*
X2022750D01*
X2022650Y1798499D02*
X2022750D01*
X2022650Y1797149D02*
X2022750D01*
X2022650Y1795799D02*
X2022750D01*
X2022650Y1794449D02*
X2022750D01*
X2022650Y1793099D02*
X2022750D01*
X2022650Y1791749D02*
X2022750D01*
X2022650Y1790399D02*
X2022750D01*
X2022650Y1789049D02*
X2022750D01*
X2022650Y1787699D02*
X2022750D01*
X2022650Y1786349D02*
X2022750D01*
X2022650Y1784999D02*
X2022750D01*
X2022650Y1783649D02*
X2022750D01*
X2022650Y1782299D02*
X2022750D01*
X2022650Y1780949D02*
X2022750D01*
X2022650Y1779599D02*
X2022750D01*
X2022650Y1778249D02*
X2022750D01*
X2022650Y1776899D02*
X2022750D01*
X2022650Y1775549D02*
X2022750D01*
X2022650Y1774199D02*
X2022750D01*
X2022650Y1772849D02*
X2022750D01*
X2022650Y1771499D02*
X2022750D01*
X2022650Y1770149D02*
X2022750D01*
X2022650Y1768799D02*
X2022750D01*
X2022650Y1767449D02*
X2022750D01*
X2022650Y1766099D02*
X2022750D01*
X2022650Y1764749D02*
X2022750D01*
X2022650Y1763399D02*
X2022750D01*
X2022650Y1762049D02*
X2022750D01*
X2022650Y1760699D02*
X2022750D01*
X2022650Y1759349D02*
X2022750D01*
X2022650Y1757999D02*
X2022750D01*
X2022650Y1756649D02*
X2022750D01*
X2022650Y1755299D02*
X2022750D01*
X2022650Y1753949D02*
X2022750D01*
X2022650Y1752599D02*
X2022750D01*
X2022650Y1751249D02*
X2022750D01*
X2022650Y1749899D02*
X2022750D01*
X2022650Y1748549D02*
X2022750D01*
X2022650Y1747199D02*
X2022750D01*
X2022650Y1745849D02*
X2022750D01*
X2022650Y1744499D02*
X2022750D01*
X2022650Y1743149D02*
X2022750D01*
X2022650Y1741799D02*
X2022750D01*
X2022650Y1740449D02*
X2022750D01*
X2022650Y1739099D02*
X2022750D01*
X2022650Y1737749D02*
X2022750D01*
X2022650Y1736399D02*
X2022750D01*
X2022650Y1735049D02*
X2022750D01*
X2022650Y1733699D02*
X2022750D01*
X2022650Y1732349D02*
X2022750D01*
X2022650Y1730999D02*
X2022750D01*
X2022650Y1729649D02*
X2022750D01*
X2022650Y1728299D02*
X2022750D01*
X2022650Y1726949D02*
X2022750D01*
X2022650Y1725599D02*
X2022750D01*
X2022650Y1724249D02*
X2022750D01*
X2022650Y1722899D02*
X2022750D01*
X2022650Y1721549D02*
X2022750D01*
X2022650Y1720199D02*
X2022750D01*
X2022650Y1718849D02*
X2022750D01*
X2022650Y1717499D02*
X2022750D01*
X2022650Y1716149D02*
X2022750D01*
X2022650Y1714799D02*
X2022750D01*
X2022650Y1713449D02*
X2022750D01*
X2022650Y1712099D02*
X2022750D01*
X2022650Y1710749D02*
X2022750D01*
X2022650Y1709399D02*
X2022750D01*
X2022650Y1708049D02*
X2022750D01*
X2022650Y1706699D02*
X2022750D01*
X2022650Y1705349D02*
X2022750D01*
X2022650Y1703999D02*
X2022750D01*
X2022650Y1702649D02*
X2022750D01*
X2022650Y1701299D02*
X2022750D01*
X2022650Y1699949D02*
X2022750D01*
X2022650Y1698599D02*
X2022750D01*
X2022650Y1697249D02*
X2022750D01*
X2022650Y1695899D02*
X2022750D01*
X2022650Y1694549D02*
X2022750D01*
X2022650Y1693199D02*
X2022750D01*
X2022650Y1691849D02*
X2022750D01*
X2022650Y1690499D02*
X2022750D01*
X2022650Y1689149D02*
X2022750D01*
X2022650Y1687799D02*
X2022750D01*
X2022650Y1686449D02*
X2022750D01*
X2018650Y1618949D02*
X2022749D01*
X2022650Y1628399D02*
X2022688D01*
X2014350Y1590599D02*
X2022688D01*
X2014350Y1593299D02*
X2022679D01*
X2014350Y1606799D02*
X2022430D01*
X2014350Y1608149D02*
X2022293D01*
X2014350Y1595999D02*
X2022173D01*
X2017968Y1586549D02*
X2022150D01*
X2019649Y1551449D02*
X2022078D01*
X2016618Y1587899D02*
X2022030D01*
X2018968Y1616249D02*
X2022010D01*
X2018650Y1621649D02*
X2022004D01*
X2019318Y1585199D02*
X2021984D01*
X2014350Y1594649D02*
X2021976D01*
X2018650Y1617599D02*
X2021904D01*
X2014350Y1589249D02*
X2021893D01*
X2014350Y1602749D02*
X2021833D01*
X2021552Y1552799D02*
X2021750D01*
X2014350Y1605449D02*
X2021250D01*
X2014350Y1601399D02*
X2021243D01*
X2014350Y1604099D02*
X2021084D01*
X2014350Y1597349D02*
X2020990D01*
X2013268Y1581149D02*
X2020730D01*
X2017318Y1577099D02*
X2020490D01*
X2018650Y1622999D02*
X2020385D01*
X2020018Y1574399D02*
X2020280D01*
X2015968Y1578449D02*
X2020151D01*
X2011148Y1914599D02*
X2020143D01*
X2014350Y1600049D02*
X2020072D01*
X2014350Y1598699D02*
X2020028D01*
X2014618Y1579799D02*
X2019984D01*
X2018668Y1575749D02*
X2019955D01*
X2011342Y1910549D02*
X2019890D01*
X2018650Y1624349D02*
X2019157D01*
X2012138Y1913249D02*
X2018972D01*
X2010157Y1860599D02*
X2018950D01*
X2010823Y1859249D02*
X2018950D01*
X2012876Y1857899D02*
X2018950D01*
X2013672Y1856549D02*
X2018950D01*
X2013946Y1855199D02*
X2018950D01*
X2013799Y1853849D02*
X2018950D01*
X2013181Y1852499D02*
X2018950D01*
X2011729Y1851149D02*
X2018950D01*
X1997050Y1849799D02*
X2018950D01*
X2012312Y1848449D02*
X2018950D01*
X2013424Y1847099D02*
X2018950D01*
X2013887Y1845749D02*
X2018950D01*
X2013909Y1844399D02*
X2018950D01*
X2013499Y1843049D02*
X2018950D01*
X2012484Y1841699D02*
X2018950D01*
X1997050Y1840349D02*
X2018950D01*
X2011453Y1838999D02*
X2018950D01*
X2013076Y1837649D02*
X2018950D01*
X2013756Y1836299D02*
X2018950D01*
X2013950Y1834949D02*
X2018950D01*
X2013724Y1833599D02*
X2018950D01*
X2012998Y1832249D02*
X2018950D01*
X2011227Y1830899D02*
X2018950D01*
X2014366Y1829549D02*
X2018950D01*
X2015718Y1828199D02*
X2018950D01*
X2017068Y1826849D02*
X2018950D01*
X2018357Y1825499D02*
X2018950D01*
X2018650Y1824149D02*
X2018950D01*
X2018650Y1822799D02*
X2018950D01*
X2018650Y1821449D02*
X2018950D01*
X2018650Y1820099D02*
X2018950D01*
X2018650Y1818749D02*
X2018950D01*
X2018650Y1817399D02*
X2018950D01*
X2018650Y1816049D02*
X2018950D01*
X2018650Y1814699D02*
X2018950D01*
X2018650Y1813349D02*
X2018950D01*
X2018650Y1811999D02*
X2018950D01*
X2018650Y1810649D02*
X2018950D01*
X2018650Y1809299D02*
X2018950D01*
X2018650Y1807949D02*
X2018950D01*
X2018650Y1806599D02*
X2018950D01*
X2018650Y1805249D02*
X2018950D01*
X2018650Y1803899D02*
X2018950D01*
X2018650Y1802549D02*
X2018950D01*
X2018650Y1801199D02*
X2018950D01*
X2018650Y1799849D02*
X2018950D01*
X2018650Y1798499D02*
X2018950D01*
X2018650Y1797149D02*
X2018950D01*
X2018650Y1795799D02*
X2018950D01*
X2018650Y1794449D02*
X2018950D01*
X2018650Y1793099D02*
X2018950D01*
X2018650Y1791749D02*
X2018950D01*
X2018650Y1790399D02*
X2018950D01*
X2018650Y1789049D02*
X2018950D01*
X2018650Y1787699D02*
X2018950D01*
X2018650Y1786349D02*
X2018950D01*
X2018650Y1784999D02*
X2018950D01*
X2018650Y1783649D02*
X2018950D01*
X2018650Y1782299D02*
X2018950D01*
X2018650Y1780949D02*
X2018950D01*
X2018650Y1779599D02*
X2018950D01*
X2018650Y1778249D02*
X2018950D01*
X2018650Y1776899D02*
X2018950D01*
X2018650Y1775549D02*
X2018950D01*
X2018650Y1774199D02*
X2018950D01*
X2018650Y1772849D02*
X2018950D01*
X2018650Y1771499D02*
X2018950D01*
X2018650Y1770149D02*
X2018950D01*
X2018650Y1768799D02*
X2018950D01*
X2018650Y1767449D02*
X2018950D01*
X2018650Y1766099D02*
X2018950D01*
X2018650Y1764749D02*
X2018950D01*
X2018650Y1763399D02*
X2018950D01*
X2018650Y1762049D02*
X2018950D01*
X2018650Y1760699D02*
X2018950D01*
X2018650Y1759349D02*
X2018950D01*
X2018650Y1757999D02*
X2018950D01*
X2018650Y1756649D02*
X2018950D01*
X2018650Y1755299D02*
X2018950D01*
X2018650Y1753949D02*
X2018950D01*
X2018650Y1752599D02*
X2018950D01*
X2018650Y1751249D02*
X2018950D01*
X2018650Y1749899D02*
X2018950D01*
X2018650Y1748549D02*
X2018950D01*
X2018650Y1747199D02*
X2018950D01*
X2018650Y1745849D02*
X2018950D01*
X2018650Y1744499D02*
X2018950D01*
X2018650Y1743149D02*
X2018950D01*
X2018650Y1741799D02*
X2018950D01*
X2018650Y1740449D02*
X2018950D01*
X2018650Y1739099D02*
X2018950D01*
X2018650Y1737749D02*
X2018950D01*
X2018650Y1736399D02*
X2018950D01*
X2018650Y1735049D02*
X2018950D01*
X2018650Y1733699D02*
X2018950D01*
X2018650Y1732349D02*
X2018950D01*
X2018650Y1730999D02*
X2018950D01*
X2018650Y1729649D02*
X2018950D01*
X2018650Y1728299D02*
X2018950D01*
X2018650Y1726949D02*
X2018950D01*
X2018650Y1725599D02*
X2018950D01*
X2018650Y1724249D02*
X2018950D01*
X2018650Y1722899D02*
X2018950D01*
X2018650Y1721549D02*
X2018950D01*
X2018650Y1720199D02*
X2018950D01*
X2018650Y1718849D02*
X2018950D01*
X2018650Y1717499D02*
X2018950D01*
X2018650Y1716149D02*
X2018950D01*
X2018650Y1714799D02*
X2018950D01*
X2018650Y1713449D02*
X2018950D01*
X2018650Y1712099D02*
X2018950D01*
X2018650Y1710749D02*
X2018950D01*
X2018650Y1709399D02*
X2018950D01*
X2018650Y1708049D02*
X2018950D01*
X2018650Y1706699D02*
X2018950D01*
X2018650Y1705349D02*
X2018950D01*
X2018650Y1703999D02*
X2018950D01*
X2018650Y1702649D02*
X2018950D01*
X2018650Y1701299D02*
X2018950D01*
X2018650Y1699949D02*
X2018950D01*
X2018650Y1698599D02*
X2018950D01*
X2018650Y1697249D02*
X2018950D01*
X2018650Y1695899D02*
X2018950D01*
X2018650Y1694549D02*
X2018950D01*
X2018650Y1693199D02*
X2018950D01*
X2018650Y1691849D02*
X2018950D01*
X2018650Y1690499D02*
X2018950D01*
X2018650Y1689149D02*
X2018950D01*
X2018650Y1687799D02*
X2018950D01*
X2018650Y1686449D02*
X2018950D01*
X2018650Y1685099D02*
X2018950D01*
X2018650Y1683749D02*
X2018950D01*
X2018650Y1682399D02*
X2018950D01*
X2018650Y1681049D02*
X2018950D01*
X2018650Y1679699D02*
X2018950D01*
X2018650Y1678349D02*
X2018950D01*
X2018650Y1676999D02*
X2018950D01*
X2018650Y1675649D02*
X2018950D01*
X2018650Y1674299D02*
X2018950D01*
X2018650Y1672949D02*
X2018950D01*
X2018650Y1671599D02*
X2018950D01*
X2018650Y1670249D02*
X2018950D01*
X2018650Y1668899D02*
X2018950D01*
X2018650Y1667549D02*
X2018950D01*
X2018650Y1666199D02*
X2018950D01*
X2018650Y1664849D02*
X2018950D01*
X2018650Y1663499D02*
X2018950D01*
X2018650Y1662149D02*
X2018950D01*
X2018650Y1660799D02*
X2018950D01*
X2018650Y1659449D02*
X2018950D01*
X2018650Y1658099D02*
X2018950D01*
X2018650Y1656749D02*
X2018950D01*
X2018650Y1655399D02*
X2018950D01*
X2018650Y1654049D02*
X2018950D01*
X2018650Y1652699D02*
X2018950D01*
X2018650Y1651349D02*
X2018950D01*
X2018650Y1649999D02*
X2018950D01*
X2018650Y1648649D02*
X2018950D01*
X2018650Y1647299D02*
X2018950D01*
X2018650Y1645949D02*
X2018950D01*
X2018650Y1644599D02*
X2018950D01*
X2018650Y1643249D02*
X2018950D01*
X2018650Y1641899D02*
X2018950D01*
X2018650Y1640549D02*
X2018950D01*
X2018650Y1639199D02*
X2018950D01*
X2018650Y1637849D02*
X2018950D01*
X2018650Y1636499D02*
X2018950D01*
X2018650Y1635149D02*
X2018950D01*
X2018650Y1633799D02*
X2018950D01*
X2018650Y1632449D02*
X2018950D01*
X2018650Y1631099D02*
X2018950D01*
X2018650Y1629749D02*
X2018950D01*
X2018650Y1628399D02*
X2018950D01*
X2018650Y1627049D02*
X2018950D01*
X2018650Y1625699D02*
X2018950D01*
X2012178Y1911899D02*
X2018928D01*
X2014350Y1612199D02*
X2017973D01*
X2012739Y1861949D02*
X2017635D01*
X2012650Y1555499D02*
X2017285D01*
X2011918Y1582499D02*
X2016785D01*
X2014350Y1613549D02*
X2016435D01*
X2012650Y1556849D02*
X2015935D01*
X2012650Y1554149D02*
X2015832D01*
X2012650Y1551449D02*
X2015551D01*
X2010568Y1583849D02*
X2015435D01*
X2012650Y1552799D02*
X2015258D01*
X2014350Y1614899D02*
X2015184D01*
X2013818Y1822799D02*
X2014950D01*
X2014350Y1821449D02*
X2014950D01*
X2014350Y1820099D02*
X2014950D01*
X2014350Y1818749D02*
X2014950D01*
X2014350Y1817399D02*
X2014950D01*
X2014350Y1816049D02*
X2014950D01*
X2014350Y1814699D02*
X2014950D01*
X2014350Y1813349D02*
X2014950D01*
X2014350Y1811999D02*
X2014950D01*
X2014350Y1810649D02*
X2014950D01*
X2014350Y1809299D02*
X2014950D01*
X2014350Y1807949D02*
X2014950D01*
X2014350Y1806599D02*
X2014950D01*
X2014350Y1805249D02*
X2014950D01*
X2014350Y1803899D02*
X2014950D01*
X2014350Y1802549D02*
X2014950D01*
X2014350Y1801199D02*
X2014950D01*
X2014350Y1799849D02*
X2014950D01*
X2014350Y1798499D02*
X2014950D01*
X2014350Y1797149D02*
X2014950D01*
X2014350Y1795799D02*
X2014950D01*
X2014350Y1794449D02*
X2014950D01*
X2014350Y1793099D02*
X2014950D01*
X2014350Y1791749D02*
X2014950D01*
X2014350Y1790399D02*
X2014950D01*
X2014350Y1789049D02*
X2014950D01*
X2014350Y1787699D02*
X2014950D01*
X2014350Y1786349D02*
X2014950D01*
X2014350Y1784999D02*
X2014950D01*
X2014350Y1783649D02*
X2014950D01*
X2014350Y1782299D02*
X2014950D01*
X2014350Y1780949D02*
X2014950D01*
X2014350Y1779599D02*
X2014950D01*
X2014350Y1778249D02*
X2014950D01*
X2014350Y1776899D02*
X2014950D01*
X2014350Y1775549D02*
X2014950D01*
X2014350Y1774199D02*
X2014950D01*
X2014350Y1772849D02*
X2014950D01*
X2014350Y1771499D02*
X2014950D01*
X2014350Y1770149D02*
X2014950D01*
X2014350Y1768799D02*
X2014950D01*
X2014350Y1767449D02*
X2014950D01*
X2014350Y1766099D02*
X2014950D01*
X2014350Y1764749D02*
X2014950D01*
X2014350Y1763399D02*
X2014950D01*
X2014350Y1762049D02*
X2014950D01*
X2014350Y1760699D02*
X2014950D01*
X2014350Y1759349D02*
X2014950D01*
X2014350Y1757999D02*
X2014950D01*
X2014350Y1756649D02*
X2014950D01*
X2014350Y1755299D02*
X2014950D01*
X2014350Y1753949D02*
X2014950D01*
X2014350Y1752599D02*
X2014950D01*
X2014350Y1751249D02*
X2014950D01*
X2014350Y1749899D02*
X2014950D01*
X2014350Y1748549D02*
X2014950D01*
X2014350Y1747199D02*
X2014950D01*
X2014350Y1745849D02*
X2014950D01*
X2014350Y1744499D02*
X2014950D01*
X2014350Y1743149D02*
X2014950D01*
X2014350Y1741799D02*
X2014950D01*
X2014350Y1740449D02*
X2014950D01*
X2014350Y1739099D02*
X2014950D01*
X2014350Y1737749D02*
X2014950D01*
X2014350Y1736399D02*
X2014950D01*
X2014350Y1735049D02*
X2014950D01*
X2014350Y1733699D02*
X2014950D01*
X2014350Y1732349D02*
X2014950D01*
X2014350Y1730999D02*
X2014950D01*
X2014350Y1729649D02*
X2014950D01*
X2014350Y1728299D02*
X2014950D01*
X2014350Y1726949D02*
X2014950D01*
X2014350Y1725599D02*
X2014950D01*
X2014350Y1724249D02*
X2014950D01*
X2014350Y1722899D02*
X2014950D01*
X2014350Y1721549D02*
X2014950D01*
X2014350Y1720199D02*
X2014950D01*
X2014350Y1718849D02*
X2014950D01*
X2014350Y1717499D02*
X2014950D01*
X2014350Y1716149D02*
X2014950D01*
X2014350Y1714799D02*
X2014950D01*
X2014350Y1713449D02*
X2014950D01*
X2014350Y1712099D02*
X2014950D01*
X2014350Y1710749D02*
X2014950D01*
X2014350Y1709399D02*
X2014950D01*
X2014350Y1708049D02*
X2014950D01*
X2014350Y1706699D02*
X2014950D01*
X2014350Y1705349D02*
X2014950D01*
X2014350Y1703999D02*
X2014950D01*
X2014350Y1702649D02*
X2014950D01*
X2014350Y1701299D02*
X2014950D01*
X2014350Y1699949D02*
X2014950D01*
X2014350Y1698599D02*
X2014950D01*
X2014350Y1697249D02*
X2014950D01*
X2014350Y1695899D02*
X2014950D01*
X2014350Y1694549D02*
X2014950D01*
X2014350Y1693199D02*
X2014950D01*
X2014350Y1691849D02*
X2014950D01*
X2014350Y1690499D02*
X2014950D01*
X2014350Y1689149D02*
X2014950D01*
X2014350Y1687799D02*
X2014950D01*
X2014350Y1686449D02*
X2014950D01*
X2014350Y1685099D02*
X2014950D01*
X2014350Y1683749D02*
X2014950D01*
X2014350Y1682399D02*
X2014950D01*
X2014350Y1681049D02*
X2014950D01*
X2014350Y1679699D02*
X2014950D01*
X2014350Y1678349D02*
X2014950D01*
X2014350Y1676999D02*
X2014950D01*
X2014350Y1675649D02*
X2014950D01*
X2014350Y1674299D02*
X2014950D01*
X2014350Y1672949D02*
X2014950D01*
X2014350Y1671599D02*
X2014950D01*
X2014350Y1670249D02*
X2014950D01*
X2014350Y1668899D02*
X2014950D01*
X2014350Y1667549D02*
X2014950D01*
X2014350Y1666199D02*
X2014950D01*
X2014350Y1664849D02*
X2014950D01*
X2014350Y1663499D02*
X2014950D01*
X2014350Y1662149D02*
X2014950D01*
X2014350Y1660799D02*
X2014950D01*
X2014350Y1659449D02*
X2014950D01*
X2014350Y1658099D02*
X2014950D01*
X2014350Y1656749D02*
X2014950D01*
X2014350Y1655399D02*
X2014950D01*
X2014350Y1654049D02*
X2014950D01*
X2014350Y1652699D02*
X2014950D01*
X2014350Y1651349D02*
X2014950D01*
X2014350Y1649999D02*
X2014950D01*
X2014350Y1648649D02*
X2014950D01*
X2014350Y1647299D02*
X2014950D01*
X2014350Y1645949D02*
X2014950D01*
X2014350Y1644599D02*
X2014950D01*
X2014350Y1643249D02*
X2014950D01*
X2014350Y1641899D02*
X2014950D01*
X2014350Y1640549D02*
X2014950D01*
X2014350Y1639199D02*
X2014950D01*
X2014350Y1637849D02*
X2014950D01*
X2014350Y1636499D02*
X2014950D01*
X2014350Y1635149D02*
X2014950D01*
X2014350Y1633799D02*
X2014950D01*
X2014350Y1632449D02*
X2014950D01*
X2014350Y1631099D02*
X2014950D01*
X2014350Y1629749D02*
X2014950D01*
X2014350Y1628399D02*
X2014950D01*
X2014350Y1627049D02*
X2014950D01*
X2014350Y1625699D02*
X2014950D01*
X2014350Y1624349D02*
X2014950D01*
X2014350Y1622999D02*
X2014950D01*
X2014350Y1621649D02*
X2014950D01*
X2014350Y1620299D02*
X2014950D01*
X2014350Y1618949D02*
X2014950D01*
X2014350Y1617599D02*
X2014950D01*
X2014350Y1616249D02*
X2014950D01*
X2012650Y1558199D02*
X2014585D01*
X2012468Y1824149D02*
X2014535D01*
X2012650Y1548749D02*
X2013317D01*
X2012650Y1559549D02*
X2013235D01*
X2011031Y1825499D02*
X2013185D01*
X2009218Y1585199D02*
X2011773D01*
X2007868Y1586549D02*
X2010684D01*
X1957243Y1820099D02*
X2010650D01*
X1956147Y1818749D02*
X2010650D01*
X1937950Y1817399D02*
X2010650D01*
X2006650Y1816049D02*
X2010650D01*
X2006650Y1814699D02*
X2010650D01*
X2006650Y1813349D02*
X2010650D01*
X2006650Y1811999D02*
X2010650D01*
X2006650Y1810649D02*
X2010650D01*
X2006650Y1809299D02*
X2010650D01*
X2006650Y1807949D02*
X2010650D01*
X2006650Y1806599D02*
X2010650D01*
X2006650Y1805249D02*
X2010650D01*
X2006650Y1803899D02*
X2010650D01*
X2006650Y1802549D02*
X2010650D01*
X2006650Y1801199D02*
X2010650D01*
X2006650Y1799849D02*
X2010650D01*
X2006650Y1798499D02*
X2010650D01*
X2006650Y1797149D02*
X2010650D01*
X2006650Y1795799D02*
X2010650D01*
X2006650Y1794449D02*
X2010650D01*
X2006650Y1793099D02*
X2010650D01*
X2006650Y1791749D02*
X2010650D01*
X2006650Y1790399D02*
X2010650D01*
X2006650Y1789049D02*
X2010650D01*
X2006650Y1787699D02*
X2010650D01*
X2006650Y1786349D02*
X2010650D01*
X2006650Y1784999D02*
X2010650D01*
X2006650Y1783649D02*
X2010650D01*
X2006650Y1782299D02*
X2010650D01*
X2006650Y1780949D02*
X2010650D01*
X2006650Y1779599D02*
X2010650D01*
X2006650Y1778249D02*
X2010650D01*
X2006650Y1776899D02*
X2010650D01*
X2006650Y1775549D02*
X2010650D01*
X2006650Y1774199D02*
X2010650D01*
X2006650Y1772849D02*
X2010650D01*
X2006650Y1771499D02*
X2010650D01*
X2006650Y1770149D02*
X2010650D01*
X2006650Y1768799D02*
X2010650D01*
X2006650Y1767449D02*
X2010650D01*
X2006650Y1766099D02*
X2010650D01*
X2006650Y1764749D02*
X2010650D01*
X2006650Y1763399D02*
X2010650D01*
X2006650Y1762049D02*
X2010650D01*
X2006650Y1760699D02*
X2010650D01*
X2006650Y1759349D02*
X2010650D01*
X2006650Y1757999D02*
X2010650D01*
X2006650Y1756649D02*
X2010650D01*
X2006650Y1755299D02*
X2010650D01*
X2006650Y1753949D02*
X2010650D01*
X2006650Y1752599D02*
X2010650D01*
X2006650Y1751249D02*
X2010650D01*
X2006650Y1749899D02*
X2010650D01*
X2006650Y1748549D02*
X2010650D01*
X2006650Y1747199D02*
X2010650D01*
X2006650Y1745849D02*
X2010650D01*
X2006650Y1744499D02*
X2010650D01*
X2006650Y1743149D02*
X2010650D01*
X2006650Y1741799D02*
X2010650D01*
X2006650Y1740449D02*
X2010650D01*
X2006650Y1739099D02*
X2010650D01*
X2006650Y1737749D02*
X2010650D01*
X2006650Y1736399D02*
X2010650D01*
X2006650Y1735049D02*
X2010650D01*
X2006650Y1733699D02*
X2010650D01*
X2006650Y1732349D02*
X2010650D01*
X2006650Y1730999D02*
X2010650D01*
X2006650Y1729649D02*
X2010650D01*
X2006650Y1728299D02*
X2010650D01*
X2006650Y1726949D02*
X2010650D01*
X2006650Y1725599D02*
X2010650D01*
X2006650Y1724249D02*
X2010650D01*
X2006650Y1722899D02*
X2010650D01*
X2006650Y1721549D02*
X2010650D01*
X2006650Y1720199D02*
X2010650D01*
X2006650Y1718849D02*
X2010650D01*
X2006650Y1717499D02*
X2010650D01*
X2006650Y1716149D02*
X2010650D01*
X2006650Y1714799D02*
X2010650D01*
X2006650Y1713449D02*
X2010650D01*
X2006650Y1712099D02*
X2010650D01*
X2006650Y1710749D02*
X2010650D01*
X2006650Y1709399D02*
X2010650D01*
X2006650Y1708049D02*
X2010650D01*
X2006650Y1706699D02*
X2010650D01*
X2006650Y1705349D02*
X2010650D01*
X2006650Y1703999D02*
X2010650D01*
X2006650Y1702649D02*
X2010650D01*
X2006650Y1701299D02*
X2010650D01*
X2009499Y1699949D02*
X2010650D01*
X2009948Y1698599D02*
X2010650D01*
X2009622Y1697249D02*
X2010650D01*
X2006650Y1695899D02*
X2010650D01*
X2006650Y1694549D02*
X2010650D01*
X2006650Y1693199D02*
X2010650D01*
X2006650Y1691849D02*
X2010650D01*
X2006650Y1690499D02*
X2010650D01*
X2008645Y1689149D02*
X2010650D01*
X2009232Y1687799D02*
X2010650D01*
X2009023Y1686449D02*
X2010650D01*
X2007558Y1685099D02*
X2010650D01*
X2006650Y1683749D02*
X2010650D01*
X2006650Y1682399D02*
X2010650D01*
X2006650Y1681049D02*
X2010650D01*
X2006650Y1679699D02*
X2010650D01*
X2006650Y1678349D02*
X2010650D01*
X2006650Y1676999D02*
X2010650D01*
X2006650Y1675649D02*
X2010650D01*
X2006650Y1674299D02*
X2010650D01*
X2006650Y1672949D02*
X2010650D01*
X2006650Y1671599D02*
X2010650D01*
X2006650Y1670249D02*
X2010650D01*
X2006650Y1668899D02*
X2010650D01*
X2006650Y1667549D02*
X2010650D01*
X2006650Y1666199D02*
X2010650D01*
X2008451Y1664849D02*
X2010650D01*
X2009544Y1663499D02*
X2010650D01*
X2009558Y1662149D02*
X2010650D01*
X2008924Y1660799D02*
X2010650D01*
X2009624Y1659449D02*
X2010650D01*
X2009426Y1658099D02*
X2010650D01*
X2006650Y1656749D02*
X2010650D01*
X2006650Y1655399D02*
X2010650D01*
X2008168Y1654049D02*
X2010650D01*
X2008742Y1652699D02*
X2010650D01*
X2008449Y1651349D02*
X2010650D01*
X2006650Y1649999D02*
X2010650D01*
X2006650Y1648649D02*
X2010650D01*
X2006650Y1647299D02*
X2010650D01*
X2006650Y1645949D02*
X2010650D01*
X2007988Y1644599D02*
X2010650D01*
X2008450Y1643249D02*
X2010650D01*
X2008057Y1641899D02*
X2010650D01*
X2006650Y1640549D02*
X2010650D01*
X2006650Y1639199D02*
X2010650D01*
X2006650Y1637849D02*
X2010650D01*
X2006650Y1636499D02*
X2010650D01*
X2006650Y1635149D02*
X2010650D01*
X2006650Y1633799D02*
X2010650D01*
X2006650Y1632449D02*
X2010650D01*
X2006650Y1631099D02*
X2010650D01*
X2006650Y1629749D02*
X2010650D01*
X2006650Y1628399D02*
X2010650D01*
X2006650Y1627049D02*
X2010650D01*
X2006650Y1625699D02*
X2010650D01*
X2006650Y1624349D02*
X2010650D01*
X2006650Y1622999D02*
X2010650D01*
X2006650Y1621649D02*
X2010650D01*
X2006650Y1620299D02*
X2010650D01*
X2006650Y1618949D02*
X2010650D01*
X2006650Y1617599D02*
X2010650D01*
X2006650Y1616249D02*
X2010650D01*
X2006650Y1614899D02*
X2010650D01*
X2006650Y1613549D02*
X2010650D01*
X2006650Y1612199D02*
X2010650D01*
X2006650Y1610849D02*
X2010650D01*
X2006650Y1609499D02*
X2010650D01*
X2006650Y1608149D02*
X2010650D01*
X2006650Y1606799D02*
X2010650D01*
X2006650Y1605449D02*
X2010650D01*
X2006650Y1604099D02*
X2010650D01*
X2006650Y1602749D02*
X2010650D01*
X2006650Y1601399D02*
X2010650D01*
X2006650Y1600049D02*
X2010650D01*
X2006650Y1598699D02*
X2010650D01*
X2006650Y1597349D02*
X2010650D01*
X2006650Y1595999D02*
X2010650D01*
X2006650Y1594649D02*
X2010650D01*
X2006650Y1593299D02*
X2010650D01*
X2006650Y1591949D02*
X2010650D01*
X2006650Y1590599D02*
X2010650D01*
X2006650Y1589249D02*
X2010650D01*
X2006650Y1587899D02*
X2010650D01*
X1997750Y1905149D02*
X2010118D01*
X1957259Y1821449D02*
X2009935D01*
X1997050Y1860599D02*
X2008843D01*
X1981677Y1879499D02*
X2008323D01*
X1997452Y1914599D02*
X2008252D01*
X1997050Y1859249D02*
X2008177D01*
X1937950Y1901099D02*
X2008139D01*
X1997750Y1910549D02*
X2008058D01*
X1997750Y1903799D02*
X2007949D01*
X1982103Y1880849D02*
X2007897D01*
X1997050Y1830899D02*
X2007773D01*
X1997748Y1902449D02*
X2007654D01*
X1997050Y1838999D02*
X2007547D01*
X1982552Y1888949D02*
X2007448D01*
X1997050Y1851149D02*
X2007271D01*
X1997750Y1913249D02*
X2007262D01*
X1997750Y1911899D02*
X2007222D01*
X1996249Y1868699D02*
X2007026D01*
X1997050Y1848449D02*
X2006688D01*
X1996063Y1871399D02*
X2006558D01*
X1997050Y1841699D02*
X2006516D01*
X1997044Y1861949D02*
X2006261D01*
X1997050Y1857899D02*
X2006124D01*
X1983922Y1878149D02*
X2006078D01*
X1983958Y1882199D02*
X2006042D01*
X1997050Y1832249D02*
X2006002D01*
X1997050Y1837649D02*
X2005924D01*
X1984112Y1887599D02*
X2005888D01*
X1997050Y1852499D02*
X2005819D01*
X1984280Y1867349D02*
X2005720D01*
X1997050Y1847099D02*
X2005576D01*
X1997050Y1843049D02*
X2005501D01*
X1984569Y1872749D02*
X2005431D01*
X1996318Y1863299D02*
X2005388D01*
X1997050Y1856549D02*
X2005328D01*
X1984707Y1883549D02*
X2005293D01*
X1997050Y1833599D02*
X2005276D01*
X1997050Y1836299D02*
X2005244D01*
X1984771Y1886249D02*
X2005229D01*
X1984788Y1876799D02*
X2005212D01*
X1997050Y1853849D02*
X2005201D01*
X1993618Y1865999D02*
X2005163D01*
X1997050Y1845749D02*
X2005113D01*
X1997050Y1844399D02*
X2005091D01*
X1994968Y1864649D02*
X2005064D01*
X1997050Y1855199D02*
X2005054D01*
X1984949Y1884899D02*
X2005051D01*
X1997050Y1834949D02*
X2005050D01*
X1985062Y1874099D02*
X2004938D01*
X1985128Y1875449D02*
X2004872D01*
X1968768Y1826849D02*
X1995136D01*
X1967418Y1828199D02*
X1993793D01*
X1981157Y1860599D02*
X1993350D01*
X1981823Y1859249D02*
X1993350D01*
X1983876Y1857899D02*
X1993350D01*
X1984672Y1856549D02*
X1993350D01*
X1984946Y1855199D02*
X1993350D01*
X1984799Y1853849D02*
X1993350D01*
X1984181Y1852499D02*
X1993350D01*
X1982729Y1851149D02*
X1993350D01*
X1972632Y1849799D02*
X1993350D01*
X1983312Y1848449D02*
X1993350D01*
X1984424Y1847099D02*
X1993350D01*
X1984887Y1845749D02*
X1993350D01*
X1984909Y1844399D02*
X1993350D01*
X1984499Y1843049D02*
X1993350D01*
X1983484Y1841699D02*
X1993350D01*
X1966950Y1840349D02*
X1993350D01*
X1982453Y1838999D02*
X1993350D01*
X1984076Y1837649D02*
X1993350D01*
X1984756Y1836299D02*
X1993350D01*
X1984950Y1834949D02*
X1993350D01*
X1984724Y1833599D02*
X1993350D01*
X1983998Y1832249D02*
X1993350D01*
X1982227Y1830899D02*
X1993350D01*
X1966950Y1829549D02*
X1993350D01*
X1983739Y1861949D02*
X1992435D01*
X1983442Y1871399D02*
X1991937D01*
X1982974Y1868699D02*
X1991751D01*
X1937950Y1870049D02*
X1991454D01*
X1966950Y1860599D02*
X1979843D01*
X1952677Y1879499D02*
X1979323D01*
X1966950Y1859249D02*
X1979177D01*
X1953103Y1880849D02*
X1978897D01*
X1966950Y1830899D02*
X1978773D01*
X1966950Y1838999D02*
X1978547D01*
X1953552Y1888949D02*
X1978448D01*
X1966950Y1851149D02*
X1978271D01*
X1953974Y1868699D02*
X1978026D01*
X1973050Y1848449D02*
X1977688D01*
X1954442Y1871399D02*
X1977558D01*
X1966950Y1841699D02*
X1977516D01*
X1966833Y1861949D02*
X1977261D01*
X1966950Y1857899D02*
X1977124D01*
X1954922Y1878149D02*
X1977078D01*
X1954958Y1882199D02*
X1977042D01*
X1966950Y1832249D02*
X1977002D01*
X1966950Y1837649D02*
X1976924D01*
X1955112Y1887599D02*
X1976888D01*
X1972080Y1852499D02*
X1976819D01*
X1955280Y1867349D02*
X1976720D01*
X1972693Y1847099D02*
X1976576D01*
X1966950Y1843049D02*
X1976501D01*
X1955569Y1872749D02*
X1976431D01*
X1965718Y1863299D02*
X1976388D01*
X1972018Y1856549D02*
X1976328D01*
X1955707Y1883549D02*
X1976293D01*
X1966950Y1833599D02*
X1976276D01*
X1966950Y1836299D02*
X1976244D01*
X1955771Y1886249D02*
X1976229D01*
X1955788Y1876799D02*
X1976212D01*
X1972965Y1853849D02*
X1976201D01*
X1963018Y1865999D02*
X1976163D01*
X1966950Y1845749D02*
X1976113D01*
X1966950Y1844399D02*
X1976091D01*
X1964368Y1864649D02*
X1976064D01*
X1972952Y1855199D02*
X1976054D01*
X1955949Y1884899D02*
X1976051D01*
X1966950Y1834949D02*
X1976050D01*
X1956062Y1874099D02*
X1975938D01*
X1956128Y1875449D02*
X1975872D01*
X1966950Y1856549D02*
X1968982D01*
X1966950Y1852499D02*
X1968920D01*
X1966950Y1849799D02*
X1968368D01*
X1966950Y1847099D02*
X1968307D01*
X1966950Y1855199D02*
X1968048D01*
X1966950Y1853849D02*
X1968035D01*
X1966950Y1848449D02*
X1967950D01*
X1956236Y1822799D02*
X1967585D01*
X1937950Y1824149D02*
X1966235D01*
X1937950Y1825499D02*
X1964885D01*
X1937950Y1826849D02*
X1963578D01*
X1952823Y1859249D02*
X1963250D01*
X1954876Y1857899D02*
X1963250D01*
X1955672Y1856549D02*
X1963250D01*
X1955946Y1855199D02*
X1963250D01*
X1955799Y1853849D02*
X1963250D01*
X1955181Y1852499D02*
X1963250D01*
X1953729Y1851149D02*
X1963250D01*
X1937950Y1849799D02*
X1963250D01*
X1954312Y1848449D02*
X1963250D01*
X1955424Y1847099D02*
X1963250D01*
X1955887Y1845749D02*
X1963250D01*
X1955909Y1844399D02*
X1963250D01*
X1955499Y1843049D02*
X1963250D01*
X1954484Y1841699D02*
X1963250D01*
X1937950Y1840349D02*
X1963250D01*
X1953453Y1838999D02*
X1963250D01*
X1955076Y1837649D02*
X1963250D01*
X1955756Y1836299D02*
X1963250D01*
X1955950Y1834949D02*
X1963250D01*
X1955724Y1833599D02*
X1963250D01*
X1954998Y1832249D02*
X1963250D01*
X1953227Y1830899D02*
X1963250D01*
X1937950Y1829549D02*
X1963250D01*
X1937950Y1828199D02*
X1963250D01*
X1952157Y1860599D02*
X1963185D01*
X1954739Y1861949D02*
X1961835D01*
X1937950Y1818749D02*
X1953853D01*
X1937950Y1822799D02*
X1953764D01*
X1937950Y1914599D02*
X1953048D01*
X1937950Y1820099D02*
X1952757D01*
X1937950Y1902449D02*
X1952752D01*
X1937950Y1913249D02*
X1952750D01*
X1937950Y1911899D02*
X1952750D01*
X1937950Y1910549D02*
X1952750D01*
X1937950Y1909199D02*
X1952750D01*
X1937950Y1907849D02*
X1952750D01*
X1937950Y1906499D02*
X1952750D01*
X1937950Y1905149D02*
X1952750D01*
X1937950Y1903799D02*
X1952750D01*
X1937950Y1821449D02*
X1952741D01*
X1937950Y1860599D02*
X1950843D01*
X1937950Y1879499D02*
X1950323D01*
X1937950Y1859249D02*
X1950177D01*
X1937950Y1880849D02*
X1949897D01*
X1937950Y1830899D02*
X1949773D01*
X1937950Y1838999D02*
X1949547D01*
X1937950Y1888949D02*
X1949448D01*
X1937950Y1851149D02*
X1949271D01*
X1937950Y1868699D02*
X1949026D01*
X1937950Y1848449D02*
X1948688D01*
X1937950Y1871399D02*
X1948558D01*
X1937950Y1841699D02*
X1948516D01*
X1937950Y1861949D02*
X1948261D01*
X1937950Y1857899D02*
X1948124D01*
X1937950Y1878149D02*
X1948078D01*
X1937950Y1882199D02*
X1948042D01*
X1937950Y1832249D02*
X1948002D01*
X1937950Y1837649D02*
X1947924D01*
X1937950Y1887599D02*
X1947888D01*
X1937950Y1852499D02*
X1947819D01*
X1937950Y1867349D02*
X1947720D01*
X1937950Y1847099D02*
X1947576D01*
X1937950Y1843049D02*
X1947501D01*
X1937950Y1872749D02*
X1947431D01*
X1937950Y1863299D02*
X1947388D01*
X1937950Y1856549D02*
X1947328D01*
X1937950Y1883549D02*
X1947293D01*
X1937950Y1833599D02*
X1947276D01*
X1937950Y1836299D02*
X1947244D01*
X1937950Y1886249D02*
X1947229D01*
X1937950Y1876799D02*
X1947212D01*
X1937950Y1853849D02*
X1947201D01*
X1937950Y1865999D02*
X1947163D01*
X1937950Y1845749D02*
X1947113D01*
X1937950Y1844399D02*
X1947091D01*
X1937950Y1864649D02*
X1947064D01*
X1937950Y1855199D02*
X1947054D01*
X1937950Y1884899D02*
X1947051D01*
X1937950Y1834949D02*
X1947050D01*
X1937950Y1874099D02*
X1946938D01*
X1937950Y1875449D02*
X1946872D01*
X2099647Y1881853D02*
X2098692Y1882808D01*
X2099647Y1888147D02*
X2098692Y1887192D01*
X2093353Y1888147D02*
X2094308Y1887192D01*
X2093353Y1881853D02*
X2094308Y1882808D01*
X2090603Y1777903D02*
X2089649Y1776949D01*
X2090603Y1772097D02*
X2089649Y1773051D01*
X2084797Y1772097D02*
X2085751Y1773051D01*
X2084797Y1777903D02*
X2085751Y1776949D01*
X2090603Y1512903D02*
X2089649Y1511949D01*
X2090603Y1507097D02*
X2089649Y1508051D01*
X2084797Y1507097D02*
X2085751Y1508051D01*
X2084797Y1512903D02*
X2085751Y1511949D01*
X2090603Y1477903D02*
X2089649Y1476949D01*
X2090603Y1472097D02*
X2089649Y1473051D01*
X2084797Y1472097D02*
X2085751Y1473051D01*
X2084797Y1477903D02*
X2085751Y1476949D01*
X2090603Y1742903D02*
X2089649Y1741949D01*
X2090603Y1737097D02*
X2089649Y1738051D01*
X2084797Y1737097D02*
X2085751Y1738051D01*
X2084797Y1742903D02*
X2085751Y1741949D01*
X2070647Y1881853D02*
X2069692Y1882808D01*
X2070647Y1888147D02*
X2069692Y1887192D01*
X2064353Y1888147D02*
X2065308Y1887192D01*
X2064353Y1881853D02*
X2065308Y1882808D01*
X2041647Y1881853D02*
X2040692Y1882808D01*
X2041647Y1888147D02*
X2040692Y1887192D01*
X2035353Y1888147D02*
X2036308Y1887192D01*
X2035353Y1881853D02*
X2036308Y1882808D01*
X2012647Y1881853D02*
X2011692Y1882808D01*
X2012647Y1888147D02*
X2011692Y1887192D01*
X2006353Y1888147D02*
X2007308Y1887192D01*
X2006353Y1881853D02*
X2007308Y1882808D01*
X1983647Y1881853D02*
X1982692Y1882808D01*
X1983647Y1888147D02*
X1982692Y1887192D01*
X1977353Y1888147D02*
X1978308Y1887192D01*
X1977353Y1881853D02*
X1978308Y1882808D01*
X1954647Y1881853D02*
X1953692Y1882808D01*
X1954647Y1888147D02*
X1953692Y1887192D01*
X1948353Y1888147D02*
X1949308Y1887192D01*
X1948353Y1881853D02*
X1949308Y1882808D01*
X1956662Y1822462D02*
X1955707Y1821507D01*
X1953338Y1822462D02*
X1954293Y1821507D01*
X1953338Y1819138D02*
X1954293Y1820093D01*
X1956662Y1819138D02*
X1955707Y1820093D01*
G54D101*
X1951500Y1865000D03*
Y1885000D03*
X1980500Y1865000D03*
Y1885000D03*
X2009500Y1865000D03*
Y1885000D03*
X2038500Y1865000D03*
Y1885000D03*
X2067500Y1865000D03*
Y1885000D03*
X2096500Y1865000D03*
Y1885000D03*
G54D155*
X2087700Y1740000D03*
Y1747874D03*
Y1775000D03*
Y1475000D03*
Y1502126D03*
Y1510000D03*
G74*
X0Y0D02*
M02*
