*
*
G04 PADS 9.4.1 Build Number: 494907 generated Gerber (RS-274-X) file*
G04 PC Version=2.1*
*
%IN "09051-00135-A.pcb"*%
*
%MOIN*%
*
%FSLAX35Y35*%
*
*
*
*
G04 PC Standard Apertures*
*
*
G04 Thermal Relief Aperture macro.*
%AMTER*
1,1,$1,0,0*
1,0,$1-$2,0,0*
21,0,$3,$4,0,0,45*
21,0,$3,$4,0,0,135*
%
*
*
G04 Annular Aperture macro.*
%AMANN*
1,1,$1,0,0*
1,0,$2,0,0*
%
*
*
G04 Odd Aperture macro.*
%AMODD*
1,1,$1,0,0*
1,0,$1-0.005,0,0*
%
*
*
G04 PC Custom Aperture Macros*
*
*
*
*
*
*
G04 PC Aperture Table*
*
%ADD010C,0.01*%
%ADD012C,0.001*%
%ADD016C,0.02*%
%ADD018C,0.015*%
%ADD101C,0.062*%
%ADD155C,0.05512*%
*
*
*
*
G04 PC Circuitry*
G04 Layer Name 09051-00135-A.pcb - circuitry*
%LPD*%
*
*
G04 PC Custom Flashes*
G04 Layer Name 09051-00135-A.pcb - flashes*
%LPD*%
*
*
G04 PC Circuitry*
G04 Layer Name 09051-00135-A.pcb - circuitry*
%LPD*%
*
G54D10*
G01X1979068Y1910694D02*
X1977477D01*
X1977318Y1908725*
X1977477Y1908944*
X1977955Y1909163*
X1977955D02*
X1978432D01*
X1978432D02*
X1978909Y1908944D01*
X1979227Y1908506*
X1979386Y1907850*
X1979227Y1907413*
X1979227D02*
X1979068Y1906756D01*
X1978750Y1906319*
X1978273Y1906100*
X1977795*
X1977318Y1906319*
X1977159Y1906538*
X1977159D02*
X1977000Y1906975D01*
X2024000Y1305300D02*
X2042300D01*
X2046400Y1301200*
X2087700*
X2089300Y1302800*
X2100650*
X2102400Y1304550*
Y1321000*
X1933500Y1339700D02*
X1937700Y1343900D01*
Y1350700*
X1933500Y1339700D02*
Y1313600D01*
X1935900Y1311200*
X1949100*
X1954700Y1316800*
X1957700*
X1959100Y1315400*
X1983000*
X1953900Y1336500D02*
Y1343200D01*
X1955600Y1344900*
Y1349400*
X2024200Y1348500D02*
X2031100Y1341500D01*
X2034700*
X2036800Y1343600*
X2100850*
X2102600Y1345350*
Y1362200*
X1935600Y1385200D02*
X1939100Y1388700D01*
Y1394800*
X1935600Y1385200D02*
Y1355700D01*
X1939600Y1351700*
Y1344000*
X1944400Y1339200*
Y1329200*
X1949700Y1323900*
X1954800*
X1956900Y1321800*
X1975300*
X1976600Y1320500*
X1984600*
X1933800Y1387100D02*
X1936800Y1390100D01*
Y1393400*
X1933800Y1387100D02*
Y1354600D01*
X1937700Y1350700*
X1967100Y1376100D02*
X1974763Y1368437D01*
Y1366700*
X1982863Y1358600*
X1967100Y1376100D02*
Y1399700D01*
X1971500Y1404100*
X1971800Y1359163D02*
X1977263Y1353700D01*
Y1350200*
X1990963Y1336500*
X2004750Y1322700*
Y1321550*
X2010100Y1316200*
X2015900*
X2016000Y1316100*
X1971800Y1359163D02*
Y1367600D01*
X1971875Y1367675*
X1984200Y1363100D02*
Y1363400D01*
X1988700Y1367900*
Y1496800*
X2102500Y1362500D02*
X2102600Y1362200D01*
X1969400Y1398500D02*
X1973600Y1402700D01*
Y1416200*
X1969400Y1398500D02*
Y1389000D01*
X1975700Y1382700*
X2010800Y1405700D02*
X2014200Y1402300D01*
Y1402400*
X2016400*
X2010800Y1405700D02*
Y1431600D01*
X2018100Y1438900*
X2015100Y1405000D02*
X2012400Y1407500D01*
Y1430200*
X2020100Y1437900*
X2023600Y1391500D02*
X2031000Y1384100D01*
X2044300*
X2046900Y1386700*
X2100950*
X2102700Y1388450*
Y1405800*
X1925100Y1465800D02*
X1926200Y1466900D01*
Y1521600*
X1933800Y1529200*
Y1674700*
X1925100Y1465800D02*
Y1460800D01*
X1930500Y1455400*
Y1309500*
X1938800Y1301200*
X1957400*
X1961300Y1305100*
Y1308000*
X1930400Y1463000D02*
X1933700Y1459700D01*
Y1396500*
X1936800Y1393400*
X1952500Y1431000D02*
Y1424500D01*
X1954100Y1422800*
Y1443700D02*
Y1441700D01*
X1964500Y1431200*
Y1425300*
X1973600Y1416200*
X2008900Y1432606D02*
X2016200Y1439906D01*
Y1547900*
X2008900Y1432606D02*
Y1403306D01*
X2015406Y1396800*
X2018900*
X2021000Y1430300D02*
X2024500D01*
X2026100Y1431900*
X1901500Y1501300D02*
X1902200D01*
X1903900Y1503000*
X1901500Y1493400D02*
X1901600Y1493500D01*
X1904300*
X1906300Y1495500*
X1901500Y1485500D02*
X1905800D01*
X1908600Y1488300*
X1901500Y1477600D02*
X1908900D01*
X1910700Y1479400*
X1901300Y1470000D02*
X1911000D01*
X1912600Y1471600*
Y1520500*
X1936100Y1476300D02*
X1944100Y1468300D01*
Y1434600*
X1945500Y1433200*
Y1426200*
X1936100Y1476300D02*
Y1517300D01*
X1943800Y1525000*
X1948900Y1477400D02*
X1951700Y1474600D01*
Y1440100*
X1962000Y1429800*
Y1424300*
X1971500Y1415000*
Y1404100*
X1948900Y1477400D02*
Y1514100D01*
X1957600Y1522800*
Y1554200*
X1960300Y1556900*
Y1633000*
X1945700Y1476300D02*
X1949900Y1472100D01*
Y1438200*
X1959400Y1428700*
Y1405000*
X1964100Y1400500*
Y1375600*
X1971875Y1367825*
Y1367675*
X1945700Y1476300D02*
Y1515200D01*
X1951800Y1521300*
Y1533600*
X1954700Y1536500*
X1954800*
Y1556100*
X1957300Y1558600*
X1954700Y1490600D02*
Y1447900D01*
X1957200Y1445400*
Y1442400*
X1966800Y1432800*
Y1425700*
X1975500Y1417000*
Y1403500*
X1978300Y1400700*
Y1370800*
X1980200Y1368900*
X1981800*
X1954700Y1490600D02*
X1956900Y1492800D01*
X1957000*
Y1517600*
X1959700Y1520300*
X1959800*
Y1552600*
X1963200Y1556000*
Y1650300*
X1964800Y1491300D02*
Y1470300D01*
X1969200Y1465900*
X1964800Y1491300D02*
Y1518317D01*
X1965687Y1519204*
X1960100Y1471200D02*
X1961500D01*
X1966900Y1465800*
Y1463900*
X1970300Y1460500*
Y1453500*
X1898800Y1521700D02*
X1903900Y1516600D01*
Y1503000*
X1898800Y1521700D02*
Y1572900D01*
X1902100Y1576200*
X1911000*
X1900900Y1522400D02*
X1906300Y1517000D01*
Y1495500*
X1900900Y1522400D02*
Y1571300D01*
X1902600Y1573000*
X1911000*
X1902800Y1523900D02*
X1908600Y1518100D01*
Y1488300*
X1902800Y1523900D02*
Y1564500D01*
X1905034Y1566700*
X1911000*
X1929100Y1520800D02*
X1936000Y1527700D01*
X1936100*
Y1652700*
X1929100Y1520800D02*
Y1472500D01*
X1936300Y1465300*
Y1397600*
X1939100Y1394800*
X1933500Y1518500D02*
X1940900Y1525900D01*
Y1576000*
X1941000Y1576100*
X1933500Y1518500D02*
Y1475100D01*
X1941700Y1466900*
Y1433800*
X1942800Y1432700*
Y1388200*
X1946300Y1384700*
Y1379100*
X1953500Y1371900*
Y1351500*
X1955600Y1349400*
X1938300Y1515300D02*
X1946200Y1523200D01*
Y1581200*
X1946400Y1581400*
X1938300Y1515300D02*
Y1477300D01*
X1946100Y1469500*
Y1435600*
X1947700Y1434100*
Y1431100*
X1931400Y1519800D02*
X1938300Y1526700D01*
Y1655700*
X1931400Y1519800D02*
Y1474100D01*
X1939400Y1466100*
Y1433500*
X1941100Y1431800*
Y1385600*
X1944000Y1382700*
Y1347500*
X1949000Y1342500*
Y1334000*
X1955600Y1327400*
X1975100*
X1979000Y1323500*
X1982800*
X1984900Y1325600*
X1943000Y1516300D02*
X1950100Y1523350D01*
Y1534900*
X1952200Y1537000*
Y1661900*
X1952300Y1662000*
X1943000Y1516300D02*
Y1475600D01*
X1948000Y1470600*
Y1436700*
X1949900Y1434800*
Y1419000*
X1957000Y1411900*
Y1401700*
X1958800Y1399900*
Y1349400*
X1960400Y1347800*
X1965950*
X1969150Y1344600*
Y1341050*
X1979400Y1330800*
Y1326900*
X1980500Y1325800*
X1981800*
X1904700Y1525100D02*
X1910700Y1519100D01*
Y1479400*
X1904700Y1525100D02*
Y1561884D01*
X1906400Y1563600*
X1911000*
X1968300Y1547600D02*
Y1517200D01*
X1988700Y1496800*
X2003200Y1521900D02*
X2007000Y1518100D01*
Y1401600*
X2009800Y1398800*
Y1377800*
X2011800Y1375800*
Y1360400*
X2012200Y1360000*
Y1333500*
X2017200Y1328500*
X1896400Y1574600D02*
X1904300Y1582500D01*
X1911000*
X1896400Y1574600D02*
Y1519800D01*
X1901400Y1515000*
Y1509100*
X1940600Y1580700D02*
X1943800Y1577500D01*
Y1525000*
X1940600Y1580700D02*
Y1655100D01*
X1943600Y1658100*
Y1659700*
X1943700*
X1906700Y1558934D02*
X1908200Y1560400D01*
X1911000*
X1906700Y1558934D02*
Y1526400D01*
X1912600Y1520500*
X1979100Y1588000D02*
X2018000Y1549000D01*
X2018100Y1438900*
X1979100Y1588000D02*
Y1649400D01*
X1980600Y1650900*
Y1677200*
X1984500Y1681100*
Y1688400*
X1984700Y1688500*
X1971200Y1570800D02*
X1986100Y1555400D01*
Y1551600*
X1994900Y1542800*
X1971200Y1570800D02*
Y1573500D01*
X1971300Y1573600*
X1970800Y1550100D02*
Y1518600D01*
X1990800Y1498600*
Y1367400*
X1993900Y1364300*
Y1358600*
X2001100Y1351400*
Y1333100*
X2011800Y1322400*
Y1320450*
X2013550Y1318700*
X2014600*
X2014800Y1318500*
X1968200Y1561400D02*
X1968600D01*
X2003400Y1526800*
X1973100Y1552200D02*
X1973200Y1520200D01*
X1992700Y1500700*
Y1425000*
X1996400Y1421500*
Y1363300*
X2009900Y1349800*
Y1329900*
X2015900Y1324000*
X2017600Y1552600D02*
X2020100Y1550200D01*
Y1437900*
X2020500Y1554900D02*
X2022100Y1553300D01*
Y1438200*
X2026100Y1434100*
Y1431900*
X2024200Y1588800D02*
X2028900D01*
X2034800Y1594700*
X1954800Y1602200D02*
Y1569500D01*
X1957300Y1567000*
Y1558600*
X1971900Y1616700D02*
Y1612800D01*
X1973300Y1611400*
Y1578400*
X1988100Y1563800*
Y1561600*
X1997700Y1552100*
X1969100Y1621300D02*
Y1612600D01*
X1971600Y1610100*
Y1576900*
X1985500Y1563000*
Y1559900*
X1995900Y1549500*
Y1546300*
X1936900Y1657100D02*
X1938300Y1655700D01*
X1965600Y1664400D02*
X1965687Y1519204D01*
X2006400Y1652500D02*
X2008700Y1650200D01*
Y1583200*
X2017600Y1574300*
Y1552600*
X1968500Y1684000D02*
X1975700Y1676800D01*
Y1580700*
X1993000Y1563400*
X1997100*
X2014000Y1546500*
X1977400Y1692700D02*
Y1586700D01*
X2016200Y1547900*
X2032400Y1693000D02*
X2035400Y1690000D01*
Y1674800*
X2048400Y1661800*
X2032400Y1693000D02*
Y1817400D01*
X2035300Y1820300*
X2077100*
X2079600Y1822800*
Y1832200*
X2082400Y1835000*
X2096500*
X2028600Y1690600D02*
X2031500Y1687700D01*
Y1640900*
X2034800Y1637600*
Y1594700*
X2028600Y1690600D02*
Y1820800D01*
X2032000Y1824200*
X2052200*
X2054100Y1826100*
Y1832900*
X2056200Y1835000*
X2067500*
X2037700Y1687800D02*
X2038000D01*
X2038100Y1687900*
X2044900*
X2055500Y1677300*
Y1508700*
X2071800Y1492400*
Y1472126*
X2076800Y1467126*
X2087700*
X2065400Y1669200D02*
X2067800Y1671600D01*
Y1780900*
X2070200Y1783300*
X2087274*
X2087700Y1782874*
X1930500Y1748800D02*
Y1719000D01*
X1930600*
X2024700Y1824600D02*
X2028400Y1828300D01*
X2048400*
X2050200Y1830100*
Y1833100*
X2024700Y1824600D02*
Y1685500D01*
X2027400Y1682800*
Y1639700*
X2031500Y1635600*
Y1636000*
X1980500Y1835000D02*
X1992200D01*
X1995300Y1832000*
Y1829200*
X1996300Y1828100*
X2012900Y1828200*
X2016900Y1824200*
Y1604200*
X2019200Y1601900*
X2024500*
X1951500Y1835000D02*
X1961600D01*
X1965000Y1831600*
Y1827800*
X1968900Y1823900*
X2010000*
X2012500Y1821400*
Y1585200*
X2018300Y1579400*
X2022300*
X2009500Y1835000D02*
X2017200D01*
X2020900Y1831300*
Y1608900*
X2022100Y1607700*
X2024600*
X2038500Y1835000D02*
X2048300D01*
X2050200Y1833100*
X1852500Y1925000D02*
X2147500D01*
Y1275000*
X1852500*
Y1925000*
X1975800Y1913100D02*
X1980600D01*
Y1903600*
X1975800*
Y1913100*
G54D12*
G54D16*
X1961300Y1308000D03*
X2024000Y1305300D03*
X1983000Y1315400D03*
X1953900Y1336500D03*
X1981800Y1325800D03*
X1984600Y1320500D03*
X2014800Y1318500D03*
X2016000Y1316100D03*
X2017200Y1328500D03*
X2015900Y1324000D03*
X1984900Y1325600D03*
X2024200Y1348500D03*
X2102400Y1321000D03*
X1982863Y1358600D03*
X1975700Y1382700D03*
X1981800Y1368900D03*
X1984200Y1363100D03*
X2102500Y1362500D03*
X1954100Y1422800D03*
X1945500Y1426200D03*
X2015100Y1405000D03*
X2016400Y1402400D03*
X2018900Y1396800D03*
X2023600Y1391500D03*
X2102700Y1405800D03*
X1930400Y1463000D03*
X1952500Y1431000D03*
X1969200Y1465900D03*
X1970300Y1453500D03*
X1947700Y1431100D03*
X1954100Y1443700D03*
X2021000Y1430300D03*
X1901500Y1501300D03*
Y1493400D03*
Y1485500D03*
Y1477600D03*
X1901300Y1470000D03*
X1964800Y1491300D03*
X1960100Y1471200D03*
X1901400Y1509100D03*
X1968300Y1547600D03*
X2014000Y1546500D03*
X2003400Y1526800D03*
X1994900Y1542800D03*
X2003200Y1521900D03*
X1995900Y1546300D03*
X1941000Y1576100D03*
X1911000Y1582500D03*
Y1576200D03*
Y1573000D03*
Y1566700D03*
Y1563600D03*
Y1560400D03*
X1970800Y1550100D03*
X1968200Y1561400D03*
X1971300Y1573600D03*
X1946400Y1581400D03*
X1973100Y1552200D03*
X2017600Y1552600D03*
X2022300Y1579400D03*
X2020500Y1554900D03*
X1997700Y1552100D03*
X2024200Y1588800D03*
X1954800Y1602200D03*
X1971900Y1616700D03*
X1969100Y1621300D03*
X2024600Y1607700D03*
X2024500Y1601900D03*
X1936100Y1652700D03*
X1936900Y1657100D03*
X1960300Y1633000D03*
X1965600Y1664400D03*
X1952300Y1662000D03*
X1963200Y1650300D03*
X1943700Y1659700D03*
X2006400Y1652500D03*
X2048400Y1661800D03*
X2031500Y1636000D03*
X1933800Y1674700D03*
X1968500Y1684000D03*
X1977400Y1692700D03*
X1984700Y1688500D03*
X2037700Y1687800D03*
X2065400Y1669200D03*
X1930600Y1719000D03*
X1930500Y1748800D03*
X1955000Y1820800D03*
G54D18*
X2105184Y1564800D02*
G75*
G03X2105184I-2350J0D01*
G01X2104650Y1588800D02*
G03X2104650I-2550J0D01*
G01X2090425Y1537992D02*
G03X2090425I-2925J0D01*
G01X2089950Y1547100D02*
G03X2089950I-2550J0D01*
G01X2090050Y1563500D02*
G03X2090050I-2550J0D01*
G01X2090125Y1639175D02*
G03X2090125I-2550J0D01*
G01X2090150Y1670900D02*
G03X2090150I-2550J0D01*
G01X2089550Y1699000D02*
G03X2089550I-2550J0D01*
G01X2091212Y1712008D02*
G03X2091212I-3712J0D01*
G01X2108050Y1809900D02*
G03X2108050I-10550J0D01*
G01X2064550Y1758300D02*
G03X2064550I-2350J0D01*
G01X2072050Y1563600D02*
G03X2072050I-2350J0D01*
G01Y1666700D02*
G03X2072050I-2350J0D01*
G01X2100950Y1845000D02*
G03X2100950I-4450J0D01*
G01Y1855000D02*
G03X2100950I-4450J0D01*
G01Y1865000D02*
G03X2100950I-4450J0D01*
G01X2101150Y1875000D02*
G03X2101150I-4650J0D01*
G01X2100950Y1885000D02*
G03X2100950I-4450J0D01*
G01X2108050Y1907500D02*
G03X2108050I-10550J0D01*
G01X2071950Y1845000D02*
G03X2071950I-4450J0D01*
G01Y1855000D02*
G03X2071950I-4450J0D01*
G01Y1865000D02*
G03X2071950I-4450J0D01*
G01X2072150Y1875000D02*
G03X2072150I-4650J0D01*
G01X2071950Y1885000D02*
G03X2071950I-4450J0D01*
G01Y1902500D02*
G03X2071950I-4450J0D01*
G01X2072150Y1912500D02*
G03X2072150I-4650J0D01*
G01X2042950Y1845000D02*
G03X2042950I-4450J0D01*
G01Y1855000D02*
G03X2042950I-4450J0D01*
G01Y1865000D02*
G03X2042950I-4450J0D01*
G01X2043150Y1875000D02*
G03X2043150I-4650J0D01*
G01X2042950Y1885000D02*
G03X2042950I-4450J0D01*
G01Y1902500D02*
G03X2042950I-4450J0D01*
G01X2043150Y1912500D02*
G03X2043150I-4650J0D01*
G01X2023550D02*
G03X2023550I-2350J0D01*
G01X2013950Y1845000D02*
G03X2013950I-4450J0D01*
G01Y1855000D02*
G03X2013950I-4450J0D01*
G01Y1865000D02*
G03X2013950I-4450J0D01*
G01X2014150Y1875000D02*
G03X2014150I-4650J0D01*
G01X2013950Y1885000D02*
G03X2013950I-4450J0D01*
G01X2012750Y1902600D02*
G03X2012750I-2550J0D01*
G01X2012250Y1912500D02*
G03X2012250I-2550J0D01*
G01X1996550Y1869900D02*
G03X1996550I-2550J0D01*
G01X1984950Y1845000D02*
G03X1984950I-4450J0D01*
G01Y1855000D02*
G03X1984950I-4450J0D01*
G01Y1865000D02*
G03X1984950I-4450J0D01*
G01X1985150Y1875000D02*
G03X1985150I-4650J0D01*
G01X1984950Y1885000D02*
G03X1984950I-4450J0D01*
G01X1973050Y1848400D02*
G03X1973050I-2550J0D01*
G01Y1854500D02*
G03X1973050I-2550J0D01*
G01X1955950Y1845000D02*
G03X1955950I-4450J0D01*
G01Y1855000D02*
G03X1955950I-4450J0D01*
G01Y1865000D02*
G03X1955950I-4450J0D01*
G01X1956150Y1875000D02*
G03X1956150I-4650J0D01*
G01X1955950Y1885000D02*
G03X1955950I-4450J0D01*
G01X1957350Y1820800D02*
G03X1957350I-2350J0D01*
G01X2026650Y1595000D02*
G03X2026650I-2350J0D01*
G01X2052250Y1583200D02*
G03X2052250I-2350J0D01*
G01X2047950Y1652100D02*
G03X2047950I-2350J0D01*
G01X2052650Y1652300D02*
G03X2052650I-2350J0D01*
G01X2025950Y1569800D02*
G03X2025950I-2350J0D01*
G01X2110750Y1919749D02*
Y1920936D01*
X2110158Y1923250D02*
G03X2110750Y1920936I3842J-250D01*
G01X2110158Y1923250D02*
X1937950D01*
Y1816450*
X2006650*
Y1700937*
Y1696063D02*
G03Y1700937I750J2437D01*
G01Y1696063D02*
Y1690050D01*
Y1684950D02*
G03Y1690050I50J2550D01*
G01Y1684950D02*
Y1665058D01*
X2008749Y1660950D02*
G03X2006650Y1665058I-1449J1850D01*
G01Y1656842D02*
G03X2008749Y1660950I650J2258D01*
G01X2006650Y1656842D02*
Y1654837D01*
X2008733Y1652783D02*
G03X2006650Y1654837I-2333J-283D01*
G01X2008733Y1652783D02*
X2010008Y1651508D01*
X2010550Y1650200D02*
G03X2010008Y1651508I-1850J0D01*
G01X2010550Y1650200D02*
Y1583966D01*
X2018908Y1575608*
X2019450Y1574300D02*
G03X2018908Y1575608I-1850J0D01*
G01X2019450Y1574300D02*
Y1557002D01*
X2022833Y1555183D02*
G03X2019450Y1557002I-2333J-283D01*
G01X2022833Y1555183D02*
X2023408Y1554608D01*
X2023950Y1553300D02*
G03X2023408Y1554608I-1850J0D01*
G01X2023950Y1553300D02*
Y1552149D01*
X2024851Y1552850D02*
G03X2023950Y1552149I949J-2150D01*
G01X2025308Y1555729D02*
G03X2024851Y1552850I1592J-1729D01*
G01X2029023Y1558499D02*
G03X2025308Y1555729I-1623J-1699D01*
G01X2029477Y1555701D02*
G03X2029023Y1558499I1623J1699D01*
G01X2028992Y1555071D02*
G03X2029477Y1555701I-1592J1729D01*
G01X2027849Y1551850D02*
G03X2028992Y1555071I-949J2150D01*
G01X2023950Y1549251D02*
G03X2027849Y1551850I1850J1449D01*
G01X2023950Y1549251D02*
Y1516450D01*
X2043250*
Y1499450*
X2055750*
Y1456950*
X2100751*
X2105049D02*
G03X2100751I-2149J950D01*
G01X2105049D02*
X2110750D01*
Y1590936*
Y1595064D02*
G03Y1590936I3250J-2064D01*
G01Y1595064D02*
Y1596251D01*
Y1599749D02*
G03Y1596251I2250J-1749D01*
G01Y1599749D02*
Y1600251D01*
Y1603749D02*
G03Y1600251I2250J-1749D01*
G01Y1603749D02*
Y1604936D01*
Y1609064D02*
G03Y1604936I3250J-2064D01*
G01Y1609064D02*
Y1753436D01*
Y1757564D02*
G03Y1753436I3250J-2064D01*
G01Y1757564D02*
Y1758751D01*
Y1762249D02*
G03Y1758751I2250J-1749D01*
G01Y1762249D02*
Y1762751D01*
Y1766249D02*
G03Y1762751I2250J-1749D01*
G01Y1766249D02*
Y1767436D01*
Y1771564D02*
G03Y1767436I3250J-2064D01*
G01Y1771564D02*
Y1906936D01*
Y1911064D02*
G03Y1906936I3250J-2064D01*
G01Y1911064D02*
Y1912251D01*
Y1915749D02*
G03Y1912251I2250J-1749D01*
G01Y1915749D02*
Y1916251D01*
Y1919749D02*
G03Y1916251I2250J-1749D01*
G01X2105184Y1564800D02*
G03X2105184I-2350J0D01*
G01X2103908Y1577502D02*
G03X2100292I-1808J1798D01*
G01X2103866Y1574450D02*
G03X2103908Y1577502I-1766J1550D01*
G01X2104033Y1571563D02*
G03X2103866Y1574450I-1933J1337D01*
G01X2100167Y1571563D02*
G03X2104033I1933J-1663D01*
G01X2100334Y1574450D02*
G03X2100167Y1571563I1766J-1550D01*
G01X2100292Y1577502D02*
G03X2100334Y1574450I1808J-1502D01*
G01X2104650Y1588800D02*
G03X2104650I-2550J0D01*
G01X2104195Y1605565D02*
G03X2104231Y1609810I-1395J2135D01*
G01X2103866Y1602950D02*
G03X2104195Y1605565I-1766J1550D01*
G01X2103952Y1599953D02*
G03X2103866Y1602950I-1852J1447D01*
G01X2100248Y1599953D02*
G03X2103952I1852J-1753D01*
G01X2100334Y1602950D02*
G03X2100248Y1599953I1766J-1550D01*
G01X2100641Y1606343D02*
G03X2100334Y1602950I1459J-1843D01*
G01X2100601Y1608990D02*
G03X2100641Y1606343I2199J-1290D01*
G01X2100427Y1612450D02*
G03X2100601Y1608990I1673J-1650D01*
G01X2100167Y1615437D02*
G03X2100427Y1612450I1933J-1337D01*
G01X2104033Y1615437D02*
G03X2100167I-1933J1663D01*
G01X2103773Y1612450D02*
G03X2104033Y1615437I-1673J1650D01*
G01X2104231Y1609810D02*
G03X2103773Y1612450I-2131J990D01*
G01X2100167Y1628163D02*
G03X2104033I1933J-1663D01*
G01X2100427Y1631150D02*
G03X2100167Y1628163I1673J-1650D01*
G01X2103773Y1631150D02*
G03X2100427I-1673J1650D01*
G01X2104033Y1628163D02*
G03X2103773Y1631150I-1933J1337D01*
G01X2104231Y1655890D02*
G03X2100601Y1656710I-1431J2110D01*
G01X2103866Y1653350D02*
G03X2104231Y1655890I-1766J1550D01*
G01X2104195Y1650735D02*
G03X2103866Y1653350I-2095J1065D01*
G01X2104195Y1646465D02*
G03Y1650735I-1395J2135D01*
G01X2103909Y1643900D02*
G03X2104195Y1646465I-1809J1500D01*
G01X2100291Y1643900D02*
G03X2103909I1809J-1500D01*
G01X2100641Y1647243D02*
G03X2100291Y1643900I1459J-1843D01*
G01X2100641Y1649957D02*
G03Y1647243I2159J-1357D01*
G01X2100334Y1653350D02*
G03X2100641Y1649957I1766J-1550D01*
G01X2100601Y1656710D02*
G03X2100334Y1653350I1499J-1810D01*
G01X2104195Y1687465D02*
G03X2100641Y1688243I-1395J2135D01*
G01X2103773Y1684750D02*
G03X2104195Y1687465I-1673J1650D01*
G01X2104231Y1682110D02*
G03X2103773Y1684750I-2131J990D01*
G01X2104231Y1677890D02*
G03Y1682110I-1431J2110D01*
G01X2103866Y1675350D02*
G03X2104231Y1677890I-1766J1550D01*
G01X2100334Y1675350D02*
G03X2103866I1766J-1550D01*
G01X2100601Y1678710D02*
G03X2100334Y1675350I1499J-1810D01*
G01X2100601Y1681290D02*
G03Y1678710I2199J-1290D01*
G01X2100427Y1684750D02*
G03X2100601Y1681290I1673J-1650D01*
G01X2100641Y1688243D02*
G03X2100427Y1684750I1459J-1843D01*
G01X2088866Y1513937D02*
G03X2086534I-1166J3937D01*
G01X2088866Y1506063D02*
G03Y1513937I-1166J3937D01*
G01X2086534Y1506063D02*
G03X2088866I1166J-3937D01*
G01X2086534Y1513937D02*
G03Y1506063I1166J-3937D01*
G01X2090425Y1537992D02*
G03X2090425I-2925J0D01*
G01X2089950Y1547100D02*
G03X2089950I-2550J0D01*
G01X2090050Y1563500D02*
G03X2090050I-2550J0D01*
G01X2090125Y1639175D02*
G03X2090125I-2550J0D01*
G01X2090150Y1670900D02*
G03X2090150I-2550J0D01*
G01X2089550Y1699000D02*
G03X2089550I-2550J0D01*
G01X2091212Y1712008D02*
G03X2091212I-3712J0D01*
G01X2088866Y1743937D02*
G03X2086534I-1166J3937D01*
G01X2088866Y1736063D02*
G03Y1743937I-1166J3937D01*
G01X2086534Y1736063D02*
G03X2088866I1166J-3937D01*
G01X2086534Y1743937D02*
G03Y1736063I1166J-3937D01*
G01X2088866Y1778937D02*
G03X2084283Y1785150I-1166J3937D01*
G01X2088866Y1771063D02*
G03Y1778937I-1166J3937D01*
G01X2086534Y1771063D02*
G03X2088866I1166J-3937D01*
G01X2086534Y1778937D02*
G03Y1771063I1166J-3937D01*
G01X2083849Y1781450D02*
G03X2086534Y1778937I3851J1424D01*
G01X2083849Y1781450D02*
X2070966D01*
X2069650Y1780134*
Y1701790*
Y1696810D02*
G03Y1701790I550J2490D01*
G01Y1696810D02*
Y1671600D01*
X2069108Y1670292D02*
G03X2069650Y1671600I-1308J1308D01*
G01X2069108Y1670292D02*
X2067733Y1668917D01*
X2065117Y1671533D02*
G03X2067733Y1668917I283J-2333D01*
G01X2065117Y1671533D02*
X2065950Y1672366D01*
Y1678893*
Y1683507D02*
G03Y1678893I-450J-2307D01*
G01Y1683507D02*
Y1780900D01*
X2066492Y1782208D02*
G03X2065950Y1780900I1308J-1308D01*
G01X2066492Y1782208D02*
X2068892Y1784608D01*
X2070200Y1785150D02*
G03X2068892Y1784608I0J-1850D01*
G01X2070200Y1785150D02*
X2084283D01*
X2108050Y1809900D02*
G03X2108050I-10550J0D01*
G01X2064550Y1758300D02*
G03X2064550I-2350J0D01*
G01X2072050Y1563600D02*
G03X2072050I-2350J0D01*
G01Y1666700D02*
G03X2072050I-2350J0D01*
G01X2092453Y1833150D02*
G03Y1836850I4047J1850D01*
G01Y1833150D02*
X2083166D01*
X2081450Y1831434*
Y1822800*
X2080908Y1821492D02*
G03X2081450Y1822800I-1308J1308D01*
G01X2080908Y1821492D02*
X2078408Y1818992D01*
X2077100Y1818450D02*
G03X2078408Y1818992I0J1850D01*
G01X2077100Y1818450D02*
X2036066D01*
X2034250Y1816634*
Y1693766*
X2036708Y1691308*
X2037247Y1690106D02*
G03X2036708Y1691308I-1847J-106D01*
G01X2039011Y1689750D02*
G03X2037247Y1690106I-1311J-1950D01*
G01X2039011Y1689750D02*
X2044900D01*
X2046208Y1689208D02*
G03X2044900Y1689750I-1308J-1308D01*
G01X2046208Y1689208D02*
X2049500Y1685916D01*
X2050178Y1688101D02*
G03X2049500Y1685916I1622J-1701D01*
G01X2053522Y1687999D02*
G03X2050178Y1688101I-1622J1701D01*
G01X2051316Y1684100D02*
G03X2053522Y1687999I484J2300D01*
G01X2051316Y1684100D02*
X2056808Y1678608D01*
X2057350Y1677300D02*
G03X2056808Y1678608I-1850J0D01*
G01X2057350Y1677300D02*
Y1673685D01*
Y1669115D02*
G03Y1673685I550J2285D01*
G01Y1669115D02*
Y1509466D01*
X2073108Y1493708*
X2073650Y1492400D02*
G03X2073108Y1493708I-1850J0D01*
G01X2073650Y1492400D02*
Y1472892D01*
X2077566Y1468976*
X2084034*
X2086534Y1471063D02*
G03X2084034Y1468976I1166J-3937D01*
G01X2086534Y1478937D02*
G03Y1471063I1166J-3937D01*
G01X2088866Y1478937D02*
G03X2086534I-1166J3937D01*
G01X2088866Y1471063D02*
G03Y1478937I-1166J3937D01*
G01X2084034Y1465276D02*
G03X2088866Y1471063I3666J1850D01*
G01X2084034Y1465276D02*
X2076800D01*
X2075492Y1465818D02*
G03X2076800Y1465276I1308J1308D01*
G01X2075492Y1465818D02*
X2070492Y1470818D01*
X2069950Y1472126D02*
G03X2070492Y1470818I1850J-0D01*
G01X2069950Y1472126D02*
Y1491634D01*
X2054192Y1507392*
X2053650Y1508700D02*
G03X2054192Y1507392I1850J0D01*
G01X2053650Y1508700D02*
Y1567793D01*
Y1572407D02*
G03Y1567793I-450J-2307D01*
G01Y1572407D02*
Y1636710D01*
Y1641690D02*
G03Y1636710I-550J-2490D01*
G01Y1641690D02*
Y1676534D01*
X2044134Y1686050*
X2039268*
X2039132Y1685936D02*
G03X2039268Y1686050I-1432J1864D01*
G01X2037250Y1681715D02*
G03X2039132Y1685936I550J2285D01*
G01X2037250Y1681715D02*
Y1675566D01*
X2048683Y1664133*
X2046067Y1661517D02*
G03X2048683Y1664133I2333J283D01*
G01X2046067Y1661517D02*
X2039668Y1667916D01*
X2036416Y1671168D02*
G03X2039668Y1667916I1284J-1968D01*
G01X2036416Y1671168D02*
X2034092Y1673492D01*
X2033550Y1674800D02*
G03X2034092Y1673492I1850J0D01*
G01X2033550Y1674800D02*
Y1689234D01*
X2031092Y1691692*
X2030550Y1693000D02*
G03X2031092Y1691692I1850J0D01*
G01X2030550Y1693000D02*
Y1817400D01*
X2031092Y1818708D02*
G03X2030550Y1817400I1308J-1308D01*
G01X2031092Y1818708D02*
X2033992Y1821608D01*
X2035300Y1822150D02*
G03X2033992Y1821608I0J-1850D01*
G01X2035300Y1822150D02*
X2076334D01*
X2077750Y1823566*
Y1832200*
X2078292Y1833508D02*
G03X2077750Y1832200I1308J-1308D01*
G01X2078292Y1833508D02*
X2081092Y1836308D01*
X2082400Y1836850D02*
G03X2081092Y1836308I0J-1850D01*
G01X2082400Y1836850D02*
X2092453D01*
X2100950Y1845000D02*
G03X2100950I-4450J0D01*
G01Y1855000D02*
G03X2100950I-4450J0D01*
G01Y1865000D02*
G03X2100950I-4450J0D01*
G01X2101150Y1875000D02*
G03X2101150I-4650J0D01*
G01X2100950Y1885000D02*
G03X2100950I-4450J0D01*
G01X2108050Y1907500D02*
G03X2108050I-10550J0D01*
G01X2063453Y1833150D02*
G03Y1836850I4047J1850D01*
G01Y1833150D02*
X2056966D01*
X2055950Y1832134*
Y1826100*
X2055408Y1824792D02*
G03X2055950Y1826100I-1308J1308D01*
G01X2055408Y1824792D02*
X2053508Y1822892D01*
X2052200Y1822350D02*
G03X2053508Y1822892I0J1850D01*
G01X2052200Y1822350D02*
X2032766D01*
X2030450Y1820034*
Y1691366*
X2032808Y1689008*
X2033350Y1687700D02*
G03X2032808Y1689008I-1850J0D01*
G01X2033350Y1687700D02*
Y1661627D01*
Y1657173D02*
G03Y1661627I750J2227D01*
G01Y1657173D02*
Y1641666D01*
X2036108Y1638908*
X2036650Y1637600D02*
G03X2036108Y1638908I-1850J0D01*
G01X2036650Y1637600D02*
Y1594700D01*
X2036108Y1593392D02*
G03X2036650Y1594700I-1308J1308D01*
G01X2036108Y1593392D02*
X2030208Y1587492D01*
X2028900Y1586950D02*
G03X2030208Y1587492I0J1850D01*
G01X2028900Y1586950D02*
X2026224D01*
X2022530Y1587146D02*
G03X2026224Y1586950I1770J-1546D01*
G01X2025649Y1590650D02*
G03X2022530Y1587146I-1449J-1850D01*
G01X2025649Y1590650D02*
X2028134D01*
X2032950Y1595466*
Y1596451*
Y1600549D02*
G03Y1596451I-1150J-2049D01*
G01Y1600549D02*
Y1631451D01*
X2029559Y1634675D02*
G03X2032950Y1631451I1541J-1775D01*
G01X2029294Y1635190D02*
G03X2029559Y1634675I2206J810D01*
G01X2029294Y1635190D02*
X2026092Y1638392D01*
X2025550Y1639700D02*
G03X2026092Y1638392I1850J0D01*
G01X2025550Y1639700D02*
Y1652910D01*
X2022750Y1653134D02*
G03X2025550Y1652910I1550J1766D01*
G01X2022750Y1653134D02*
Y1628449D01*
X2025970Y1625054D02*
G03X2022750Y1628449I-1770J1546D01*
G01Y1621634D02*
G03X2025970Y1625054I1550J1766D01*
G01X2022750Y1621634D02*
Y1618949D01*
X2025970Y1615554D02*
G03X2022750Y1618949I-1770J1546D01*
G01Y1612134D02*
G03X2025970Y1615554I1550J1766D01*
G01X2022750Y1612134D02*
Y1609666D01*
X2022866Y1609550*
X2023151*
X2025511Y1605534D02*
G03X2023151Y1609550I-911J2166D01*
G01X2025680Y1603932D02*
G03X2025511Y1605534I-2280J568D01*
G01X2024636Y1599554D02*
G03X2025680Y1603932I-136J2346D01*
G01X2020073Y1600050D02*
G03X2024636Y1599554I2227J-750D01*
G01X2020073Y1600050D02*
X2019200D01*
X2017892Y1600592D02*
G03X2019200Y1600050I1308J1308D01*
G01X2017892Y1600592D02*
X2015592Y1602892D01*
X2015050Y1604200D02*
G03X2015592Y1602892I1850J0D01*
G01X2015050Y1604200D02*
Y1823434D01*
X2012138Y1826345*
X1996311Y1826250*
X1994931Y1826856D02*
G03X1996311Y1826250I1369J1244D01*
G01X1994931Y1826856D02*
X1993931Y1827956D01*
X1993450Y1829200D02*
G03X1993931Y1827956I1850J0D01*
G01X1993450Y1829200D02*
Y1831216D01*
X1991451Y1833150*
X1984547*
Y1836850D02*
G03Y1833150I-4047J-1850D01*
G01Y1836850D02*
X1992200D01*
X1993487Y1836329D02*
G03X1992200Y1836850I-1287J-1329D01*
G01X1993487Y1836329D02*
X1996587Y1833329D01*
X1997150Y1832000D02*
G03X1996587Y1833329I-1850J0D01*
G01X1997150Y1832000D02*
Y1829955D01*
X2012889Y1830050*
X2014208Y1829508D02*
G03X2012889Y1830050I-1308J-1308D01*
G01X2014208Y1829508D02*
X2018208Y1825508D01*
X2018750Y1824200D02*
G03X2018208Y1825508I-1850J0D01*
G01X2018750Y1824200D02*
Y1604966D01*
X2019966Y1603750*
X2021173*
X2021540Y1605937D02*
G03X2021173Y1603750I1860J-1437D01*
G01X2020792Y1606392D02*
G03X2021540Y1605937I1308J1308D01*
G01X2020792Y1606392D02*
X2019592Y1607592D01*
X2019050Y1608900D02*
G03X2019592Y1607592I1850J0D01*
G01X2019050Y1608900D02*
Y1830534D01*
X2016434Y1833150*
X2013547*
Y1836850D02*
G03Y1833150I-4047J-1850D01*
G01Y1836850D02*
X2017200D01*
X2018508Y1836308D02*
G03X2017200Y1836850I-1308J-1308D01*
G01X2018508Y1836308D02*
X2022208Y1832608D01*
X2022750Y1831300D02*
G03X2022208Y1832608I-1850J0D01*
G01X2022750Y1831300D02*
Y1665449D01*
X2025550Y1666527D02*
G03X2022750Y1665449I-750J-2227D01*
G01X2025550Y1666527D02*
Y1682034D01*
X2023392Y1684192*
X2022850Y1685500D02*
G03X2023392Y1684192I1850J0D01*
G01X2022850Y1685500D02*
Y1824600D01*
X2023392Y1825908D02*
G03X2022850Y1824600I1308J-1308D01*
G01X2023392Y1825908D02*
X2027092Y1829608D01*
X2028400Y1830150D02*
G03X2027092Y1829608I0J-1850D01*
G01X2028400Y1830150D02*
X2047634D01*
X2048350Y1830866*
Y1832334*
X2047534Y1833150*
X2042547*
Y1836850D02*
G03Y1833150I-4047J-1850D01*
G01Y1836850D02*
X2048300D01*
X2049608Y1836308D02*
G03X2048300Y1836850I-1308J-1308D01*
G01X2049608Y1836308D02*
X2051508Y1834408D01*
X2052050Y1833100D02*
G03X2051508Y1834408I-1850J0D01*
G01X2052050Y1833100D02*
Y1830100D01*
X2051508Y1828792D02*
G03X2052050Y1830100I-1308J1308D01*
G01X2051508Y1828792D02*
X2049708Y1826992D01*
X2048400Y1826450D02*
G03X2049708Y1826992I0J1850D01*
G01X2048400Y1826450D02*
X2029166D01*
X2026550Y1823834*
Y1686266*
X2028708Y1684108*
X2029250Y1682800D02*
G03X2028708Y1684108I-1850J0D01*
G01X2029250Y1682800D02*
Y1640466D01*
X2031370Y1638346*
X2031435Y1638349D02*
G03X2031370Y1638346I65J-2349D01*
G01X2031435Y1638349D02*
X2030192Y1639592D01*
X2029650Y1640900D02*
G03X2030192Y1639592I1850J0D01*
G01X2029650Y1640900D02*
Y1686934D01*
X2027292Y1689292*
X2026750Y1690600D02*
G03X2027292Y1689292I1850J0D01*
G01X2026750Y1690600D02*
Y1820800D01*
X2027292Y1822108D02*
G03X2026750Y1820800I1308J-1308D01*
G01X2027292Y1822108D02*
X2030692Y1825508D01*
X2032000Y1826050D02*
G03X2030692Y1825508I0J-1850D01*
G01X2032000Y1826050D02*
X2051434D01*
X2052250Y1826866*
Y1832900*
X2052792Y1834208D02*
G03X2052250Y1832900I1308J-1308D01*
G01X2052792Y1834208D02*
X2054892Y1836308D01*
X2056200Y1836850D02*
G03X2054892Y1836308I0J-1850D01*
G01X2056200Y1836850D02*
X2063453D01*
X2071950Y1845000D02*
G03X2071950I-4450J0D01*
G01Y1855000D02*
G03X2071950I-4450J0D01*
G01Y1865000D02*
G03X2071950I-4450J0D01*
G01X2072150Y1875000D02*
G03X2072150I-4650J0D01*
G01X2071950Y1885000D02*
G03X2071950I-4450J0D01*
G01Y1902500D02*
G03X2071950I-4450J0D01*
G01X2072150Y1912500D02*
G03X2072150I-4650J0D01*
G01X2042950Y1845000D02*
G03X2042950I-4450J0D01*
G01Y1855000D02*
G03X2042950I-4450J0D01*
G01Y1865000D02*
G03X2042950I-4450J0D01*
G01X2043150Y1875000D02*
G03X2043150I-4650J0D01*
G01X2042950Y1885000D02*
G03X2042950I-4450J0D01*
G01Y1902500D02*
G03X2042950I-4450J0D01*
G01X2043150Y1912500D02*
G03X2043150I-4650J0D01*
G01X2023550D02*
G03X2023550I-2350J0D01*
G01X2013950Y1845000D02*
G03X2013950I-4450J0D01*
G01Y1855000D02*
G03X2013950I-4450J0D01*
G01Y1865000D02*
G03X2013950I-4450J0D01*
G01X2014150Y1875000D02*
G03X2014150I-4650J0D01*
G01X2013950Y1885000D02*
G03X2013950I-4450J0D01*
G01X2012750Y1902600D02*
G03X2012750I-2550J0D01*
G01X2012250Y1912500D02*
G03X2012250I-2550J0D01*
G01X1996550Y1869900D02*
G03X1996550I-2550J0D01*
G01X1984950Y1845000D02*
G03X1984950I-4450J0D01*
G01Y1855000D02*
G03X1984950I-4450J0D01*
G01Y1865000D02*
G03X1984950I-4450J0D01*
G01X1985150Y1875000D02*
G03X1985150I-4650J0D01*
G01X1984950Y1885000D02*
G03X1984950I-4450J0D01*
G01X1973050Y1848400D02*
G03X1973050I-2550J0D01*
G01Y1854500D02*
G03X1973050I-2550J0D01*
G01X1955950Y1845000D02*
G03X1955950I-4450J0D01*
G01Y1855000D02*
G03X1955950I-4450J0D01*
G01Y1865000D02*
G03X1955950I-4450J0D01*
G01X1956150Y1875000D02*
G03X1956150I-4650J0D01*
G01X1955950Y1885000D02*
G03X1955950I-4450J0D01*
G01X1997750Y1914000D02*
Y1902500D01*
X1997000Y1901750D02*
G03X1997750Y1902500I0J750D01*
G01X1997000Y1901750D02*
X1953500D01*
X1952750Y1902500D02*
G03X1953500Y1901750I750J0D01*
G01X1952750Y1902500D02*
Y1914000D01*
X1953500Y1914750D02*
G03X1952750Y1914000I0J-750D01*
G01X1953500Y1914750D02*
X1997000D01*
X1997750Y1914000D02*
G03X1997000Y1914750I-750J0D01*
G01X1957350Y1820800D02*
G03X1957350I-2350J0D01*
G01X2026650Y1595000D02*
G03X2026650I-2350J0D01*
G01X2052250Y1583200D02*
G03X2052250I-2350J0D01*
G01X2047950Y1652100D02*
G03X2047950I-2350J0D01*
G01X2052650Y1652300D02*
G03X2052650I-2350J0D01*
G01X2025950Y1569800D02*
G03X2025950I-2350J0D01*
G01X2023683Y1577500D02*
G03X2020851Y1581250I-1383J1900D01*
G01X2020917Y1577500D02*
G03X2023683I1383J-1900D01*
G01X2020851Y1577550D02*
G03X2020917Y1577500I1449J1850D01*
G01X2020851Y1577550D02*
X2018300D01*
X2016992Y1578092D02*
G03X2018300Y1577550I1308J1308D01*
G01X2016992Y1578092D02*
X2011192Y1583892D01*
X2010650Y1585200D02*
G03X2011192Y1583892I1850J0D01*
G01X2010650Y1585200D02*
Y1820634D01*
X2009234Y1822050*
X1968900*
X1967592Y1822592D02*
G03X1968900Y1822050I1308J1308D01*
G01X1967592Y1822592D02*
X1963692Y1826492D01*
X1963150Y1827800D02*
G03X1963692Y1826492I1850J0D01*
G01X1963150Y1827800D02*
Y1830834D01*
X1960834Y1833150*
X1955547*
Y1836850D02*
G03Y1833150I-4047J-1850D01*
G01Y1836850D02*
X1961600D01*
X1962908Y1836308D02*
G03X1961600Y1836850I-1308J-1308D01*
G01X1962908Y1836308D02*
X1966308Y1832908D01*
X1966850Y1831600D02*
G03X1966308Y1832908I-1850J0D01*
G01X1966850Y1831600D02*
Y1828566D01*
X1969666Y1825750*
X2010000*
X2011308Y1825208D02*
G03X2010000Y1825750I-1308J-1308D01*
G01X2011308Y1825208D02*
X2013808Y1822708D01*
X2014350Y1821400D02*
G03X2013808Y1822708I-1850J0D01*
G01X2014350Y1821400D02*
Y1585966D01*
X2019066Y1581250*
X2020851*
X2039621Y1646900D02*
G03X2036179I-1721J1600D01*
X2039621I1721J-1600*
G01X1937950Y1919999D02*
X2110750D01*
X2103818Y1915949D02*
X2110750D01*
X2107089Y1911899D02*
X2110750D01*
X2108002Y1906499D02*
X2110750D01*
X2107785Y1905149D02*
X2110750D01*
X2107379Y1903799D02*
X2110750D01*
X2106762Y1902449D02*
X2110750D01*
X2105886Y1901099D02*
X2110750D01*
X2104657Y1899749D02*
X2110750D01*
X2102836Y1898399D02*
X2110750D01*
X2098940Y1897049D02*
X2110750D01*
X1937950Y1895699D02*
X2110750D01*
X1937950Y1894349D02*
X2110750D01*
X1937950Y1892999D02*
X2110750D01*
X1937950Y1891649D02*
X2110750D01*
X1937950Y1890299D02*
X2110750D01*
X2098552Y1888949D02*
X2110750D01*
X2100112Y1887599D02*
X2110750D01*
X2100771Y1886249D02*
X2110750D01*
X2100949Y1884899D02*
X2110750D01*
X2100707Y1883549D02*
X2110750D01*
X2099958Y1882199D02*
X2110750D01*
X2098103Y1880849D02*
X2110750D01*
X2097677Y1879499D02*
X2110750D01*
X2099922Y1878149D02*
X2110750D01*
X2100788Y1876799D02*
X2110750D01*
X2101128Y1875449D02*
X2110750D01*
X2101062Y1874099D02*
X2110750D01*
X2100569Y1872749D02*
X2110750D01*
X2099442Y1871399D02*
X2110750D01*
X1996546Y1870049D02*
X2110750D01*
X2098974Y1868699D02*
X2110750D01*
X2100280Y1867349D02*
X2110750D01*
X2100837Y1865999D02*
X2110750D01*
X2100936Y1864649D02*
X2110750D01*
X2100612Y1863299D02*
X2110750D01*
X2099739Y1861949D02*
X2110750D01*
X2097157Y1860599D02*
X2110750D01*
X2097823Y1859249D02*
X2110750D01*
X2099876Y1857899D02*
X2110750D01*
X2100672Y1856549D02*
X2110750D01*
X2100946Y1855199D02*
X2110750D01*
X2100799Y1853849D02*
X2110750D01*
X2100181Y1852499D02*
X2110750D01*
X2098729Y1851149D02*
X2110750D01*
X1972632Y1849799D02*
X2110750D01*
X2099312Y1848449D02*
X2110750D01*
X2100424Y1847099D02*
X2110750D01*
X2100887Y1845749D02*
X2110750D01*
X2100909Y1844399D02*
X2110750D01*
X2100499Y1843049D02*
X2110750D01*
X2099484Y1841699D02*
X2110750D01*
X1937950Y1840349D02*
X2110750D01*
X2098453Y1838999D02*
X2110750D01*
X2100076Y1837649D02*
X2110750D01*
X2100756Y1836299D02*
X2110750D01*
X2100950Y1834949D02*
X2110750D01*
X2100724Y1833599D02*
X2110750D01*
X2099998Y1832249D02*
X2110750D01*
X2098227Y1830899D02*
X2110750D01*
X2081450Y1829549D02*
X2110750D01*
X2081450Y1828199D02*
X2110750D01*
X2081450Y1826849D02*
X2110750D01*
X2081450Y1825499D02*
X2110750D01*
X2081450Y1824149D02*
X2110750D01*
X2081450Y1822799D02*
X2110750D01*
X2080865Y1821449D02*
X2110750D01*
X2100200Y1820099D02*
X2110750D01*
X2103245Y1818749D02*
X2110750D01*
X2104921Y1817399D02*
X2110750D01*
X2106073Y1816049D02*
X2110750D01*
X2106896Y1814699D02*
X2110750D01*
X2107470Y1813349D02*
X2110750D01*
X2107839Y1811999D02*
X2110750D01*
X2108023Y1810649D02*
X2110750D01*
X2108033Y1809299D02*
X2110750D01*
X2107868Y1807949D02*
X2110750D01*
X2107520Y1806599D02*
X2110750D01*
X2106969Y1805249D02*
X2110750D01*
X2106177Y1803899D02*
X2110750D01*
X2105067Y1802549D02*
X2110750D01*
X2103466Y1801199D02*
X2110750D01*
X2100705Y1799849D02*
X2110750D01*
X2034250Y1798499D02*
X2110750D01*
X2034250Y1797149D02*
X2110750D01*
X2034250Y1795799D02*
X2110750D01*
X2034250Y1794449D02*
X2110750D01*
X2034250Y1793099D02*
X2110750D01*
X2034250Y1791749D02*
X2110750D01*
X2034250Y1790399D02*
X2110750D01*
X2034250Y1789049D02*
X2110750D01*
X2034250Y1787699D02*
X2110750D01*
X2089888Y1786349D02*
X2110750D01*
X2091213Y1784999D02*
X2110750D01*
X2091732Y1783649D02*
X2110750D01*
X2091765Y1782299D02*
X2110750D01*
X2091327Y1780949D02*
X2110750D01*
X2090176Y1779599D02*
X2110750D01*
X2090211Y1778249D02*
X2110750D01*
X2091341Y1776899D02*
X2110750D01*
X2091769Y1775549D02*
X2110750D01*
X2091727Y1774199D02*
X2110750D01*
X2091197Y1772849D02*
X2110750D01*
X2069650Y1757999D02*
X2110750D01*
X2069650Y1752599D02*
X2110750D01*
X2090039Y1751249D02*
X2110750D01*
X2091272Y1749899D02*
X2110750D01*
X2091750Y1748549D02*
X2110750D01*
X2091750Y1747199D02*
X2110750D01*
X2091272Y1745849D02*
X2110750D01*
X2090038Y1744499D02*
X2110750D01*
X2090335Y1743149D02*
X2110750D01*
X2091391Y1741799D02*
X2110750D01*
X2091781Y1740449D02*
X2110750D01*
X2091706Y1739099D02*
X2110750D01*
X2091134Y1737749D02*
X2110750D01*
X2089672Y1736399D02*
X2110750D01*
X2090584Y1735049D02*
X2110750D01*
X2091493Y1733699D02*
X2110750D01*
X2091800Y1732349D02*
X2110750D01*
X2091648Y1730999D02*
X2110750D01*
X2090974Y1729649D02*
X2110750D01*
X2089187Y1728299D02*
X2110750D01*
X2069650Y1726949D02*
X2110750D01*
X2069650Y1725599D02*
X2110750D01*
X2069650Y1724249D02*
X2110750D01*
X2069650Y1722899D02*
X2110750D01*
X2069650Y1721549D02*
X2110750D01*
X2069650Y1720199D02*
X2110750D01*
X2069650Y1718849D02*
X2110750D01*
X2069650Y1717499D02*
X2110750D01*
X2069650Y1716149D02*
X2110750D01*
X2089948Y1714799D02*
X2110750D01*
X2090921Y1713449D02*
X2110750D01*
X2091211Y1712099D02*
X2110750D01*
X2090992Y1710749D02*
X2110750D01*
X2090141Y1709399D02*
X2110750D01*
X2069650Y1708049D02*
X2110750D01*
X2069650Y1706699D02*
X2110750D01*
X2069650Y1705349D02*
X2110750D01*
X2069650Y1703999D02*
X2110750D01*
X2069650Y1702649D02*
X2110750D01*
X2088104Y1701299D02*
X2110750D01*
X2089367Y1699949D02*
X2110750D01*
X2089518Y1698599D02*
X2110750D01*
X2088854Y1697249D02*
X2110750D01*
X2069650Y1695899D02*
X2110750D01*
X2069650Y1694549D02*
X2110750D01*
X2069650Y1693199D02*
X2110750D01*
X2104003Y1691849D02*
X2110750D01*
X2105186Y1690499D02*
X2110750D01*
X2105310Y1689149D02*
X2110750D01*
X2104605Y1687799D02*
X2110750D01*
X2104450Y1686449D02*
X2110750D01*
X2104057Y1685099D02*
X2110750D01*
X2104359Y1683749D02*
X2110750D01*
X2104343Y1682399D02*
X2110750D01*
X2105124Y1681049D02*
X2110750D01*
X2105332Y1679699D02*
X2110750D01*
X2104743Y1678349D02*
X2110750D01*
X2104448Y1676999D02*
X2110750D01*
X2104089Y1675649D02*
X2110750D01*
X2104396Y1674299D02*
X2110750D01*
X2104290Y1672949D02*
X2110750D01*
X2102923Y1671599D02*
X2110750D01*
X2090065Y1670249D02*
X2110750D01*
X2089180Y1668899D02*
X2110750D01*
X2071891Y1667549D02*
X2110750D01*
X2071996Y1666199D02*
X2110750D01*
X2071147Y1664849D02*
X2110750D01*
X2057350Y1663499D02*
X2110750D01*
X2057350Y1662149D02*
X2110750D01*
X2057350Y1660799D02*
X2110750D01*
X2104899Y1659449D02*
X2110750D01*
X2105348Y1658099D02*
X2110750D01*
X2105022Y1656749D02*
X2110750D01*
X2104396Y1655399D02*
X2110750D01*
X2104290Y1654049D02*
X2110750D01*
X2104271Y1652699D02*
X2110750D01*
X2104406Y1651349D02*
X2110750D01*
X2104932Y1649999D02*
X2110750D01*
X2105350Y1648649D02*
X2110750D01*
X2104993Y1647299D02*
X2110750D01*
X2104385Y1645949D02*
X2110750D01*
X2104309Y1644599D02*
X2110750D01*
X2104291Y1643249D02*
X2110750D01*
X2104396Y1641899D02*
X2110750D01*
X2103547Y1640549D02*
X2110750D01*
X2090124Y1639199D02*
X2110750D01*
X2089753Y1637849D02*
X2110750D01*
X2057350Y1636499D02*
X2110750D01*
X2102179Y1635149D02*
X2110750D01*
X2104227Y1633799D02*
X2110750D01*
X2104424Y1632449D02*
X2110750D01*
X2103822Y1631099D02*
X2110750D01*
X2104437Y1629749D02*
X2110750D01*
X2104176Y1628399D02*
X2110750D01*
X2104590Y1627049D02*
X2110750D01*
X2104521Y1625699D02*
X2110750D01*
X2103469Y1624349D02*
X2110750D01*
X2057350Y1622999D02*
X2110750D01*
X2057350Y1621649D02*
X2110750D01*
X2057350Y1620299D02*
X2110750D01*
X2103856Y1618949D02*
X2110750D01*
X2104601Y1617599D02*
X2110750D01*
X2104504Y1616249D02*
X2110750D01*
X2104310Y1614899D02*
X2110750D01*
X2104384Y1613549D02*
X2110750D01*
X2103988Y1612199D02*
X2110750D01*
X2104450Y1610849D02*
X2110750D01*
X2104608Y1609499D02*
X2110750D01*
X2104416Y1604099D02*
X2110750D01*
X2104023Y1600049D02*
X2110750D01*
X2103387Y1595999D02*
X2110750D01*
X2103908Y1590599D02*
X2110750D01*
X2104610Y1589249D02*
X2110750D01*
X2104485Y1587899D02*
X2110750D01*
X2103298Y1586549D02*
X2110750D01*
X2057350Y1585199D02*
X2110750D01*
X2057350Y1583849D02*
X2110750D01*
X2057350Y1582499D02*
X2110750D01*
X2103856Y1581149D02*
X2110750D01*
X2104601Y1579799D02*
X2110750D01*
X2104504Y1578449D02*
X2110750D01*
X2104177Y1577099D02*
X2110750D01*
X2104437Y1575749D02*
X2110750D01*
X2103910Y1574399D02*
X2110750D01*
X2104445Y1573049D02*
X2110750D01*
X2104120Y1571699D02*
X2110750D01*
X2104610Y1570349D02*
X2110750D01*
X2104485Y1568999D02*
X2110750D01*
X2103298Y1567649D02*
X2110750D01*
X2104644Y1566299D02*
X2110750D01*
X2105179Y1564949D02*
X2110750D01*
X2104853Y1563599D02*
X2110750D01*
X2089722Y1562249D02*
X2110750D01*
X2057350Y1560899D02*
X2110750D01*
X2057350Y1559549D02*
X2110750D01*
X2057350Y1558199D02*
X2110750D01*
X2057350Y1556849D02*
X2110750D01*
X2057350Y1555499D02*
X2110750D01*
X2057350Y1554149D02*
X2110750D01*
X2057350Y1552799D02*
X2110750D01*
X2057350Y1551449D02*
X2110750D01*
X2057350Y1550099D02*
X2110750D01*
X2089345Y1548749D02*
X2110750D01*
X2089932Y1547399D02*
X2110750D01*
X2089723Y1546049D02*
X2110750D01*
X2088258Y1544699D02*
X2110750D01*
X2057350Y1543349D02*
X2110750D01*
X2057350Y1541999D02*
X2110750D01*
X2088724Y1540649D02*
X2110750D01*
X2090117Y1539299D02*
X2110750D01*
X2090425Y1537949D02*
X2110750D01*
X2090072Y1536599D02*
X2110750D01*
X2088514Y1535249D02*
X2110750D01*
X2057350Y1533899D02*
X2110750D01*
X2057350Y1532549D02*
X2110750D01*
X2057350Y1531199D02*
X2110750D01*
X2057350Y1529849D02*
X2110750D01*
X2057350Y1528499D02*
X2110750D01*
X2057350Y1527149D02*
X2110750D01*
X2057350Y1525799D02*
X2110750D01*
X2057350Y1524449D02*
X2110750D01*
X2057350Y1523099D02*
X2110750D01*
X2089059Y1521749D02*
X2110750D01*
X2090938Y1520399D02*
X2110750D01*
X2091634Y1519049D02*
X2110750D01*
X2091802Y1517699D02*
X2110750D01*
X2091512Y1516349D02*
X2110750D01*
X2090631Y1514999D02*
X2110750D01*
X2089583Y1513649D02*
X2110750D01*
X2091102Y1512299D02*
X2110750D01*
X2091695Y1510949D02*
X2110750D01*
X2091786Y1509599D02*
X2110750D01*
X2091414Y1508249D02*
X2110750D01*
X2090391Y1506899D02*
X2110750D01*
X2089968Y1505549D02*
X2110750D01*
X2091244Y1504199D02*
X2110750D01*
X2091742Y1502849D02*
X2110750D01*
X2091758Y1501499D02*
X2110750D01*
X2091298Y1500149D02*
X2110750D01*
X2090106Y1498799D02*
X2110750D01*
X2069368Y1497449D02*
X2110750D01*
X2070718Y1496099D02*
X2110750D01*
X2072068Y1494749D02*
X2110750D01*
X2073357Y1493399D02*
X2110750D01*
X2073650Y1492049D02*
X2110750D01*
X2073650Y1490699D02*
X2110750D01*
X2073650Y1489349D02*
X2110750D01*
X2073650Y1487999D02*
X2110750D01*
X2089316Y1486649D02*
X2110750D01*
X2091014Y1485299D02*
X2110750D01*
X2091663Y1483949D02*
X2110750D01*
X2091797Y1482599D02*
X2110750D01*
X2091471Y1481249D02*
X2110750D01*
X2090529Y1479899D02*
X2110750D01*
X2089765Y1478549D02*
X2110750D01*
X2091168Y1477199D02*
X2110750D01*
X2091717Y1475849D02*
X2110750D01*
X2091775Y1474499D02*
X2110750D01*
X2091365Y1473149D02*
X2110750D01*
X2090271Y1471799D02*
X2110750D01*
X2090112Y1470449D02*
X2110750D01*
X2091301Y1469099D02*
X2110750D01*
X2091758Y1467749D02*
X2110750D01*
X2091741Y1466399D02*
X2110750D01*
X2091242Y1465049D02*
X2110750D01*
X2089961Y1463699D02*
X2110750D01*
X2055750Y1462349D02*
X2110750D01*
X2055750Y1460999D02*
X2110750D01*
X2104470Y1459649D02*
X2110750D01*
X2105216Y1458299D02*
X2110750D01*
X2091793Y1767449D02*
X2110742D01*
X2089845Y1771499D02*
X2110709D01*
X2091675Y1766099D02*
X2110641D01*
X2069650Y1762049D02*
X2110607D01*
X1937950Y1921349D02*
X2110522D01*
X2057350Y1594649D02*
X2110521D01*
X2069650Y1753949D02*
X2110476D01*
X2104250Y1605449D02*
X2110476D01*
X2107600Y1910549D02*
X2110475D01*
X2069650Y1759349D02*
X2110393D01*
X2089422Y1763399D02*
X2110371D01*
X2108044Y1907849D02*
X2110326D01*
X2069650Y1756649D02*
X2110325D01*
X2105310Y1608149D02*
X2110325D01*
X2057350Y1591949D02*
X2110296D01*
X2106346Y1913249D02*
X2110251D01*
X2104024Y1602749D02*
X2110250D01*
X2101410Y1917299D02*
X2110238D01*
X2104601Y1598699D02*
X2110237D01*
X2104504Y1597349D02*
X2110225D01*
X1937950Y1918649D02*
X2110225D01*
X2091450Y1768799D02*
X2110214D01*
X2104450Y1601399D02*
X2110214D01*
X2105305Y1914599D02*
X2110214D01*
X2090479Y1770149D02*
X2110205D01*
X1937950Y1922699D02*
X2110162D01*
X2057350Y1593299D02*
X2110162D01*
X2091048Y1764749D02*
X2110161D01*
X2069650Y1760699D02*
X2110157D01*
X2069650Y1755299D02*
X2110155D01*
X2105185Y1606799D02*
X2110155D01*
X2107912Y1909199D02*
X2110155D01*
X2057350Y1635149D02*
X2102021D01*
X2069650Y1691849D02*
X2101597D01*
X2055750Y1459649D02*
X2101330D01*
X2090052Y1671599D02*
X2101277D01*
X2057350Y1566299D02*
X2101023D01*
X2057350Y1586549D02*
X2100902D01*
X2057350Y1567649D02*
X2100902D01*
X2090048Y1563599D02*
X2100814D01*
X2057350Y1595999D02*
X2100813D01*
X2057350Y1624349D02*
X2100731D01*
X2057350Y1659449D02*
X2100701D01*
X2089723Y1640549D02*
X2100653D01*
X2057350Y1647299D02*
X2100607D01*
X2057350Y1649999D02*
X2100591D01*
X2055750Y1458299D02*
X2100584D01*
X2057350Y1656749D02*
X2100578D01*
X2089599Y1564949D02*
X2100488D01*
X2069650Y1681049D02*
X2100476D01*
X2057350Y1606799D02*
X2100415D01*
X2069650Y1690499D02*
X2100414D01*
X2057350Y1631099D02*
X2100378D01*
X2057350Y1618949D02*
X2100344D01*
X2057350Y1581149D02*
X2100344D01*
X2057350Y1590599D02*
X2100292D01*
X2069650Y1689149D02*
X2100290D01*
X2057350Y1574399D02*
X2100290D01*
X2057350Y1608149D02*
X2100290D01*
X2069650Y1679699D02*
X2100268D01*
X2057350Y1658099D02*
X2100252D01*
X2057350Y1648649D02*
X2100250D01*
X2069650Y1678349D02*
X2100250D01*
X2069650Y1687799D02*
X2100212D01*
X2057350Y1612199D02*
X2100212D01*
X2057350Y1600049D02*
X2100177D01*
X2057350Y1602749D02*
X2100176D01*
X2069650Y1685099D02*
X2100143D01*
X2057350Y1609499D02*
X2100143D01*
X2069650Y1675649D02*
X2100111D01*
X2057350Y1571699D02*
X2100080D01*
X2057350Y1628399D02*
X2100024D01*
X2057350Y1577099D02*
X2100023D01*
X2057350Y1633799D02*
X2099973D01*
X2057350Y1605449D02*
X2099950D01*
X2057350Y1652699D02*
X2099929D01*
X2089118Y1672949D02*
X2099910D01*
X2057350Y1654049D02*
X2099910D01*
X2057350Y1643249D02*
X2099909D01*
X2057350Y1644599D02*
X2099891D01*
X2057350Y1614899D02*
X2099890D01*
X2069650Y1682399D02*
X2099857D01*
X2069650Y1683749D02*
X2099841D01*
X2057350Y1613549D02*
X2099816D01*
X2057350Y1645949D02*
X2099815D01*
X2057350Y1641899D02*
X2099804D01*
X2069650Y1674299D02*
X2099804D01*
X2057350Y1655399D02*
X2099804D01*
X2057350Y1651349D02*
X2099794D01*
X2057350Y1604099D02*
X2099784D01*
X2057350Y1632449D02*
X2099776D01*
X2057350Y1575749D02*
X2099763D01*
X2057350Y1629749D02*
X2099763D01*
X2057350Y1573049D02*
X2099755D01*
X2069650Y1676999D02*
X2099752D01*
X2069650Y1686449D02*
X2099750D01*
X2057350Y1610849D02*
X2099750D01*
X2057350Y1601399D02*
X2099750D01*
X2057350Y1587899D02*
X2099715D01*
X2057350Y1568999D02*
X2099715D01*
X2057350Y1616249D02*
X2099696D01*
X2057350Y1597349D02*
X2099696D01*
X2057350Y1578449D02*
X2099696D01*
X2057350Y1625699D02*
X2099679D01*
X2057350Y1627049D02*
X2099610D01*
X2057350Y1617599D02*
X2099599D01*
X2057350Y1598699D02*
X2099599D01*
X2057350Y1579799D02*
X2099599D01*
X2057350Y1589249D02*
X2099590D01*
X2057350Y1570349D02*
X2099590D01*
X1937950Y1897049D02*
X2096060D01*
X2068157Y1860599D02*
X2095843D01*
X2068677Y1879499D02*
X2095323D01*
X2068823Y1859249D02*
X2095177D01*
X2069103Y1880849D02*
X2094897D01*
X2079515Y1820099D02*
X2094800D01*
X2081450Y1830899D02*
X2094773D01*
X2069453Y1838999D02*
X2094547D01*
X2069552Y1888949D02*
X2094448D01*
X2034250Y1799849D02*
X2094295D01*
X2069729Y1851149D02*
X2094271D01*
X2069974Y1868699D02*
X2094026D01*
X2070312Y1848449D02*
X2093688D01*
X1937950Y1917299D02*
X2093590D01*
X2070442Y1871399D02*
X2093558D01*
X2070484Y1841699D02*
X2093516D01*
X2070739Y1861949D02*
X2093261D01*
X2070876Y1857899D02*
X2093124D01*
X2070922Y1878149D02*
X2093078D01*
X2070958Y1882199D02*
X2093042D01*
X2082265Y1832249D02*
X2093002D01*
X2071076Y1837649D02*
X2092924D01*
X2071112Y1887599D02*
X2092888D01*
X2071181Y1852499D02*
X2092819D01*
X2071280Y1867349D02*
X2092720D01*
X2071424Y1847099D02*
X2092576D01*
X2071499Y1843049D02*
X2092501D01*
X2071569Y1872749D02*
X2092431D01*
X2071612Y1863299D02*
X2092388D01*
X2071672Y1856549D02*
X2092328D01*
X2071707Y1883549D02*
X2092293D01*
X2071771Y1886249D02*
X2092229D01*
X2071788Y1876799D02*
X2092212D01*
X2071799Y1853849D02*
X2092201D01*
X2069227Y1898399D02*
X2092164D01*
X2071837Y1865999D02*
X2092163D01*
X2071887Y1845749D02*
X2092113D01*
X2071909Y1844399D02*
X2092091D01*
X2071936Y1864649D02*
X2092064D01*
X2071946Y1855199D02*
X2092054D01*
X2071949Y1884899D02*
X2092051D01*
X2072062Y1874099D02*
X2091938D01*
X2072128Y1875449D02*
X2091872D01*
X2078108Y1818749D02*
X2091755D01*
X2034250Y1801199D02*
X2091534D01*
X2070619Y1915949D02*
X2091182D01*
X2070998Y1899749D02*
X2090343D01*
X2035015Y1817399D02*
X2090079D01*
X2034250Y1802549D02*
X2089933D01*
X2071649Y1914599D02*
X2089695D01*
X2071724Y1901099D02*
X2089114D01*
X2034250Y1816049D02*
X2088927D01*
X2034250Y1803899D02*
X2088823D01*
X2072089Y1913249D02*
X2088654D01*
X2071950Y1902449D02*
X2088238D01*
X2034250Y1814699D02*
X2088104D01*
X2034250Y1805249D02*
X2088031D01*
X2072111Y1911899D02*
X2087911D01*
X2071756Y1903799D02*
X2087621D01*
X2034250Y1813349D02*
X2087530D01*
X2034250Y1806599D02*
X2087480D01*
X2071721Y1910549D02*
X2087400D01*
X2071076Y1905149D02*
X2087215D01*
X2034250Y1811999D02*
X2087161D01*
X2034250Y1807949D02*
X2087132D01*
X2070775Y1909199D02*
X2087088D01*
X2069453Y1906499D02*
X2086998D01*
X2034250Y1810649D02*
X2086977D01*
X2034250Y1809299D02*
X2086967D01*
X1997750Y1907849D02*
X2086956D01*
X2057350Y1544699D02*
X2086542D01*
X2057350Y1535249D02*
X2086486D01*
X2057350Y1521749D02*
X2086341D01*
X2057350Y1540649D02*
X2086276D01*
X2069650Y1728299D02*
X2086213D01*
X2073650Y1486649D02*
X2086084D01*
X2069650Y1672949D02*
X2086082D01*
X2070530Y1668899D02*
X2086020D01*
X2069650Y1763399D02*
X2085978D01*
X2071784Y1701299D02*
X2085896D01*
X2057350Y1513649D02*
X2085817D01*
X2069650Y1736399D02*
X2085728D01*
X2073650Y1478549D02*
X2085635D01*
X2069650Y1771499D02*
X2085555D01*
X2034250Y1786349D02*
X2085512D01*
X2057350Y1548749D02*
X2085455D01*
X2055750Y1463699D02*
X2085439D01*
X2061268Y1505549D02*
X2085432D01*
X2057350Y1640549D02*
X2085426D01*
X2071624Y1564949D02*
X2085401D01*
X2057350Y1637849D02*
X2085396D01*
X2069650Y1744499D02*
X2085362D01*
X2069650Y1751249D02*
X2085361D01*
X2068018Y1498799D02*
X2085294D01*
X2076094Y1470449D02*
X2085288D01*
X2071623Y1562249D02*
X2085278D01*
X2069650Y1779599D02*
X2085224D01*
X2069650Y1778249D02*
X2085189D01*
X2069650Y1671599D02*
X2085148D01*
X2071715Y1697249D02*
X2085146D01*
X2069065Y1670249D02*
X2085135D01*
X2074744Y1471799D02*
X2085129D01*
X2057350Y1546049D02*
X2085077D01*
X2069650Y1743149D02*
X2085065D01*
X2069650Y1714799D02*
X2085052D01*
X2057350Y1639199D02*
X2085025D01*
X2059918Y1506899D02*
X2085009D01*
X2072050Y1563599D02*
X2084952D01*
X2057350Y1536599D02*
X2084928D01*
X2069650Y1770149D02*
X2084921D01*
X2057350Y1539299D02*
X2084883D01*
X2073650Y1479899D02*
X2084871D01*
X2057350Y1547399D02*
X2084868D01*
X2069650Y1709399D02*
X2084859D01*
X2069650Y1735049D02*
X2084816D01*
X2057350Y1514999D02*
X2084769D01*
X2072666Y1699949D02*
X2084633D01*
X2057350Y1537949D02*
X2084575D01*
X2072652Y1698599D02*
X2084482D01*
X2057350Y1520399D02*
X2084462D01*
X2069650Y1729649D02*
X2084426D01*
X2073650Y1485299D02*
X2084386D01*
X2069650Y1764749D02*
X2084352D01*
X2057350Y1512299D02*
X2084298D01*
X2069650Y1737749D02*
X2084266D01*
X2073650Y1477199D02*
X2084232D01*
X2069650Y1772849D02*
X2084203D01*
X2055750Y1465049D02*
X2084158D01*
X2062618Y1504199D02*
X2084156D01*
X2069650Y1745849D02*
X2084128D01*
X2069650Y1749899D02*
X2084128D01*
X2066668Y1500149D02*
X2084102D01*
X2077444Y1469099D02*
X2084099D01*
X2069650Y1713449D02*
X2084079D01*
X2070465Y1780949D02*
X2084073D01*
X2069650Y1776899D02*
X2084059D01*
X2073650Y1473149D02*
X2084035D01*
X2069650Y1741799D02*
X2084009D01*
X2069650Y1710749D02*
X2084008D01*
X2058568Y1508249D02*
X2083986D01*
X2069650Y1768799D02*
X2083950D01*
X2073650Y1481249D02*
X2083929D01*
X2069650Y1733699D02*
X2083907D01*
X2057350Y1516349D02*
X2083888D01*
X2069650Y1712099D02*
X2083789D01*
X2057350Y1519049D02*
X2083766D01*
X2069650Y1730999D02*
X2083752D01*
X2073650Y1483949D02*
X2083737D01*
X2069650Y1766099D02*
X2083725D01*
X2057350Y1510949D02*
X2083705D01*
X2069650Y1739099D02*
X2083694D01*
X2073650Y1475849D02*
X2083683D01*
X2069650Y1774199D02*
X2083673D01*
X2063968Y1502849D02*
X2083658D01*
X2069650Y1747199D02*
X2083650D01*
X2069650Y1748549D02*
X2083650D01*
X2065318Y1501499D02*
X2083642D01*
X2069650Y1775549D02*
X2083631D01*
X2073650Y1474499D02*
X2083625D01*
X2069650Y1740449D02*
X2083619D01*
X2057350Y1509599D02*
X2083614D01*
X2069650Y1767449D02*
X2083607D01*
X2073650Y1482599D02*
X2083603D01*
X2069650Y1732349D02*
X2083600D01*
X2057350Y1517699D02*
X2083598D01*
X2071756Y1836299D02*
X2081082D01*
X2071950Y1834949D02*
X2079732D01*
X2071724Y1833599D02*
X2078382D01*
X2070998Y1832249D02*
X2077751D01*
X2069227Y1830899D02*
X2077750D01*
X2055950Y1829549D02*
X2077750D01*
X2055950Y1828199D02*
X2077750D01*
X2055950Y1826849D02*
X2077750D01*
X2055850Y1825499D02*
X2077750D01*
X2054765Y1824149D02*
X2077750D01*
X2053408Y1822799D02*
X2076982D01*
X2055750Y1466399D02*
X2074911D01*
X2055750Y1467749D02*
X2073561D01*
X2055750Y1469099D02*
X2072211D01*
X2055750Y1470449D02*
X2070861D01*
X2055750Y1471799D02*
X2069979D01*
X2055750Y1490699D02*
X2069950D01*
X2055750Y1489349D02*
X2069950D01*
X2055750Y1487999D02*
X2069950D01*
X2055750Y1486649D02*
X2069950D01*
X2055750Y1485299D02*
X2069950D01*
X2055750Y1483949D02*
X2069950D01*
X2055750Y1482599D02*
X2069950D01*
X2055750Y1481249D02*
X2069950D01*
X2055750Y1479899D02*
X2069950D01*
X2055750Y1478549D02*
X2069950D01*
X2055750Y1477199D02*
X2069950D01*
X2055750Y1475849D02*
X2069950D01*
X2055750Y1474499D02*
X2069950D01*
X2055750Y1473149D02*
X2069950D01*
X2055750Y1492049D02*
X2069535D01*
X2034250Y1784999D02*
X2069467D01*
X2067731Y1668899D02*
X2068870D01*
X2057350Y1664849D02*
X2068253D01*
X2055750Y1493399D02*
X2068185D01*
X2034250Y1783649D02*
X2067932D01*
X2057350Y1562249D02*
X2067777D01*
X2057350Y1564949D02*
X2067776D01*
X2067072Y1667549D02*
X2067509D01*
X2057350Y1666199D02*
X2067404D01*
X2057350Y1563599D02*
X2067350D01*
X2039157Y1860599D02*
X2066843D01*
X2055750Y1494749D02*
X2066835D01*
X2034250Y1782299D02*
X2066582D01*
X2039677Y1879499D02*
X2066323D01*
X2039823Y1859249D02*
X2066177D01*
X2034250Y1780949D02*
X2065951D01*
X2034250Y1779599D02*
X2065950D01*
X2034250Y1778249D02*
X2065950D01*
X2034250Y1776899D02*
X2065950D01*
X2034250Y1775549D02*
X2065950D01*
X2034250Y1774199D02*
X2065950D01*
X2034250Y1772849D02*
X2065950D01*
X2034250Y1771499D02*
X2065950D01*
X2034250Y1770149D02*
X2065950D01*
X2034250Y1768799D02*
X2065950D01*
X2034250Y1767449D02*
X2065950D01*
X2034250Y1766099D02*
X2065950D01*
X2034250Y1764749D02*
X2065950D01*
X2034250Y1763399D02*
X2065950D01*
X2034250Y1762049D02*
X2065950D01*
X2034250Y1760699D02*
X2065950D01*
X2064303Y1759349D02*
X2065950D01*
X2064531Y1757999D02*
X2065950D01*
X2063872Y1756649D02*
X2065950D01*
X2034250Y1755299D02*
X2065950D01*
X2034250Y1753949D02*
X2065950D01*
X2034250Y1752599D02*
X2065950D01*
X2034250Y1751249D02*
X2065950D01*
X2034250Y1749899D02*
X2065950D01*
X2034250Y1748549D02*
X2065950D01*
X2034250Y1747199D02*
X2065950D01*
X2034250Y1745849D02*
X2065950D01*
X2034250Y1744499D02*
X2065950D01*
X2034250Y1743149D02*
X2065950D01*
X2034250Y1741799D02*
X2065950D01*
X2034250Y1740449D02*
X2065950D01*
X2034250Y1739099D02*
X2065950D01*
X2034250Y1737749D02*
X2065950D01*
X2034250Y1736399D02*
X2065950D01*
X2034250Y1735049D02*
X2065950D01*
X2034250Y1733699D02*
X2065950D01*
X2034250Y1732349D02*
X2065950D01*
X2034250Y1730999D02*
X2065950D01*
X2034250Y1729649D02*
X2065950D01*
X2034250Y1728299D02*
X2065950D01*
X2034250Y1726949D02*
X2065950D01*
X2034250Y1725599D02*
X2065950D01*
X2034250Y1724249D02*
X2065950D01*
X2034250Y1722899D02*
X2065950D01*
X2034250Y1721549D02*
X2065950D01*
X2034250Y1720199D02*
X2065950D01*
X2034250Y1718849D02*
X2065950D01*
X2034250Y1717499D02*
X2065950D01*
X2034250Y1716149D02*
X2065950D01*
X2034250Y1714799D02*
X2065950D01*
X2034250Y1713449D02*
X2065950D01*
X2034250Y1712099D02*
X2065950D01*
X2034250Y1710749D02*
X2065950D01*
X2034250Y1709399D02*
X2065950D01*
X2034250Y1708049D02*
X2065950D01*
X2034250Y1706699D02*
X2065950D01*
X2034250Y1705349D02*
X2065950D01*
X2034250Y1703999D02*
X2065950D01*
X2034250Y1702649D02*
X2065950D01*
X2034250Y1701299D02*
X2065950D01*
X2034250Y1699949D02*
X2065950D01*
X2034250Y1698599D02*
X2065950D01*
X2034250Y1697249D02*
X2065950D01*
X2034250Y1695899D02*
X2065950D01*
X2034250Y1694549D02*
X2065950D01*
X2034818Y1693199D02*
X2065950D01*
X2052852Y1691849D02*
X2065950D01*
X2054110Y1690499D02*
X2065950D01*
X2054184Y1689149D02*
X2065950D01*
X2053688Y1687799D02*
X2065950D01*
X2054150Y1686449D02*
X2065950D01*
X2053757Y1685099D02*
X2065950D01*
X2051668Y1683749D02*
X2065950D01*
X2057024Y1678349D02*
X2065950D01*
X2057350Y1676999D02*
X2065950D01*
X2057350Y1675649D02*
X2065950D01*
X2057350Y1674299D02*
X2065950D01*
X2059668Y1672949D02*
X2065950D01*
X2040103Y1880849D02*
X2065897D01*
X2040227Y1898399D02*
X2065773D01*
X2055950Y1830899D02*
X2065773D01*
X2040453Y1906499D02*
X2065547D01*
X2040453Y1838999D02*
X2065547D01*
X2055750Y1496099D02*
X2065485D01*
X2040552Y1888949D02*
X2065448D01*
X2040729Y1851149D02*
X2065271D01*
X2060242Y1671599D02*
X2065182D01*
X2040974Y1868699D02*
X2065026D01*
X2041312Y1848449D02*
X2064688D01*
X2041442Y1871399D02*
X2064558D01*
X2041484Y1841699D02*
X2064516D01*
X2041619Y1915949D02*
X2064381D01*
X2041739Y1861949D02*
X2064261D01*
X2041775Y1909199D02*
X2064225D01*
X2055750Y1497449D02*
X2064135D01*
X2041876Y1857899D02*
X2064124D01*
X2041922Y1878149D02*
X2064078D01*
X2041958Y1882199D02*
X2064042D01*
X2041998Y1899749D02*
X2064002D01*
X2056065Y1832249D02*
X2064002D01*
X2042076Y1905149D02*
X2063924D01*
X2042076Y1837649D02*
X2063924D01*
X2042112Y1887599D02*
X2063888D01*
X2042181Y1852499D02*
X2063819D01*
X2057350Y1667549D02*
X2063728D01*
X2042280Y1867349D02*
X2063720D01*
X2055718Y1679699D02*
X2063692D01*
X2042424Y1847099D02*
X2063576D01*
X2042499Y1843049D02*
X2063501D01*
X2053018Y1682399D02*
X2063479D01*
X2042569Y1872749D02*
X2063431D01*
X2042612Y1863299D02*
X2063388D01*
X2042649Y1914599D02*
X2063351D01*
X2042672Y1856549D02*
X2063328D01*
X2059949Y1670249D02*
X2063297D01*
X2042707Y1883549D02*
X2063293D01*
X2042721Y1910549D02*
X2063279D01*
X2042724Y1901099D02*
X2063276D01*
X2042756Y1903799D02*
X2063244D01*
X2042771Y1886249D02*
X2063229D01*
X2042788Y1876799D02*
X2063212D01*
X2042799Y1853849D02*
X2063201D01*
X2042837Y1865999D02*
X2063163D01*
X2054368Y1681049D02*
X2063155D01*
X2042887Y1845749D02*
X2063113D01*
X2042909Y1844399D02*
X2063091D01*
X2057350Y1668899D02*
X2063069D01*
X2042936Y1864649D02*
X2063064D01*
X2042946Y1855199D02*
X2063054D01*
X2042949Y1884899D02*
X2063051D01*
X2042950Y1902449D02*
X2063050D01*
X2043062Y1874099D02*
X2062938D01*
X2043089Y1913249D02*
X2062911D01*
X2043111Y1911899D02*
X2062889D01*
X2043128Y1875449D02*
X2062872D01*
X2055750Y1498799D02*
X2062785D01*
X2043250Y1500149D02*
X2061435D01*
X2034250Y1756649D02*
X2060528D01*
X2034250Y1759349D02*
X2060097D01*
X2043250Y1501499D02*
X2060085D01*
X2034250Y1757999D02*
X2059869D01*
X2043250Y1502849D02*
X2058735D01*
X2043250Y1504199D02*
X2057385D01*
X2043250Y1505549D02*
X2056035D01*
X2049618Y1836299D02*
X2054882D01*
X2043250Y1506899D02*
X2054685D01*
X2043250Y1508249D02*
X2053706D01*
X2037250Y1675649D02*
X2053650D01*
X2038518Y1674299D02*
X2053650D01*
X2039868Y1672949D02*
X2053650D01*
X2041218Y1671599D02*
X2053650D01*
X2042568Y1670249D02*
X2053650D01*
X2043918Y1668899D02*
X2053650D01*
X2045268Y1667549D02*
X2053650D01*
X2046618Y1666199D02*
X2053650D01*
X2047968Y1664849D02*
X2053650D01*
X2050024Y1663499D02*
X2053650D01*
X2050724Y1662149D02*
X2053650D01*
X2050526Y1660799D02*
X2053650D01*
X2036450Y1659449D02*
X2053650D01*
X2036057Y1658099D02*
X2053650D01*
X2033350Y1656749D02*
X2053650D01*
X2033350Y1655399D02*
X2053650D01*
X2051870Y1654049D02*
X2053650D01*
X2052616Y1652699D02*
X2053650D01*
X2052449Y1651349D02*
X2053650D01*
X2050776Y1649999D02*
X2053650D01*
X2040245Y1648649D02*
X2053650D01*
X2039920Y1647299D02*
X2053650D01*
X2040159Y1645949D02*
X2053650D01*
X2040143Y1644599D02*
X2053650D01*
X2039047Y1643249D02*
X2053650D01*
X2033350Y1641899D02*
X2053650D01*
X2036650Y1636499D02*
X2053650D01*
X2036650Y1635149D02*
X2053650D01*
X2036650Y1633799D02*
X2053650D01*
X2036650Y1632449D02*
X2053650D01*
X2036650Y1631099D02*
X2053650D01*
X2036650Y1629749D02*
X2053650D01*
X2036650Y1628399D02*
X2053650D01*
X2036650Y1627049D02*
X2053650D01*
X2036650Y1625699D02*
X2053650D01*
X2036650Y1624349D02*
X2053650D01*
X2036650Y1622999D02*
X2053650D01*
X2036650Y1621649D02*
X2053650D01*
X2036650Y1620299D02*
X2053650D01*
X2036650Y1618949D02*
X2053650D01*
X2036650Y1617599D02*
X2053650D01*
X2036650Y1616249D02*
X2053650D01*
X2036650Y1614899D02*
X2053650D01*
X2036650Y1613549D02*
X2053650D01*
X2036650Y1612199D02*
X2053650D01*
X2036650Y1610849D02*
X2053650D01*
X2036650Y1609499D02*
X2053650D01*
X2036650Y1608149D02*
X2053650D01*
X2036650Y1606799D02*
X2053650D01*
X2036650Y1605449D02*
X2053650D01*
X2036650Y1604099D02*
X2053650D01*
X2036650Y1602749D02*
X2053650D01*
X2036650Y1601399D02*
X2053650D01*
X2036650Y1600049D02*
X2053650D01*
X2036650Y1598699D02*
X2053650D01*
X2036650Y1597349D02*
X2053650D01*
X2036650Y1595999D02*
X2053650D01*
X2036649Y1594649D02*
X2053650D01*
X2036015Y1593299D02*
X2053650D01*
X2034665Y1591949D02*
X2053650D01*
X2033315Y1590599D02*
X2053650D01*
X2031965Y1589249D02*
X2053650D01*
X2030615Y1587899D02*
X2053650D01*
X2026450Y1586549D02*
X2053650D01*
X2051136Y1585199D02*
X2053650D01*
X2052159Y1583849D02*
X2053650D01*
X2052143Y1582499D02*
X2053650D01*
X2051047Y1581149D02*
X2053650D01*
X2024616Y1579799D02*
X2053650D01*
X2024449Y1578449D02*
X2053650D01*
X2024110Y1577099D02*
X2053650D01*
X2024645Y1575749D02*
X2053650D01*
X2024320Y1574399D02*
X2053650D01*
X2019450Y1573049D02*
X2053650D01*
X2024546Y1567649D02*
X2053650D01*
X2019450Y1566299D02*
X2053650D01*
X2019450Y1564949D02*
X2053650D01*
X2019450Y1563599D02*
X2053650D01*
X2019450Y1562249D02*
X2053650D01*
X2019450Y1560899D02*
X2053650D01*
X2032052Y1559549D02*
X2053650D01*
X2033310Y1558199D02*
X2053650D01*
X2033384Y1556849D02*
X2053650D01*
X2032481Y1555499D02*
X2053650D01*
X2029245Y1554149D02*
X2053650D01*
X2028920Y1552799D02*
X2053650D01*
X2028028Y1551449D02*
X2053650D01*
X2028072Y1550099D02*
X2053650D01*
X2027110Y1548749D02*
X2053650D01*
X2023950Y1547399D02*
X2053650D01*
X2023950Y1546049D02*
X2053650D01*
X2023950Y1544699D02*
X2053650D01*
X2023950Y1543349D02*
X2053650D01*
X2023950Y1541999D02*
X2053650D01*
X2023950Y1540649D02*
X2053650D01*
X2023950Y1539299D02*
X2053650D01*
X2023950Y1537949D02*
X2053650D01*
X2023950Y1536599D02*
X2053650D01*
X2023950Y1535249D02*
X2053650D01*
X2023950Y1533899D02*
X2053650D01*
X2023950Y1532549D02*
X2053650D01*
X2023950Y1531199D02*
X2053650D01*
X2023950Y1529849D02*
X2053650D01*
X2023950Y1528499D02*
X2053650D01*
X2023950Y1527149D02*
X2053650D01*
X2023950Y1525799D02*
X2053650D01*
X2023950Y1524449D02*
X2053650D01*
X2023950Y1523099D02*
X2053650D01*
X2023950Y1521749D02*
X2053650D01*
X2023950Y1520399D02*
X2053650D01*
X2023950Y1519049D02*
X2053650D01*
X2023950Y1517699D02*
X2053650D01*
X2043250Y1516349D02*
X2053650D01*
X2043250Y1514999D02*
X2053650D01*
X2043250Y1513649D02*
X2053650D01*
X2043250Y1512299D02*
X2053650D01*
X2043250Y1510949D02*
X2053650D01*
X2043250Y1509599D02*
X2053650D01*
X2050968Y1834949D02*
X2053532D01*
X2037250Y1676999D02*
X2053185D01*
X2051982Y1833599D02*
X2052387D01*
X2052050Y1832249D02*
X2052250D01*
X2052050Y1830899D02*
X2052250D01*
X2051966Y1829549D02*
X2052250D01*
X2050915Y1828199D02*
X2052250D01*
X2049547Y1826849D02*
X2052232D01*
X2037250Y1678349D02*
X2051835D01*
X2024985Y1571699D02*
X2051478D01*
X2025809Y1568999D02*
X2051124D01*
X2036168Y1691849D02*
X2050948D01*
X2036633Y1637849D02*
X2050937D01*
X2034468Y1640549D02*
X2050936D01*
X2025885Y1570349D02*
X2050863D01*
X2035818Y1639199D02*
X2050550D01*
X2037250Y1679699D02*
X2050485D01*
X2047618Y1687799D02*
X2049912D01*
X2046652Y1649999D02*
X2049824D01*
X2037182Y1690499D02*
X2049690D01*
X2046268Y1689149D02*
X2049616D01*
X2048968Y1686449D02*
X2049450D01*
X2037250Y1681049D02*
X2049135D01*
X2023870Y1581149D02*
X2048753D01*
X2046913Y1654049D02*
X2048730D01*
X2026616Y1585199D02*
X2048664D01*
X2041998Y1832249D02*
X2048350D01*
X2040227Y1830899D02*
X2048350D01*
X2047827Y1651349D02*
X2048151D01*
X2047872Y1652699D02*
X2047984D01*
X2039520Y1682399D02*
X2047785D01*
X2017818Y1582499D02*
X2047657D01*
X2025867Y1583849D02*
X2047641D01*
X2040137Y1683749D02*
X2046435D01*
X2035988Y1660799D02*
X2046274D01*
X2033350Y1662149D02*
X2045435D01*
X2039877Y1685099D02*
X2045085D01*
X2039710Y1649999D02*
X2044548D01*
X2033350Y1654049D02*
X2044287D01*
X2033350Y1663499D02*
X2044085D01*
X2033350Y1651349D02*
X2043373D01*
X2033350Y1652699D02*
X2043328D01*
X2033350Y1664849D02*
X2042735D01*
X2033350Y1666199D02*
X2041385D01*
X2039372Y1667549D02*
X2040035D01*
X2010157Y1860599D02*
X2037843D01*
X2010677Y1879499D02*
X2037323D01*
X2010823Y1859249D02*
X2037177D01*
X2011103Y1880849D02*
X2036897D01*
X1937950Y1898399D02*
X2036773D01*
X2022750Y1830899D02*
X2036773D01*
X2033350Y1643249D02*
X2036753D01*
X1997750Y1906499D02*
X2036547D01*
X2011453Y1838999D02*
X2036547D01*
X2011552Y1888949D02*
X2036448D01*
X2011729Y1851149D02*
X2036271D01*
X2033350Y1649999D02*
X2036090D01*
X2033350Y1667549D02*
X2036028D01*
X2011974Y1868699D02*
X2036026D01*
X2033350Y1671599D02*
X2035985D01*
X2033350Y1647299D02*
X2035880D01*
X2012312Y1848449D02*
X2035688D01*
X2033350Y1644599D02*
X2035657D01*
X2033350Y1645949D02*
X2035641D01*
X2033350Y1670249D02*
X2035597D01*
X2012442Y1871399D02*
X2035558D01*
X2033350Y1648649D02*
X2035555D01*
X2012484Y1841699D02*
X2035516D01*
X1937950Y1915949D02*
X2035381D01*
X2033350Y1668899D02*
X2035369D01*
X2012739Y1861949D02*
X2035261D01*
X1997750Y1909199D02*
X2035225D01*
X2012876Y1857899D02*
X2035124D01*
X2012922Y1878149D02*
X2035078D01*
X2012958Y1882199D02*
X2035042D01*
X1937950Y1899749D02*
X2035002D01*
X2022488Y1832249D02*
X2035002D01*
X2010282Y1905149D02*
X2034924D01*
X2013076Y1837649D02*
X2034924D01*
X2013112Y1887599D02*
X2034888D01*
X2013181Y1852499D02*
X2034819D01*
X2013280Y1867349D02*
X2034720D01*
X2033350Y1672949D02*
X2034635D01*
X2013424Y1847099D02*
X2034576D01*
X2013499Y1843049D02*
X2034501D01*
X2013569Y1872749D02*
X2034431D01*
X2013612Y1863299D02*
X2034388D01*
X2022257Y1914599D02*
X2034351D01*
X2013672Y1856549D02*
X2034328D01*
X2013707Y1883549D02*
X2034293D01*
X2022510Y1910549D02*
X2034279D01*
X2012261Y1901099D02*
X2034276D01*
X2021218Y1833599D02*
X2034276D01*
X2012451Y1903799D02*
X2034244D01*
X2018518Y1836299D02*
X2034244D01*
X2013771Y1886249D02*
X2034229D01*
X2013788Y1876799D02*
X2034212D01*
X2013799Y1853849D02*
X2034201D01*
X2013837Y1865999D02*
X2034163D01*
X2013887Y1845749D02*
X2034113D01*
X2013909Y1844399D02*
X2034091D01*
X2013936Y1864649D02*
X2034064D01*
X2013946Y1855199D02*
X2034054D01*
X2013949Y1884899D02*
X2034051D01*
X2012746Y1902449D02*
X2034050D01*
X2019868Y1834949D02*
X2034050D01*
X2014062Y1874099D02*
X2033938D01*
X2023428Y1913249D02*
X2033911D01*
X2023472Y1911899D02*
X2033889D01*
X2014128Y1875449D02*
X2033872D01*
X2031865Y1821449D02*
X2033832D01*
X2033350Y1674299D02*
X2033619D01*
X2032668Y1689149D02*
X2033550D01*
X2033347Y1687799D02*
X2033550D01*
X2033350Y1686449D02*
X2033550D01*
X2033350Y1685099D02*
X2033550D01*
X2033350Y1683749D02*
X2033550D01*
X2033350Y1682399D02*
X2033550D01*
X2033350Y1681049D02*
X2033550D01*
X2033350Y1679699D02*
X2033550D01*
X2033350Y1678349D02*
X2033550D01*
X2033350Y1676999D02*
X2033550D01*
X2033350Y1675649D02*
X2033550D01*
X2032609Y1631099D02*
X2032950D01*
X2022750Y1629749D02*
X2032950D01*
X2025712Y1628399D02*
X2032950D01*
X2026507Y1627049D02*
X2032950D01*
X2026370Y1625699D02*
X2032950D01*
X2026450Y1624349D02*
X2032950D01*
X2026616Y1622999D02*
X2032950D01*
X2025867Y1621649D02*
X2032950D01*
X2022750Y1620299D02*
X2032950D01*
X2025651Y1618949D02*
X2032950D01*
X2026496Y1617599D02*
X2032950D01*
X2026390Y1616249D02*
X2032950D01*
X2026427Y1614899D02*
X2032950D01*
X2026624Y1613549D02*
X2032950D01*
X2025921Y1612199D02*
X2032950D01*
X2022750Y1610849D02*
X2032950D01*
X2026112Y1609499D02*
X2032950D01*
X2026907Y1608149D02*
X2032950D01*
X2026770Y1606799D02*
X2032950D01*
X2025550Y1605449D02*
X2032950D01*
X2025716Y1604099D02*
X2032950D01*
X2026691Y1602749D02*
X2032950D01*
X2026796Y1601399D02*
X2032950D01*
X2026427Y1595999D02*
X2032950D01*
X2030515Y1820099D02*
X2032482D01*
X2031318Y1690499D02*
X2032285D01*
X2026624Y1594649D02*
X2032132D01*
X2030450Y1818749D02*
X2031132D01*
X2030450Y1691849D02*
X2030952D01*
X2025921Y1593299D02*
X2030782D01*
X2028215Y1825499D02*
X2030682D01*
X2030518Y1639199D02*
X2030585D01*
X2030450Y1817399D02*
X2030550D01*
X2030450Y1816049D02*
X2030550D01*
X2030450Y1814699D02*
X2030550D01*
X2030450Y1813349D02*
X2030550D01*
X2030450Y1811999D02*
X2030550D01*
X2030450Y1810649D02*
X2030550D01*
X2030450Y1809299D02*
X2030550D01*
X2030450Y1807949D02*
X2030550D01*
X2030450Y1806599D02*
X2030550D01*
X2030450Y1805249D02*
X2030550D01*
X2030450Y1803899D02*
X2030550D01*
X2030450Y1802549D02*
X2030550D01*
X2030450Y1801199D02*
X2030550D01*
X2030450Y1799849D02*
X2030550D01*
X2030450Y1798499D02*
X2030550D01*
X2030450Y1797149D02*
X2030550D01*
X2030450Y1795799D02*
X2030550D01*
X2030450Y1794449D02*
X2030550D01*
X2030450Y1793099D02*
X2030550D01*
X2030450Y1791749D02*
X2030550D01*
X2030450Y1790399D02*
X2030550D01*
X2030450Y1789049D02*
X2030550D01*
X2030450Y1787699D02*
X2030550D01*
X2030450Y1786349D02*
X2030550D01*
X2030450Y1784999D02*
X2030550D01*
X2030450Y1783649D02*
X2030550D01*
X2030450Y1782299D02*
X2030550D01*
X2030450Y1780949D02*
X2030550D01*
X2030450Y1779599D02*
X2030550D01*
X2030450Y1778249D02*
X2030550D01*
X2030450Y1776899D02*
X2030550D01*
X2030450Y1775549D02*
X2030550D01*
X2030450Y1774199D02*
X2030550D01*
X2030450Y1772849D02*
X2030550D01*
X2030450Y1771499D02*
X2030550D01*
X2030450Y1770149D02*
X2030550D01*
X2030450Y1768799D02*
X2030550D01*
X2030450Y1767449D02*
X2030550D01*
X2030450Y1766099D02*
X2030550D01*
X2030450Y1764749D02*
X2030550D01*
X2030450Y1763399D02*
X2030550D01*
X2030450Y1762049D02*
X2030550D01*
X2030450Y1760699D02*
X2030550D01*
X2030450Y1759349D02*
X2030550D01*
X2030450Y1757999D02*
X2030550D01*
X2030450Y1756649D02*
X2030550D01*
X2030450Y1755299D02*
X2030550D01*
X2030450Y1753949D02*
X2030550D01*
X2030450Y1752599D02*
X2030550D01*
X2030450Y1751249D02*
X2030550D01*
X2030450Y1749899D02*
X2030550D01*
X2030450Y1748549D02*
X2030550D01*
X2030450Y1747199D02*
X2030550D01*
X2030450Y1745849D02*
X2030550D01*
X2030450Y1744499D02*
X2030550D01*
X2030450Y1743149D02*
X2030550D01*
X2030450Y1741799D02*
X2030550D01*
X2030450Y1740449D02*
X2030550D01*
X2030450Y1739099D02*
X2030550D01*
X2030450Y1737749D02*
X2030550D01*
X2030450Y1736399D02*
X2030550D01*
X2030450Y1735049D02*
X2030550D01*
X2030450Y1733699D02*
X2030550D01*
X2030450Y1732349D02*
X2030550D01*
X2030450Y1730999D02*
X2030550D01*
X2030450Y1729649D02*
X2030550D01*
X2030450Y1728299D02*
X2030550D01*
X2030450Y1726949D02*
X2030550D01*
X2030450Y1725599D02*
X2030550D01*
X2030450Y1724249D02*
X2030550D01*
X2030450Y1722899D02*
X2030550D01*
X2030450Y1721549D02*
X2030550D01*
X2030450Y1720199D02*
X2030550D01*
X2030450Y1718849D02*
X2030550D01*
X2030450Y1717499D02*
X2030550D01*
X2030450Y1716149D02*
X2030550D01*
X2030450Y1714799D02*
X2030550D01*
X2030450Y1713449D02*
X2030550D01*
X2030450Y1712099D02*
X2030550D01*
X2030450Y1710749D02*
X2030550D01*
X2030450Y1709399D02*
X2030550D01*
X2030450Y1708049D02*
X2030550D01*
X2030450Y1706699D02*
X2030550D01*
X2030450Y1705349D02*
X2030550D01*
X2030450Y1703999D02*
X2030550D01*
X2030450Y1702649D02*
X2030550D01*
X2030450Y1701299D02*
X2030550D01*
X2030450Y1699949D02*
X2030550D01*
X2030450Y1698599D02*
X2030550D01*
X2030450Y1697249D02*
X2030550D01*
X2030450Y1695899D02*
X2030550D01*
X2030450Y1694549D02*
X2030550D01*
X2030450Y1693199D02*
X2030550D01*
X2019450Y1559549D02*
X2030148D01*
X2025947Y1600049D02*
X2030032D01*
X2024379Y1597349D02*
X2029751D01*
X2029357Y1555499D02*
X2029719D01*
X2029250Y1640549D02*
X2029684D01*
X2026550Y1686449D02*
X2029650D01*
X2027718Y1685099D02*
X2029650D01*
X2028988Y1683749D02*
X2029650D01*
X2029250Y1682399D02*
X2029650D01*
X2029250Y1681049D02*
X2029650D01*
X2029250Y1679699D02*
X2029650D01*
X2029250Y1678349D02*
X2029650D01*
X2029250Y1676999D02*
X2029650D01*
X2029250Y1675649D02*
X2029650D01*
X2029250Y1674299D02*
X2029650D01*
X2029250Y1672949D02*
X2029650D01*
X2029250Y1671599D02*
X2029650D01*
X2029250Y1670249D02*
X2029650D01*
X2029250Y1668899D02*
X2029650D01*
X2029250Y1667549D02*
X2029650D01*
X2029250Y1666199D02*
X2029650D01*
X2029250Y1664849D02*
X2029650D01*
X2029250Y1663499D02*
X2029650D01*
X2029250Y1662149D02*
X2029650D01*
X2029250Y1660799D02*
X2029650D01*
X2029250Y1659449D02*
X2029650D01*
X2029250Y1658099D02*
X2029650D01*
X2029250Y1656749D02*
X2029650D01*
X2029250Y1655399D02*
X2029650D01*
X2029250Y1654049D02*
X2029650D01*
X2029250Y1652699D02*
X2029650D01*
X2029250Y1651349D02*
X2029650D01*
X2029250Y1649999D02*
X2029650D01*
X2029250Y1648649D02*
X2029650D01*
X2029250Y1647299D02*
X2029650D01*
X2029250Y1645949D02*
X2029650D01*
X2029250Y1644599D02*
X2029650D01*
X2029250Y1643249D02*
X2029650D01*
X2029250Y1641899D02*
X2029650D01*
X2022750Y1631099D02*
X2029591D01*
X2024572Y1598699D02*
X2029458D01*
X2014350Y1591949D02*
X2029432D01*
X2026865Y1824149D02*
X2029332D01*
X2022750Y1635149D02*
X2029310D01*
X2022750Y1633799D02*
X2028929D01*
X2022750Y1632449D02*
X2028794D01*
X2026550Y1687799D02*
X2028785D01*
X2022750Y1636499D02*
X2027985D01*
X2026550Y1822799D02*
X2027982D01*
X2026550Y1689149D02*
X2027435D01*
X2022750Y1829549D02*
X2027032D01*
X2026550Y1821449D02*
X2026867D01*
X2026550Y1690499D02*
X2026753D01*
X2026550Y1820099D02*
X2026750D01*
X2026550Y1818749D02*
X2026750D01*
X2026550Y1817399D02*
X2026750D01*
X2026550Y1816049D02*
X2026750D01*
X2026550Y1814699D02*
X2026750D01*
X2026550Y1813349D02*
X2026750D01*
X2026550Y1811999D02*
X2026750D01*
X2026550Y1810649D02*
X2026750D01*
X2026550Y1809299D02*
X2026750D01*
X2026550Y1807949D02*
X2026750D01*
X2026550Y1806599D02*
X2026750D01*
X2026550Y1805249D02*
X2026750D01*
X2026550Y1803899D02*
X2026750D01*
X2026550Y1802549D02*
X2026750D01*
X2026550Y1801199D02*
X2026750D01*
X2026550Y1799849D02*
X2026750D01*
X2026550Y1798499D02*
X2026750D01*
X2026550Y1797149D02*
X2026750D01*
X2026550Y1795799D02*
X2026750D01*
X2026550Y1794449D02*
X2026750D01*
X2026550Y1793099D02*
X2026750D01*
X2026550Y1791749D02*
X2026750D01*
X2026550Y1790399D02*
X2026750D01*
X2026550Y1789049D02*
X2026750D01*
X2026550Y1787699D02*
X2026750D01*
X2026550Y1786349D02*
X2026750D01*
X2026550Y1784999D02*
X2026750D01*
X2026550Y1783649D02*
X2026750D01*
X2026550Y1782299D02*
X2026750D01*
X2026550Y1780949D02*
X2026750D01*
X2026550Y1779599D02*
X2026750D01*
X2026550Y1778249D02*
X2026750D01*
X2026550Y1776899D02*
X2026750D01*
X2026550Y1775549D02*
X2026750D01*
X2026550Y1774199D02*
X2026750D01*
X2026550Y1772849D02*
X2026750D01*
X2026550Y1771499D02*
X2026750D01*
X2026550Y1770149D02*
X2026750D01*
X2026550Y1768799D02*
X2026750D01*
X2026550Y1767449D02*
X2026750D01*
X2026550Y1766099D02*
X2026750D01*
X2026550Y1764749D02*
X2026750D01*
X2026550Y1763399D02*
X2026750D01*
X2026550Y1762049D02*
X2026750D01*
X2026550Y1760699D02*
X2026750D01*
X2026550Y1759349D02*
X2026750D01*
X2026550Y1757999D02*
X2026750D01*
X2026550Y1756649D02*
X2026750D01*
X2026550Y1755299D02*
X2026750D01*
X2026550Y1753949D02*
X2026750D01*
X2026550Y1752599D02*
X2026750D01*
X2026550Y1751249D02*
X2026750D01*
X2026550Y1749899D02*
X2026750D01*
X2026550Y1748549D02*
X2026750D01*
X2026550Y1747199D02*
X2026750D01*
X2026550Y1745849D02*
X2026750D01*
X2026550Y1744499D02*
X2026750D01*
X2026550Y1743149D02*
X2026750D01*
X2026550Y1741799D02*
X2026750D01*
X2026550Y1740449D02*
X2026750D01*
X2026550Y1739099D02*
X2026750D01*
X2026550Y1737749D02*
X2026750D01*
X2026550Y1736399D02*
X2026750D01*
X2026550Y1735049D02*
X2026750D01*
X2026550Y1733699D02*
X2026750D01*
X2026550Y1732349D02*
X2026750D01*
X2026550Y1730999D02*
X2026750D01*
X2026550Y1729649D02*
X2026750D01*
X2026550Y1728299D02*
X2026750D01*
X2026550Y1726949D02*
X2026750D01*
X2026550Y1725599D02*
X2026750D01*
X2026550Y1724249D02*
X2026750D01*
X2026550Y1722899D02*
X2026750D01*
X2026550Y1721549D02*
X2026750D01*
X2026550Y1720199D02*
X2026750D01*
X2026550Y1718849D02*
X2026750D01*
X2026550Y1717499D02*
X2026750D01*
X2026550Y1716149D02*
X2026750D01*
X2026550Y1714799D02*
X2026750D01*
X2026550Y1713449D02*
X2026750D01*
X2026550Y1712099D02*
X2026750D01*
X2026550Y1710749D02*
X2026750D01*
X2026550Y1709399D02*
X2026750D01*
X2026550Y1708049D02*
X2026750D01*
X2026550Y1706699D02*
X2026750D01*
X2026550Y1705349D02*
X2026750D01*
X2026550Y1703999D02*
X2026750D01*
X2026550Y1702649D02*
X2026750D01*
X2026550Y1701299D02*
X2026750D01*
X2026550Y1699949D02*
X2026750D01*
X2026550Y1698599D02*
X2026750D01*
X2026550Y1697249D02*
X2026750D01*
X2026550Y1695899D02*
X2026750D01*
X2026550Y1694549D02*
X2026750D01*
X2026550Y1693199D02*
X2026750D01*
X2026550Y1691849D02*
X2026750D01*
X2022750Y1637849D02*
X2026635D01*
X2022750Y1828199D02*
X2025682D01*
X2022750Y1639199D02*
X2025619D01*
X2022750Y1681049D02*
X2025550D01*
X2022750Y1679699D02*
X2025550D01*
X2022750Y1678349D02*
X2025550D01*
X2022750Y1676999D02*
X2025550D01*
X2022750Y1675649D02*
X2025550D01*
X2022750Y1674299D02*
X2025550D01*
X2022750Y1672949D02*
X2025550D01*
X2022750Y1671599D02*
X2025550D01*
X2022750Y1670249D02*
X2025550D01*
X2022750Y1668899D02*
X2025550D01*
X2022750Y1667549D02*
X2025550D01*
X2025123Y1652699D02*
X2025550D01*
X2022750Y1651349D02*
X2025550D01*
X2022750Y1649999D02*
X2025550D01*
X2022750Y1648649D02*
X2025550D01*
X2022750Y1647299D02*
X2025550D01*
X2022750Y1645949D02*
X2025550D01*
X2022750Y1644599D02*
X2025550D01*
X2022750Y1643249D02*
X2025550D01*
X2022750Y1641899D02*
X2025550D01*
X2022750Y1640549D02*
X2025550D01*
X2019450Y1558199D02*
X2025512D01*
X2022750Y1682399D02*
X2025185D01*
X2022772Y1555499D02*
X2025090D01*
X2021813Y1556849D02*
X2025050D01*
X2023950Y1552799D02*
X2024743D01*
X2023744Y1554149D02*
X2024555D01*
X2023950Y1548749D02*
X2024490D01*
X2022750Y1826849D02*
X2024332D01*
X2023610Y1597349D02*
X2024221D01*
X2022750Y1683749D02*
X2023835D01*
X2022750Y1652699D02*
X2023477D01*
X2022750Y1666199D02*
X2023415D01*
X2022750Y1825499D02*
X2023083D01*
X2022750Y1685099D02*
X2022894D01*
X2022750Y1824149D02*
X2022850D01*
X2022750Y1822799D02*
X2022850D01*
X2022750Y1821449D02*
X2022850D01*
X2022750Y1820099D02*
X2022850D01*
X2022750Y1818749D02*
X2022850D01*
X2022750Y1817399D02*
X2022850D01*
X2022750Y1816049D02*
X2022850D01*
X2022750Y1814699D02*
X2022850D01*
X2022750Y1813349D02*
X2022850D01*
X2022750Y1811999D02*
X2022850D01*
X2022750Y1810649D02*
X2022850D01*
X2022750Y1809299D02*
X2022850D01*
X2022750Y1807949D02*
X2022850D01*
X2022750Y1806599D02*
X2022850D01*
X2022750Y1805249D02*
X2022850D01*
X2022750Y1803899D02*
X2022850D01*
X2022750Y1802549D02*
X2022850D01*
X2022750Y1801199D02*
X2022850D01*
X2022750Y1799849D02*
X2022850D01*
X2022750Y1798499D02*
X2022850D01*
X2022750Y1797149D02*
X2022850D01*
X2022750Y1795799D02*
X2022850D01*
X2022750Y1794449D02*
X2022850D01*
X2022750Y1793099D02*
X2022850D01*
X2022750Y1791749D02*
X2022850D01*
X2022750Y1790399D02*
X2022850D01*
X2022750Y1789049D02*
X2022850D01*
X2022750Y1787699D02*
X2022850D01*
X2022750Y1786349D02*
X2022850D01*
X2022750Y1784999D02*
X2022850D01*
X2022750Y1783649D02*
X2022850D01*
X2022750Y1782299D02*
X2022850D01*
X2022750Y1780949D02*
X2022850D01*
X2022750Y1779599D02*
X2022850D01*
X2022750Y1778249D02*
X2022850D01*
X2022750Y1776899D02*
X2022850D01*
X2022750Y1775549D02*
X2022850D01*
X2022750Y1774199D02*
X2022850D01*
X2022750Y1772849D02*
X2022850D01*
X2022750Y1771499D02*
X2022850D01*
X2022750Y1770149D02*
X2022850D01*
X2022750Y1768799D02*
X2022850D01*
X2022750Y1767449D02*
X2022850D01*
X2022750Y1766099D02*
X2022850D01*
X2022750Y1764749D02*
X2022850D01*
X2022750Y1763399D02*
X2022850D01*
X2022750Y1762049D02*
X2022850D01*
X2022750Y1760699D02*
X2022850D01*
X2022750Y1759349D02*
X2022850D01*
X2022750Y1757999D02*
X2022850D01*
X2022750Y1756649D02*
X2022850D01*
X2022750Y1755299D02*
X2022850D01*
X2022750Y1753949D02*
X2022850D01*
X2022750Y1752599D02*
X2022850D01*
X2022750Y1751249D02*
X2022850D01*
X2022750Y1749899D02*
X2022850D01*
X2022750Y1748549D02*
X2022850D01*
X2022750Y1747199D02*
X2022850D01*
X2022750Y1745849D02*
X2022850D01*
X2022750Y1744499D02*
X2022850D01*
X2022750Y1743149D02*
X2022850D01*
X2022750Y1741799D02*
X2022850D01*
X2022750Y1740449D02*
X2022850D01*
X2022750Y1739099D02*
X2022850D01*
X2022750Y1737749D02*
X2022850D01*
X2022750Y1736399D02*
X2022850D01*
X2022750Y1735049D02*
X2022850D01*
X2022750Y1733699D02*
X2022850D01*
X2022750Y1732349D02*
X2022850D01*
X2022750Y1730999D02*
X2022850D01*
X2022750Y1729649D02*
X2022850D01*
X2022750Y1728299D02*
X2022850D01*
X2022750Y1726949D02*
X2022850D01*
X2022750Y1725599D02*
X2022850D01*
X2022750Y1724249D02*
X2022850D01*
X2022750Y1722899D02*
X2022850D01*
X2022750Y1721549D02*
X2022850D01*
X2022750Y1720199D02*
X2022850D01*
X2022750Y1718849D02*
X2022850D01*
X2022750Y1717499D02*
X2022850D01*
X2022750Y1716149D02*
X2022850D01*
X2022750Y1714799D02*
X2022850D01*
X2022750Y1713449D02*
X2022850D01*
X2022750Y1712099D02*
X2022850D01*
X2022750Y1710749D02*
X2022850D01*
X2022750Y1709399D02*
X2022850D01*
X2022750Y1708049D02*
X2022850D01*
X2022750Y1706699D02*
X2022850D01*
X2022750Y1705349D02*
X2022850D01*
X2022750Y1703999D02*
X2022850D01*
X2022750Y1702649D02*
X2022850D01*
X2022750Y1701299D02*
X2022850D01*
X2022750Y1699949D02*
X2022850D01*
X2022750Y1698599D02*
X2022850D01*
X2022750Y1697249D02*
X2022850D01*
X2022750Y1695899D02*
X2022850D01*
X2022750Y1694549D02*
X2022850D01*
X2022750Y1693199D02*
X2022850D01*
X2022750Y1691849D02*
X2022850D01*
X2022750Y1690499D02*
X2022850D01*
X2022750Y1689149D02*
X2022850D01*
X2022750Y1687799D02*
X2022850D01*
X2022750Y1686449D02*
X2022850D01*
X2016468Y1583849D02*
X2022733D01*
X2014350Y1590599D02*
X2022688D01*
X2014350Y1593299D02*
X2022679D01*
X2019450Y1567649D02*
X2022654D01*
X2019450Y1571699D02*
X2022215D01*
X2014350Y1595999D02*
X2022173D01*
X2014350Y1586549D02*
X2022150D01*
X2014350Y1587899D02*
X2022030D01*
X2015118Y1585199D02*
X2021984D01*
X2014350Y1594649D02*
X2021976D01*
X2014350Y1589249D02*
X2021893D01*
X2019450Y1568999D02*
X2021391D01*
X2019450Y1570349D02*
X2021315D01*
X2018750Y1605449D02*
X2021250D01*
X2019618Y1604099D02*
X2021084D01*
X2014350Y1597349D02*
X2020990D01*
X2017418Y1577099D02*
X2020490D01*
X2018750Y1606799D02*
X2020385D01*
X2019447Y1574399D02*
X2020280D01*
X2011148Y1914599D02*
X2020143D01*
X2014350Y1600049D02*
X2020072D01*
X2014350Y1598699D02*
X2020028D01*
X2018768Y1575749D02*
X2019955D01*
X2011342Y1910549D02*
X2019890D01*
X2018750Y1608149D02*
X2019209D01*
X2014166Y1829549D02*
X2019050D01*
X2015518Y1828199D02*
X2019050D01*
X2016868Y1826849D02*
X2019050D01*
X2018218Y1825499D02*
X2019050D01*
X2018750Y1824149D02*
X2019050D01*
X2018750Y1822799D02*
X2019050D01*
X2018750Y1821449D02*
X2019050D01*
X2018750Y1820099D02*
X2019050D01*
X2018750Y1818749D02*
X2019050D01*
X2018750Y1817399D02*
X2019050D01*
X2018750Y1816049D02*
X2019050D01*
X2018750Y1814699D02*
X2019050D01*
X2018750Y1813349D02*
X2019050D01*
X2018750Y1811999D02*
X2019050D01*
X2018750Y1810649D02*
X2019050D01*
X2018750Y1809299D02*
X2019050D01*
X2018750Y1807949D02*
X2019050D01*
X2018750Y1806599D02*
X2019050D01*
X2018750Y1805249D02*
X2019050D01*
X2018750Y1803899D02*
X2019050D01*
X2018750Y1802549D02*
X2019050D01*
X2018750Y1801199D02*
X2019050D01*
X2018750Y1799849D02*
X2019050D01*
X2018750Y1798499D02*
X2019050D01*
X2018750Y1797149D02*
X2019050D01*
X2018750Y1795799D02*
X2019050D01*
X2018750Y1794449D02*
X2019050D01*
X2018750Y1793099D02*
X2019050D01*
X2018750Y1791749D02*
X2019050D01*
X2018750Y1790399D02*
X2019050D01*
X2018750Y1789049D02*
X2019050D01*
X2018750Y1787699D02*
X2019050D01*
X2018750Y1786349D02*
X2019050D01*
X2018750Y1784999D02*
X2019050D01*
X2018750Y1783649D02*
X2019050D01*
X2018750Y1782299D02*
X2019050D01*
X2018750Y1780949D02*
X2019050D01*
X2018750Y1779599D02*
X2019050D01*
X2018750Y1778249D02*
X2019050D01*
X2018750Y1776899D02*
X2019050D01*
X2018750Y1775549D02*
X2019050D01*
X2018750Y1774199D02*
X2019050D01*
X2018750Y1772849D02*
X2019050D01*
X2018750Y1771499D02*
X2019050D01*
X2018750Y1770149D02*
X2019050D01*
X2018750Y1768799D02*
X2019050D01*
X2018750Y1767449D02*
X2019050D01*
X2018750Y1766099D02*
X2019050D01*
X2018750Y1764749D02*
X2019050D01*
X2018750Y1763399D02*
X2019050D01*
X2018750Y1762049D02*
X2019050D01*
X2018750Y1760699D02*
X2019050D01*
X2018750Y1759349D02*
X2019050D01*
X2018750Y1757999D02*
X2019050D01*
X2018750Y1756649D02*
X2019050D01*
X2018750Y1755299D02*
X2019050D01*
X2018750Y1753949D02*
X2019050D01*
X2018750Y1752599D02*
X2019050D01*
X2018750Y1751249D02*
X2019050D01*
X2018750Y1749899D02*
X2019050D01*
X2018750Y1748549D02*
X2019050D01*
X2018750Y1747199D02*
X2019050D01*
X2018750Y1745849D02*
X2019050D01*
X2018750Y1744499D02*
X2019050D01*
X2018750Y1743149D02*
X2019050D01*
X2018750Y1741799D02*
X2019050D01*
X2018750Y1740449D02*
X2019050D01*
X2018750Y1739099D02*
X2019050D01*
X2018750Y1737749D02*
X2019050D01*
X2018750Y1736399D02*
X2019050D01*
X2018750Y1735049D02*
X2019050D01*
X2018750Y1733699D02*
X2019050D01*
X2018750Y1732349D02*
X2019050D01*
X2018750Y1730999D02*
X2019050D01*
X2018750Y1729649D02*
X2019050D01*
X2018750Y1728299D02*
X2019050D01*
X2018750Y1726949D02*
X2019050D01*
X2018750Y1725599D02*
X2019050D01*
X2018750Y1724249D02*
X2019050D01*
X2018750Y1722899D02*
X2019050D01*
X2018750Y1721549D02*
X2019050D01*
X2018750Y1720199D02*
X2019050D01*
X2018750Y1718849D02*
X2019050D01*
X2018750Y1717499D02*
X2019050D01*
X2018750Y1716149D02*
X2019050D01*
X2018750Y1714799D02*
X2019050D01*
X2018750Y1713449D02*
X2019050D01*
X2018750Y1712099D02*
X2019050D01*
X2018750Y1710749D02*
X2019050D01*
X2018750Y1709399D02*
X2019050D01*
X2018750Y1708049D02*
X2019050D01*
X2018750Y1706699D02*
X2019050D01*
X2018750Y1705349D02*
X2019050D01*
X2018750Y1703999D02*
X2019050D01*
X2018750Y1702649D02*
X2019050D01*
X2018750Y1701299D02*
X2019050D01*
X2018750Y1699949D02*
X2019050D01*
X2018750Y1698599D02*
X2019050D01*
X2018750Y1697249D02*
X2019050D01*
X2018750Y1695899D02*
X2019050D01*
X2018750Y1694549D02*
X2019050D01*
X2018750Y1693199D02*
X2019050D01*
X2018750Y1691849D02*
X2019050D01*
X2018750Y1690499D02*
X2019050D01*
X2018750Y1689149D02*
X2019050D01*
X2018750Y1687799D02*
X2019050D01*
X2018750Y1686449D02*
X2019050D01*
X2018750Y1685099D02*
X2019050D01*
X2018750Y1683749D02*
X2019050D01*
X2018750Y1682399D02*
X2019050D01*
X2018750Y1681049D02*
X2019050D01*
X2018750Y1679699D02*
X2019050D01*
X2018750Y1678349D02*
X2019050D01*
X2018750Y1676999D02*
X2019050D01*
X2018750Y1675649D02*
X2019050D01*
X2018750Y1674299D02*
X2019050D01*
X2018750Y1672949D02*
X2019050D01*
X2018750Y1671599D02*
X2019050D01*
X2018750Y1670249D02*
X2019050D01*
X2018750Y1668899D02*
X2019050D01*
X2018750Y1667549D02*
X2019050D01*
X2018750Y1666199D02*
X2019050D01*
X2018750Y1664849D02*
X2019050D01*
X2018750Y1663499D02*
X2019050D01*
X2018750Y1662149D02*
X2019050D01*
X2018750Y1660799D02*
X2019050D01*
X2018750Y1659449D02*
X2019050D01*
X2018750Y1658099D02*
X2019050D01*
X2018750Y1656749D02*
X2019050D01*
X2018750Y1655399D02*
X2019050D01*
X2018750Y1654049D02*
X2019050D01*
X2018750Y1652699D02*
X2019050D01*
X2018750Y1651349D02*
X2019050D01*
X2018750Y1649999D02*
X2019050D01*
X2018750Y1648649D02*
X2019050D01*
X2018750Y1647299D02*
X2019050D01*
X2018750Y1645949D02*
X2019050D01*
X2018750Y1644599D02*
X2019050D01*
X2018750Y1643249D02*
X2019050D01*
X2018750Y1641899D02*
X2019050D01*
X2018750Y1640549D02*
X2019050D01*
X2018750Y1639199D02*
X2019050D01*
X2018750Y1637849D02*
X2019050D01*
X2018750Y1636499D02*
X2019050D01*
X2018750Y1635149D02*
X2019050D01*
X2018750Y1633799D02*
X2019050D01*
X2018750Y1632449D02*
X2019050D01*
X2018750Y1631099D02*
X2019050D01*
X2018750Y1629749D02*
X2019050D01*
X2018750Y1628399D02*
X2019050D01*
X2018750Y1627049D02*
X2019050D01*
X2018750Y1625699D02*
X2019050D01*
X2018750Y1624349D02*
X2019050D01*
X2018750Y1622999D02*
X2019050D01*
X2018750Y1621649D02*
X2019050D01*
X2018750Y1620299D02*
X2019050D01*
X2018750Y1618949D02*
X2019050D01*
X2018750Y1617599D02*
X2019050D01*
X2018750Y1616249D02*
X2019050D01*
X2018750Y1614899D02*
X2019050D01*
X2018750Y1613549D02*
X2019050D01*
X2018750Y1612199D02*
X2019050D01*
X2018750Y1610849D02*
X2019050D01*
X2018750Y1609499D02*
X2019050D01*
X2012138Y1913249D02*
X2018972D01*
X2012178Y1911899D02*
X2018928D01*
X2011227Y1830899D02*
X2018685D01*
X2012998Y1832249D02*
X2017335D01*
X2014350Y1601399D02*
X2017085D01*
X2016068Y1578449D02*
X2016635D01*
X2014350Y1602749D02*
X2015735D01*
X2014718Y1579799D02*
X2015285D01*
X2014350Y1604099D02*
X2015053D01*
X2013718Y1822799D02*
X2015050D01*
X2014349Y1821449D02*
X2015050D01*
X2014350Y1820099D02*
X2015050D01*
X2014350Y1818749D02*
X2015050D01*
X2014350Y1817399D02*
X2015050D01*
X2014350Y1816049D02*
X2015050D01*
X2014350Y1814699D02*
X2015050D01*
X2014350Y1813349D02*
X2015050D01*
X2014350Y1811999D02*
X2015050D01*
X2014350Y1810649D02*
X2015050D01*
X2014350Y1809299D02*
X2015050D01*
X2014350Y1807949D02*
X2015050D01*
X2014350Y1806599D02*
X2015050D01*
X2014350Y1805249D02*
X2015050D01*
X2014350Y1803899D02*
X2015050D01*
X2014350Y1802549D02*
X2015050D01*
X2014350Y1801199D02*
X2015050D01*
X2014350Y1799849D02*
X2015050D01*
X2014350Y1798499D02*
X2015050D01*
X2014350Y1797149D02*
X2015050D01*
X2014350Y1795799D02*
X2015050D01*
X2014350Y1794449D02*
X2015050D01*
X2014350Y1793099D02*
X2015050D01*
X2014350Y1791749D02*
X2015050D01*
X2014350Y1790399D02*
X2015050D01*
X2014350Y1789049D02*
X2015050D01*
X2014350Y1787699D02*
X2015050D01*
X2014350Y1786349D02*
X2015050D01*
X2014350Y1784999D02*
X2015050D01*
X2014350Y1783649D02*
X2015050D01*
X2014350Y1782299D02*
X2015050D01*
X2014350Y1780949D02*
X2015050D01*
X2014350Y1779599D02*
X2015050D01*
X2014350Y1778249D02*
X2015050D01*
X2014350Y1776899D02*
X2015050D01*
X2014350Y1775549D02*
X2015050D01*
X2014350Y1774199D02*
X2015050D01*
X2014350Y1772849D02*
X2015050D01*
X2014350Y1771499D02*
X2015050D01*
X2014350Y1770149D02*
X2015050D01*
X2014350Y1768799D02*
X2015050D01*
X2014350Y1767449D02*
X2015050D01*
X2014350Y1766099D02*
X2015050D01*
X2014350Y1764749D02*
X2015050D01*
X2014350Y1763399D02*
X2015050D01*
X2014350Y1762049D02*
X2015050D01*
X2014350Y1760699D02*
X2015050D01*
X2014350Y1759349D02*
X2015050D01*
X2014350Y1757999D02*
X2015050D01*
X2014350Y1756649D02*
X2015050D01*
X2014350Y1755299D02*
X2015050D01*
X2014350Y1753949D02*
X2015050D01*
X2014350Y1752599D02*
X2015050D01*
X2014350Y1751249D02*
X2015050D01*
X2014350Y1749899D02*
X2015050D01*
X2014350Y1748549D02*
X2015050D01*
X2014350Y1747199D02*
X2015050D01*
X2014350Y1745849D02*
X2015050D01*
X2014350Y1744499D02*
X2015050D01*
X2014350Y1743149D02*
X2015050D01*
X2014350Y1741799D02*
X2015050D01*
X2014350Y1740449D02*
X2015050D01*
X2014350Y1739099D02*
X2015050D01*
X2014350Y1737749D02*
X2015050D01*
X2014350Y1736399D02*
X2015050D01*
X2014350Y1735049D02*
X2015050D01*
X2014350Y1733699D02*
X2015050D01*
X2014350Y1732349D02*
X2015050D01*
X2014350Y1730999D02*
X2015050D01*
X2014350Y1729649D02*
X2015050D01*
X2014350Y1728299D02*
X2015050D01*
X2014350Y1726949D02*
X2015050D01*
X2014350Y1725599D02*
X2015050D01*
X2014350Y1724249D02*
X2015050D01*
X2014350Y1722899D02*
X2015050D01*
X2014350Y1721549D02*
X2015050D01*
X2014350Y1720199D02*
X2015050D01*
X2014350Y1718849D02*
X2015050D01*
X2014350Y1717499D02*
X2015050D01*
X2014350Y1716149D02*
X2015050D01*
X2014350Y1714799D02*
X2015050D01*
X2014350Y1713449D02*
X2015050D01*
X2014350Y1712099D02*
X2015050D01*
X2014350Y1710749D02*
X2015050D01*
X2014350Y1709399D02*
X2015050D01*
X2014350Y1708049D02*
X2015050D01*
X2014350Y1706699D02*
X2015050D01*
X2014350Y1705349D02*
X2015050D01*
X2014350Y1703999D02*
X2015050D01*
X2014350Y1702649D02*
X2015050D01*
X2014350Y1701299D02*
X2015050D01*
X2014350Y1699949D02*
X2015050D01*
X2014350Y1698599D02*
X2015050D01*
X2014350Y1697249D02*
X2015050D01*
X2014350Y1695899D02*
X2015050D01*
X2014350Y1694549D02*
X2015050D01*
X2014350Y1693199D02*
X2015050D01*
X2014350Y1691849D02*
X2015050D01*
X2014350Y1690499D02*
X2015050D01*
X2014350Y1689149D02*
X2015050D01*
X2014350Y1687799D02*
X2015050D01*
X2014350Y1686449D02*
X2015050D01*
X2014350Y1685099D02*
X2015050D01*
X2014350Y1683749D02*
X2015050D01*
X2014350Y1682399D02*
X2015050D01*
X2014350Y1681049D02*
X2015050D01*
X2014350Y1679699D02*
X2015050D01*
X2014350Y1678349D02*
X2015050D01*
X2014350Y1676999D02*
X2015050D01*
X2014350Y1675649D02*
X2015050D01*
X2014350Y1674299D02*
X2015050D01*
X2014350Y1672949D02*
X2015050D01*
X2014350Y1671599D02*
X2015050D01*
X2014350Y1670249D02*
X2015050D01*
X2014350Y1668899D02*
X2015050D01*
X2014350Y1667549D02*
X2015050D01*
X2014350Y1666199D02*
X2015050D01*
X2014350Y1664849D02*
X2015050D01*
X2014350Y1663499D02*
X2015050D01*
X2014350Y1662149D02*
X2015050D01*
X2014350Y1660799D02*
X2015050D01*
X2014350Y1659449D02*
X2015050D01*
X2014350Y1658099D02*
X2015050D01*
X2014350Y1656749D02*
X2015050D01*
X2014350Y1655399D02*
X2015050D01*
X2014350Y1654049D02*
X2015050D01*
X2014350Y1652699D02*
X2015050D01*
X2014350Y1651349D02*
X2015050D01*
X2014350Y1649999D02*
X2015050D01*
X2014350Y1648649D02*
X2015050D01*
X2014350Y1647299D02*
X2015050D01*
X2014350Y1645949D02*
X2015050D01*
X2014350Y1644599D02*
X2015050D01*
X2014350Y1643249D02*
X2015050D01*
X2014350Y1641899D02*
X2015050D01*
X2014350Y1640549D02*
X2015050D01*
X2014350Y1639199D02*
X2015050D01*
X2014350Y1637849D02*
X2015050D01*
X2014350Y1636499D02*
X2015050D01*
X2014350Y1635149D02*
X2015050D01*
X2014350Y1633799D02*
X2015050D01*
X2014350Y1632449D02*
X2015050D01*
X2014350Y1631099D02*
X2015050D01*
X2014350Y1629749D02*
X2015050D01*
X2014350Y1628399D02*
X2015050D01*
X2014350Y1627049D02*
X2015050D01*
X2014350Y1625699D02*
X2015050D01*
X2014350Y1624349D02*
X2015050D01*
X2014350Y1622999D02*
X2015050D01*
X2014350Y1621649D02*
X2015050D01*
X2014350Y1620299D02*
X2015050D01*
X2014350Y1618949D02*
X2015050D01*
X2014350Y1617599D02*
X2015050D01*
X2014350Y1616249D02*
X2015050D01*
X2014350Y1614899D02*
X2015050D01*
X2014350Y1613549D02*
X2015050D01*
X2014350Y1612199D02*
X2015050D01*
X2014350Y1610849D02*
X2015050D01*
X2014350Y1609499D02*
X2015050D01*
X2014350Y1608149D02*
X2015050D01*
X2014350Y1606799D02*
X2015050D01*
X2014350Y1605449D02*
X2015050D01*
X2012368Y1824149D02*
X2014335D01*
X2013368Y1581149D02*
X2013935D01*
X2010931Y1825499D02*
X2012985D01*
X2012018Y1582499D02*
X2012585D01*
X2010668Y1583849D02*
X2011235D01*
X1957243Y1820099D02*
X2010650D01*
X1956147Y1818749D02*
X2010650D01*
X1937950Y1817399D02*
X2010650D01*
X2006650Y1816049D02*
X2010650D01*
X2006650Y1814699D02*
X2010650D01*
X2006650Y1813349D02*
X2010650D01*
X2006650Y1811999D02*
X2010650D01*
X2006650Y1810649D02*
X2010650D01*
X2006650Y1809299D02*
X2010650D01*
X2006650Y1807949D02*
X2010650D01*
X2006650Y1806599D02*
X2010650D01*
X2006650Y1805249D02*
X2010650D01*
X2006650Y1803899D02*
X2010650D01*
X2006650Y1802549D02*
X2010650D01*
X2006650Y1801199D02*
X2010650D01*
X2006650Y1799849D02*
X2010650D01*
X2006650Y1798499D02*
X2010650D01*
X2006650Y1797149D02*
X2010650D01*
X2006650Y1795799D02*
X2010650D01*
X2006650Y1794449D02*
X2010650D01*
X2006650Y1793099D02*
X2010650D01*
X2006650Y1791749D02*
X2010650D01*
X2006650Y1790399D02*
X2010650D01*
X2006650Y1789049D02*
X2010650D01*
X2006650Y1787699D02*
X2010650D01*
X2006650Y1786349D02*
X2010650D01*
X2006650Y1784999D02*
X2010650D01*
X2006650Y1783649D02*
X2010650D01*
X2006650Y1782299D02*
X2010650D01*
X2006650Y1780949D02*
X2010650D01*
X2006650Y1779599D02*
X2010650D01*
X2006650Y1778249D02*
X2010650D01*
X2006650Y1776899D02*
X2010650D01*
X2006650Y1775549D02*
X2010650D01*
X2006650Y1774199D02*
X2010650D01*
X2006650Y1772849D02*
X2010650D01*
X2006650Y1771499D02*
X2010650D01*
X2006650Y1770149D02*
X2010650D01*
X2006650Y1768799D02*
X2010650D01*
X2006650Y1767449D02*
X2010650D01*
X2006650Y1766099D02*
X2010650D01*
X2006650Y1764749D02*
X2010650D01*
X2006650Y1763399D02*
X2010650D01*
X2006650Y1762049D02*
X2010650D01*
X2006650Y1760699D02*
X2010650D01*
X2006650Y1759349D02*
X2010650D01*
X2006650Y1757999D02*
X2010650D01*
X2006650Y1756649D02*
X2010650D01*
X2006650Y1755299D02*
X2010650D01*
X2006650Y1753949D02*
X2010650D01*
X2006650Y1752599D02*
X2010650D01*
X2006650Y1751249D02*
X2010650D01*
X2006650Y1749899D02*
X2010650D01*
X2006650Y1748549D02*
X2010650D01*
X2006650Y1747199D02*
X2010650D01*
X2006650Y1745849D02*
X2010650D01*
X2006650Y1744499D02*
X2010650D01*
X2006650Y1743149D02*
X2010650D01*
X2006650Y1741799D02*
X2010650D01*
X2006650Y1740449D02*
X2010650D01*
X2006650Y1739099D02*
X2010650D01*
X2006650Y1737749D02*
X2010650D01*
X2006650Y1736399D02*
X2010650D01*
X2006650Y1735049D02*
X2010650D01*
X2006650Y1733699D02*
X2010650D01*
X2006650Y1732349D02*
X2010650D01*
X2006650Y1730999D02*
X2010650D01*
X2006650Y1729649D02*
X2010650D01*
X2006650Y1728299D02*
X2010650D01*
X2006650Y1726949D02*
X2010650D01*
X2006650Y1725599D02*
X2010650D01*
X2006650Y1724249D02*
X2010650D01*
X2006650Y1722899D02*
X2010650D01*
X2006650Y1721549D02*
X2010650D01*
X2006650Y1720199D02*
X2010650D01*
X2006650Y1718849D02*
X2010650D01*
X2006650Y1717499D02*
X2010650D01*
X2006650Y1716149D02*
X2010650D01*
X2006650Y1714799D02*
X2010650D01*
X2006650Y1713449D02*
X2010650D01*
X2006650Y1712099D02*
X2010650D01*
X2006650Y1710749D02*
X2010650D01*
X2006650Y1709399D02*
X2010650D01*
X2006650Y1708049D02*
X2010650D01*
X2006650Y1706699D02*
X2010650D01*
X2006650Y1705349D02*
X2010650D01*
X2006650Y1703999D02*
X2010650D01*
X2006650Y1702649D02*
X2010650D01*
X2006650Y1701299D02*
X2010650D01*
X2009499Y1699949D02*
X2010650D01*
X2009948Y1698599D02*
X2010650D01*
X2009622Y1697249D02*
X2010650D01*
X2006650Y1695899D02*
X2010650D01*
X2006650Y1694549D02*
X2010650D01*
X2006650Y1693199D02*
X2010650D01*
X2006650Y1691849D02*
X2010650D01*
X2006650Y1690499D02*
X2010650D01*
X2008645Y1689149D02*
X2010650D01*
X2009232Y1687799D02*
X2010650D01*
X2009023Y1686449D02*
X2010650D01*
X2007558Y1685099D02*
X2010650D01*
X2006650Y1683749D02*
X2010650D01*
X2006650Y1682399D02*
X2010650D01*
X2006650Y1681049D02*
X2010650D01*
X2006650Y1679699D02*
X2010650D01*
X2006650Y1678349D02*
X2010650D01*
X2006650Y1676999D02*
X2010650D01*
X2006650Y1675649D02*
X2010650D01*
X2006650Y1674299D02*
X2010650D01*
X2006650Y1672949D02*
X2010650D01*
X2006650Y1671599D02*
X2010650D01*
X2006650Y1670249D02*
X2010650D01*
X2006650Y1668899D02*
X2010650D01*
X2006650Y1667549D02*
X2010650D01*
X2006650Y1666199D02*
X2010650D01*
X2008451Y1664849D02*
X2010650D01*
X2009544Y1663499D02*
X2010650D01*
X2009558Y1662149D02*
X2010650D01*
X2008924Y1660799D02*
X2010650D01*
X2009624Y1659449D02*
X2010650D01*
X2009426Y1658099D02*
X2010650D01*
X2006650Y1656749D02*
X2010650D01*
X2006650Y1655399D02*
X2010650D01*
X2008168Y1654049D02*
X2010650D01*
X2008818Y1652699D02*
X2010650D01*
X2010150Y1651349D02*
X2010650D01*
X2010550Y1649999D02*
X2010650D01*
X2010550Y1648649D02*
X2010650D01*
X2010550Y1647299D02*
X2010650D01*
X2010550Y1645949D02*
X2010650D01*
X2010550Y1644599D02*
X2010650D01*
X2010550Y1643249D02*
X2010650D01*
X2010550Y1641899D02*
X2010650D01*
X2010550Y1640549D02*
X2010650D01*
X2010550Y1639199D02*
X2010650D01*
X2010550Y1637849D02*
X2010650D01*
X2010550Y1636499D02*
X2010650D01*
X2010550Y1635149D02*
X2010650D01*
X2010550Y1633799D02*
X2010650D01*
X2010550Y1632449D02*
X2010650D01*
X2010550Y1631099D02*
X2010650D01*
X2010550Y1629749D02*
X2010650D01*
X2010550Y1628399D02*
X2010650D01*
X2010550Y1627049D02*
X2010650D01*
X2010550Y1625699D02*
X2010650D01*
X2010550Y1624349D02*
X2010650D01*
X2010550Y1622999D02*
X2010650D01*
X2010550Y1621649D02*
X2010650D01*
X2010550Y1620299D02*
X2010650D01*
X2010550Y1618949D02*
X2010650D01*
X2010550Y1617599D02*
X2010650D01*
X2010550Y1616249D02*
X2010650D01*
X2010550Y1614899D02*
X2010650D01*
X2010550Y1613549D02*
X2010650D01*
X2010550Y1612199D02*
X2010650D01*
X2010550Y1610849D02*
X2010650D01*
X2010550Y1609499D02*
X2010650D01*
X2010550Y1608149D02*
X2010650D01*
X2010550Y1606799D02*
X2010650D01*
X2010550Y1605449D02*
X2010650D01*
X2010550Y1604099D02*
X2010650D01*
X2010550Y1602749D02*
X2010650D01*
X2010550Y1601399D02*
X2010650D01*
X2010550Y1600049D02*
X2010650D01*
X2010550Y1598699D02*
X2010650D01*
X2010550Y1597349D02*
X2010650D01*
X2010550Y1595999D02*
X2010650D01*
X2010550Y1594649D02*
X2010650D01*
X2010550Y1593299D02*
X2010650D01*
X2010550Y1591949D02*
X2010650D01*
X2010550Y1590599D02*
X2010650D01*
X2010550Y1589249D02*
X2010650D01*
X2010550Y1587899D02*
X2010650D01*
X2010550Y1586549D02*
X2010650D01*
X2010550Y1585199D02*
X2010650D01*
X1997750Y1905149D02*
X2010118D01*
X1957259Y1821449D02*
X2009835D01*
X1981157Y1860599D02*
X2008843D01*
X1981677Y1879499D02*
X2008323D01*
X1997452Y1914599D02*
X2008252D01*
X1981823Y1859249D02*
X2008177D01*
X1937950Y1901099D02*
X2008139D01*
X1997750Y1910549D02*
X2008058D01*
X1997750Y1903799D02*
X2007949D01*
X1982103Y1880849D02*
X2007897D01*
X1997150Y1830899D02*
X2007773D01*
X1997748Y1902449D02*
X2007654D01*
X1982453Y1838999D02*
X2007547D01*
X1982552Y1888949D02*
X2007448D01*
X1982729Y1851149D02*
X2007271D01*
X1997750Y1913249D02*
X2007262D01*
X1997750Y1911899D02*
X2007222D01*
X1996249Y1868699D02*
X2007026D01*
X1983312Y1848449D02*
X2006688D01*
X1996063Y1871399D02*
X2006558D01*
X1983484Y1841699D02*
X2006516D01*
X1983739Y1861949D02*
X2006261D01*
X1983876Y1857899D02*
X2006124D01*
X1983922Y1878149D02*
X2006078D01*
X1983958Y1882199D02*
X2006042D01*
X1997133Y1832249D02*
X2006002D01*
X1984076Y1837649D02*
X2005924D01*
X1984112Y1887599D02*
X2005888D01*
X1984181Y1852499D02*
X2005819D01*
X1984280Y1867349D02*
X2005720D01*
X1984424Y1847099D02*
X2005576D01*
X1984499Y1843049D02*
X2005501D01*
X1984569Y1872749D02*
X2005431D01*
X1984612Y1863299D02*
X2005388D01*
X1984672Y1856549D02*
X2005328D01*
X1984707Y1883549D02*
X2005293D01*
X1996308Y1833599D02*
X2005276D01*
X1993518Y1836299D02*
X2005244D01*
X1984771Y1886249D02*
X2005229D01*
X1984788Y1876799D02*
X2005212D01*
X1984799Y1853849D02*
X2005201D01*
X1984837Y1865999D02*
X2005163D01*
X1984887Y1845749D02*
X2005113D01*
X1984909Y1844399D02*
X2005091D01*
X1984936Y1864649D02*
X2005064D01*
X1984946Y1855199D02*
X2005054D01*
X1984949Y1884899D02*
X2005051D01*
X1994913Y1834949D02*
X2005050D01*
X1985062Y1874099D02*
X2004938D01*
X1985128Y1875449D02*
X2004872D01*
X1968568Y1826849D02*
X1994937D01*
X1967218Y1828199D02*
X1993744D01*
X1982227Y1830899D02*
X1993450D01*
X1966850Y1829549D02*
X1993450D01*
X1983998Y1832249D02*
X1992383D01*
X1983442Y1871399D02*
X1991937D01*
X1982974Y1868699D02*
X1991751D01*
X1937950Y1870049D02*
X1991454D01*
X1952157Y1860599D02*
X1979843D01*
X1952677Y1879499D02*
X1979323D01*
X1952823Y1859249D02*
X1979177D01*
X1953103Y1880849D02*
X1978897D01*
X1966850Y1830899D02*
X1978773D01*
X1953453Y1838999D02*
X1978547D01*
X1953552Y1888949D02*
X1978448D01*
X1953729Y1851149D02*
X1978271D01*
X1953974Y1868699D02*
X1978026D01*
X1973050Y1848449D02*
X1977688D01*
X1954442Y1871399D02*
X1977558D01*
X1954484Y1841699D02*
X1977516D01*
X1954739Y1861949D02*
X1977261D01*
X1954876Y1857899D02*
X1977124D01*
X1954922Y1878149D02*
X1977078D01*
X1954958Y1882199D02*
X1977042D01*
X1966733Y1832249D02*
X1977002D01*
X1955076Y1837649D02*
X1976924D01*
X1955112Y1887599D02*
X1976888D01*
X1972080Y1852499D02*
X1976819D01*
X1955280Y1867349D02*
X1976720D01*
X1972693Y1847099D02*
X1976576D01*
X1955499Y1843049D02*
X1976501D01*
X1955569Y1872749D02*
X1976431D01*
X1955612Y1863299D02*
X1976388D01*
X1972018Y1856549D02*
X1976328D01*
X1955707Y1883549D02*
X1976293D01*
X1965618Y1833599D02*
X1976276D01*
X1962918Y1836299D02*
X1976244D01*
X1955771Y1886249D02*
X1976229D01*
X1955788Y1876799D02*
X1976212D01*
X1972965Y1853849D02*
X1976201D01*
X1955837Y1865999D02*
X1976163D01*
X1955887Y1845749D02*
X1976113D01*
X1955909Y1844399D02*
X1976091D01*
X1955936Y1864649D02*
X1976064D01*
X1972952Y1855199D02*
X1976054D01*
X1955949Y1884899D02*
X1976051D01*
X1964268Y1834949D02*
X1976050D01*
X1956062Y1874099D02*
X1975938D01*
X1956128Y1875449D02*
X1975872D01*
X1955672Y1856549D02*
X1968982D01*
X1955181Y1852499D02*
X1968920D01*
X1937950Y1849799D02*
X1968368D01*
X1955424Y1847099D02*
X1968307D01*
X1955946Y1855199D02*
X1968048D01*
X1955799Y1853849D02*
X1968035D01*
X1954312Y1848449D02*
X1967950D01*
X1956236Y1822799D02*
X1967385D01*
X1937950Y1824149D02*
X1966035D01*
X1937950Y1825499D02*
X1964685D01*
X1937950Y1826849D02*
X1963413D01*
X1937950Y1829549D02*
X1963150D01*
X1937950Y1828199D02*
X1963150D01*
X1953227Y1830899D02*
X1963085D01*
X1954998Y1832249D02*
X1961735D01*
X1937950Y1818749D02*
X1953853D01*
X1937950Y1822799D02*
X1953764D01*
X1937950Y1914599D02*
X1953048D01*
X1937950Y1820099D02*
X1952757D01*
X1937950Y1902449D02*
X1952752D01*
X1937950Y1913249D02*
X1952750D01*
X1937950Y1911899D02*
X1952750D01*
X1937950Y1910549D02*
X1952750D01*
X1937950Y1909199D02*
X1952750D01*
X1937950Y1907849D02*
X1952750D01*
X1937950Y1906499D02*
X1952750D01*
X1937950Y1905149D02*
X1952750D01*
X1937950Y1903799D02*
X1952750D01*
X1937950Y1821449D02*
X1952741D01*
X1937950Y1860599D02*
X1950843D01*
X1937950Y1879499D02*
X1950323D01*
X1937950Y1859249D02*
X1950177D01*
X1937950Y1880849D02*
X1949897D01*
X1937950Y1830899D02*
X1949773D01*
X1937950Y1838999D02*
X1949547D01*
X1937950Y1888949D02*
X1949448D01*
X1937950Y1851149D02*
X1949271D01*
X1937950Y1868699D02*
X1949026D01*
X1937950Y1848449D02*
X1948688D01*
X1937950Y1871399D02*
X1948558D01*
X1937950Y1841699D02*
X1948516D01*
X1937950Y1861949D02*
X1948261D01*
X1937950Y1857899D02*
X1948124D01*
X1937950Y1878149D02*
X1948078D01*
X1937950Y1882199D02*
X1948042D01*
X1937950Y1832249D02*
X1948002D01*
X1937950Y1837649D02*
X1947924D01*
X1937950Y1887599D02*
X1947888D01*
X1937950Y1852499D02*
X1947819D01*
X1937950Y1867349D02*
X1947720D01*
X1937950Y1847099D02*
X1947576D01*
X1937950Y1843049D02*
X1947501D01*
X1937950Y1872749D02*
X1947431D01*
X1937950Y1863299D02*
X1947388D01*
X1937950Y1856549D02*
X1947328D01*
X1937950Y1883549D02*
X1947293D01*
X1937950Y1833599D02*
X1947276D01*
X1937950Y1836299D02*
X1947244D01*
X1937950Y1886249D02*
X1947229D01*
X1937950Y1876799D02*
X1947212D01*
X1937950Y1853849D02*
X1947201D01*
X1937950Y1865999D02*
X1947163D01*
X1937950Y1845749D02*
X1947113D01*
X1937950Y1844399D02*
X1947091D01*
X1937950Y1864649D02*
X1947064D01*
X1937950Y1855199D02*
X1947054D01*
X1937950Y1884899D02*
X1947051D01*
X1937950Y1834949D02*
X1947050D01*
X1937950Y1874099D02*
X1946938D01*
X1937950Y1875449D02*
X1946872D01*
X2099647Y1881853D02*
X2098692Y1882808D01*
X2099647Y1888147D02*
X2098692Y1887192D01*
X2093353Y1888147D02*
X2094308Y1887192D01*
X2093353Y1881853D02*
X2094308Y1882808D01*
X2090603Y1777903D02*
X2089649Y1776949D01*
X2090603Y1772097D02*
X2089649Y1773051D01*
X2084797Y1772097D02*
X2085751Y1773051D01*
X2084797Y1777903D02*
X2085751Y1776949D01*
X2090603Y1512903D02*
X2089649Y1511949D01*
X2090603Y1507097D02*
X2089649Y1508051D01*
X2084797Y1507097D02*
X2085751Y1508051D01*
X2084797Y1512903D02*
X2085751Y1511949D01*
X2090603Y1477903D02*
X2089649Y1476949D01*
X2090603Y1472097D02*
X2089649Y1473051D01*
X2084797Y1472097D02*
X2085751Y1473051D01*
X2084797Y1477903D02*
X2085751Y1476949D01*
X2090603Y1742903D02*
X2089649Y1741949D01*
X2090603Y1737097D02*
X2089649Y1738051D01*
X2084797Y1737097D02*
X2085751Y1738051D01*
X2084797Y1742903D02*
X2085751Y1741949D01*
X2070647Y1881853D02*
X2069692Y1882808D01*
X2070647Y1888147D02*
X2069692Y1887192D01*
X2064353Y1888147D02*
X2065308Y1887192D01*
X2064353Y1881853D02*
X2065308Y1882808D01*
X2041647Y1881853D02*
X2040692Y1882808D01*
X2041647Y1888147D02*
X2040692Y1887192D01*
X2035353Y1888147D02*
X2036308Y1887192D01*
X2035353Y1881853D02*
X2036308Y1882808D01*
X2012647Y1881853D02*
X2011692Y1882808D01*
X2012647Y1888147D02*
X2011692Y1887192D01*
X2006353Y1888147D02*
X2007308Y1887192D01*
X2006353Y1881853D02*
X2007308Y1882808D01*
X1983647Y1881853D02*
X1982692Y1882808D01*
X1983647Y1888147D02*
X1982692Y1887192D01*
X1977353Y1888147D02*
X1978308Y1887192D01*
X1977353Y1881853D02*
X1978308Y1882808D01*
X1954647Y1881853D02*
X1953692Y1882808D01*
X1954647Y1888147D02*
X1953692Y1887192D01*
X1948353Y1888147D02*
X1949308Y1887192D01*
X1948353Y1881853D02*
X1949308Y1882808D01*
X1956662Y1822462D02*
X1955707Y1821507D01*
X1953338Y1822462D02*
X1954293Y1821507D01*
X1953338Y1819138D02*
X1954293Y1820093D01*
X1956662Y1819138D02*
X1955707Y1820093D01*
G54D101*
X1951500Y1835000D03*
Y1885000D03*
X1980500Y1835000D03*
Y1885000D03*
X2009500Y1835000D03*
Y1885000D03*
X2038500Y1835000D03*
Y1885000D03*
X2067500Y1835000D03*
Y1885000D03*
X2096500Y1835000D03*
Y1885000D03*
G54D155*
X2087700Y1740000D03*
Y1775000D03*
Y1782874D03*
Y1467126D03*
Y1475000D03*
Y1510000D03*
G74*
X0Y0D02*
M02*
