*
*
G04 PADS 9.4.1 Build Number: 494907 generated Gerber (RS-274-X) file*
G04 PC Version=2.1*
*
%IN "09051-00135-A.pcb"*%
*
%MOIN*%
*
%FSLAX35Y35*%
*
*
*
*
G04 PC Standard Apertures*
*
*
G04 Thermal Relief Aperture macro.*
%AMTER*
1,1,$1,0,0*
1,0,$1-$2,0,0*
21,0,$3,$4,0,0,45*
21,0,$3,$4,0,0,135*
%
*
*
G04 Annular Aperture macro.*
%AMANN*
1,1,$1,0,0*
1,0,$2,0,0*
%
*
*
G04 Odd Aperture macro.*
%AMODD*
1,1,$1,0,0*
1,0,$1-0.005,0,0*
%
*
*
G04 PC Custom Aperture Macros*
*
*
*
*
*
*
G04 PC Aperture Table*
*
%ADD010C,0.01*%
%ADD012C,0.001*%
%ADD016C,0.02*%
%ADD018C,0.015*%
%ADD101C,0.062*%
%ADD147C,0.08268*%
%ADD155C,0.05512*%
*
*
*
*
G04 PC Circuitry*
G04 Layer Name 09051-00135-A.pcb - circuitry*
%LPD*%
*
*
G04 PC Custom Flashes*
G04 Layer Name 09051-00135-A.pcb - flashes*
%LPD*%
*
*
G04 PC Circuitry*
G04 Layer Name 09051-00135-A.pcb - circuitry*
%LPD*%
*
G54D10*
G01X1989227Y1910694D02*
X1987636Y1906100D01*
X1987000Y1910694D02*
X1989227D01*
X2024000Y1305300D02*
X2022500Y1306800D01*
Y1343100*
X2021000Y1344600*
X2045600Y1305200D02*
X2038700Y1312100D01*
X2031900*
X2028600Y1315500*
Y1341400*
X2024900Y1345100*
X2023800*
X1897200Y1317600D02*
Y1340500D01*
X1899400Y1342700*
X1957800*
X1975700Y1339600D02*
X1975500Y1339800D01*
X1960700*
X1957800Y1342700*
X2038400Y1335800D02*
Y1343200D01*
X2036000Y1345600*
Y1348300*
X2023600Y1360700*
Y1381800*
X2008000Y1397400*
X2024200Y1348500D02*
X2021500Y1351200D01*
Y1381300*
X2005600Y1397200*
X1897300Y1361600D02*
Y1383600D01*
X1899500Y1385800*
X1972600*
X1980994Y1376200D02*
Y1399200D01*
X1978700Y1401694*
Y1475800*
X1976300Y1478200*
Y1482300*
X1975700Y1382700D02*
X1972600Y1385800D01*
X2019300Y1353600D02*
Y1376500D01*
X2003800Y1392000*
X2046800Y1349700D02*
X2039400Y1357100D01*
X2031800*
X2028000Y1360900*
Y1384100*
X2021000Y1391100*
Y1430300*
X2038400Y1378900D02*
X2036600D01*
X2025800Y1389700*
X1897200Y1403800D02*
Y1426700D01*
X1899400Y1428900*
X1972600*
X1965600Y1435700*
Y1478400*
X1962200Y1481800*
X1982900Y1401700D02*
X1989300Y1408100D01*
Y1409300*
X1993800Y1413800*
Y1428300*
X1975700Y1425800D02*
X1972600Y1428900D01*
X1980900Y1419200D02*
Y1623500D01*
X1981300*
X2010600Y1415400D02*
Y1430800D01*
X2018300Y1438500*
Y1449600*
X2021400Y1452800*
X2022700Y1421900D02*
X2025500Y1424700D01*
Y1438400*
X1987600Y1420800D02*
Y1425500D01*
X1985700Y1427400*
Y1464600*
X1987700Y1466600*
X1989600Y1427000D02*
X1988100Y1428500D01*
Y1463200*
X1991600Y1427700D02*
X1990200Y1429100D01*
Y1462300*
X1993800Y1428300D02*
X1992500Y1429600D01*
Y1461500*
X2008000Y1397400D02*
Y1431400D01*
X2016300Y1439700*
Y1450400*
X2019300Y1453400*
X2003800Y1392000D02*
Y1433200D01*
X2012300Y1441700*
X1985700Y1422400D02*
Y1424400D01*
X1983600Y1426500*
Y1465600*
X1982800Y1466400*
X2005600Y1397200D02*
Y1432200D01*
X2014000Y1440600*
X2015900Y1410100D02*
X2010600Y1415400D01*
X2017200Y1414700D02*
X2013000Y1418900D01*
Y1430000*
X1985500Y1415400D02*
X1986500Y1416400D01*
Y1419700*
X1987600Y1420800*
X1985100Y1411700D02*
X1988650Y1415250D01*
Y1418600*
X1989600Y1419550*
Y1427000*
X1984700Y1406800D02*
X1987178Y1409278D01*
Y1410478*
X1991600Y1414900*
Y1427700*
X1983600Y1418000D02*
Y1420300D01*
X1985700Y1422400*
X2038400Y1422500D02*
Y1422100D01*
X2031500Y1429000*
Y1557000*
X2031100Y1557400*
X2025800Y1389700D02*
Y1395900D01*
X2027600Y1397700*
Y1419400*
X2029000Y1420800*
Y1423300*
X2027600Y1424700*
Y1439600*
X2024000Y1443200*
X2046800Y1393100D02*
X2041200Y1398700D01*
Y1416200*
X2029600Y1427800*
Y1554600*
X2027400Y1556800*
X2023600Y1391500D02*
X2022700Y1392900D01*
Y1421900*
X1928000Y1461200D02*
Y1560300D01*
X1928266Y1560434*
X1930400Y1463000D02*
Y1561400D01*
X1925600Y1566200*
Y1638200*
X1912000Y1651800*
X1982800Y1466400D02*
Y1469100D01*
X1983200Y1469900*
Y1621300*
X1984600Y1622700*
X1952500Y1431000D02*
X1952000Y1431600D01*
Y1583000*
X1949200Y1585700*
X1954100Y1443700D02*
Y1493500D01*
X1956700Y1496200*
Y1561200*
X2021400Y1452800D02*
Y1544750D01*
X2019650Y1546500*
X2014000*
X2013000Y1430000D02*
X2020200Y1437200D01*
Y1447900*
X2023600Y1451300*
Y1569800*
X2022100Y1445900D02*
X2025700Y1449500D01*
X2025800Y1550700*
X1987700Y1466600D02*
Y1469100D01*
X1985400Y1471000*
Y1619200*
X1988100Y1463200D02*
X1990300Y1465400D01*
Y1470700*
X1990200Y1462300D02*
X1992900Y1465000D01*
Y1471800*
X1992500Y1461500D02*
X1995225Y1464225D01*
Y1473675*
X2019300Y1453400D02*
Y1540200D01*
X2015300Y1544300*
X2010800*
X2012300Y1441700D02*
Y1535500D01*
X2008800Y1539000*
X2005250*
X2003500Y1540800*
Y1571800*
X1997700Y1577600*
Y1638900*
X2014000Y1440600D02*
Y1540150D01*
X2012250Y1541900*
X2009000*
X2025500Y1438400D02*
X2022100Y1441800D01*
Y1445900*
X2024000Y1443200D02*
Y1444000D01*
X2028000Y1448000*
Y1552900*
X2026900Y1554000*
X2102900Y1457900D02*
Y1564734D01*
X2102834Y1564800*
X1976300Y1482300D02*
X1978700Y1484700D01*
Y1648900*
X1983400Y1653600*
X1962200Y1481800D02*
Y1493900D01*
X1965600Y1497300*
Y1592300*
X1968300*
X1990300Y1470700D02*
X1988400Y1472600D01*
Y1523700*
X1988100Y1526100*
Y1614400*
X1992900Y1471800D02*
X1991500Y1473200D01*
Y1524000*
X1990500Y1525000*
Y1609400*
X1995225Y1473675D02*
X1994200Y1474700D01*
Y1524500*
X1992600Y1526500*
Y1604600*
X2071774Y1488100D02*
X2071800Y1492200D01*
X2055500Y1508500*
Y1678000*
X2049500Y1684000*
X2037800*
X2087700Y1482874D02*
X2077000D01*
X2071774Y1488100*
X2001900Y1518300D02*
X2000000Y1520200D01*
Y1537700*
X1994900Y1542800*
X1942900Y1588500D02*
Y1627300D01*
X1943000Y1628400*
X1955200Y1566200D02*
Y1597300D01*
X1956900Y1599000*
X1956700Y1561200D02*
X1954300Y1563600D01*
X1963450Y1552500D02*
Y1557950D01*
X1955200Y1566200*
X1976400Y1561900D02*
Y1661800D01*
X1971200Y1667000*
Y1670400*
X1948900Y1585500D02*
X1949200Y1585700D01*
X1974100Y1559800D02*
Y1628200D01*
X1971600Y1630700*
X1971400*
X1949200Y1559700D02*
Y1582200D01*
X1942900Y1588500*
X2008400Y1582700D02*
Y1658000D01*
X2007300Y1659100*
X2010400Y1578000D02*
Y1661450D01*
X2009050Y1662800*
X2007300*
X2007600Y1576500D02*
Y1581900D01*
X2008400Y1582700*
X2002700Y1577000D02*
Y1584000D01*
X2004500Y1585800*
Y1640500*
X2022300Y1575600D02*
X2012500Y1585400D01*
Y1821700*
X2010200Y1824000*
X1968900*
X1965000Y1828000*
Y1841700*
X1961700Y1845000*
X1951500*
X2000500Y1578900D02*
Y1585500D01*
X2002100Y1587100*
Y1600000*
X2005100Y1575200D02*
Y1583200D01*
X2006500Y1584600*
Y1643000*
X2024300Y1585600D02*
X2031500D01*
X2034700Y1588800*
Y1637600*
X1956900Y1599000D02*
Y1622900D01*
X1955400Y1624400*
Y1640900*
X1984600Y1622700D02*
Y1624800D01*
X1983200Y1626200*
Y1627800*
X2002100Y1604900D02*
Y1638800D01*
X2000900Y1640000*
X1994100Y1609500D02*
Y1645500D01*
X2022300Y1599300D02*
X2019141D01*
X2016800Y1601641*
Y1824400*
X2013000Y1828200*
X1996600*
X1995300Y1829500*
Y1841900*
X1992200Y1845000*
X1980500*
X2023400Y1604500D02*
X2021900D01*
X2020800Y1605600*
X2020700*
Y1841300*
X2017000Y1845000*
X2009500*
X1910900Y1651773D02*
X1911773D01*
X1912000Y1651800*
X2000900Y1640000D02*
Y1673400D01*
X2001000Y1673500*
X2004500Y1640500D02*
X2003400Y1641600D01*
Y1660000*
X1983400Y1653600D02*
X1983300Y1654900D01*
X2006500Y1643000D02*
X2006100Y1643200D01*
X2031200Y1632800D02*
X2031100Y1632900D01*
X2034700Y1637600D02*
X2031400Y1640900D01*
Y1687700*
X2028700Y1690400*
Y1820800*
X2050300Y1652300D02*
X2035500Y1667100D01*
X2035400*
Y1690200*
X2032500Y1693000*
Y1817800*
X2031100Y1632900D02*
X2027800Y1636100D01*
Y1683400*
X2024700Y1686500*
Y1824900*
X2069700Y1666700D02*
X2067800Y1668600D01*
Y1764500*
X1931500Y1676800D02*
X1928000D01*
X1918350Y1686450*
Y1721100*
X1914350Y1725100*
X1912800*
X1928400Y1673800D02*
X1913000Y1689400D01*
Y1705600*
X1907900Y1710700*
Y1729100*
X1905300Y1731700*
Y1739000*
X1897700Y1715700D02*
Y1764600D01*
X2067800Y1764500D02*
X2070300Y1767100D01*
X2071500*
X2087700Y1767126*
X2032500Y1817800D02*
X2035100Y1820400D01*
X2076700*
X2079400Y1823100*
Y1842300*
X2082100Y1845000*
X2096500*
X2024700Y1824900D02*
X2028200Y1828400D01*
X2048800*
X2050100Y1829700*
Y1843100*
X2028700Y1820800D02*
X2032100Y1824200D01*
X2052200*
X2053900Y1825900*
Y1842900*
X2056000Y1845000*
X2067500*
X2050100Y1843100D02*
X2048200Y1845000D01*
X2038500*
X1852500Y1925000D02*
X2147500D01*
Y1275000*
X1852500*
Y1925000*
X1985400Y1913100D02*
X1990700D01*
Y1903600*
X1985400*
Y1913100*
G54D12*
G54D16*
X1917700Y1307000D02*
X1952800D01*
X1955700Y1309900*
X2082300Y1307000D02*
X2048100D01*
X2045200Y1309900*
X1917700Y1317000D02*
X1947000D01*
X1951300Y1321300*
X1952500Y1333900D02*
X1949400Y1337000D01*
X1917700*
X1947700Y1322000D02*
X1942700Y1327000D01*
X1917700*
X2044200Y1333900D02*
X2047300Y1337000D01*
X2082300*
X2051800Y1322100D02*
X2056700Y1327000D01*
X2082300*
Y1317000D02*
X2053000D01*
X2048700Y1321300*
X1917700Y1360100D02*
X1947000D01*
X1951300Y1364400*
X1917700Y1350100D02*
X1952800D01*
X1955700Y1353000*
X1952200Y1376900D02*
X1952300D01*
X1949100Y1380100*
X1917700*
X1947300Y1365300D02*
X1942500Y1370100D01*
X1917700*
X2044200Y1377000D02*
X2047300Y1380100D01*
X2082300*
X2052700Y1365300D02*
X2057500Y1370100D01*
X2082300*
Y1350100D02*
X2050300D01*
X2047500Y1352900*
X2082300Y1360100D02*
X2053000D01*
X2048700Y1364400*
X1917700Y1403200D02*
X1947000D01*
X1951300Y1407500*
X1917700Y1393200D02*
Y1393700D01*
X1952800*
X1955700Y1396600*
X1947300Y1408200D02*
X1942300Y1413200D01*
X1917700*
X1952900Y1420000D02*
Y1420100D01*
X1949800Y1423200*
X1917700*
X2044200Y1420100D02*
X2047300Y1423200D01*
X2082300*
X2052600Y1408300D02*
X2057500Y1413200D01*
X2082300*
Y1393200D02*
X2050600D01*
X2047400Y1396400*
X2082300Y1403200D02*
X2053000D01*
X2048700Y1407500*
X2024000Y1305300D03*
X2045600Y1305200D03*
X1897200Y1317600D03*
X1955700Y1309900D03*
X1951300Y1321300D03*
X1952500Y1333900D03*
X1947700Y1322000D03*
X1975700Y1339600D03*
X2021000Y1344600D03*
X2044200Y1333800D03*
X2051800Y1322100D03*
X2045200Y1309900D03*
X2048700Y1321300D03*
X2038400Y1335800D03*
X2024200Y1348500D03*
X2023800Y1345100D03*
X1897300Y1361600D03*
X1955700Y1353000D03*
X1951300Y1364400D03*
X1952200Y1376900D03*
X1947300Y1365300D03*
X1980994Y1376200D03*
X1975700Y1382700D03*
X2019300Y1353600D03*
X2044200Y1376900D03*
X2052700Y1365300D03*
X2047500Y1352900D03*
X2048700Y1364400D03*
X2046800Y1349700D03*
X2038400Y1378900D03*
X1897200Y1403800D03*
X1955700Y1396600D03*
X1951300Y1407500D03*
X1947300Y1408200D03*
X1952900Y1420000D03*
X1982900Y1401700D03*
X1975700Y1425800D03*
X1980900Y1419200D03*
X2015900Y1410100D03*
X2017200Y1414700D03*
X1985500Y1415400D03*
X1985100Y1411700D03*
X1984700Y1406800D03*
X1983600Y1418000D03*
X2044200Y1420000D03*
X2052600Y1408300D03*
X2047400Y1396400D03*
X2048700Y1407500D03*
X2038400Y1422500D03*
X2046800Y1393100D03*
X2023600Y1391500D03*
X1928000Y1461200D03*
X1930400Y1463000D03*
X1952500Y1431000D03*
X1954100Y1443700D03*
X2021000Y1430300D03*
X2102900Y1457900D03*
X2014000Y1546500D03*
X2010800Y1544300D03*
X2001900Y1518300D03*
X1994900Y1542800D03*
X2009000Y1541900D03*
X1928266Y1560434D03*
X1963450Y1552500D03*
X1976400Y1561900D03*
X1948900Y1585500D03*
X1974100Y1559800D03*
X1949200Y1559700D03*
X1954300Y1563600D03*
X2010400Y1578000D03*
X2007600Y1576500D03*
X2002700Y1577000D03*
X2022300Y1575600D03*
X2000500Y1578900D03*
X2005100Y1575200D03*
X2031100Y1557400D03*
X2023600Y1569800D03*
X2027400Y1556800D03*
X2025800Y1550700D03*
X2024300Y1585600D03*
X2026900Y1554000D03*
X2102834Y1564800D03*
X1943000Y1628400D03*
X1968300Y1592300D03*
X1981300Y1623500D03*
X2002100Y1604900D03*
X1994100Y1609500D03*
X1985400Y1619200D03*
X1988100Y1614400D03*
X1990500Y1609400D03*
X1992600Y1604600D03*
X2002100Y1600000D03*
X1983200Y1627800D03*
X2022300Y1599300D03*
X2023400Y1604500D03*
X1910900Y1651773D03*
X1955400Y1640900D03*
X1971400Y1630700D03*
X2007300Y1662800D03*
Y1659100D03*
X2003400Y1660000D03*
X1994100Y1645500D03*
X1983300Y1654900D03*
X2006100Y1643200D03*
X1997700Y1638900D03*
X2050300Y1652300D03*
X2031100Y1632900D03*
X2069700Y1666700D03*
X1931500Y1676800D03*
X1928400Y1673800D03*
X1971200Y1670400D03*
X2001000Y1673500D03*
X2037800Y1684000D03*
X1897700Y1715700D03*
X1912800Y1725100D03*
X1905300Y1739000D03*
X1897700Y1764600D03*
X1955000Y1820800D03*
G54D18*
X2104650Y1588800D02*
G75*
G03X2104650I-2550J0D01*
G01X2090425Y1537992D02*
G03X2090425I-2925J0D01*
G01X2089950Y1547100D02*
G03X2089950I-2550J0D01*
G01X2090050Y1563500D02*
G03X2090050I-2550J0D01*
G01X2090125Y1639175D02*
G03X2090125I-2550J0D01*
G01X2090150Y1670900D02*
G03X2090150I-2550J0D01*
G01X2089550Y1699000D02*
G03X2089550I-2550J0D01*
G01X2091212Y1712008D02*
G03X2091212I-3712J0D01*
G01X2072050Y1563600D02*
G03X2072050I-2350J0D01*
G01X2108050Y1809900D02*
G03X2108050I-10550J0D01*
G01X2100950Y1835000D02*
G03X2100950I-4450J0D01*
G01X2064550Y1758300D02*
G03X2064550I-2350J0D01*
G01X2100950Y1855000D02*
G03X2100950I-4450J0D01*
G01Y1865000D02*
G03X2100950I-4450J0D01*
G01X2101150Y1875000D02*
G03X2101150I-4650J0D01*
G01X2100950Y1885000D02*
G03X2100950I-4450J0D01*
G01X2108050Y1907500D02*
G03X2108050I-10550J0D01*
G01X2071950Y1835000D02*
G03X2071950I-4450J0D01*
G01Y1855000D02*
G03X2071950I-4450J0D01*
G01Y1865000D02*
G03X2071950I-4450J0D01*
G01X2072150Y1875000D02*
G03X2072150I-4650J0D01*
G01X2071950Y1885000D02*
G03X2071950I-4450J0D01*
G01Y1902500D02*
G03X2071950I-4450J0D01*
G01X2072150Y1912500D02*
G03X2072150I-4650J0D01*
G01X2042950Y1855000D02*
G03X2042950I-4450J0D01*
G01Y1865000D02*
G03X2042950I-4450J0D01*
G01X2043150Y1875000D02*
G03X2043150I-4650J0D01*
G01X2042950Y1885000D02*
G03X2042950I-4450J0D01*
G01Y1902500D02*
G03X2042950I-4450J0D01*
G01X2043150Y1912500D02*
G03X2043150I-4650J0D01*
G01X2023550D02*
G03X2023550I-2350J0D01*
G01X2013950Y1855000D02*
G03X2013950I-4450J0D01*
G01Y1865000D02*
G03X2013950I-4450J0D01*
G01X2014150Y1875000D02*
G03X2014150I-4650J0D01*
G01X2013950Y1885000D02*
G03X2013950I-4450J0D01*
G01X2012750Y1902600D02*
G03X2012750I-2550J0D01*
G01X2012250Y1912500D02*
G03X2012250I-2550J0D01*
G01X1996550Y1869900D02*
G03X1996550I-2550J0D01*
G01X1984950Y1855000D02*
G03X1984950I-4450J0D01*
G01Y1865000D02*
G03X1984950I-4450J0D01*
G01X1985150Y1875000D02*
G03X1985150I-4650J0D01*
G01X1984950Y1885000D02*
G03X1984950I-4450J0D01*
G01X1973050Y1848400D02*
G03X1973050I-2550J0D01*
G01Y1854500D02*
G03X1973050I-2550J0D01*
G01X1955950Y1855000D02*
G03X1955950I-4450J0D01*
G01Y1865000D02*
G03X1955950I-4450J0D01*
G01X1956150Y1875000D02*
G03X1956150I-4650J0D01*
G01X1955950Y1885000D02*
G03X1955950I-4450J0D01*
G01X1957350Y1820800D02*
G03X1957350I-2350J0D01*
G01X1955950Y1835000D02*
G03X1955950I-4450J0D01*
G01X1984950D02*
G03X1984950I-4450J0D01*
G01X2013950D02*
G03X2013950I-4450J0D01*
G01X2026650Y1595000D02*
G03X2026650I-2350J0D01*
G01X2042950Y1835000D02*
G03X2042950I-4450J0D01*
G01X2052250Y1583200D02*
G03X2052250I-2350J0D01*
G01X2050750Y1661800D02*
G03X2050750I-2350J0D01*
G01X2110750Y1919749D02*
Y1920936D01*
X2110158Y1923250D02*
G03X2110750Y1920936I3842J-250D01*
G01X2110158Y1923250D02*
X1937950D01*
Y1816450*
X2006650*
Y1700937*
Y1696063D02*
G03Y1700937I750J2437D01*
G01Y1696063D02*
Y1690050D01*
Y1684950D02*
G03Y1690050I50J2550D01*
G01Y1684950D02*
Y1665058D01*
X2008749Y1664650D02*
G03X2006650Y1665058I-1449J-1850D01*
G01X2008749Y1664650D02*
X2009050D01*
X2010358Y1664108D02*
G03X2009050Y1664650I-1308J-1308D01*
G01X2010358Y1664108D02*
X2010650Y1663816D01*
Y1820934*
X2009434Y1822150*
X1968900*
X1967575Y1822709D02*
G03X1968900Y1822150I1325J1291D01*
G01X1967575Y1822709D02*
X1963675Y1826709D01*
X1963150Y1828000D02*
G03X1963675Y1826709I1850J0D01*
G01X1963150Y1828000D02*
Y1840934D01*
X1960934Y1843150*
X1955547*
Y1846850D02*
G03Y1843150I-4047J-1850D01*
G01Y1846850D02*
X1961700D01*
X1963008Y1846308D02*
G03X1961700Y1846850I-1308J-1308D01*
G01X1963008Y1846308D02*
X1966308Y1843008D01*
X1966850Y1841700D02*
G03X1966308Y1843008I-1850J0D01*
G01X1966850Y1841700D02*
Y1828753D01*
X1969680Y1825850*
X2010200*
X2011508Y1825308D02*
G03X2010200Y1825850I-1308J-1308D01*
G01X2011508Y1825308D02*
X2013808Y1823008D01*
X2014350Y1821700D02*
G03X2013808Y1823008I-1850J0D01*
G01X2014350Y1821700D02*
Y1586166D01*
X2020155Y1580361*
X2023683Y1577500D02*
G03X2020155Y1580361I-1383J1900D01*
G01X2019967Y1575317D02*
G03X2023683Y1577500I2333J283D01*
G01X2019967Y1575317D02*
X2012250Y1583034D01*
Y1579449*
X2009818Y1575723D02*
G03X2012250Y1579449I582J2277D01*
G01X2007218Y1574181D02*
G03X2009818Y1575723I382J2319D01*
G01X2006650Y1573434D02*
G03X2007218Y1574181I-1550J1766D01*
G01X2006650Y1573434D02*
Y1541910D01*
X2008453Y1544185D02*
G03X2006650Y1541910I547J-2285D01*
G01X2011650Y1546491D02*
G03X2008453Y1544185I-850J-2191D01*
G01X2015449Y1548350D02*
G03X2011650Y1546491I-1449J-1850D01*
G01X2015449Y1548350D02*
X2019650D01*
X2020958Y1547808D02*
G03X2019650Y1548350I-1308J-1308D01*
G01X2020958Y1547808D02*
X2021750Y1547016D01*
Y1552910*
X2019950Y1552615D02*
G03X2021750Y1552910I550J2285D01*
G01X2018150Y1554885D02*
G03X2019950Y1552615I-550J-2285D01*
G01X2021750Y1556890D02*
G03X2018150Y1554885I-1250J-1990D01*
G01X2021750Y1556890D02*
Y1568351D01*
X2025450D02*
G03X2021750I-1850J1449D01*
G01X2025450D02*
Y1558112D01*
X2029023Y1558499D02*
G03X2025450Y1558112I-1623J-1699D01*
G01X2033350Y1556722D02*
G03X2029023Y1558499I-2250J678D01*
G01X2033350Y1556722D02*
Y1516450D01*
X2043250*
Y1499450*
X2055750*
Y1456950*
X2100751*
X2101050Y1459349D02*
G03X2100751Y1456950I1850J-1449D01*
G01X2101050Y1459349D02*
Y1563270D01*
X2104750Y1563440D02*
G03X2101050Y1563270I-1916J1360D01*
G01X2104750Y1563440D02*
Y1459349D01*
X2105049Y1456950D02*
G03X2104750Y1459349I-2149J950D01*
G01X2105049Y1456950D02*
X2110750D01*
Y1590936*
Y1595064D02*
G03Y1590936I3250J-2064D01*
G01Y1595064D02*
Y1596251D01*
Y1599749D02*
G03Y1596251I2250J-1749D01*
G01Y1599749D02*
Y1600251D01*
Y1603749D02*
G03Y1600251I2250J-1749D01*
G01Y1603749D02*
Y1604936D01*
Y1609064D02*
G03Y1604936I3250J-2064D01*
G01Y1609064D02*
Y1753436D01*
Y1757564D02*
G03Y1753436I3250J-2064D01*
G01Y1757564D02*
Y1758751D01*
Y1762249D02*
G03Y1758751I2250J-1749D01*
G01Y1762249D02*
Y1762751D01*
Y1766249D02*
G03Y1762751I2250J-1749D01*
G01Y1766249D02*
Y1767436D01*
Y1771564D02*
G03Y1767436I3250J-2064D01*
G01Y1771564D02*
Y1906936D01*
Y1911064D02*
G03Y1906936I3250J-2064D01*
G01Y1911064D02*
Y1912251D01*
Y1915749D02*
G03Y1912251I2250J-1749D01*
G01Y1915749D02*
Y1916251D01*
Y1919749D02*
G03Y1916251I2250J-1749D01*
G01X2025950Y1656573D02*
Y1662251D01*
X2022550Y1663622D02*
G03X2025950Y1662251I2250J678D01*
G01X2022550Y1663622D02*
Y1656468D01*
X2025950Y1656573D02*
G03X2022550Y1656468I-1650J-1673D01*
G01X2006650Y1540850D02*
X2006898D01*
X2006650Y1541890D02*
G03X2006898Y1540850I2350J10D01*
G01X2006650Y1541890D02*
Y1540850D01*
X2103908Y1577502D02*
G03X2100292I-1808J1798D01*
G01X2103866Y1574450D02*
G03X2103908Y1577502I-1766J1550D01*
G01X2104033Y1571563D02*
G03X2103866Y1574450I-1933J1337D01*
G01X2100167Y1571563D02*
G03X2104033I1933J-1663D01*
G01X2100334Y1574450D02*
G03X2100167Y1571563I1766J-1550D01*
G01X2100292Y1577502D02*
G03X2100334Y1574450I1808J-1502D01*
G01X2104650Y1588800D02*
G03X2104650I-2550J0D01*
G01X2104195Y1605565D02*
G03X2104231Y1609810I-1395J2135D01*
G01X2103866Y1602950D02*
G03X2104195Y1605565I-1766J1550D01*
G01X2103952Y1599953D02*
G03X2103866Y1602950I-1852J1447D01*
G01X2100248Y1599953D02*
G03X2103952I1852J-1753D01*
G01X2100334Y1602950D02*
G03X2100248Y1599953I1766J-1550D01*
G01X2100641Y1606343D02*
G03X2100334Y1602950I1459J-1843D01*
G01X2100601Y1608990D02*
G03X2100641Y1606343I2199J-1290D01*
G01X2100427Y1612450D02*
G03X2100601Y1608990I1673J-1650D01*
G01X2100167Y1615437D02*
G03X2100427Y1612450I1933J-1337D01*
G01X2104033Y1615437D02*
G03X2100167I-1933J1663D01*
G01X2103773Y1612450D02*
G03X2104033Y1615437I-1673J1650D01*
G01X2104231Y1609810D02*
G03X2103773Y1612450I-2131J990D01*
G01X2100167Y1628163D02*
G03X2104033I1933J-1663D01*
G01X2100427Y1631150D02*
G03X2100167Y1628163I1673J-1650D01*
G01X2103773Y1631150D02*
G03X2100427I-1673J1650D01*
G01X2104033Y1628163D02*
G03X2103773Y1631150I-1933J1337D01*
G01X2104231Y1655890D02*
G03X2100601Y1656710I-1431J2110D01*
G01X2103866Y1653350D02*
G03X2104231Y1655890I-1766J1550D01*
G01X2104195Y1650735D02*
G03X2103866Y1653350I-2095J1065D01*
G01X2104195Y1646465D02*
G03Y1650735I-1395J2135D01*
G01X2103909Y1643900D02*
G03X2104195Y1646465I-1809J1500D01*
G01X2100291Y1643900D02*
G03X2103909I1809J-1500D01*
G01X2100641Y1647243D02*
G03X2100291Y1643900I1459J-1843D01*
G01X2100641Y1649957D02*
G03Y1647243I2159J-1357D01*
G01X2100334Y1653350D02*
G03X2100641Y1649957I1766J-1550D01*
G01X2100601Y1656710D02*
G03X2100334Y1653350I1499J-1810D01*
G01X2104195Y1687465D02*
G03X2100641Y1688243I-1395J2135D01*
G01X2103773Y1684750D02*
G03X2104195Y1687465I-1673J1650D01*
G01X2104231Y1682110D02*
G03X2103773Y1684750I-2131J990D01*
G01X2104231Y1677890D02*
G03Y1682110I-1431J2110D01*
G01X2103866Y1675350D02*
G03X2104231Y1677890I-1766J1550D01*
G01X2100334Y1675350D02*
G03X2103866I1766J-1550D01*
G01X2100601Y1678710D02*
G03X2100334Y1675350I1499J-1810D01*
G01X2100601Y1681290D02*
G03Y1678710I2199J-1290D01*
G01X2100427Y1684750D02*
G03X2100601Y1681290I1673J-1650D01*
G01X2100641Y1688243D02*
G03X2100427Y1684750I1459J-1843D01*
G01X2088866Y1513937D02*
G03X2086534I-1166J3937D01*
G01X2088866Y1506063D02*
G03Y1513937I-1166J3937D01*
G01X2086534Y1506063D02*
G03X2088866I1166J-3937D01*
G01X2086534Y1513937D02*
G03Y1506063I1166J-3937D01*
G01X2090425Y1537992D02*
G03X2090425I-2925J0D01*
G01X2089950Y1547100D02*
G03X2089950I-2550J0D01*
G01X2090050Y1563500D02*
G03X2090050I-2550J0D01*
G01X2090125Y1639175D02*
G03X2090125I-2550J0D01*
G01X2090150Y1670900D02*
G03X2090150I-2550J0D01*
G01X2089550Y1699000D02*
G03X2089550I-2550J0D01*
G01X2091212Y1712008D02*
G03X2091212I-3712J0D01*
G01X2088866Y1743937D02*
G03X2086534I-1166J3937D01*
G01X2088866Y1736063D02*
G03Y1743937I-1166J3937D01*
G01X2086534Y1736063D02*
G03X2088866I1166J-3937D01*
G01X2086534Y1743937D02*
G03Y1736063I1166J-3937D01*
G01X2072050Y1563600D02*
G03X2072050I-2350J0D01*
G01X2088866Y1778937D02*
G03X2086534I-1166J3937D01*
G01X2088866Y1771063D02*
G03Y1778937I-1166J3937D01*
G01X2084037Y1765270D02*
G03X2088866Y1771063I3663J1856D01*
G01X2084037Y1765270D02*
X2071503Y1765250D01*
X2071500*
X2071088*
X2069650Y1763755*
Y1701790*
Y1696810D02*
G03Y1701790I550J2490D01*
G01Y1696810D02*
Y1669366D01*
X2069983Y1669033*
X2067367Y1666417D02*
G03X2069983Y1669033I2333J283D01*
G01X2067367Y1666417D02*
X2066603Y1667181D01*
X2065950Y1671485D02*
G03X2066603Y1667181I-550J-2285D01*
G01X2065950Y1671485D02*
Y1678893D01*
Y1683507D02*
G03Y1678893I-450J-2307D01*
G01Y1683507D02*
Y1764500D01*
X2066466Y1765782D02*
G03X2065950Y1764500I1334J-1282D01*
G01X2066466Y1765782D02*
X2068966Y1768382D01*
X2070300Y1768950D02*
G03X2068966Y1768382I0J-1850D01*
G01X2070300Y1768950D02*
X2071499D01*
X2084032Y1768970*
X2086534Y1771063D02*
G03X2084032Y1768970I1166J-3937D01*
G01X2086534Y1778937D02*
G03Y1771063I1166J-3937D01*
G01X2108050Y1809900D02*
G03X2108050I-10550J0D01*
G01X2100950Y1835000D02*
G03X2100950I-4450J0D01*
G01X2064550Y1758300D02*
G03X2064550I-2350J0D01*
G01X2092453Y1843150D02*
G03Y1846850I4047J1850D01*
G01Y1843150D02*
X2082866D01*
X2081250Y1841534*
Y1823100*
X2080708Y1821792D02*
G03X2081250Y1823100I-1308J1308D01*
G01X2080708Y1821792D02*
X2078008Y1819092D01*
X2076700Y1818550D02*
G03X2078008Y1819092I0J1850D01*
G01X2076700Y1818550D02*
X2035866D01*
X2034350Y1817034*
Y1693785*
X2036685Y1691531*
X2037250Y1690200D02*
G03X2036685Y1691531I-1850J0D01*
G01X2037250Y1690200D02*
Y1690107D01*
X2039132Y1685936D02*
G03X2037250Y1690107I-1432J1864D01*
G01X2039249Y1685850D02*
G03X2039132Y1685936I-1449J-1850D01*
G01X2039249Y1685850D02*
X2049500D01*
X2049515D02*
G03X2049500I-15J-1850D01*
G01X2050178Y1688101D02*
G03X2049515Y1685850I1622J-1701D01*
G01X2053522Y1687999D02*
G03X2050178Y1688101I-1622J1701D01*
G01X2052053Y1684064D02*
G03X2053522Y1687999I-253J2336D01*
G01X2052053Y1684064D02*
X2056808Y1679308D01*
X2057350Y1678000D02*
G03X2056808Y1679308I-1850J0D01*
G01X2057350Y1678000D02*
Y1673685D01*
Y1669115D02*
G03Y1673685I550J2285D01*
G01Y1669115D02*
Y1509266D01*
X2073108Y1493508*
X2073650Y1492188D02*
G03X2073108Y1493508I-1850J12D01*
G01X2073650Y1492188D02*
X2073629Y1488861D01*
X2077766Y1484724*
X2084034*
X2088866Y1478937D02*
G03X2084034Y1484724I-1166J3937D01*
G01X2088866Y1471063D02*
G03Y1478937I-1166J3937D01*
G01X2086534Y1471063D02*
G03X2088866I1166J-3937D01*
G01X2086534Y1478937D02*
G03Y1471063I1166J-3937D01*
G01X2084034Y1481024D02*
G03X2086534Y1478937I3666J1850D01*
G01X2084034Y1481024D02*
X2077000D01*
X2075692Y1481566D02*
G03X2077000Y1481024I1308J1308D01*
G01X2075692Y1481566D02*
X2070466Y1486792D01*
X2069924Y1488112D02*
G03X2070466Y1486792I1850J-12D01*
G01X2069924Y1488112D02*
X2069945Y1491439D01*
X2054192Y1507192*
X2053650Y1508500D02*
G03X2054192Y1507192I1850J0D01*
G01X2053650Y1508500D02*
Y1567793D01*
Y1572407D02*
G03Y1567793I-450J-2307D01*
G01Y1572407D02*
Y1636710D01*
Y1641690D02*
G03Y1636710I-550J-2490D01*
G01Y1641690D02*
Y1677234D01*
X2048734Y1682150*
X2039249*
X2037250Y1681715D02*
G03X2039249Y1682150I550J2285D01*
G01X2037250Y1681715D02*
Y1671507D01*
X2038291Y1666925D02*
G03X2037250Y1671507I-591J2275D01*
G01X2038291Y1666925D02*
X2050583Y1654633D01*
X2047967Y1652017D02*
G03X2050583Y1654633I2333J283D01*
G01X2047967Y1652017D02*
X2047949Y1652035D01*
X2045535Y1654449D02*
G03X2047949Y1652035I65J-2349D01*
G01X2045535Y1654449D02*
X2034500Y1665484D01*
X2033550Y1667100D02*
G03X2034500Y1665484I1850J0D01*
G01X2033550Y1667100D02*
Y1689415D01*
X2031215Y1691669*
X2030650Y1693000D02*
G03X2031215Y1691669I1850J0D01*
G01X2030650Y1693000D02*
Y1817800D01*
X2031192Y1819108D02*
G03X2030650Y1817800I1308J-1308D01*
G01X2031192Y1819108D02*
X2033792Y1821708D01*
X2035100Y1822250D02*
G03X2033792Y1821708I0J-1850D01*
G01X2035100Y1822250D02*
X2075934D01*
X2077550Y1823866*
Y1842300*
X2078092Y1843608D02*
G03X2077550Y1842300I1308J-1308D01*
G01X2078092Y1843608D02*
X2080792Y1846308D01*
X2082100Y1846850D02*
G03X2080792Y1846308I0J-1850D01*
G01X2082100Y1846850D02*
X2092453D01*
X2100950Y1855000D02*
G03X2100950I-4450J0D01*
G01Y1865000D02*
G03X2100950I-4450J0D01*
G01X2101150Y1875000D02*
G03X2101150I-4650J0D01*
G01X2100950Y1885000D02*
G03X2100950I-4450J0D01*
G01X2108050Y1907500D02*
G03X2108050I-10550J0D01*
G01X2071950Y1835000D02*
G03X2071950I-4450J0D01*
G01X2063453Y1843150D02*
G03Y1846850I4047J1850D01*
G01Y1843150D02*
X2056766D01*
X2055750Y1842134*
Y1825900*
X2055208Y1824592D02*
G03X2055750Y1825900I-1308J1308D01*
G01X2055208Y1824592D02*
X2053508Y1822892D01*
X2052200Y1822350D02*
G03X2053508Y1822892I0J1850D01*
G01X2052200Y1822350D02*
X2032866D01*
X2030550Y1820034*
Y1691166*
X2032708Y1689008*
X2033250Y1687700D02*
G03X2032708Y1689008I-1850J0D01*
G01X2033250Y1687700D02*
Y1661591D01*
Y1657209D02*
G03Y1661591I850J2191D01*
G01Y1657209D02*
Y1641666D01*
X2036008Y1638908*
X2036550Y1637600D02*
G03X2036008Y1638908I-1850J0D01*
G01X2036550Y1637600D02*
Y1588800D01*
X2036008Y1587492D02*
G03X2036550Y1588800I-1308J1308D01*
G01X2036008Y1587492D02*
X2032808Y1584292D01*
X2031500Y1583750D02*
G03X2032808Y1584292I0J1850D01*
G01X2031500Y1583750D02*
X2025749D01*
X2022530Y1587146D02*
G03X2025749Y1583750I1770J-1546D01*
G01X2026124Y1587450D02*
G03X2022530Y1587146I-1924J1350D01*
G01X2026124Y1587450D02*
X2030734D01*
X2032850Y1589566*
Y1596398*
Y1600602D02*
G03Y1596398I-1050J-2102D01*
G01Y1600602D02*
Y1631332D01*
X2028772Y1632581D02*
G03X2032850Y1631332I2328J319D01*
G01X2028772Y1632581D02*
X2026512Y1634772D01*
X2025950Y1636100D02*
G03X2026512Y1634772I1850J0D01*
G01X2025950Y1636100D02*
Y1653227D01*
X2022550Y1653332D02*
G03X2025950Y1653227I1750J1568D01*
G01X2022550Y1653332D02*
Y1628273D01*
X2025970Y1625054D02*
G03X2022550Y1628273I-1770J1546D01*
G01Y1621832D02*
G03X2025970Y1625054I1750J1568D01*
G01X2022550Y1621832D02*
Y1618773D01*
X2025970Y1615554D02*
G03X2022550Y1618773I-1770J1546D01*
G01Y1612332D02*
G03X2025970Y1615554I1750J1568D01*
G01X2022550Y1612332D02*
Y1608849D01*
X2025511Y1605534D02*
G03X2022550Y1608849I-911J2166D01*
G01X2025680Y1603932D02*
G03X2025511Y1605534I-2280J568D01*
G01X2024636Y1599554D02*
G03X2025680Y1603932I-136J2346D01*
G01X2020851Y1597450D02*
G03X2024636Y1599554I1449J1850D01*
G01X2020851Y1597450D02*
X2019141D01*
X2017833Y1597992D02*
G03X2019141Y1597450I1308J1308D01*
G01X2017833Y1597992D02*
X2015492Y1600333D01*
X2014950Y1601641D02*
G03X2015492Y1600333I1850J0D01*
G01X2014950Y1601641D02*
Y1823634D01*
X2012234Y1826350*
X1996600*
X1995292Y1826892D02*
G03X1996600Y1826350I1308J1308D01*
G01X1995292Y1826892D02*
X1993992Y1828192D01*
X1993450Y1829500D02*
G03X1993992Y1828192I1850J0D01*
G01X1993450Y1829500D02*
Y1841134D01*
X1991434Y1843150*
X1984547*
Y1846850D02*
G03Y1843150I-4047J-1850D01*
G01Y1846850D02*
X1992200D01*
X1993508Y1846308D02*
G03X1992200Y1846850I-1308J-1308D01*
G01X1993508Y1846308D02*
X1996608Y1843208D01*
X1997150Y1841900D02*
G03X1996608Y1843208I-1850J0D01*
G01X1997150Y1841900D02*
Y1830266D01*
X1997366Y1830050*
X2013000*
X2014308Y1829508D02*
G03X2013000Y1830050I-1308J-1308D01*
G01X2014308Y1829508D02*
X2018108Y1825708D01*
X2018650Y1824400D02*
G03X2018108Y1825708I-1850J0D01*
G01X2018650Y1824400D02*
Y1602408D01*
X2019908Y1601150*
X2020851*
X2022164Y1601646D02*
G03X2020851Y1601150I136J-2346D01*
G01X2022220Y1602468D02*
G03X2022164Y1601646I2280J-568D01*
G01X2021951Y1602650D02*
G03X2022220Y1602468I1449J1850D01*
G01X2021951Y1602650D02*
X2021900D01*
X2020592Y1603192D02*
G03X2021900Y1602650I1308J1308D01*
G01X2020592Y1603192D02*
X2019800Y1603984D01*
X2018850Y1605600D02*
G03X2019800Y1603984I1850J0D01*
G01X2018850Y1605600D02*
Y1840534D01*
X2016234Y1843150*
X2013547*
Y1846850D02*
G03Y1843150I-4047J-1850D01*
G01Y1846850D02*
X2017000D01*
X2018308Y1846308D02*
G03X2017000Y1846850I-1308J-1308D01*
G01X2018308Y1846308D02*
X2022008Y1842608D01*
X2022550Y1841300D02*
G03X2022008Y1842608I-1850J0D01*
G01X2022550Y1841300D02*
Y1664978D01*
X2025950Y1666349D02*
G03X2022550Y1664978I-1150J-2049D01*
G01X2025950Y1666349D02*
Y1682634D01*
X2023392Y1685192*
X2022850Y1686500D02*
G03X2023392Y1685192I1850J0D01*
G01X2022850Y1686500D02*
Y1824900D01*
X2023392Y1826208D02*
G03X2022850Y1824900I1308J-1308D01*
G01X2023392Y1826208D02*
X2026892Y1829708D01*
X2028200Y1830250D02*
G03X2026892Y1829708I0J-1850D01*
G01X2028200Y1830250D02*
X2048034D01*
X2048250Y1830466*
Y1842334*
X2047434Y1843150*
X2042547*
Y1846850D02*
G03Y1843150I-4047J-1850D01*
G01Y1846850D02*
X2048200D01*
X2049508Y1846308D02*
G03X2048200Y1846850I-1308J-1308D01*
G01X2049508Y1846308D02*
X2051408Y1844408D01*
X2051950Y1843100D02*
G03X2051408Y1844408I-1850J0D01*
G01X2051950Y1843100D02*
Y1829700D01*
X2051408Y1828392D02*
G03X2051950Y1829700I-1308J1308D01*
G01X2051408Y1828392D02*
X2050108Y1827092D01*
X2048800Y1826550D02*
G03X2050108Y1827092I0J1850D01*
G01X2048800Y1826550D02*
X2028966D01*
X2026550Y1824134*
Y1687266*
X2029108Y1684708*
X2029550Y1684000D02*
G03X2029108Y1684708I-1750J-600D01*
G01X2029550Y1684000D02*
Y1686934D01*
X2027392Y1689092*
X2026850Y1690400D02*
G03X2027392Y1689092I1850J0D01*
G01X2026850Y1690400D02*
Y1820800D01*
X2027392Y1822108D02*
G03X2026850Y1820800I1308J-1308D01*
G01X2027392Y1822108D02*
X2030792Y1825508D01*
X2032100Y1826050D02*
G03X2030792Y1825508I0J-1850D01*
G01X2032100Y1826050D02*
X2051434D01*
X2052050Y1826666*
Y1842900*
X2052592Y1844208D02*
G03X2052050Y1842900I1308J-1308D01*
G01X2052592Y1844208D02*
X2054692Y1846308D01*
X2056000Y1846850D02*
G03X2054692Y1846308I0J-1850D01*
G01X2056000Y1846850D02*
X2063453D01*
X2071950Y1855000D02*
G03X2071950I-4450J0D01*
G01Y1865000D02*
G03X2071950I-4450J0D01*
G01X2072150Y1875000D02*
G03X2072150I-4650J0D01*
G01X2071950Y1885000D02*
G03X2071950I-4450J0D01*
G01Y1902500D02*
G03X2071950I-4450J0D01*
G01X2072150Y1912500D02*
G03X2072150I-4650J0D01*
G01X2042950Y1855000D02*
G03X2042950I-4450J0D01*
G01Y1865000D02*
G03X2042950I-4450J0D01*
G01X2043150Y1875000D02*
G03X2043150I-4650J0D01*
G01X2042950Y1885000D02*
G03X2042950I-4450J0D01*
G01Y1902500D02*
G03X2042950I-4450J0D01*
G01X2043150Y1912500D02*
G03X2043150I-4650J0D01*
G01X2023550D02*
G03X2023550I-2350J0D01*
G01X2013950Y1855000D02*
G03X2013950I-4450J0D01*
G01Y1865000D02*
G03X2013950I-4450J0D01*
G01X2014150Y1875000D02*
G03X2014150I-4650J0D01*
G01X2013950Y1885000D02*
G03X2013950I-4450J0D01*
G01X2012750Y1902600D02*
G03X2012750I-2550J0D01*
G01X2012250Y1912500D02*
G03X2012250I-2550J0D01*
G01X1996550Y1869900D02*
G03X1996550I-2550J0D01*
G01X1984950Y1855000D02*
G03X1984950I-4450J0D01*
G01Y1865000D02*
G03X1984950I-4450J0D01*
G01X1985150Y1875000D02*
G03X1985150I-4650J0D01*
G01X1984950Y1885000D02*
G03X1984950I-4450J0D01*
G01X1973050Y1848400D02*
G03X1973050I-2550J0D01*
G01Y1854500D02*
G03X1973050I-2550J0D01*
G01X1955950Y1855000D02*
G03X1955950I-4450J0D01*
G01Y1865000D02*
G03X1955950I-4450J0D01*
G01X1956150Y1875000D02*
G03X1956150I-4650J0D01*
G01X1955950Y1885000D02*
G03X1955950I-4450J0D01*
G01X1997750Y1914000D02*
Y1902500D01*
X1997000Y1901750D02*
G03X1997750Y1902500I0J750D01*
G01X1997000Y1901750D02*
X1953500D01*
X1952750Y1902500D02*
G03X1953500Y1901750I750J0D01*
G01X1952750Y1902500D02*
Y1914000D01*
X1953500Y1914750D02*
G03X1952750Y1914000I0J-750D01*
G01X1953500Y1914750D02*
X1997000D01*
X1997750Y1914000D02*
G03X1997000Y1914750I-750J0D01*
G01X1957350Y1820800D02*
G03X1957350I-2350J0D01*
G01X1955950Y1835000D02*
G03X1955950I-4450J0D01*
G01X1984950D02*
G03X1984950I-4450J0D01*
G01X2013950D02*
G03X2013950I-4450J0D01*
G01X2026650Y1595000D02*
G03X2026650I-2350J0D01*
G01X2039621Y1646900D02*
G03X2036179I-1721J1600D01*
X2039621I1721J-1600*
G01X2042950Y1835000D02*
G03X2042950I-4450J0D01*
G01X2052250Y1583200D02*
G03X2052250I-2350J0D01*
G01X2050750Y1661800D02*
G03X2050750I-2350J0D01*
G01X1937950Y1919999D02*
X2110750D01*
X2103818Y1915949D02*
X2110750D01*
X2107089Y1911899D02*
X2110750D01*
X2108002Y1906499D02*
X2110750D01*
X2107785Y1905149D02*
X2110750D01*
X2107379Y1903799D02*
X2110750D01*
X2106762Y1902449D02*
X2110750D01*
X2105886Y1901099D02*
X2110750D01*
X2104657Y1899749D02*
X2110750D01*
X2102836Y1898399D02*
X2110750D01*
X2098940Y1897049D02*
X2110750D01*
X1937950Y1895699D02*
X2110750D01*
X1937950Y1894349D02*
X2110750D01*
X1937950Y1892999D02*
X2110750D01*
X1937950Y1891649D02*
X2110750D01*
X1937950Y1890299D02*
X2110750D01*
X2098552Y1888949D02*
X2110750D01*
X2100112Y1887599D02*
X2110750D01*
X2100771Y1886249D02*
X2110750D01*
X2100949Y1884899D02*
X2110750D01*
X2100707Y1883549D02*
X2110750D01*
X2099958Y1882199D02*
X2110750D01*
X2098103Y1880849D02*
X2110750D01*
X2097677Y1879499D02*
X2110750D01*
X2099922Y1878149D02*
X2110750D01*
X2100788Y1876799D02*
X2110750D01*
X2101128Y1875449D02*
X2110750D01*
X2101062Y1874099D02*
X2110750D01*
X2100569Y1872749D02*
X2110750D01*
X2099442Y1871399D02*
X2110750D01*
X1996546Y1870049D02*
X2110750D01*
X2098974Y1868699D02*
X2110750D01*
X2100280Y1867349D02*
X2110750D01*
X2100837Y1865999D02*
X2110750D01*
X2100936Y1864649D02*
X2110750D01*
X2100612Y1863299D02*
X2110750D01*
X2099739Y1861949D02*
X2110750D01*
X2097157Y1860599D02*
X2110750D01*
X2097823Y1859249D02*
X2110750D01*
X2099876Y1857899D02*
X2110750D01*
X2100672Y1856549D02*
X2110750D01*
X2100946Y1855199D02*
X2110750D01*
X2100799Y1853849D02*
X2110750D01*
X2100181Y1852499D02*
X2110750D01*
X2098729Y1851149D02*
X2110750D01*
X1972632Y1849799D02*
X2110750D01*
X2099312Y1848449D02*
X2110750D01*
X2100424Y1847099D02*
X2110750D01*
X2100887Y1845749D02*
X2110750D01*
X2100909Y1844399D02*
X2110750D01*
X2100499Y1843049D02*
X2110750D01*
X2099484Y1841699D02*
X2110750D01*
X2081250Y1840349D02*
X2110750D01*
X2098453Y1838999D02*
X2110750D01*
X2100076Y1837649D02*
X2110750D01*
X2100756Y1836299D02*
X2110750D01*
X2100950Y1834949D02*
X2110750D01*
X2100724Y1833599D02*
X2110750D01*
X2099998Y1832249D02*
X2110750D01*
X2098227Y1830899D02*
X2110750D01*
X2081250Y1829549D02*
X2110750D01*
X2081250Y1828199D02*
X2110750D01*
X2081250Y1826849D02*
X2110750D01*
X2081250Y1825499D02*
X2110750D01*
X2081250Y1824149D02*
X2110750D01*
X2081225Y1822799D02*
X2110750D01*
X2080365Y1821449D02*
X2110750D01*
X2100200Y1820099D02*
X2110750D01*
X2103245Y1818749D02*
X2110750D01*
X2104921Y1817399D02*
X2110750D01*
X2106073Y1816049D02*
X2110750D01*
X2106896Y1814699D02*
X2110750D01*
X2107470Y1813349D02*
X2110750D01*
X2107839Y1811999D02*
X2110750D01*
X2108023Y1810649D02*
X2110750D01*
X2108033Y1809299D02*
X2110750D01*
X2107868Y1807949D02*
X2110750D01*
X2107520Y1806599D02*
X2110750D01*
X2106969Y1805249D02*
X2110750D01*
X2106177Y1803899D02*
X2110750D01*
X2105067Y1802549D02*
X2110750D01*
X2103466Y1801199D02*
X2110750D01*
X2100705Y1799849D02*
X2110750D01*
X2034350Y1798499D02*
X2110750D01*
X2034350Y1797149D02*
X2110750D01*
X2034350Y1795799D02*
X2110750D01*
X2034350Y1794449D02*
X2110750D01*
X2034350Y1793099D02*
X2110750D01*
X2034350Y1791749D02*
X2110750D01*
X2034350Y1790399D02*
X2110750D01*
X2034350Y1789049D02*
X2110750D01*
X2034350Y1787699D02*
X2110750D01*
X2089888Y1786349D02*
X2110750D01*
X2091213Y1784999D02*
X2110750D01*
X2091732Y1783649D02*
X2110750D01*
X2091765Y1782299D02*
X2110750D01*
X2091327Y1780949D02*
X2110750D01*
X2090176Y1779599D02*
X2110750D01*
X2090211Y1778249D02*
X2110750D01*
X2091341Y1776899D02*
X2110750D01*
X2091769Y1775549D02*
X2110750D01*
X2091727Y1774199D02*
X2110750D01*
X2091197Y1772849D02*
X2110750D01*
X2069650Y1757999D02*
X2110750D01*
X2069650Y1752599D02*
X2110750D01*
X2090039Y1751249D02*
X2110750D01*
X2091272Y1749899D02*
X2110750D01*
X2091750Y1748549D02*
X2110750D01*
X2091750Y1747199D02*
X2110750D01*
X2091272Y1745849D02*
X2110750D01*
X2090038Y1744499D02*
X2110750D01*
X2090335Y1743149D02*
X2110750D01*
X2091391Y1741799D02*
X2110750D01*
X2091781Y1740449D02*
X2110750D01*
X2091706Y1739099D02*
X2110750D01*
X2091134Y1737749D02*
X2110750D01*
X2089672Y1736399D02*
X2110750D01*
X2090584Y1735049D02*
X2110750D01*
X2091493Y1733699D02*
X2110750D01*
X2091800Y1732349D02*
X2110750D01*
X2091648Y1730999D02*
X2110750D01*
X2090974Y1729649D02*
X2110750D01*
X2089187Y1728299D02*
X2110750D01*
X2069650Y1726949D02*
X2110750D01*
X2069650Y1725599D02*
X2110750D01*
X2069650Y1724249D02*
X2110750D01*
X2069650Y1722899D02*
X2110750D01*
X2069650Y1721549D02*
X2110750D01*
X2069650Y1720199D02*
X2110750D01*
X2069650Y1718849D02*
X2110750D01*
X2069650Y1717499D02*
X2110750D01*
X2069650Y1716149D02*
X2110750D01*
X2089948Y1714799D02*
X2110750D01*
X2090921Y1713449D02*
X2110750D01*
X2091211Y1712099D02*
X2110750D01*
X2090992Y1710749D02*
X2110750D01*
X2090141Y1709399D02*
X2110750D01*
X2069650Y1708049D02*
X2110750D01*
X2069650Y1706699D02*
X2110750D01*
X2069650Y1705349D02*
X2110750D01*
X2069650Y1703999D02*
X2110750D01*
X2069650Y1702649D02*
X2110750D01*
X2088104Y1701299D02*
X2110750D01*
X2089367Y1699949D02*
X2110750D01*
X2089518Y1698599D02*
X2110750D01*
X2088854Y1697249D02*
X2110750D01*
X2069650Y1695899D02*
X2110750D01*
X2069650Y1694549D02*
X2110750D01*
X2069650Y1693199D02*
X2110750D01*
X2104003Y1691849D02*
X2110750D01*
X2105186Y1690499D02*
X2110750D01*
X2105310Y1689149D02*
X2110750D01*
X2104605Y1687799D02*
X2110750D01*
X2104450Y1686449D02*
X2110750D01*
X2104057Y1685099D02*
X2110750D01*
X2104359Y1683749D02*
X2110750D01*
X2104343Y1682399D02*
X2110750D01*
X2105124Y1681049D02*
X2110750D01*
X2105332Y1679699D02*
X2110750D01*
X2104743Y1678349D02*
X2110750D01*
X2104448Y1676999D02*
X2110750D01*
X2104089Y1675649D02*
X2110750D01*
X2104396Y1674299D02*
X2110750D01*
X2104290Y1672949D02*
X2110750D01*
X2102923Y1671599D02*
X2110750D01*
X2090065Y1670249D02*
X2110750D01*
X2089180Y1668899D02*
X2110750D01*
X2071891Y1667549D02*
X2110750D01*
X2071996Y1666199D02*
X2110750D01*
X2071147Y1664849D02*
X2110750D01*
X2057350Y1663499D02*
X2110750D01*
X2057350Y1662149D02*
X2110750D01*
X2057350Y1660799D02*
X2110750D01*
X2104899Y1659449D02*
X2110750D01*
X2105348Y1658099D02*
X2110750D01*
X2105022Y1656749D02*
X2110750D01*
X2104396Y1655399D02*
X2110750D01*
X2104290Y1654049D02*
X2110750D01*
X2104271Y1652699D02*
X2110750D01*
X2104406Y1651349D02*
X2110750D01*
X2104932Y1649999D02*
X2110750D01*
X2105350Y1648649D02*
X2110750D01*
X2104993Y1647299D02*
X2110750D01*
X2104385Y1645949D02*
X2110750D01*
X2104309Y1644599D02*
X2110750D01*
X2104291Y1643249D02*
X2110750D01*
X2104396Y1641899D02*
X2110750D01*
X2103547Y1640549D02*
X2110750D01*
X2090124Y1639199D02*
X2110750D01*
X2089753Y1637849D02*
X2110750D01*
X2057350Y1636499D02*
X2110750D01*
X2102179Y1635149D02*
X2110750D01*
X2104227Y1633799D02*
X2110750D01*
X2104424Y1632449D02*
X2110750D01*
X2103822Y1631099D02*
X2110750D01*
X2104437Y1629749D02*
X2110750D01*
X2104176Y1628399D02*
X2110750D01*
X2104590Y1627049D02*
X2110750D01*
X2104521Y1625699D02*
X2110750D01*
X2103469Y1624349D02*
X2110750D01*
X2057350Y1622999D02*
X2110750D01*
X2057350Y1621649D02*
X2110750D01*
X2057350Y1620299D02*
X2110750D01*
X2103856Y1618949D02*
X2110750D01*
X2104601Y1617599D02*
X2110750D01*
X2104504Y1616249D02*
X2110750D01*
X2104310Y1614899D02*
X2110750D01*
X2104384Y1613549D02*
X2110750D01*
X2103988Y1612199D02*
X2110750D01*
X2104450Y1610849D02*
X2110750D01*
X2104608Y1609499D02*
X2110750D01*
X2104416Y1604099D02*
X2110750D01*
X2104023Y1600049D02*
X2110750D01*
X2103387Y1595999D02*
X2110750D01*
X2103908Y1590599D02*
X2110750D01*
X2104610Y1589249D02*
X2110750D01*
X2104485Y1587899D02*
X2110750D01*
X2103298Y1586549D02*
X2110750D01*
X2057350Y1585199D02*
X2110750D01*
X2057350Y1583849D02*
X2110750D01*
X2057350Y1582499D02*
X2110750D01*
X2103856Y1581149D02*
X2110750D01*
X2104601Y1579799D02*
X2110750D01*
X2104504Y1578449D02*
X2110750D01*
X2104177Y1577099D02*
X2110750D01*
X2104437Y1575749D02*
X2110750D01*
X2103910Y1574399D02*
X2110750D01*
X2104445Y1573049D02*
X2110750D01*
X2104120Y1571699D02*
X2110750D01*
X2104610Y1570349D02*
X2110750D01*
X2104485Y1568999D02*
X2110750D01*
X2103298Y1567649D02*
X2110750D01*
X2104644Y1566299D02*
X2110750D01*
X2105179Y1564949D02*
X2110750D01*
X2104853Y1563599D02*
X2110750D01*
X2104750Y1562249D02*
X2110750D01*
X2104750Y1560899D02*
X2110750D01*
X2104750Y1559549D02*
X2110750D01*
X2104750Y1558199D02*
X2110750D01*
X2104750Y1556849D02*
X2110750D01*
X2104750Y1555499D02*
X2110750D01*
X2104750Y1554149D02*
X2110750D01*
X2104750Y1552799D02*
X2110750D01*
X2104750Y1551449D02*
X2110750D01*
X2104750Y1550099D02*
X2110750D01*
X2104750Y1548749D02*
X2110750D01*
X2104750Y1547399D02*
X2110750D01*
X2104750Y1546049D02*
X2110750D01*
X2104750Y1544699D02*
X2110750D01*
X2104750Y1543349D02*
X2110750D01*
X2104750Y1541999D02*
X2110750D01*
X2104750Y1540649D02*
X2110750D01*
X2104750Y1539299D02*
X2110750D01*
X2104750Y1537949D02*
X2110750D01*
X2104750Y1536599D02*
X2110750D01*
X2104750Y1535249D02*
X2110750D01*
X2104750Y1533899D02*
X2110750D01*
X2104750Y1532549D02*
X2110750D01*
X2104750Y1531199D02*
X2110750D01*
X2104750Y1529849D02*
X2110750D01*
X2104750Y1528499D02*
X2110750D01*
X2104750Y1527149D02*
X2110750D01*
X2104750Y1525799D02*
X2110750D01*
X2104750Y1524449D02*
X2110750D01*
X2104750Y1523099D02*
X2110750D01*
X2104750Y1521749D02*
X2110750D01*
X2104750Y1520399D02*
X2110750D01*
X2104750Y1519049D02*
X2110750D01*
X2104750Y1517699D02*
X2110750D01*
X2104750Y1516349D02*
X2110750D01*
X2104750Y1514999D02*
X2110750D01*
X2104750Y1513649D02*
X2110750D01*
X2104750Y1512299D02*
X2110750D01*
X2104750Y1510949D02*
X2110750D01*
X2104750Y1509599D02*
X2110750D01*
X2104750Y1508249D02*
X2110750D01*
X2104750Y1506899D02*
X2110750D01*
X2104750Y1505549D02*
X2110750D01*
X2104750Y1504199D02*
X2110750D01*
X2104750Y1502849D02*
X2110750D01*
X2104750Y1501499D02*
X2110750D01*
X2104750Y1500149D02*
X2110750D01*
X2104750Y1498799D02*
X2110750D01*
X2104750Y1497449D02*
X2110750D01*
X2104750Y1496099D02*
X2110750D01*
X2104750Y1494749D02*
X2110750D01*
X2104750Y1493399D02*
X2110750D01*
X2104750Y1492049D02*
X2110750D01*
X2104750Y1490699D02*
X2110750D01*
X2104750Y1489349D02*
X2110750D01*
X2104750Y1487999D02*
X2110750D01*
X2104750Y1486649D02*
X2110750D01*
X2104750Y1485299D02*
X2110750D01*
X2104750Y1483949D02*
X2110750D01*
X2104750Y1482599D02*
X2110750D01*
X2104750Y1481249D02*
X2110750D01*
X2104750Y1479899D02*
X2110750D01*
X2104750Y1478549D02*
X2110750D01*
X2104750Y1477199D02*
X2110750D01*
X2104750Y1475849D02*
X2110750D01*
X2104750Y1474499D02*
X2110750D01*
X2104750Y1473149D02*
X2110750D01*
X2104750Y1471799D02*
X2110750D01*
X2104750Y1470449D02*
X2110750D01*
X2104750Y1469099D02*
X2110750D01*
X2104750Y1467749D02*
X2110750D01*
X2104750Y1466399D02*
X2110750D01*
X2104750Y1465049D02*
X2110750D01*
X2104750Y1463699D02*
X2110750D01*
X2104750Y1462349D02*
X2110750D01*
X2104750Y1460999D02*
X2110750D01*
X2104750Y1459649D02*
X2110750D01*
X2105216Y1458299D02*
X2110750D01*
X2091793Y1767449D02*
X2110742D01*
X2089845Y1771499D02*
X2110709D01*
X2091675Y1766099D02*
X2110641D01*
X2069650Y1762049D02*
X2110607D01*
X1937950Y1921349D02*
X2110522D01*
X2057350Y1594649D02*
X2110521D01*
X2069650Y1753949D02*
X2110476D01*
X2104250Y1605449D02*
X2110476D01*
X2107600Y1910549D02*
X2110475D01*
X2069650Y1759349D02*
X2110393D01*
X2089422Y1763399D02*
X2110371D01*
X2108044Y1907849D02*
X2110326D01*
X2069650Y1756649D02*
X2110325D01*
X2105310Y1608149D02*
X2110325D01*
X2057350Y1591949D02*
X2110296D01*
X2106346Y1913249D02*
X2110251D01*
X2104024Y1602749D02*
X2110250D01*
X2101410Y1917299D02*
X2110238D01*
X2104601Y1598699D02*
X2110237D01*
X2104504Y1597349D02*
X2110225D01*
X1937950Y1918649D02*
X2110225D01*
X2091450Y1768799D02*
X2110214D01*
X2104450Y1601399D02*
X2110214D01*
X2105305Y1914599D02*
X2110214D01*
X2090479Y1770149D02*
X2110205D01*
X1937950Y1922699D02*
X2110162D01*
X2057350Y1593299D02*
X2110162D01*
X2091048Y1764749D02*
X2110161D01*
X2069650Y1760699D02*
X2110157D01*
X2069650Y1755299D02*
X2110155D01*
X2105185Y1606799D02*
X2110155D01*
X2107912Y1909199D02*
X2110155D01*
X2057350Y1635149D02*
X2102021D01*
X2069650Y1691849D02*
X2101597D01*
X2090052Y1671599D02*
X2101277D01*
X2089722Y1562249D02*
X2101050D01*
X2057350Y1560899D02*
X2101050D01*
X2057350Y1559549D02*
X2101050D01*
X2057350Y1558199D02*
X2101050D01*
X2057350Y1556849D02*
X2101050D01*
X2057350Y1555499D02*
X2101050D01*
X2057350Y1554149D02*
X2101050D01*
X2057350Y1552799D02*
X2101050D01*
X2057350Y1551449D02*
X2101050D01*
X2057350Y1550099D02*
X2101050D01*
X2089345Y1548749D02*
X2101050D01*
X2089932Y1547399D02*
X2101050D01*
X2089723Y1546049D02*
X2101050D01*
X2088258Y1544699D02*
X2101050D01*
X2057350Y1543349D02*
X2101050D01*
X2057350Y1541999D02*
X2101050D01*
X2088724Y1540649D02*
X2101050D01*
X2090117Y1539299D02*
X2101050D01*
X2090425Y1537949D02*
X2101050D01*
X2090072Y1536599D02*
X2101050D01*
X2088514Y1535249D02*
X2101050D01*
X2057350Y1533899D02*
X2101050D01*
X2057350Y1532549D02*
X2101050D01*
X2057350Y1531199D02*
X2101050D01*
X2057350Y1529849D02*
X2101050D01*
X2057350Y1528499D02*
X2101050D01*
X2057350Y1527149D02*
X2101050D01*
X2057350Y1525799D02*
X2101050D01*
X2057350Y1524449D02*
X2101050D01*
X2057350Y1523099D02*
X2101050D01*
X2089059Y1521749D02*
X2101050D01*
X2090938Y1520399D02*
X2101050D01*
X2091634Y1519049D02*
X2101050D01*
X2091802Y1517699D02*
X2101050D01*
X2091512Y1516349D02*
X2101050D01*
X2090631Y1514999D02*
X2101050D01*
X2089583Y1513649D02*
X2101050D01*
X2091102Y1512299D02*
X2101050D01*
X2091695Y1510949D02*
X2101050D01*
X2091786Y1509599D02*
X2101050D01*
X2091414Y1508249D02*
X2101050D01*
X2090391Y1506899D02*
X2101050D01*
X2089968Y1505549D02*
X2101050D01*
X2091244Y1504199D02*
X2101050D01*
X2091742Y1502849D02*
X2101050D01*
X2091758Y1501499D02*
X2101050D01*
X2091298Y1500149D02*
X2101050D01*
X2090106Y1498799D02*
X2101050D01*
X2069168Y1497449D02*
X2101050D01*
X2070518Y1496099D02*
X2101050D01*
X2071868Y1494749D02*
X2101050D01*
X2073209Y1493399D02*
X2101050D01*
X2073649Y1492049D02*
X2101050D01*
X2073641Y1490699D02*
X2101050D01*
X2073632Y1489349D02*
X2101050D01*
X2074492Y1487999D02*
X2101050D01*
X2089316Y1486649D02*
X2101050D01*
X2091014Y1485299D02*
X2101050D01*
X2091663Y1483949D02*
X2101050D01*
X2091797Y1482599D02*
X2101050D01*
X2091471Y1481249D02*
X2101050D01*
X2090529Y1479899D02*
X2101050D01*
X2089765Y1478549D02*
X2101050D01*
X2091168Y1477199D02*
X2101050D01*
X2091717Y1475849D02*
X2101050D01*
X2091775Y1474499D02*
X2101050D01*
X2091365Y1473149D02*
X2101050D01*
X2090271Y1471799D02*
X2101050D01*
X2090112Y1470449D02*
X2101050D01*
X2091301Y1469099D02*
X2101050D01*
X2091758Y1467749D02*
X2101050D01*
X2091741Y1466399D02*
X2101050D01*
X2091242Y1465049D02*
X2101050D01*
X2089961Y1463699D02*
X2101050D01*
X2055750Y1462349D02*
X2101050D01*
X2055750Y1460999D02*
X2101050D01*
X2055750Y1459649D02*
X2101050D01*
X2057350Y1566299D02*
X2101023D01*
X2057350Y1586549D02*
X2100902D01*
X2057350Y1567649D02*
X2100902D01*
X2090048Y1563599D02*
X2100814D01*
X2057350Y1595999D02*
X2100813D01*
X2057350Y1624349D02*
X2100731D01*
X2057350Y1659449D02*
X2100701D01*
X2089723Y1640549D02*
X2100653D01*
X2057350Y1647299D02*
X2100607D01*
X2057350Y1649999D02*
X2100591D01*
X2055750Y1458299D02*
X2100584D01*
X2057350Y1656749D02*
X2100578D01*
X2089599Y1564949D02*
X2100488D01*
X2069650Y1681049D02*
X2100476D01*
X2057350Y1606799D02*
X2100415D01*
X2069650Y1690499D02*
X2100414D01*
X2057350Y1631099D02*
X2100378D01*
X2057350Y1618949D02*
X2100344D01*
X2057350Y1581149D02*
X2100344D01*
X2057350Y1590599D02*
X2100292D01*
X2069650Y1689149D02*
X2100290D01*
X2057350Y1574399D02*
X2100290D01*
X2057350Y1608149D02*
X2100290D01*
X2069650Y1679699D02*
X2100268D01*
X2057350Y1658099D02*
X2100252D01*
X2057350Y1648649D02*
X2100250D01*
X2069650Y1678349D02*
X2100250D01*
X2069650Y1687799D02*
X2100212D01*
X2057350Y1612199D02*
X2100212D01*
X2057350Y1600049D02*
X2100177D01*
X2057350Y1602749D02*
X2100176D01*
X2069650Y1685099D02*
X2100143D01*
X2057350Y1609499D02*
X2100143D01*
X2069650Y1675649D02*
X2100111D01*
X2057350Y1571699D02*
X2100080D01*
X2057350Y1628399D02*
X2100024D01*
X2057350Y1577099D02*
X2100023D01*
X2057350Y1633799D02*
X2099973D01*
X2057350Y1605449D02*
X2099950D01*
X2057350Y1652699D02*
X2099929D01*
X2089118Y1672949D02*
X2099910D01*
X2057350Y1654049D02*
X2099910D01*
X2057350Y1643249D02*
X2099909D01*
X2057350Y1644599D02*
X2099891D01*
X2057350Y1614899D02*
X2099890D01*
X2069650Y1682399D02*
X2099857D01*
X2069650Y1683749D02*
X2099841D01*
X2057350Y1613549D02*
X2099816D01*
X2057350Y1645949D02*
X2099815D01*
X2057350Y1641899D02*
X2099804D01*
X2069650Y1674299D02*
X2099804D01*
X2057350Y1655399D02*
X2099804D01*
X2057350Y1651349D02*
X2099794D01*
X2057350Y1604099D02*
X2099784D01*
X2057350Y1632449D02*
X2099776D01*
X2057350Y1575749D02*
X2099763D01*
X2057350Y1629749D02*
X2099763D01*
X2057350Y1573049D02*
X2099755D01*
X2069650Y1676999D02*
X2099752D01*
X2069650Y1686449D02*
X2099750D01*
X2057350Y1610849D02*
X2099750D01*
X2057350Y1601399D02*
X2099750D01*
X2057350Y1587899D02*
X2099715D01*
X2057350Y1568999D02*
X2099715D01*
X2057350Y1616249D02*
X2099696D01*
X2057350Y1597349D02*
X2099696D01*
X2057350Y1578449D02*
X2099696D01*
X2057350Y1625699D02*
X2099679D01*
X2057350Y1627049D02*
X2099610D01*
X2057350Y1617599D02*
X2099599D01*
X2057350Y1598699D02*
X2099599D01*
X2057350Y1579799D02*
X2099599D01*
X2057350Y1589249D02*
X2099590D01*
X2057350Y1570349D02*
X2099590D01*
X1937950Y1897049D02*
X2096060D01*
X2068157Y1860599D02*
X2095843D01*
X2068677Y1879499D02*
X2095323D01*
X2068823Y1859249D02*
X2095177D01*
X2069103Y1880849D02*
X2094897D01*
X2079015Y1820099D02*
X2094800D01*
X2081250Y1830899D02*
X2094773D01*
X2081250Y1838999D02*
X2094547D01*
X2069552Y1888949D02*
X2094448D01*
X2034350Y1799849D02*
X2094295D01*
X2069729Y1851149D02*
X2094271D01*
X2069974Y1868699D02*
X2094026D01*
X2070312Y1848449D02*
X2093688D01*
X1937950Y1917299D02*
X2093590D01*
X2070442Y1871399D02*
X2093558D01*
X2081415Y1841699D02*
X2093516D01*
X2070739Y1861949D02*
X2093261D01*
X2070876Y1857899D02*
X2093124D01*
X2070922Y1878149D02*
X2093078D01*
X2070958Y1882199D02*
X2093042D01*
X2081250Y1832249D02*
X2093002D01*
X2081250Y1837649D02*
X2092924D01*
X2071112Y1887599D02*
X2092888D01*
X2071181Y1852499D02*
X2092819D01*
X2071280Y1867349D02*
X2092720D01*
X2071424Y1847099D02*
X2092576D01*
X2082765Y1843049D02*
X2092501D01*
X2071569Y1872749D02*
X2092431D01*
X2071612Y1863299D02*
X2092388D01*
X2071672Y1856549D02*
X2092328D01*
X2071707Y1883549D02*
X2092293D01*
X2081250Y1833599D02*
X2092276D01*
X2081250Y1836299D02*
X2092244D01*
X2071771Y1886249D02*
X2092229D01*
X2071788Y1876799D02*
X2092212D01*
X2071799Y1853849D02*
X2092201D01*
X2069227Y1898399D02*
X2092164D01*
X2071837Y1865999D02*
X2092163D01*
X2071936Y1864649D02*
X2092064D01*
X2071946Y1855199D02*
X2092054D01*
X2071949Y1884899D02*
X2092051D01*
X2081250Y1834949D02*
X2092050D01*
X2072062Y1874099D02*
X2091938D01*
X2072128Y1875449D02*
X2091872D01*
X2077534Y1818749D02*
X2091755D01*
X2034350Y1801199D02*
X2091534D01*
X2070619Y1915949D02*
X2091182D01*
X2070998Y1899749D02*
X2090343D01*
X2034715Y1817399D02*
X2090079D01*
X2034350Y1802549D02*
X2089933D01*
X2071649Y1914599D02*
X2089695D01*
X2071724Y1901099D02*
X2089114D01*
X2034350Y1816049D02*
X2088927D01*
X2034350Y1803899D02*
X2088823D01*
X2072089Y1913249D02*
X2088654D01*
X2071950Y1902449D02*
X2088238D01*
X2034350Y1814699D02*
X2088104D01*
X2034350Y1805249D02*
X2088031D01*
X2072111Y1911899D02*
X2087911D01*
X2071756Y1903799D02*
X2087621D01*
X2034350Y1813349D02*
X2087530D01*
X2034350Y1806599D02*
X2087480D01*
X2071721Y1910549D02*
X2087400D01*
X2071076Y1905149D02*
X2087215D01*
X2034350Y1811999D02*
X2087161D01*
X2034350Y1807949D02*
X2087132D01*
X2070775Y1909199D02*
X2087088D01*
X2069453Y1906499D02*
X2086998D01*
X2034350Y1810649D02*
X2086977D01*
X2034350Y1809299D02*
X2086967D01*
X1997750Y1907849D02*
X2086956D01*
X2057350Y1544699D02*
X2086542D01*
X2057350Y1535249D02*
X2086486D01*
X2057350Y1521749D02*
X2086341D01*
X2057350Y1540649D02*
X2086276D01*
X2069650Y1728299D02*
X2086213D01*
X2075842Y1486649D02*
X2086084D01*
X2069650Y1672949D02*
X2086082D01*
X2070530Y1668899D02*
X2086020D01*
X2069650Y1763399D02*
X2085978D01*
X2071784Y1701299D02*
X2085896D01*
X2057350Y1513649D02*
X2085817D01*
X2069650Y1736399D02*
X2085728D01*
X2055750Y1478549D02*
X2085635D01*
X2034350Y1771499D02*
X2085555D01*
X2034350Y1786349D02*
X2085512D01*
X2057350Y1548749D02*
X2085455D01*
X2055750Y1463699D02*
X2085439D01*
X2061068Y1505549D02*
X2085432D01*
X2057350Y1640549D02*
X2085426D01*
X2071624Y1564949D02*
X2085401D01*
X2057350Y1637849D02*
X2085396D01*
X2069650Y1744499D02*
X2085362D01*
X2069650Y1751249D02*
X2085361D01*
X2067818Y1498799D02*
X2085294D01*
X2055750Y1470449D02*
X2085288D01*
X2071623Y1562249D02*
X2085278D01*
X2034350Y1779599D02*
X2085224D01*
X2034350Y1778249D02*
X2085189D01*
X2069650Y1671599D02*
X2085148D01*
X2071715Y1697249D02*
X2085146D01*
X2069650Y1670249D02*
X2085135D01*
X2055750Y1471799D02*
X2085129D01*
X2057350Y1546049D02*
X2085077D01*
X2069650Y1743149D02*
X2085065D01*
X2069650Y1714799D02*
X2085052D01*
X2057350Y1639199D02*
X2085025D01*
X2059718Y1506899D02*
X2085009D01*
X2072050Y1563599D02*
X2084952D01*
X2057350Y1536599D02*
X2084928D01*
X2034350Y1770149D02*
X2084921D01*
X2057350Y1539299D02*
X2084883D01*
X2055750Y1479899D02*
X2084871D01*
X2057350Y1547399D02*
X2084868D01*
X2069650Y1709399D02*
X2084859D01*
X2069650Y1735049D02*
X2084816D01*
X2057350Y1514999D02*
X2084769D01*
X2072666Y1699949D02*
X2084633D01*
X2057350Y1537949D02*
X2084575D01*
X2072652Y1698599D02*
X2084482D01*
X2057350Y1520399D02*
X2084462D01*
X2069650Y1729649D02*
X2084426D01*
X2077192Y1485299D02*
X2084386D01*
X2070606Y1764749D02*
X2084352D01*
X2057350Y1512299D02*
X2084298D01*
X2069650Y1737749D02*
X2084266D01*
X2055750Y1477199D02*
X2084232D01*
X2034350Y1772849D02*
X2084203D01*
X2034350Y1784999D02*
X2084187D01*
X2055750Y1465049D02*
X2084158D01*
X2062418Y1504199D02*
X2084156D01*
X2069650Y1745849D02*
X2084128D01*
X2069650Y1749899D02*
X2084128D01*
X2066468Y1500149D02*
X2084102D01*
X2055750Y1469099D02*
X2084099D01*
X2069650Y1713449D02*
X2084079D01*
X2034350Y1780949D02*
X2084073D01*
X2034350Y1776899D02*
X2084059D01*
X2055750Y1473149D02*
X2084035D01*
X2069650Y1741799D02*
X2084009D01*
X2069650Y1710749D02*
X2084008D01*
X2058368Y1508249D02*
X2083986D01*
X2069650Y1733699D02*
X2083907D01*
X2057350Y1516349D02*
X2083888D01*
X2069650Y1712099D02*
X2083789D01*
X2057350Y1519049D02*
X2083766D01*
X2069650Y1730999D02*
X2083752D01*
X2057350Y1510949D02*
X2083705D01*
X2069650Y1739099D02*
X2083694D01*
X2055750Y1475849D02*
X2083683D01*
X2034350Y1774199D02*
X2083673D01*
X2034350Y1783649D02*
X2083668D01*
X2055750Y1466399D02*
X2083659D01*
X2063768Y1502849D02*
X2083658D01*
X2069650Y1747199D02*
X2083650D01*
X2069650Y1748549D02*
X2083650D01*
X2065118Y1501499D02*
X2083642D01*
X2055750Y1467749D02*
X2083642D01*
X2034350Y1782299D02*
X2083635D01*
X2034350Y1775549D02*
X2083631D01*
X2055750Y1474499D02*
X2083625D01*
X2069650Y1740449D02*
X2083619D01*
X2057350Y1509599D02*
X2083614D01*
X2069650Y1732349D02*
X2083600D01*
X2057350Y1517699D02*
X2083598D01*
X2071887Y1845749D02*
X2080232D01*
X2071909Y1844399D02*
X2078882D01*
X2071499Y1843049D02*
X2077708D01*
X2070484Y1841699D02*
X2077550D01*
X2055750Y1840349D02*
X2077550D01*
X2069453Y1838999D02*
X2077550D01*
X2071076Y1837649D02*
X2077550D01*
X2071756Y1836299D02*
X2077550D01*
X2071950Y1834949D02*
X2077550D01*
X2071724Y1833599D02*
X2077550D01*
X2070998Y1832249D02*
X2077550D01*
X2069227Y1830899D02*
X2077550D01*
X2055750Y1829549D02*
X2077550D01*
X2055750Y1828199D02*
X2077550D01*
X2055750Y1826849D02*
X2077550D01*
X2055706Y1825499D02*
X2077550D01*
X2054765Y1824149D02*
X2077550D01*
X2053408Y1822799D02*
X2076482D01*
X2055750Y1481249D02*
X2076116D01*
X2055750Y1482599D02*
X2074659D01*
X2055750Y1483949D02*
X2073309D01*
X2055750Y1485299D02*
X2071959D01*
X2055750Y1486649D02*
X2070609D01*
X2055750Y1490699D02*
X2069940D01*
X2055750Y1489349D02*
X2069932D01*
X2055750Y1487999D02*
X2069927D01*
X2034350Y1768799D02*
X2069567D01*
X2055750Y1492049D02*
X2069335D01*
X2057350Y1664849D02*
X2068253D01*
X2034350Y1767449D02*
X2068069D01*
X2055750Y1493399D02*
X2067985D01*
X2057350Y1562249D02*
X2067777D01*
X2057350Y1564949D02*
X2067776D01*
X2057350Y1666199D02*
X2067404D01*
X2057350Y1563599D02*
X2067350D01*
X2039157Y1860599D02*
X2066843D01*
X2034350Y1766099D02*
X2066771D01*
X2055750Y1494749D02*
X2066635D01*
X2039677Y1879499D02*
X2066323D01*
X2039823Y1859249D02*
X2066177D01*
X2034350Y1764749D02*
X2065967D01*
X2034350Y1763399D02*
X2065950D01*
X2034350Y1762049D02*
X2065950D01*
X2034350Y1760699D02*
X2065950D01*
X2064303Y1759349D02*
X2065950D01*
X2064531Y1757999D02*
X2065950D01*
X2063872Y1756649D02*
X2065950D01*
X2034350Y1755299D02*
X2065950D01*
X2034350Y1753949D02*
X2065950D01*
X2034350Y1752599D02*
X2065950D01*
X2034350Y1751249D02*
X2065950D01*
X2034350Y1749899D02*
X2065950D01*
X2034350Y1748549D02*
X2065950D01*
X2034350Y1747199D02*
X2065950D01*
X2034350Y1745849D02*
X2065950D01*
X2034350Y1744499D02*
X2065950D01*
X2034350Y1743149D02*
X2065950D01*
X2034350Y1741799D02*
X2065950D01*
X2034350Y1740449D02*
X2065950D01*
X2034350Y1739099D02*
X2065950D01*
X2034350Y1737749D02*
X2065950D01*
X2034350Y1736399D02*
X2065950D01*
X2034350Y1735049D02*
X2065950D01*
X2034350Y1733699D02*
X2065950D01*
X2034350Y1732349D02*
X2065950D01*
X2034350Y1730999D02*
X2065950D01*
X2034350Y1729649D02*
X2065950D01*
X2034350Y1728299D02*
X2065950D01*
X2034350Y1726949D02*
X2065950D01*
X2034350Y1725599D02*
X2065950D01*
X2034350Y1724249D02*
X2065950D01*
X2034350Y1722899D02*
X2065950D01*
X2034350Y1721549D02*
X2065950D01*
X2034350Y1720199D02*
X2065950D01*
X2034350Y1718849D02*
X2065950D01*
X2034350Y1717499D02*
X2065950D01*
X2034350Y1716149D02*
X2065950D01*
X2034350Y1714799D02*
X2065950D01*
X2034350Y1713449D02*
X2065950D01*
X2034350Y1712099D02*
X2065950D01*
X2034350Y1710749D02*
X2065950D01*
X2034350Y1709399D02*
X2065950D01*
X2034350Y1708049D02*
X2065950D01*
X2034350Y1706699D02*
X2065950D01*
X2034350Y1705349D02*
X2065950D01*
X2034350Y1703999D02*
X2065950D01*
X2034350Y1702649D02*
X2065950D01*
X2034350Y1701299D02*
X2065950D01*
X2034350Y1699949D02*
X2065950D01*
X2034350Y1698599D02*
X2065950D01*
X2034350Y1697249D02*
X2065950D01*
X2034350Y1695899D02*
X2065950D01*
X2034350Y1694549D02*
X2065950D01*
X2034958Y1693199D02*
X2065950D01*
X2052852Y1691849D02*
X2065950D01*
X2054110Y1690499D02*
X2065950D01*
X2054184Y1689149D02*
X2065950D01*
X2053688Y1687799D02*
X2065950D01*
X2054150Y1686449D02*
X2065950D01*
X2053757Y1685099D02*
X2065950D01*
X2052368Y1683749D02*
X2065950D01*
X2057317Y1678349D02*
X2065950D01*
X2057350Y1676999D02*
X2065950D01*
X2057350Y1675649D02*
X2065950D01*
X2057350Y1674299D02*
X2065950D01*
X2059668Y1672949D02*
X2065950D01*
X2060242Y1671599D02*
X2065950D01*
X2040103Y1880849D02*
X2065897D01*
X2040227Y1898399D02*
X2065773D01*
X2055750Y1830899D02*
X2065773D01*
X2040453Y1906499D02*
X2065547D01*
X2055750Y1838999D02*
X2065547D01*
X2040552Y1888949D02*
X2065448D01*
X2055750Y1496099D02*
X2065285D01*
X2040729Y1851149D02*
X2065271D01*
X2040974Y1868699D02*
X2065026D01*
X2041312Y1848449D02*
X2064688D01*
X2041442Y1871399D02*
X2064558D01*
X2055750Y1841699D02*
X2064516D01*
X2041619Y1915949D02*
X2064381D01*
X2041739Y1861949D02*
X2064261D01*
X2041775Y1909199D02*
X2064225D01*
X2041876Y1857899D02*
X2064124D01*
X2041922Y1878149D02*
X2064078D01*
X2041958Y1882199D02*
X2064042D01*
X2041998Y1899749D02*
X2064002D01*
X2055750Y1832249D02*
X2064002D01*
X2055750Y1497449D02*
X2063935D01*
X2042076Y1905149D02*
X2063924D01*
X2055750Y1837649D02*
X2063924D01*
X2042112Y1887599D02*
X2063888D01*
X2042181Y1852499D02*
X2063819D01*
X2057350Y1667549D02*
X2063728D01*
X2042280Y1867349D02*
X2063720D01*
X2056418Y1679699D02*
X2063692D01*
X2042424Y1847099D02*
X2063576D01*
X2056665Y1843049D02*
X2063501D01*
X2053718Y1682399D02*
X2063479D01*
X2042569Y1872749D02*
X2063431D01*
X2042612Y1863299D02*
X2063388D01*
X2042649Y1914599D02*
X2063351D01*
X2042672Y1856549D02*
X2063328D01*
X2059949Y1670249D02*
X2063297D01*
X2042707Y1883549D02*
X2063293D01*
X2042721Y1910549D02*
X2063279D01*
X2042724Y1901099D02*
X2063276D01*
X2055750Y1833599D02*
X2063276D01*
X2042756Y1903799D02*
X2063244D01*
X2055750Y1836299D02*
X2063244D01*
X2042771Y1886249D02*
X2063229D01*
X2042788Y1876799D02*
X2063212D01*
X2042799Y1853849D02*
X2063201D01*
X2042837Y1865999D02*
X2063163D01*
X2055068Y1681049D02*
X2063155D01*
X2057350Y1668899D02*
X2063069D01*
X2042936Y1864649D02*
X2063064D01*
X2042946Y1855199D02*
X2063054D01*
X2042949Y1884899D02*
X2063051D01*
X2042950Y1902449D02*
X2063050D01*
X2055750Y1834949D02*
X2063050D01*
X2043062Y1874099D02*
X2062938D01*
X2043089Y1913249D02*
X2062911D01*
X2043111Y1911899D02*
X2062889D01*
X2043128Y1875449D02*
X2062872D01*
X2055750Y1498799D02*
X2062585D01*
X2043250Y1500149D02*
X2061235D01*
X2034350Y1756649D02*
X2060528D01*
X2034350Y1759349D02*
X2060097D01*
X2043250Y1501499D02*
X2059885D01*
X2034350Y1757999D02*
X2059869D01*
X2043250Y1502849D02*
X2058535D01*
X2043250Y1504199D02*
X2057185D01*
X2043250Y1505549D02*
X2055835D01*
X2043250Y1506899D02*
X2054485D01*
X2050068Y1845749D02*
X2054132D01*
X2043250Y1508249D02*
X2053667D01*
X2037250Y1676999D02*
X2053650D01*
X2037250Y1675649D02*
X2053650D01*
X2037250Y1674299D02*
X2053650D01*
X2037250Y1672949D02*
X2053650D01*
X2037250Y1671599D02*
X2053650D01*
X2039803Y1670249D02*
X2053650D01*
X2040031Y1668899D02*
X2053650D01*
X2039372Y1667549D02*
X2053650D01*
X2039018Y1666199D02*
X2053650D01*
X2040368Y1664849D02*
X2053650D01*
X2050024Y1663499D02*
X2053650D01*
X2050724Y1662149D02*
X2053650D01*
X2050526Y1660799D02*
X2053650D01*
X2045768Y1659449D02*
X2053650D01*
X2047118Y1658099D02*
X2053650D01*
X2048468Y1656749D02*
X2053650D01*
X2049818Y1655399D02*
X2053650D01*
X2051870Y1654049D02*
X2053650D01*
X2052616Y1652699D02*
X2053650D01*
X2052449Y1651349D02*
X2053650D01*
X2050776Y1649999D02*
X2053650D01*
X2040245Y1648649D02*
X2053650D01*
X2039920Y1647299D02*
X2053650D01*
X2040159Y1645949D02*
X2053650D01*
X2040143Y1644599D02*
X2053650D01*
X2039047Y1643249D02*
X2053650D01*
X2033250Y1641899D02*
X2053650D01*
X2036550Y1636499D02*
X2053650D01*
X2036550Y1635149D02*
X2053650D01*
X2036550Y1633799D02*
X2053650D01*
X2036550Y1632449D02*
X2053650D01*
X2036550Y1631099D02*
X2053650D01*
X2036550Y1629749D02*
X2053650D01*
X2036550Y1628399D02*
X2053650D01*
X2036550Y1627049D02*
X2053650D01*
X2036550Y1625699D02*
X2053650D01*
X2036550Y1624349D02*
X2053650D01*
X2036550Y1622999D02*
X2053650D01*
X2036550Y1621649D02*
X2053650D01*
X2036550Y1620299D02*
X2053650D01*
X2036550Y1618949D02*
X2053650D01*
X2036550Y1617599D02*
X2053650D01*
X2036550Y1616249D02*
X2053650D01*
X2036550Y1614899D02*
X2053650D01*
X2036550Y1613549D02*
X2053650D01*
X2036550Y1612199D02*
X2053650D01*
X2036550Y1610849D02*
X2053650D01*
X2036550Y1609499D02*
X2053650D01*
X2036550Y1608149D02*
X2053650D01*
X2036550Y1606799D02*
X2053650D01*
X2036550Y1605449D02*
X2053650D01*
X2036550Y1604099D02*
X2053650D01*
X2036550Y1602749D02*
X2053650D01*
X2036550Y1601399D02*
X2053650D01*
X2036550Y1600049D02*
X2053650D01*
X2036550Y1598699D02*
X2053650D01*
X2036550Y1597349D02*
X2053650D01*
X2036550Y1595999D02*
X2053650D01*
X2036550Y1594649D02*
X2053650D01*
X2036550Y1593299D02*
X2053650D01*
X2036550Y1591949D02*
X2053650D01*
X2036550Y1590599D02*
X2053650D01*
X2036550Y1589249D02*
X2053650D01*
X2036316Y1587899D02*
X2053650D01*
X2035065Y1586549D02*
X2053650D01*
X2051136Y1585199D02*
X2053650D01*
X2052159Y1583849D02*
X2053650D01*
X2052143Y1582499D02*
X2053650D01*
X2051047Y1581149D02*
X2053650D01*
X2024616Y1579799D02*
X2053650D01*
X2024449Y1578449D02*
X2053650D01*
X2024110Y1577099D02*
X2053650D01*
X2024645Y1575749D02*
X2053650D01*
X2024320Y1574399D02*
X2053650D01*
X2006650Y1573049D02*
X2053650D01*
X2025450Y1567649D02*
X2053650D01*
X2025450Y1566299D02*
X2053650D01*
X2025450Y1564949D02*
X2053650D01*
X2025450Y1563599D02*
X2053650D01*
X2025450Y1562249D02*
X2053650D01*
X2025450Y1560899D02*
X2053650D01*
X2032052Y1559549D02*
X2053650D01*
X2033310Y1558199D02*
X2053650D01*
X2033384Y1556849D02*
X2053650D01*
X2033350Y1555499D02*
X2053650D01*
X2033350Y1554149D02*
X2053650D01*
X2033350Y1552799D02*
X2053650D01*
X2033350Y1551449D02*
X2053650D01*
X2033350Y1550099D02*
X2053650D01*
X2033350Y1548749D02*
X2053650D01*
X2033350Y1547399D02*
X2053650D01*
X2033350Y1546049D02*
X2053650D01*
X2033350Y1544699D02*
X2053650D01*
X2033350Y1543349D02*
X2053650D01*
X2033350Y1541999D02*
X2053650D01*
X2033350Y1540649D02*
X2053650D01*
X2033350Y1539299D02*
X2053650D01*
X2033350Y1537949D02*
X2053650D01*
X2033350Y1536599D02*
X2053650D01*
X2033350Y1535249D02*
X2053650D01*
X2033350Y1533899D02*
X2053650D01*
X2033350Y1532549D02*
X2053650D01*
X2033350Y1531199D02*
X2053650D01*
X2033350Y1529849D02*
X2053650D01*
X2033350Y1528499D02*
X2053650D01*
X2033350Y1527149D02*
X2053650D01*
X2033350Y1525799D02*
X2053650D01*
X2033350Y1524449D02*
X2053650D01*
X2033350Y1523099D02*
X2053650D01*
X2033350Y1521749D02*
X2053650D01*
X2033350Y1520399D02*
X2053650D01*
X2033350Y1519049D02*
X2053650D01*
X2033350Y1517699D02*
X2053650D01*
X2043250Y1516349D02*
X2053650D01*
X2043250Y1514999D02*
X2053650D01*
X2043250Y1513649D02*
X2053650D01*
X2043250Y1512299D02*
X2053650D01*
X2043250Y1510949D02*
X2053650D01*
X2043250Y1509599D02*
X2053650D01*
X2051418Y1844399D02*
X2052782D01*
X2037250Y1678349D02*
X2052535D01*
X2051950Y1843049D02*
X2052056D01*
X2051950Y1841699D02*
X2052050D01*
X2051950Y1840349D02*
X2052050D01*
X2051950Y1838999D02*
X2052050D01*
X2051950Y1837649D02*
X2052050D01*
X2051950Y1836299D02*
X2052050D01*
X2051950Y1834949D02*
X2052050D01*
X2051950Y1833599D02*
X2052050D01*
X2051950Y1832249D02*
X2052050D01*
X2051950Y1830899D02*
X2052050D01*
X2051944Y1829549D02*
X2052050D01*
X2051215Y1828199D02*
X2052050D01*
X2049808Y1826849D02*
X2052050D01*
X2024985Y1571699D02*
X2051478D01*
X2037250Y1679699D02*
X2051185D01*
X2025809Y1568999D02*
X2051124D01*
X2036356Y1691849D02*
X2050948D01*
X2036533Y1637849D02*
X2050937D01*
X2034368Y1640549D02*
X2050936D01*
X2025885Y1570349D02*
X2050863D01*
X2035718Y1639199D02*
X2050550D01*
X2040050Y1687799D02*
X2049912D01*
X2037250Y1681049D02*
X2049835D01*
X2046652Y1649999D02*
X2049824D01*
X2037226Y1690499D02*
X2049690D01*
X2039624Y1689149D02*
X2049616D01*
X2039623Y1686449D02*
X2049450D01*
X2023870Y1581149D02*
X2048753D01*
X2033715Y1585199D02*
X2048664D01*
X2041484Y1841699D02*
X2048250D01*
X2022550Y1840349D02*
X2048250D01*
X2040453Y1838999D02*
X2048250D01*
X2042076Y1837649D02*
X2048250D01*
X2042756Y1836299D02*
X2048250D01*
X2042950Y1834949D02*
X2048250D01*
X2042724Y1833599D02*
X2048250D01*
X2041998Y1832249D02*
X2048250D01*
X2040227Y1830899D02*
X2048250D01*
X2047827Y1651349D02*
X2048151D01*
X2018018Y1582499D02*
X2047657D01*
X2032096Y1583849D02*
X2047641D01*
X2042499Y1843049D02*
X2047535D01*
X2041718Y1663499D02*
X2046776D01*
X2044418Y1660799D02*
X2046274D01*
X2043068Y1662149D02*
X2046076D01*
X2033250Y1655399D02*
X2044585D01*
X2039710Y1649999D02*
X2044548D01*
X2033250Y1654049D02*
X2044287D01*
X2033250Y1651349D02*
X2043373D01*
X2033250Y1652699D02*
X2043328D01*
X2033250Y1656749D02*
X2043235D01*
X2036057Y1658099D02*
X2041885D01*
X2036450Y1659449D02*
X2040535D01*
X2035988Y1660799D02*
X2039185D01*
X2010157Y1860599D02*
X2037843D01*
X2033250Y1662149D02*
X2037835D01*
X2010677Y1879499D02*
X2037323D01*
X2010823Y1859249D02*
X2037177D01*
X2011103Y1880849D02*
X2036897D01*
X1937950Y1898399D02*
X2036773D01*
X2022550Y1830899D02*
X2036773D01*
X2033250Y1643249D02*
X2036753D01*
X1997750Y1906499D02*
X2036547D01*
X2022550Y1838999D02*
X2036547D01*
X2033250Y1663499D02*
X2036485D01*
X2011552Y1888949D02*
X2036448D01*
X2011729Y1851149D02*
X2036271D01*
X2033250Y1649999D02*
X2036090D01*
X2011974Y1868699D02*
X2036026D01*
X2033250Y1647299D02*
X2035880D01*
X2012312Y1848449D02*
X2035688D01*
X2033250Y1644599D02*
X2035657D01*
X2033250Y1645949D02*
X2035641D01*
X2012442Y1871399D02*
X2035558D01*
X2033250Y1648649D02*
X2035555D01*
X2022507Y1841699D02*
X2035516D01*
X1937950Y1915949D02*
X2035381D01*
X2012739Y1861949D02*
X2035261D01*
X1997750Y1909199D02*
X2035225D01*
X2033250Y1664849D02*
X2035135D01*
X2012876Y1857899D02*
X2035124D01*
X2012922Y1878149D02*
X2035078D01*
X2012958Y1882199D02*
X2035042D01*
X1937950Y1899749D02*
X2035002D01*
X2022550Y1832249D02*
X2035002D01*
X2010282Y1905149D02*
X2034924D01*
X2022550Y1837649D02*
X2034924D01*
X2013112Y1887599D02*
X2034888D01*
X2013181Y1852499D02*
X2034819D01*
X2013280Y1867349D02*
X2034720D01*
X2013424Y1847099D02*
X2034576D01*
X2021568Y1843049D02*
X2034501D01*
X2013569Y1872749D02*
X2034431D01*
X2013612Y1863299D02*
X2034388D01*
X2022257Y1914599D02*
X2034351D01*
X2013672Y1856549D02*
X2034328D01*
X2013707Y1883549D02*
X2034293D01*
X2022510Y1910549D02*
X2034279D01*
X2012261Y1901099D02*
X2034276D01*
X2022550Y1833599D02*
X2034276D01*
X2012451Y1903799D02*
X2034244D01*
X2022550Y1836299D02*
X2034244D01*
X2013771Y1886249D02*
X2034229D01*
X2013788Y1876799D02*
X2034212D01*
X2013799Y1853849D02*
X2034201D01*
X2013837Y1865999D02*
X2034163D01*
X2018868Y1845749D02*
X2034113D01*
X2020218Y1844399D02*
X2034091D01*
X2013936Y1864649D02*
X2034064D01*
X2013946Y1855199D02*
X2034054D01*
X2013949Y1884899D02*
X2034051D01*
X2012746Y1902449D02*
X2034050D01*
X2022550Y1834949D02*
X2034050D01*
X2014062Y1874099D02*
X2033938D01*
X2023428Y1913249D02*
X2033911D01*
X2023472Y1911899D02*
X2033889D01*
X2014128Y1875449D02*
X2033872D01*
X2033250Y1666199D02*
X2033784D01*
X2032568Y1689149D02*
X2033550D01*
X2033247Y1687799D02*
X2033550D01*
X2033250Y1686449D02*
X2033550D01*
X2033250Y1685099D02*
X2033550D01*
X2033250Y1683749D02*
X2033550D01*
X2033250Y1682399D02*
X2033550D01*
X2033250Y1681049D02*
X2033550D01*
X2033250Y1679699D02*
X2033550D01*
X2033250Y1678349D02*
X2033550D01*
X2033250Y1676999D02*
X2033550D01*
X2033250Y1675649D02*
X2033550D01*
X2033250Y1674299D02*
X2033550D01*
X2033250Y1672949D02*
X2033550D01*
X2033250Y1671599D02*
X2033550D01*
X2033250Y1670249D02*
X2033550D01*
X2033250Y1668899D02*
X2033550D01*
X2033250Y1667549D02*
X2033550D01*
X2031965Y1821449D02*
X2033532D01*
X2032609Y1631099D02*
X2032850D01*
X2022550Y1629749D02*
X2032850D01*
X2025712Y1628399D02*
X2032850D01*
X2026507Y1627049D02*
X2032850D01*
X2026370Y1625699D02*
X2032850D01*
X2026450Y1624349D02*
X2032850D01*
X2026616Y1622999D02*
X2032850D01*
X2025867Y1621649D02*
X2032850D01*
X2022550Y1620299D02*
X2032850D01*
X2025651Y1618949D02*
X2032850D01*
X2026496Y1617599D02*
X2032850D01*
X2026390Y1616249D02*
X2032850D01*
X2026427Y1614899D02*
X2032850D01*
X2026624Y1613549D02*
X2032850D01*
X2025921Y1612199D02*
X2032850D01*
X2022550Y1610849D02*
X2032850D01*
X2026112Y1609499D02*
X2032850D01*
X2026907Y1608149D02*
X2032850D01*
X2026770Y1606799D02*
X2032850D01*
X2025550Y1605449D02*
X2032850D01*
X2025716Y1604099D02*
X2032850D01*
X2026691Y1602749D02*
X2032850D01*
X2026796Y1601399D02*
X2032850D01*
X2026427Y1595999D02*
X2032850D01*
X2026624Y1594649D02*
X2032850D01*
X2025921Y1593299D02*
X2032850D01*
X2014350Y1591949D02*
X2032850D01*
X2025712Y1590599D02*
X2032850D01*
X2026507Y1589249D02*
X2032532D01*
X2031218Y1690499D02*
X2032427D01*
X2030615Y1820099D02*
X2032182D01*
X2026370Y1587899D02*
X2031182D01*
X2030550Y1691849D02*
X2031052D01*
X2030550Y1818749D02*
X2030912D01*
X2027915Y1825499D02*
X2030782D01*
X2030550Y1817399D02*
X2030650D01*
X2030550Y1816049D02*
X2030650D01*
X2030550Y1814699D02*
X2030650D01*
X2030550Y1813349D02*
X2030650D01*
X2030550Y1811999D02*
X2030650D01*
X2030550Y1810649D02*
X2030650D01*
X2030550Y1809299D02*
X2030650D01*
X2030550Y1807949D02*
X2030650D01*
X2030550Y1806599D02*
X2030650D01*
X2030550Y1805249D02*
X2030650D01*
X2030550Y1803899D02*
X2030650D01*
X2030550Y1802549D02*
X2030650D01*
X2030550Y1801199D02*
X2030650D01*
X2030550Y1799849D02*
X2030650D01*
X2030550Y1798499D02*
X2030650D01*
X2030550Y1797149D02*
X2030650D01*
X2030550Y1795799D02*
X2030650D01*
X2030550Y1794449D02*
X2030650D01*
X2030550Y1793099D02*
X2030650D01*
X2030550Y1791749D02*
X2030650D01*
X2030550Y1790399D02*
X2030650D01*
X2030550Y1789049D02*
X2030650D01*
X2030550Y1787699D02*
X2030650D01*
X2030550Y1786349D02*
X2030650D01*
X2030550Y1784999D02*
X2030650D01*
X2030550Y1783649D02*
X2030650D01*
X2030550Y1782299D02*
X2030650D01*
X2030550Y1780949D02*
X2030650D01*
X2030550Y1779599D02*
X2030650D01*
X2030550Y1778249D02*
X2030650D01*
X2030550Y1776899D02*
X2030650D01*
X2030550Y1775549D02*
X2030650D01*
X2030550Y1774199D02*
X2030650D01*
X2030550Y1772849D02*
X2030650D01*
X2030550Y1771499D02*
X2030650D01*
X2030550Y1770149D02*
X2030650D01*
X2030550Y1768799D02*
X2030650D01*
X2030550Y1767449D02*
X2030650D01*
X2030550Y1766099D02*
X2030650D01*
X2030550Y1764749D02*
X2030650D01*
X2030550Y1763399D02*
X2030650D01*
X2030550Y1762049D02*
X2030650D01*
X2030550Y1760699D02*
X2030650D01*
X2030550Y1759349D02*
X2030650D01*
X2030550Y1757999D02*
X2030650D01*
X2030550Y1756649D02*
X2030650D01*
X2030550Y1755299D02*
X2030650D01*
X2030550Y1753949D02*
X2030650D01*
X2030550Y1752599D02*
X2030650D01*
X2030550Y1751249D02*
X2030650D01*
X2030550Y1749899D02*
X2030650D01*
X2030550Y1748549D02*
X2030650D01*
X2030550Y1747199D02*
X2030650D01*
X2030550Y1745849D02*
X2030650D01*
X2030550Y1744499D02*
X2030650D01*
X2030550Y1743149D02*
X2030650D01*
X2030550Y1741799D02*
X2030650D01*
X2030550Y1740449D02*
X2030650D01*
X2030550Y1739099D02*
X2030650D01*
X2030550Y1737749D02*
X2030650D01*
X2030550Y1736399D02*
X2030650D01*
X2030550Y1735049D02*
X2030650D01*
X2030550Y1733699D02*
X2030650D01*
X2030550Y1732349D02*
X2030650D01*
X2030550Y1730999D02*
X2030650D01*
X2030550Y1729649D02*
X2030650D01*
X2030550Y1728299D02*
X2030650D01*
X2030550Y1726949D02*
X2030650D01*
X2030550Y1725599D02*
X2030650D01*
X2030550Y1724249D02*
X2030650D01*
X2030550Y1722899D02*
X2030650D01*
X2030550Y1721549D02*
X2030650D01*
X2030550Y1720199D02*
X2030650D01*
X2030550Y1718849D02*
X2030650D01*
X2030550Y1717499D02*
X2030650D01*
X2030550Y1716149D02*
X2030650D01*
X2030550Y1714799D02*
X2030650D01*
X2030550Y1713449D02*
X2030650D01*
X2030550Y1712099D02*
X2030650D01*
X2030550Y1710749D02*
X2030650D01*
X2030550Y1709399D02*
X2030650D01*
X2030550Y1708049D02*
X2030650D01*
X2030550Y1706699D02*
X2030650D01*
X2030550Y1705349D02*
X2030650D01*
X2030550Y1703999D02*
X2030650D01*
X2030550Y1702649D02*
X2030650D01*
X2030550Y1701299D02*
X2030650D01*
X2030550Y1699949D02*
X2030650D01*
X2030550Y1698599D02*
X2030650D01*
X2030550Y1697249D02*
X2030650D01*
X2030550Y1695899D02*
X2030650D01*
X2030550Y1694549D02*
X2030650D01*
X2030550Y1693199D02*
X2030650D01*
X2025450Y1559549D02*
X2030148D01*
X2025947Y1600049D02*
X2030032D01*
X2024379Y1597349D02*
X2029751D01*
X2022550Y1631099D02*
X2029591D01*
X2027368Y1686449D02*
X2029550D01*
X2028718Y1685099D02*
X2029550D01*
X2024572Y1598699D02*
X2029458D01*
X2026565Y1824149D02*
X2029432D01*
X2022550Y1632449D02*
X2028794D01*
X2026550Y1687799D02*
X2028685D01*
X2026550Y1822799D02*
X2028082D01*
X2022550Y1633799D02*
X2027516D01*
X2026550Y1689149D02*
X2027337D01*
X2026550Y1821449D02*
X2026967D01*
X2026550Y1820099D02*
X2026850D01*
X2026550Y1818749D02*
X2026850D01*
X2026550Y1817399D02*
X2026850D01*
X2026550Y1816049D02*
X2026850D01*
X2026550Y1814699D02*
X2026850D01*
X2026550Y1813349D02*
X2026850D01*
X2026550Y1811999D02*
X2026850D01*
X2026550Y1810649D02*
X2026850D01*
X2026550Y1809299D02*
X2026850D01*
X2026550Y1807949D02*
X2026850D01*
X2026550Y1806599D02*
X2026850D01*
X2026550Y1805249D02*
X2026850D01*
X2026550Y1803899D02*
X2026850D01*
X2026550Y1802549D02*
X2026850D01*
X2026550Y1801199D02*
X2026850D01*
X2026550Y1799849D02*
X2026850D01*
X2026550Y1798499D02*
X2026850D01*
X2026550Y1797149D02*
X2026850D01*
X2026550Y1795799D02*
X2026850D01*
X2026550Y1794449D02*
X2026850D01*
X2026550Y1793099D02*
X2026850D01*
X2026550Y1791749D02*
X2026850D01*
X2026550Y1790399D02*
X2026850D01*
X2026550Y1789049D02*
X2026850D01*
X2026550Y1787699D02*
X2026850D01*
X2026550Y1786349D02*
X2026850D01*
X2026550Y1784999D02*
X2026850D01*
X2026550Y1783649D02*
X2026850D01*
X2026550Y1782299D02*
X2026850D01*
X2026550Y1780949D02*
X2026850D01*
X2026550Y1779599D02*
X2026850D01*
X2026550Y1778249D02*
X2026850D01*
X2026550Y1776899D02*
X2026850D01*
X2026550Y1775549D02*
X2026850D01*
X2026550Y1774199D02*
X2026850D01*
X2026550Y1772849D02*
X2026850D01*
X2026550Y1771499D02*
X2026850D01*
X2026550Y1770149D02*
X2026850D01*
X2026550Y1768799D02*
X2026850D01*
X2026550Y1767449D02*
X2026850D01*
X2026550Y1766099D02*
X2026850D01*
X2026550Y1764749D02*
X2026850D01*
X2026550Y1763399D02*
X2026850D01*
X2026550Y1762049D02*
X2026850D01*
X2026550Y1760699D02*
X2026850D01*
X2026550Y1759349D02*
X2026850D01*
X2026550Y1757999D02*
X2026850D01*
X2026550Y1756649D02*
X2026850D01*
X2026550Y1755299D02*
X2026850D01*
X2026550Y1753949D02*
X2026850D01*
X2026550Y1752599D02*
X2026850D01*
X2026550Y1751249D02*
X2026850D01*
X2026550Y1749899D02*
X2026850D01*
X2026550Y1748549D02*
X2026850D01*
X2026550Y1747199D02*
X2026850D01*
X2026550Y1745849D02*
X2026850D01*
X2026550Y1744499D02*
X2026850D01*
X2026550Y1743149D02*
X2026850D01*
X2026550Y1741799D02*
X2026850D01*
X2026550Y1740449D02*
X2026850D01*
X2026550Y1739099D02*
X2026850D01*
X2026550Y1737749D02*
X2026850D01*
X2026550Y1736399D02*
X2026850D01*
X2026550Y1735049D02*
X2026850D01*
X2026550Y1733699D02*
X2026850D01*
X2026550Y1732349D02*
X2026850D01*
X2026550Y1730999D02*
X2026850D01*
X2026550Y1729649D02*
X2026850D01*
X2026550Y1728299D02*
X2026850D01*
X2026550Y1726949D02*
X2026850D01*
X2026550Y1725599D02*
X2026850D01*
X2026550Y1724249D02*
X2026850D01*
X2026550Y1722899D02*
X2026850D01*
X2026550Y1721549D02*
X2026850D01*
X2026550Y1720199D02*
X2026850D01*
X2026550Y1718849D02*
X2026850D01*
X2026550Y1717499D02*
X2026850D01*
X2026550Y1716149D02*
X2026850D01*
X2026550Y1714799D02*
X2026850D01*
X2026550Y1713449D02*
X2026850D01*
X2026550Y1712099D02*
X2026850D01*
X2026550Y1710749D02*
X2026850D01*
X2026550Y1709399D02*
X2026850D01*
X2026550Y1708049D02*
X2026850D01*
X2026550Y1706699D02*
X2026850D01*
X2026550Y1705349D02*
X2026850D01*
X2026550Y1703999D02*
X2026850D01*
X2026550Y1702649D02*
X2026850D01*
X2026550Y1701299D02*
X2026850D01*
X2026550Y1699949D02*
X2026850D01*
X2026550Y1698599D02*
X2026850D01*
X2026550Y1697249D02*
X2026850D01*
X2026550Y1695899D02*
X2026850D01*
X2026550Y1694549D02*
X2026850D01*
X2026550Y1693199D02*
X2026850D01*
X2026550Y1691849D02*
X2026850D01*
X2026550Y1690499D02*
X2026850D01*
X2022550Y1829549D02*
X2026732D01*
X2022550Y1635149D02*
X2026213D01*
X2022550Y1682399D02*
X2025950D01*
X2022550Y1681049D02*
X2025950D01*
X2022550Y1679699D02*
X2025950D01*
X2022550Y1678349D02*
X2025950D01*
X2022550Y1676999D02*
X2025950D01*
X2022550Y1675649D02*
X2025950D01*
X2022550Y1674299D02*
X2025950D01*
X2022550Y1672949D02*
X2025950D01*
X2022550Y1671599D02*
X2025950D01*
X2022550Y1670249D02*
X2025950D01*
X2022550Y1668899D02*
X2025950D01*
X2022550Y1667549D02*
X2025950D01*
X2025123Y1652699D02*
X2025950D01*
X2022550Y1651349D02*
X2025950D01*
X2022550Y1649999D02*
X2025950D01*
X2022550Y1648649D02*
X2025950D01*
X2022550Y1647299D02*
X2025950D01*
X2022550Y1645949D02*
X2025950D01*
X2022550Y1644599D02*
X2025950D01*
X2022550Y1643249D02*
X2025950D01*
X2022550Y1641899D02*
X2025950D01*
X2022550Y1640549D02*
X2025950D01*
X2022550Y1639199D02*
X2025950D01*
X2022550Y1637849D02*
X2025950D01*
X2022550Y1636499D02*
X2025950D01*
X2025450Y1558199D02*
X2025512D01*
X2022550Y1828199D02*
X2025382D01*
X2022550Y1683749D02*
X2024835D01*
X2023610Y1597349D02*
X2024221D01*
X2022550Y1826849D02*
X2024032D01*
X2022550Y1685099D02*
X2023485D01*
X2022550Y1652699D02*
X2023477D01*
X2022550Y1666199D02*
X2023415D01*
X2022550Y1609499D02*
X2023088D01*
X2022550Y1825499D02*
X2022950D01*
X2022550Y1686449D02*
X2022851D01*
X2022550Y1824149D02*
X2022850D01*
X2022550Y1822799D02*
X2022850D01*
X2022550Y1821449D02*
X2022850D01*
X2022550Y1820099D02*
X2022850D01*
X2022550Y1818749D02*
X2022850D01*
X2022550Y1817399D02*
X2022850D01*
X2022550Y1816049D02*
X2022850D01*
X2022550Y1814699D02*
X2022850D01*
X2022550Y1813349D02*
X2022850D01*
X2022550Y1811999D02*
X2022850D01*
X2022550Y1810649D02*
X2022850D01*
X2022550Y1809299D02*
X2022850D01*
X2022550Y1807949D02*
X2022850D01*
X2022550Y1806599D02*
X2022850D01*
X2022550Y1805249D02*
X2022850D01*
X2022550Y1803899D02*
X2022850D01*
X2022550Y1802549D02*
X2022850D01*
X2022550Y1801199D02*
X2022850D01*
X2022550Y1799849D02*
X2022850D01*
X2022550Y1798499D02*
X2022850D01*
X2022550Y1797149D02*
X2022850D01*
X2022550Y1795799D02*
X2022850D01*
X2022550Y1794449D02*
X2022850D01*
X2022550Y1793099D02*
X2022850D01*
X2022550Y1791749D02*
X2022850D01*
X2022550Y1790399D02*
X2022850D01*
X2022550Y1789049D02*
X2022850D01*
X2022550Y1787699D02*
X2022850D01*
X2022550Y1786349D02*
X2022850D01*
X2022550Y1784999D02*
X2022850D01*
X2022550Y1783649D02*
X2022850D01*
X2022550Y1782299D02*
X2022850D01*
X2022550Y1780949D02*
X2022850D01*
X2022550Y1779599D02*
X2022850D01*
X2022550Y1778249D02*
X2022850D01*
X2022550Y1776899D02*
X2022850D01*
X2022550Y1775549D02*
X2022850D01*
X2022550Y1774199D02*
X2022850D01*
X2022550Y1772849D02*
X2022850D01*
X2022550Y1771499D02*
X2022850D01*
X2022550Y1770149D02*
X2022850D01*
X2022550Y1768799D02*
X2022850D01*
X2022550Y1767449D02*
X2022850D01*
X2022550Y1766099D02*
X2022850D01*
X2022550Y1764749D02*
X2022850D01*
X2022550Y1763399D02*
X2022850D01*
X2022550Y1762049D02*
X2022850D01*
X2022550Y1760699D02*
X2022850D01*
X2022550Y1759349D02*
X2022850D01*
X2022550Y1757999D02*
X2022850D01*
X2022550Y1756649D02*
X2022850D01*
X2022550Y1755299D02*
X2022850D01*
X2022550Y1753949D02*
X2022850D01*
X2022550Y1752599D02*
X2022850D01*
X2022550Y1751249D02*
X2022850D01*
X2022550Y1749899D02*
X2022850D01*
X2022550Y1748549D02*
X2022850D01*
X2022550Y1747199D02*
X2022850D01*
X2022550Y1745849D02*
X2022850D01*
X2022550Y1744499D02*
X2022850D01*
X2022550Y1743149D02*
X2022850D01*
X2022550Y1741799D02*
X2022850D01*
X2022550Y1740449D02*
X2022850D01*
X2022550Y1739099D02*
X2022850D01*
X2022550Y1737749D02*
X2022850D01*
X2022550Y1736399D02*
X2022850D01*
X2022550Y1735049D02*
X2022850D01*
X2022550Y1733699D02*
X2022850D01*
X2022550Y1732349D02*
X2022850D01*
X2022550Y1730999D02*
X2022850D01*
X2022550Y1729649D02*
X2022850D01*
X2022550Y1728299D02*
X2022850D01*
X2022550Y1726949D02*
X2022850D01*
X2022550Y1725599D02*
X2022850D01*
X2022550Y1724249D02*
X2022850D01*
X2022550Y1722899D02*
X2022850D01*
X2022550Y1721549D02*
X2022850D01*
X2022550Y1720199D02*
X2022850D01*
X2022550Y1718849D02*
X2022850D01*
X2022550Y1717499D02*
X2022850D01*
X2022550Y1716149D02*
X2022850D01*
X2022550Y1714799D02*
X2022850D01*
X2022550Y1713449D02*
X2022850D01*
X2022550Y1712099D02*
X2022850D01*
X2022550Y1710749D02*
X2022850D01*
X2022550Y1709399D02*
X2022850D01*
X2022550Y1708049D02*
X2022850D01*
X2022550Y1706699D02*
X2022850D01*
X2022550Y1705349D02*
X2022850D01*
X2022550Y1703999D02*
X2022850D01*
X2022550Y1702649D02*
X2022850D01*
X2022550Y1701299D02*
X2022850D01*
X2022550Y1699949D02*
X2022850D01*
X2022550Y1698599D02*
X2022850D01*
X2022550Y1697249D02*
X2022850D01*
X2022550Y1695899D02*
X2022850D01*
X2022550Y1694549D02*
X2022850D01*
X2022550Y1693199D02*
X2022850D01*
X2022550Y1691849D02*
X2022850D01*
X2022550Y1690499D02*
X2022850D01*
X2022550Y1689149D02*
X2022850D01*
X2022550Y1687799D02*
X2022850D01*
X2022550Y1618949D02*
X2022749D01*
X2022550Y1621649D02*
X2022733D01*
X2016668Y1583849D02*
X2022733D01*
X2022550Y1628399D02*
X2022688D01*
X2014350Y1590599D02*
X2022688D01*
X2022550Y1612199D02*
X2022679D01*
X2014350Y1593299D02*
X2022679D01*
X2006650Y1571699D02*
X2022215D01*
X2014350Y1595999D02*
X2022173D01*
X2014350Y1586549D02*
X2022150D01*
X2014350Y1587899D02*
X2022030D01*
X2015318Y1585199D02*
X2021984D01*
X2014350Y1594649D02*
X2021976D01*
X2014350Y1589249D02*
X2021893D01*
X2006650Y1567649D02*
X2021750D01*
X2006650Y1566299D02*
X2021750D01*
X2006650Y1564949D02*
X2021750D01*
X2006650Y1563599D02*
X2021750D01*
X2006650Y1562249D02*
X2021750D01*
X2006650Y1560899D02*
X2021750D01*
X2006650Y1559549D02*
X2021750D01*
X2006650Y1558199D02*
X2021750D01*
X2021552Y1552799D02*
X2021750D01*
X2019649Y1551449D02*
X2021750D01*
X2006650Y1550099D02*
X2021750D01*
X2014683Y1548749D02*
X2021750D01*
X2021368Y1547399D02*
X2021750D01*
X2006650Y1568999D02*
X2021391D01*
X2006650Y1570349D02*
X2021315D01*
X2018650Y1602749D02*
X2021304D01*
X2019659Y1601399D02*
X2021243D01*
X2014350Y1597349D02*
X2020990D01*
X2019368Y1581149D02*
X2020730D01*
X2008652Y1574399D02*
X2020280D01*
X2011148Y1914599D02*
X2020143D01*
X2011342Y1910549D02*
X2019890D01*
X2018650Y1604099D02*
X2019619D01*
X2011074Y1575749D02*
X2019535D01*
X2006650Y1556849D02*
X2019187D01*
X2012138Y1913249D02*
X2018972D01*
X2012178Y1911899D02*
X2018928D01*
X2018650Y1605449D02*
X2018856D01*
X1997150Y1840349D02*
X2018850D01*
X2011453Y1838999D02*
X2018850D01*
X2013076Y1837649D02*
X2018850D01*
X2013756Y1836299D02*
X2018850D01*
X2013950Y1834949D02*
X2018850D01*
X2013724Y1833599D02*
X2018850D01*
X2012998Y1832249D02*
X2018850D01*
X2011227Y1830899D02*
X2018850D01*
X2014266Y1829549D02*
X2018850D01*
X2015618Y1828199D02*
X2018850D01*
X2016968Y1826849D02*
X2018850D01*
X2018288Y1825499D02*
X2018850D01*
X2018650Y1824149D02*
X2018850D01*
X2018650Y1822799D02*
X2018850D01*
X2018650Y1821449D02*
X2018850D01*
X2018650Y1820099D02*
X2018850D01*
X2018650Y1818749D02*
X2018850D01*
X2018650Y1817399D02*
X2018850D01*
X2018650Y1816049D02*
X2018850D01*
X2018650Y1814699D02*
X2018850D01*
X2018650Y1813349D02*
X2018850D01*
X2018650Y1811999D02*
X2018850D01*
X2018650Y1810649D02*
X2018850D01*
X2018650Y1809299D02*
X2018850D01*
X2018650Y1807949D02*
X2018850D01*
X2018650Y1806599D02*
X2018850D01*
X2018650Y1805249D02*
X2018850D01*
X2018650Y1803899D02*
X2018850D01*
X2018650Y1802549D02*
X2018850D01*
X2018650Y1801199D02*
X2018850D01*
X2018650Y1799849D02*
X2018850D01*
X2018650Y1798499D02*
X2018850D01*
X2018650Y1797149D02*
X2018850D01*
X2018650Y1795799D02*
X2018850D01*
X2018650Y1794449D02*
X2018850D01*
X2018650Y1793099D02*
X2018850D01*
X2018650Y1791749D02*
X2018850D01*
X2018650Y1790399D02*
X2018850D01*
X2018650Y1789049D02*
X2018850D01*
X2018650Y1787699D02*
X2018850D01*
X2018650Y1786349D02*
X2018850D01*
X2018650Y1784999D02*
X2018850D01*
X2018650Y1783649D02*
X2018850D01*
X2018650Y1782299D02*
X2018850D01*
X2018650Y1780949D02*
X2018850D01*
X2018650Y1779599D02*
X2018850D01*
X2018650Y1778249D02*
X2018850D01*
X2018650Y1776899D02*
X2018850D01*
X2018650Y1775549D02*
X2018850D01*
X2018650Y1774199D02*
X2018850D01*
X2018650Y1772849D02*
X2018850D01*
X2018650Y1771499D02*
X2018850D01*
X2018650Y1770149D02*
X2018850D01*
X2018650Y1768799D02*
X2018850D01*
X2018650Y1767449D02*
X2018850D01*
X2018650Y1766099D02*
X2018850D01*
X2018650Y1764749D02*
X2018850D01*
X2018650Y1763399D02*
X2018850D01*
X2018650Y1762049D02*
X2018850D01*
X2018650Y1760699D02*
X2018850D01*
X2018650Y1759349D02*
X2018850D01*
X2018650Y1757999D02*
X2018850D01*
X2018650Y1756649D02*
X2018850D01*
X2018650Y1755299D02*
X2018850D01*
X2018650Y1753949D02*
X2018850D01*
X2018650Y1752599D02*
X2018850D01*
X2018650Y1751249D02*
X2018850D01*
X2018650Y1749899D02*
X2018850D01*
X2018650Y1748549D02*
X2018850D01*
X2018650Y1747199D02*
X2018850D01*
X2018650Y1745849D02*
X2018850D01*
X2018650Y1744499D02*
X2018850D01*
X2018650Y1743149D02*
X2018850D01*
X2018650Y1741799D02*
X2018850D01*
X2018650Y1740449D02*
X2018850D01*
X2018650Y1739099D02*
X2018850D01*
X2018650Y1737749D02*
X2018850D01*
X2018650Y1736399D02*
X2018850D01*
X2018650Y1735049D02*
X2018850D01*
X2018650Y1733699D02*
X2018850D01*
X2018650Y1732349D02*
X2018850D01*
X2018650Y1730999D02*
X2018850D01*
X2018650Y1729649D02*
X2018850D01*
X2018650Y1728299D02*
X2018850D01*
X2018650Y1726949D02*
X2018850D01*
X2018650Y1725599D02*
X2018850D01*
X2018650Y1724249D02*
X2018850D01*
X2018650Y1722899D02*
X2018850D01*
X2018650Y1721549D02*
X2018850D01*
X2018650Y1720199D02*
X2018850D01*
X2018650Y1718849D02*
X2018850D01*
X2018650Y1717499D02*
X2018850D01*
X2018650Y1716149D02*
X2018850D01*
X2018650Y1714799D02*
X2018850D01*
X2018650Y1713449D02*
X2018850D01*
X2018650Y1712099D02*
X2018850D01*
X2018650Y1710749D02*
X2018850D01*
X2018650Y1709399D02*
X2018850D01*
X2018650Y1708049D02*
X2018850D01*
X2018650Y1706699D02*
X2018850D01*
X2018650Y1705349D02*
X2018850D01*
X2018650Y1703999D02*
X2018850D01*
X2018650Y1702649D02*
X2018850D01*
X2018650Y1701299D02*
X2018850D01*
X2018650Y1699949D02*
X2018850D01*
X2018650Y1698599D02*
X2018850D01*
X2018650Y1697249D02*
X2018850D01*
X2018650Y1695899D02*
X2018850D01*
X2018650Y1694549D02*
X2018850D01*
X2018650Y1693199D02*
X2018850D01*
X2018650Y1691849D02*
X2018850D01*
X2018650Y1690499D02*
X2018850D01*
X2018650Y1689149D02*
X2018850D01*
X2018650Y1687799D02*
X2018850D01*
X2018650Y1686449D02*
X2018850D01*
X2018650Y1685099D02*
X2018850D01*
X2018650Y1683749D02*
X2018850D01*
X2018650Y1682399D02*
X2018850D01*
X2018650Y1681049D02*
X2018850D01*
X2018650Y1679699D02*
X2018850D01*
X2018650Y1678349D02*
X2018850D01*
X2018650Y1676999D02*
X2018850D01*
X2018650Y1675649D02*
X2018850D01*
X2018650Y1674299D02*
X2018850D01*
X2018650Y1672949D02*
X2018850D01*
X2018650Y1671599D02*
X2018850D01*
X2018650Y1670249D02*
X2018850D01*
X2018650Y1668899D02*
X2018850D01*
X2018650Y1667549D02*
X2018850D01*
X2018650Y1666199D02*
X2018850D01*
X2018650Y1664849D02*
X2018850D01*
X2018650Y1663499D02*
X2018850D01*
X2018650Y1662149D02*
X2018850D01*
X2018650Y1660799D02*
X2018850D01*
X2018650Y1659449D02*
X2018850D01*
X2018650Y1658099D02*
X2018850D01*
X2018650Y1656749D02*
X2018850D01*
X2018650Y1655399D02*
X2018850D01*
X2018650Y1654049D02*
X2018850D01*
X2018650Y1652699D02*
X2018850D01*
X2018650Y1651349D02*
X2018850D01*
X2018650Y1649999D02*
X2018850D01*
X2018650Y1648649D02*
X2018850D01*
X2018650Y1647299D02*
X2018850D01*
X2018650Y1645949D02*
X2018850D01*
X2018650Y1644599D02*
X2018850D01*
X2018650Y1643249D02*
X2018850D01*
X2018650Y1641899D02*
X2018850D01*
X2018650Y1640549D02*
X2018850D01*
X2018650Y1639199D02*
X2018850D01*
X2018650Y1637849D02*
X2018850D01*
X2018650Y1636499D02*
X2018850D01*
X2018650Y1635149D02*
X2018850D01*
X2018650Y1633799D02*
X2018850D01*
X2018650Y1632449D02*
X2018850D01*
X2018650Y1631099D02*
X2018850D01*
X2018650Y1629749D02*
X2018850D01*
X2018650Y1628399D02*
X2018850D01*
X2018650Y1627049D02*
X2018850D01*
X2018650Y1625699D02*
X2018850D01*
X2018650Y1624349D02*
X2018850D01*
X2018650Y1622999D02*
X2018850D01*
X2018650Y1621649D02*
X2018850D01*
X2018650Y1620299D02*
X2018850D01*
X2018650Y1618949D02*
X2018850D01*
X2018650Y1617599D02*
X2018850D01*
X2018650Y1616249D02*
X2018850D01*
X2018650Y1614899D02*
X2018850D01*
X2018650Y1613549D02*
X2018850D01*
X2018650Y1612199D02*
X2018850D01*
X2018650Y1610849D02*
X2018850D01*
X2018650Y1609499D02*
X2018850D01*
X2018650Y1608149D02*
X2018850D01*
X2018650Y1606799D02*
X2018850D01*
X2006650Y1555499D02*
X2018228D01*
X2012570Y1577099D02*
X2018185D01*
X2012484Y1841699D02*
X2017685D01*
X2014350Y1598699D02*
X2017126D01*
X2012707Y1578449D02*
X2016835D01*
X2013499Y1843049D02*
X2016335D01*
X2006650Y1554149D02*
X2015832D01*
X2014350Y1600049D02*
X2015776D01*
X2006650Y1551449D02*
X2015551D01*
X2012250Y1579799D02*
X2015485D01*
X2006650Y1552799D02*
X2015258D01*
X2014350Y1601399D02*
X2014966D01*
X2013988Y1822799D02*
X2014950D01*
X2014350Y1821449D02*
X2014950D01*
X2014350Y1820099D02*
X2014950D01*
X2014350Y1818749D02*
X2014950D01*
X2014350Y1817399D02*
X2014950D01*
X2014350Y1816049D02*
X2014950D01*
X2014350Y1814699D02*
X2014950D01*
X2014350Y1813349D02*
X2014950D01*
X2014350Y1811999D02*
X2014950D01*
X2014350Y1810649D02*
X2014950D01*
X2014350Y1809299D02*
X2014950D01*
X2014350Y1807949D02*
X2014950D01*
X2014350Y1806599D02*
X2014950D01*
X2014350Y1805249D02*
X2014950D01*
X2014350Y1803899D02*
X2014950D01*
X2014350Y1802549D02*
X2014950D01*
X2014350Y1801199D02*
X2014950D01*
X2014350Y1799849D02*
X2014950D01*
X2014350Y1798499D02*
X2014950D01*
X2014350Y1797149D02*
X2014950D01*
X2014350Y1795799D02*
X2014950D01*
X2014350Y1794449D02*
X2014950D01*
X2014350Y1793099D02*
X2014950D01*
X2014350Y1791749D02*
X2014950D01*
X2014350Y1790399D02*
X2014950D01*
X2014350Y1789049D02*
X2014950D01*
X2014350Y1787699D02*
X2014950D01*
X2014350Y1786349D02*
X2014950D01*
X2014350Y1784999D02*
X2014950D01*
X2014350Y1783649D02*
X2014950D01*
X2014350Y1782299D02*
X2014950D01*
X2014350Y1780949D02*
X2014950D01*
X2014350Y1779599D02*
X2014950D01*
X2014350Y1778249D02*
X2014950D01*
X2014350Y1776899D02*
X2014950D01*
X2014350Y1775549D02*
X2014950D01*
X2014350Y1774199D02*
X2014950D01*
X2014350Y1772849D02*
X2014950D01*
X2014350Y1771499D02*
X2014950D01*
X2014350Y1770149D02*
X2014950D01*
X2014350Y1768799D02*
X2014950D01*
X2014350Y1767449D02*
X2014950D01*
X2014350Y1766099D02*
X2014950D01*
X2014350Y1764749D02*
X2014950D01*
X2014350Y1763399D02*
X2014950D01*
X2014350Y1762049D02*
X2014950D01*
X2014350Y1760699D02*
X2014950D01*
X2014350Y1759349D02*
X2014950D01*
X2014350Y1757999D02*
X2014950D01*
X2014350Y1756649D02*
X2014950D01*
X2014350Y1755299D02*
X2014950D01*
X2014350Y1753949D02*
X2014950D01*
X2014350Y1752599D02*
X2014950D01*
X2014350Y1751249D02*
X2014950D01*
X2014350Y1749899D02*
X2014950D01*
X2014350Y1748549D02*
X2014950D01*
X2014350Y1747199D02*
X2014950D01*
X2014350Y1745849D02*
X2014950D01*
X2014350Y1744499D02*
X2014950D01*
X2014350Y1743149D02*
X2014950D01*
X2014350Y1741799D02*
X2014950D01*
X2014350Y1740449D02*
X2014950D01*
X2014350Y1739099D02*
X2014950D01*
X2014350Y1737749D02*
X2014950D01*
X2014350Y1736399D02*
X2014950D01*
X2014350Y1735049D02*
X2014950D01*
X2014350Y1733699D02*
X2014950D01*
X2014350Y1732349D02*
X2014950D01*
X2014350Y1730999D02*
X2014950D01*
X2014350Y1729649D02*
X2014950D01*
X2014350Y1728299D02*
X2014950D01*
X2014350Y1726949D02*
X2014950D01*
X2014350Y1725599D02*
X2014950D01*
X2014350Y1724249D02*
X2014950D01*
X2014350Y1722899D02*
X2014950D01*
X2014350Y1721549D02*
X2014950D01*
X2014350Y1720199D02*
X2014950D01*
X2014350Y1718849D02*
X2014950D01*
X2014350Y1717499D02*
X2014950D01*
X2014350Y1716149D02*
X2014950D01*
X2014350Y1714799D02*
X2014950D01*
X2014350Y1713449D02*
X2014950D01*
X2014350Y1712099D02*
X2014950D01*
X2014350Y1710749D02*
X2014950D01*
X2014350Y1709399D02*
X2014950D01*
X2014350Y1708049D02*
X2014950D01*
X2014350Y1706699D02*
X2014950D01*
X2014350Y1705349D02*
X2014950D01*
X2014350Y1703999D02*
X2014950D01*
X2014350Y1702649D02*
X2014950D01*
X2014350Y1701299D02*
X2014950D01*
X2014350Y1699949D02*
X2014950D01*
X2014350Y1698599D02*
X2014950D01*
X2014350Y1697249D02*
X2014950D01*
X2014350Y1695899D02*
X2014950D01*
X2014350Y1694549D02*
X2014950D01*
X2014350Y1693199D02*
X2014950D01*
X2014350Y1691849D02*
X2014950D01*
X2014350Y1690499D02*
X2014950D01*
X2014350Y1689149D02*
X2014950D01*
X2014350Y1687799D02*
X2014950D01*
X2014350Y1686449D02*
X2014950D01*
X2014350Y1685099D02*
X2014950D01*
X2014350Y1683749D02*
X2014950D01*
X2014350Y1682399D02*
X2014950D01*
X2014350Y1681049D02*
X2014950D01*
X2014350Y1679699D02*
X2014950D01*
X2014350Y1678349D02*
X2014950D01*
X2014350Y1676999D02*
X2014950D01*
X2014350Y1675649D02*
X2014950D01*
X2014350Y1674299D02*
X2014950D01*
X2014350Y1672949D02*
X2014950D01*
X2014350Y1671599D02*
X2014950D01*
X2014350Y1670249D02*
X2014950D01*
X2014350Y1668899D02*
X2014950D01*
X2014350Y1667549D02*
X2014950D01*
X2014350Y1666199D02*
X2014950D01*
X2014350Y1664849D02*
X2014950D01*
X2014350Y1663499D02*
X2014950D01*
X2014350Y1662149D02*
X2014950D01*
X2014350Y1660799D02*
X2014950D01*
X2014350Y1659449D02*
X2014950D01*
X2014350Y1658099D02*
X2014950D01*
X2014350Y1656749D02*
X2014950D01*
X2014350Y1655399D02*
X2014950D01*
X2014350Y1654049D02*
X2014950D01*
X2014350Y1652699D02*
X2014950D01*
X2014350Y1651349D02*
X2014950D01*
X2014350Y1649999D02*
X2014950D01*
X2014350Y1648649D02*
X2014950D01*
X2014350Y1647299D02*
X2014950D01*
X2014350Y1645949D02*
X2014950D01*
X2014350Y1644599D02*
X2014950D01*
X2014350Y1643249D02*
X2014950D01*
X2014350Y1641899D02*
X2014950D01*
X2014350Y1640549D02*
X2014950D01*
X2014350Y1639199D02*
X2014950D01*
X2014350Y1637849D02*
X2014950D01*
X2014350Y1636499D02*
X2014950D01*
X2014350Y1635149D02*
X2014950D01*
X2014350Y1633799D02*
X2014950D01*
X2014350Y1632449D02*
X2014950D01*
X2014350Y1631099D02*
X2014950D01*
X2014350Y1629749D02*
X2014950D01*
X2014350Y1628399D02*
X2014950D01*
X2014350Y1627049D02*
X2014950D01*
X2014350Y1625699D02*
X2014950D01*
X2014350Y1624349D02*
X2014950D01*
X2014350Y1622999D02*
X2014950D01*
X2014350Y1621649D02*
X2014950D01*
X2014350Y1620299D02*
X2014950D01*
X2014350Y1618949D02*
X2014950D01*
X2014350Y1617599D02*
X2014950D01*
X2014350Y1616249D02*
X2014950D01*
X2014350Y1614899D02*
X2014950D01*
X2014350Y1613549D02*
X2014950D01*
X2014350Y1612199D02*
X2014950D01*
X2014350Y1610849D02*
X2014950D01*
X2014350Y1609499D02*
X2014950D01*
X2014350Y1608149D02*
X2014950D01*
X2014350Y1606799D02*
X2014950D01*
X2014350Y1605449D02*
X2014950D01*
X2014350Y1604099D02*
X2014950D01*
X2014350Y1602749D02*
X2014950D01*
X2012668Y1824149D02*
X2014435D01*
X2012250Y1581149D02*
X2014135D01*
X2006650Y1548749D02*
X2013317D01*
X2011285Y1825499D02*
X2013085D01*
X2012250Y1582499D02*
X2012785D01*
X2006650Y1547399D02*
X2011829D01*
X1957243Y1820099D02*
X2010650D01*
X1956147Y1818749D02*
X2010650D01*
X1937950Y1817399D02*
X2010650D01*
X2006650Y1816049D02*
X2010650D01*
X2006650Y1814699D02*
X2010650D01*
X2006650Y1813349D02*
X2010650D01*
X2006650Y1811999D02*
X2010650D01*
X2006650Y1810649D02*
X2010650D01*
X2006650Y1809299D02*
X2010650D01*
X2006650Y1807949D02*
X2010650D01*
X2006650Y1806599D02*
X2010650D01*
X2006650Y1805249D02*
X2010650D01*
X2006650Y1803899D02*
X2010650D01*
X2006650Y1802549D02*
X2010650D01*
X2006650Y1801199D02*
X2010650D01*
X2006650Y1799849D02*
X2010650D01*
X2006650Y1798499D02*
X2010650D01*
X2006650Y1797149D02*
X2010650D01*
X2006650Y1795799D02*
X2010650D01*
X2006650Y1794449D02*
X2010650D01*
X2006650Y1793099D02*
X2010650D01*
X2006650Y1791749D02*
X2010650D01*
X2006650Y1790399D02*
X2010650D01*
X2006650Y1789049D02*
X2010650D01*
X2006650Y1787699D02*
X2010650D01*
X2006650Y1786349D02*
X2010650D01*
X2006650Y1784999D02*
X2010650D01*
X2006650Y1783649D02*
X2010650D01*
X2006650Y1782299D02*
X2010650D01*
X2006650Y1780949D02*
X2010650D01*
X2006650Y1779599D02*
X2010650D01*
X2006650Y1778249D02*
X2010650D01*
X2006650Y1776899D02*
X2010650D01*
X2006650Y1775549D02*
X2010650D01*
X2006650Y1774199D02*
X2010650D01*
X2006650Y1772849D02*
X2010650D01*
X2006650Y1771499D02*
X2010650D01*
X2006650Y1770149D02*
X2010650D01*
X2006650Y1768799D02*
X2010650D01*
X2006650Y1767449D02*
X2010650D01*
X2006650Y1766099D02*
X2010650D01*
X2006650Y1764749D02*
X2010650D01*
X2006650Y1763399D02*
X2010650D01*
X2006650Y1762049D02*
X2010650D01*
X2006650Y1760699D02*
X2010650D01*
X2006650Y1759349D02*
X2010650D01*
X2006650Y1757999D02*
X2010650D01*
X2006650Y1756649D02*
X2010650D01*
X2006650Y1755299D02*
X2010650D01*
X2006650Y1753949D02*
X2010650D01*
X2006650Y1752599D02*
X2010650D01*
X2006650Y1751249D02*
X2010650D01*
X2006650Y1749899D02*
X2010650D01*
X2006650Y1748549D02*
X2010650D01*
X2006650Y1747199D02*
X2010650D01*
X2006650Y1745849D02*
X2010650D01*
X2006650Y1744499D02*
X2010650D01*
X2006650Y1743149D02*
X2010650D01*
X2006650Y1741799D02*
X2010650D01*
X2006650Y1740449D02*
X2010650D01*
X2006650Y1739099D02*
X2010650D01*
X2006650Y1737749D02*
X2010650D01*
X2006650Y1736399D02*
X2010650D01*
X2006650Y1735049D02*
X2010650D01*
X2006650Y1733699D02*
X2010650D01*
X2006650Y1732349D02*
X2010650D01*
X2006650Y1730999D02*
X2010650D01*
X2006650Y1729649D02*
X2010650D01*
X2006650Y1728299D02*
X2010650D01*
X2006650Y1726949D02*
X2010650D01*
X2006650Y1725599D02*
X2010650D01*
X2006650Y1724249D02*
X2010650D01*
X2006650Y1722899D02*
X2010650D01*
X2006650Y1721549D02*
X2010650D01*
X2006650Y1720199D02*
X2010650D01*
X2006650Y1718849D02*
X2010650D01*
X2006650Y1717499D02*
X2010650D01*
X2006650Y1716149D02*
X2010650D01*
X2006650Y1714799D02*
X2010650D01*
X2006650Y1713449D02*
X2010650D01*
X2006650Y1712099D02*
X2010650D01*
X2006650Y1710749D02*
X2010650D01*
X2006650Y1709399D02*
X2010650D01*
X2006650Y1708049D02*
X2010650D01*
X2006650Y1706699D02*
X2010650D01*
X2006650Y1705349D02*
X2010650D01*
X2006650Y1703999D02*
X2010650D01*
X2006650Y1702649D02*
X2010650D01*
X2006650Y1701299D02*
X2010650D01*
X2009499Y1699949D02*
X2010650D01*
X2009948Y1698599D02*
X2010650D01*
X2009622Y1697249D02*
X2010650D01*
X2006650Y1695899D02*
X2010650D01*
X2006650Y1694549D02*
X2010650D01*
X2006650Y1693199D02*
X2010650D01*
X2006650Y1691849D02*
X2010650D01*
X2006650Y1690499D02*
X2010650D01*
X2008645Y1689149D02*
X2010650D01*
X2009232Y1687799D02*
X2010650D01*
X2009023Y1686449D02*
X2010650D01*
X2007558Y1685099D02*
X2010650D01*
X2006650Y1683749D02*
X2010650D01*
X2006650Y1682399D02*
X2010650D01*
X2006650Y1681049D02*
X2010650D01*
X2006650Y1679699D02*
X2010650D01*
X2006650Y1678349D02*
X2010650D01*
X2006650Y1676999D02*
X2010650D01*
X2006650Y1675649D02*
X2010650D01*
X2006650Y1674299D02*
X2010650D01*
X2006650Y1672949D02*
X2010650D01*
X2006650Y1671599D02*
X2010650D01*
X2006650Y1670249D02*
X2010650D01*
X2006650Y1668899D02*
X2010650D01*
X2006650Y1667549D02*
X2010650D01*
X2006650Y1666199D02*
X2010650D01*
X2008451Y1664849D02*
X2010650D01*
X1957259Y1821449D02*
X2010135D01*
X1997750Y1905149D02*
X2010118D01*
X2006650Y1546049D02*
X2009230D01*
X1981157Y1860599D02*
X2008843D01*
X2006650Y1544699D02*
X2008484D01*
X1981677Y1879499D02*
X2008323D01*
X1997452Y1914599D02*
X2008252D01*
X1981823Y1859249D02*
X2008177D01*
X1937950Y1901099D02*
X2008139D01*
X1997750Y1910549D02*
X2008058D01*
X1997750Y1903799D02*
X2007949D01*
X1982103Y1880849D02*
X2007897D01*
X1997150Y1830899D02*
X2007773D01*
X1997748Y1902449D02*
X2007654D01*
X1997150Y1838999D02*
X2007547D01*
X1982552Y1888949D02*
X2007448D01*
X1982729Y1851149D02*
X2007271D01*
X1997750Y1913249D02*
X2007262D01*
X1997750Y1911899D02*
X2007222D01*
X2006650Y1543349D02*
X2007150D01*
X1996249Y1868699D02*
X2007026D01*
X1983312Y1848449D02*
X2006688D01*
X2006650Y1541999D02*
X2006652D01*
X1996063Y1871399D02*
X2006558D01*
X1997150Y1841699D02*
X2006516D01*
X1983739Y1861949D02*
X2006261D01*
X1983876Y1857899D02*
X2006124D01*
X1983922Y1878149D02*
X2006078D01*
X1983958Y1882199D02*
X2006042D01*
X1997150Y1832249D02*
X2006002D01*
X1997150Y1837649D02*
X2005924D01*
X1984112Y1887599D02*
X2005888D01*
X1984181Y1852499D02*
X2005819D01*
X1984280Y1867349D02*
X2005720D01*
X1984424Y1847099D02*
X2005576D01*
X1996750Y1843049D02*
X2005501D01*
X1984569Y1872749D02*
X2005431D01*
X1984612Y1863299D02*
X2005388D01*
X1984672Y1856549D02*
X2005328D01*
X1984707Y1883549D02*
X2005293D01*
X1997150Y1833599D02*
X2005276D01*
X1997150Y1836299D02*
X2005244D01*
X1984771Y1886249D02*
X2005229D01*
X1984788Y1876799D02*
X2005212D01*
X1984799Y1853849D02*
X2005201D01*
X1984837Y1865999D02*
X2005163D01*
X1994068Y1845749D02*
X2005113D01*
X1995418Y1844399D02*
X2005091D01*
X1984936Y1864649D02*
X2005064D01*
X1984946Y1855199D02*
X2005054D01*
X1984949Y1884899D02*
X2005051D01*
X1997150Y1834949D02*
X2005050D01*
X1985062Y1874099D02*
X2004938D01*
X1985128Y1875449D02*
X2004872D01*
X1968706Y1826849D02*
X1995336D01*
X1967390Y1828199D02*
X1993985D01*
X1966850Y1840349D02*
X1993450D01*
X1982453Y1838999D02*
X1993450D01*
X1984076Y1837649D02*
X1993450D01*
X1984756Y1836299D02*
X1993450D01*
X1984950Y1834949D02*
X1993450D01*
X1984724Y1833599D02*
X1993450D01*
X1983998Y1832249D02*
X1993450D01*
X1982227Y1830899D02*
X1993450D01*
X1966850Y1829549D02*
X1993450D01*
X1983484Y1841699D02*
X1992885D01*
X1983442Y1871399D02*
X1991937D01*
X1982974Y1868699D02*
X1991751D01*
X1984499Y1843049D02*
X1991535D01*
X1937950Y1870049D02*
X1991454D01*
X1952157Y1860599D02*
X1979843D01*
X1952677Y1879499D02*
X1979323D01*
X1952823Y1859249D02*
X1979177D01*
X1953103Y1880849D02*
X1978897D01*
X1966850Y1830899D02*
X1978773D01*
X1966850Y1838999D02*
X1978547D01*
X1953552Y1888949D02*
X1978448D01*
X1953729Y1851149D02*
X1978271D01*
X1953974Y1868699D02*
X1978026D01*
X1973050Y1848449D02*
X1977688D01*
X1954442Y1871399D02*
X1977558D01*
X1966850Y1841699D02*
X1977516D01*
X1954739Y1861949D02*
X1977261D01*
X1954876Y1857899D02*
X1977124D01*
X1954922Y1878149D02*
X1977078D01*
X1954958Y1882199D02*
X1977042D01*
X1966850Y1832249D02*
X1977002D01*
X1966850Y1837649D02*
X1976924D01*
X1955112Y1887599D02*
X1976888D01*
X1972080Y1852499D02*
X1976819D01*
X1955280Y1867349D02*
X1976720D01*
X1972693Y1847099D02*
X1976576D01*
X1966268Y1843049D02*
X1976501D01*
X1955569Y1872749D02*
X1976431D01*
X1955612Y1863299D02*
X1976388D01*
X1972018Y1856549D02*
X1976328D01*
X1955707Y1883549D02*
X1976293D01*
X1966850Y1833599D02*
X1976276D01*
X1966850Y1836299D02*
X1976244D01*
X1955771Y1886249D02*
X1976229D01*
X1955788Y1876799D02*
X1976212D01*
X1972965Y1853849D02*
X1976201D01*
X1955837Y1865999D02*
X1976163D01*
X1963568Y1845749D02*
X1976113D01*
X1964918Y1844399D02*
X1976091D01*
X1955936Y1864649D02*
X1976064D01*
X1972952Y1855199D02*
X1976054D01*
X1955949Y1884899D02*
X1976051D01*
X1966850Y1834949D02*
X1976050D01*
X1956062Y1874099D02*
X1975938D01*
X1956128Y1875449D02*
X1975872D01*
X1955672Y1856549D02*
X1968982D01*
X1955181Y1852499D02*
X1968920D01*
X1937950Y1849799D02*
X1968368D01*
X1955424Y1847099D02*
X1968307D01*
X1955946Y1855199D02*
X1968048D01*
X1955799Y1853849D02*
X1968035D01*
X1954312Y1848449D02*
X1967950D01*
X1956236Y1822799D02*
X1967487D01*
X1937950Y1824149D02*
X1966171D01*
X1937950Y1825499D02*
X1964855D01*
X1937950Y1826849D02*
X1963552D01*
X1937950Y1840349D02*
X1963150D01*
X1953453Y1838999D02*
X1963150D01*
X1955076Y1837649D02*
X1963150D01*
X1955756Y1836299D02*
X1963150D01*
X1955950Y1834949D02*
X1963150D01*
X1955724Y1833599D02*
X1963150D01*
X1954998Y1832249D02*
X1963150D01*
X1953227Y1830899D02*
X1963150D01*
X1937950Y1829549D02*
X1963150D01*
X1937950Y1828199D02*
X1963150D01*
X1954484Y1841699D02*
X1962385D01*
X1955499Y1843049D02*
X1961035D01*
X1937950Y1818749D02*
X1953853D01*
X1937950Y1822799D02*
X1953764D01*
X1937950Y1914599D02*
X1953048D01*
X1937950Y1820099D02*
X1952757D01*
X1937950Y1902449D02*
X1952752D01*
X1937950Y1913249D02*
X1952750D01*
X1937950Y1911899D02*
X1952750D01*
X1937950Y1910549D02*
X1952750D01*
X1937950Y1909199D02*
X1952750D01*
X1937950Y1907849D02*
X1952750D01*
X1937950Y1906499D02*
X1952750D01*
X1937950Y1905149D02*
X1952750D01*
X1937950Y1903799D02*
X1952750D01*
X1937950Y1821449D02*
X1952741D01*
X1937950Y1860599D02*
X1950843D01*
X1937950Y1879499D02*
X1950323D01*
X1937950Y1859249D02*
X1950177D01*
X1937950Y1880849D02*
X1949897D01*
X1937950Y1830899D02*
X1949773D01*
X1937950Y1838999D02*
X1949547D01*
X1937950Y1888949D02*
X1949448D01*
X1937950Y1851149D02*
X1949271D01*
X1937950Y1868699D02*
X1949026D01*
X1937950Y1848449D02*
X1948688D01*
X1937950Y1871399D02*
X1948558D01*
X1937950Y1841699D02*
X1948516D01*
X1937950Y1861949D02*
X1948261D01*
X1937950Y1857899D02*
X1948124D01*
X1937950Y1878149D02*
X1948078D01*
X1937950Y1882199D02*
X1948042D01*
X1937950Y1832249D02*
X1948002D01*
X1937950Y1837649D02*
X1947924D01*
X1937950Y1887599D02*
X1947888D01*
X1937950Y1852499D02*
X1947819D01*
X1937950Y1867349D02*
X1947720D01*
X1937950Y1847099D02*
X1947576D01*
X1937950Y1843049D02*
X1947501D01*
X1937950Y1872749D02*
X1947431D01*
X1937950Y1863299D02*
X1947388D01*
X1937950Y1856549D02*
X1947328D01*
X1937950Y1883549D02*
X1947293D01*
X1937950Y1833599D02*
X1947276D01*
X1937950Y1836299D02*
X1947244D01*
X1937950Y1886249D02*
X1947229D01*
X1937950Y1876799D02*
X1947212D01*
X1937950Y1853849D02*
X1947201D01*
X1937950Y1865999D02*
X1947163D01*
X1937950Y1845749D02*
X1947113D01*
X1937950Y1844399D02*
X1947091D01*
X1937950Y1864649D02*
X1947064D01*
X1937950Y1855199D02*
X1947054D01*
X1937950Y1884899D02*
X1947051D01*
X1937950Y1834949D02*
X1947050D01*
X1937950Y1874099D02*
X1946938D01*
X1937950Y1875449D02*
X1946872D01*
X2022550Y1661867D02*
X2025950D01*
X2022550Y1660517D02*
X2025950D01*
X2022550Y1659167D02*
X2025950D01*
X2022550Y1657817D02*
X2025950D01*
X2022550Y1663217D02*
X2022714D01*
X2099647Y1881853D02*
X2098692Y1882808D01*
X2099647Y1888147D02*
X2098692Y1887192D01*
X2093353Y1888147D02*
X2094308Y1887192D01*
X2093353Y1881853D02*
X2094308Y1882808D01*
X2090603Y1777903D02*
X2089649Y1776949D01*
X2090603Y1772097D02*
X2089649Y1773051D01*
X2084797Y1772097D02*
X2085751Y1773051D01*
X2084797Y1777903D02*
X2085751Y1776949D01*
X2090603Y1512903D02*
X2089649Y1511949D01*
X2090603Y1507097D02*
X2089649Y1508051D01*
X2084797Y1507097D02*
X2085751Y1508051D01*
X2084797Y1512903D02*
X2085751Y1511949D01*
X2090603Y1477903D02*
X2089649Y1476949D01*
X2090603Y1472097D02*
X2089649Y1473051D01*
X2084797Y1472097D02*
X2085751Y1473051D01*
X2084797Y1477903D02*
X2085751Y1476949D01*
X2090603Y1742903D02*
X2089649Y1741949D01*
X2090603Y1737097D02*
X2089649Y1738051D01*
X2084797Y1737097D02*
X2085751Y1738051D01*
X2084797Y1742903D02*
X2085751Y1741949D01*
X2070647Y1881853D02*
X2069692Y1882808D01*
X2070647Y1888147D02*
X2069692Y1887192D01*
X2064353Y1888147D02*
X2065308Y1887192D01*
X2064353Y1881853D02*
X2065308Y1882808D01*
X2041647Y1881853D02*
X2040692Y1882808D01*
X2041647Y1888147D02*
X2040692Y1887192D01*
X2035353Y1888147D02*
X2036308Y1887192D01*
X2035353Y1881853D02*
X2036308Y1882808D01*
X2012647Y1881853D02*
X2011692Y1882808D01*
X2012647Y1888147D02*
X2011692Y1887192D01*
X2006353Y1888147D02*
X2007308Y1887192D01*
X2006353Y1881853D02*
X2007308Y1882808D01*
X1983647Y1881853D02*
X1982692Y1882808D01*
X1983647Y1888147D02*
X1982692Y1887192D01*
X1977353Y1888147D02*
X1978308Y1887192D01*
X1977353Y1881853D02*
X1978308Y1882808D01*
X1954647Y1881853D02*
X1953692Y1882808D01*
X1954647Y1888147D02*
X1953692Y1887192D01*
X1948353Y1888147D02*
X1949308Y1887192D01*
X1948353Y1881853D02*
X1949308Y1882808D01*
X1956662Y1822462D02*
X1955707Y1821507D01*
X1953338Y1822462D02*
X1954293Y1821507D01*
X1953338Y1819138D02*
X1954293Y1820093D01*
X1956662Y1819138D02*
X1955707Y1820093D01*
G54D101*
X1951500Y1845000D03*
Y1885000D03*
X1980500Y1845000D03*
Y1885000D03*
X2009500Y1845000D03*
Y1885000D03*
X2038500Y1845000D03*
Y1885000D03*
X2067500Y1845000D03*
Y1885000D03*
X2096500Y1845000D03*
Y1885000D03*
G54D147*
X1917700Y1393200D03*
Y1403200D03*
Y1413200D03*
Y1423200D03*
Y1350100D03*
Y1360100D03*
Y1370100D03*
Y1380100D03*
Y1307000D03*
Y1317000D03*
Y1327000D03*
Y1337000D03*
X2082300D03*
Y1327000D03*
Y1317000D03*
Y1307000D03*
Y1380100D03*
Y1370100D03*
Y1360100D03*
Y1350100D03*
Y1423200D03*
Y1413200D03*
Y1403200D03*
Y1393200D03*
G54D155*
X2087700Y1740000D03*
Y1767126D03*
Y1775000D03*
Y1475000D03*
Y1482874D03*
Y1510000D03*
G74*
X0Y0D02*
M02*
