%
T1C.01F095S3
X01097Y01426
X01151Y01319
X01457Y01278
X01602Y0147
X01636Y01421
X01637Y01519
X01637Y01285
X01638Y01463
X01682Y01349
X01682Y01387
X01738Y0133
X0175Y015
X0175Y0144
X0181Y015
X0181Y0144
X01867Y01332
X01943Y01508
X01953Y01195
X01955Y01404
X0197Y01355
X01971Y01455
X01974Y01506
X01975Y01285
X02123Y01434
X02124Y01487
X02125Y01375
X02165Y0125
X02273Y01435
X02284Y0149
X02285Y01411
X02287Y0138
X02295Y01314
X02316Y01356
X02365Y01303
X02374Y01374
X0244Y015
X0244Y0144
X02464Y0126
X025Y0144
X025Y015
X0256Y01259
X025673Y01387
X02577Y01349
X02581Y01302
X02612Y01463
X02613Y01519
X02614Y01421
X02643Y01471
X031Y01317
X03149Y0146
X03094Y01752
X02792Y0159
X02613Y01655
X02593Y01747
X02569Y01722
X02568Y01553
X02567Y01588
X02509Y01608
X02463Y01692
X02382Y01607
X02367Y01735
X02363Y01701
X02335Y01696
X02297Y01535
X02293Y01744
X02281Y01585
X02274Y01656
X02193Y0166
X02125Y0156
X02067Y01696
X01975Y01716
X01963Y0156
X0196Y01621
X01931Y01584
X01882Y01646
X01878Y01568
X01873Y01769
X01789Y01675
X01741Y01761
X01688Y01643
X016827Y01553
X01664Y01615
X0165Y01589
X01637Y01716
X01457Y01709
X01151Y0175
X01098Y01866
X01598Y01903
X01636Y01851
X01637Y0195
X01638Y01894
X01647Y02019
X01682Y01818
X01682Y0178
X016827Y01984
X0175Y01871
X0175Y01931
X01809Y01871
X01809Y01931
X019349Y02012
X01943Y01939
X019536Y01836
X01957Y01984
X01967Y01881
X0197Y01786
X01974Y01937
X02125Y01937
X02125Y01991
X02125Y01886
X02125Y01806
X02271Y01866
X02281Y02015
X02284Y01921
X02287Y0181
X02287Y018413
X02297Y01965
X02318Y01786
X02374Y01803
X0244Y01931
X0244Y01871
X025Y01871
X025Y01931
X02567Y02019
X025673Y01818
X02568Y01984
X026Y01779
X02612Y01894
X02613Y0195
X02614Y01851
X02652Y01903
X0315Y01875
X03088Y02181
X02801Y0202
X02616Y02087
X02599Y02214
X02593Y02181
X02572Y02156
X025673Y02249
X02509Y02039
X02463Y02123
X02382Y02038
X02373Y02235
X02361Y02165
X02314Y02218
X02292Y02175
X02288Y02241
X02278Y02087
X0217Y02106
X02125Y02237
X02067Y02133
X01975Y02147
X01969Y02217
X0196Y02052
X01954Y02267
X01882Y02077
X01872Y02023
X01868Y022
X0174Y02192
X01683Y02076
X01682Y02249
X01682Y02216
X01658Y02051
X01637Y02147
X01459Y02161
X01151Y02181
X01097Y02288
X0158Y02512
X01598Y02332
X01636Y02282
X01637Y02381
X01638Y02325
X01654Y0245
X01666Y02478
X01682Y02517
X016827Y02415
X0175Y02362
X0175Y02302
X01809Y02302
X01809Y02362
X01875Y02476
X01882Y02508
X01934Y02442
X0196Y02484
X01961Y0243
X01972Y02318
X01976Y02367
X0198Y02404
X02125Y02419
X02128Y02369
X02129Y02316
X02276Y023
X02277Y02517
X02281Y02446
X02284Y02351
X02289Y02274
X02297Y02397
X02382Y02468
X0244Y02362
X0244Y02302
X025Y02302
X025Y02362
X02509Y02475
X02567Y0245
X02568Y02415
X02612Y02325
X02613Y02381
X02614Y02282
X02615Y02518
X02651Y02333
X02802Y0245
X03152Y02308
X02747Y02719
X02746Y0266
X0263Y02684
X02544Y02583
X02396Y02685
X02346Y02585
X02335Y02553
X0213Y02727
X02085Y02551
X01757Y02644
X01666Y02687
X0165Y0256
X01602Y02561
X01138Y0295
X01405Y02862
X01429Y0288
X01705Y02921
X01726Y02962
X01739Y0293
X01757Y02836
X01814Y02998
X01817Y02909
X01828Y02785
X01839Y0293
X01841Y02998
X01861Y02909
X0198Y02928
X02086Y02792
X02141Y02923
X03154Y02829
X0249Y03058
X01912Y03063
X01884Y03122
X01846Y03129
X01841Y03026
X01817Y03097
X01814Y03026
X01796Y03124
X01773Y03163
X01718Y03097
X01669Y03227
X0114Y03105
X0114Y03026
X0114Y03184
X0114Y03263
X01041Y0342
X01139Y03341
X01371Y0355
X01617Y03644
X0167Y03479
X01748Y03478
X01808Y03726
X01833Y03751
X01887Y03723
X02074Y03678
X02084Y03713
X02102Y03473
X02135Y03319
X02144Y03433
X02157Y03469
X02159Y03518
X02193Y03522
X02215Y03669
X02233Y03693
X02265Y03715
X02383Y03757
X02999Y03721
X031533Y03898
X03146Y03949
X03146Y03979
X03146Y0401
X03Y03885
X02822Y03886
X02657Y03951
X02436Y03824
X02399Y03818
X02394Y0379
X02361Y03948
X02348Y04006
X0233Y03799
X02301Y03776
X02201Y04015
X02176Y04002
X02102Y03771
X02095Y0383
X01889Y03869
X01866Y03848
X01856Y03772
X01838Y03986
X01807Y03864
X017595Y03775
X01668Y03886
X01617Y03847
X01535Y04011
X0144Y03885
X0144Y03986
X01423Y03948
X01409Y03916
X01409Y04011
X014077Y038543
X01235Y03917
X01235Y0398
X01235Y03854
X01235Y03886
X01235Y04012
X01216Y0379
X01103Y04043
X01103Y04138
X01103Y04232
X01235Y04075
X01235Y04265
X01235Y04169
X01235Y04201
X01409Y04077
X01409Y04168
X01409Y04264
X01439Y04105
X0144Y04204
X01589Y04064
X01592Y04228
X01614Y04105
X01707Y04177
X01805Y04137
X01808Y04173
X0208Y04204
X0213Y04039
X02146Y0425
X02152Y0402
X02229Y0403
X02348Y04044
X02348Y04243
X02367Y04138
X02368Y04106
X02368Y042
X0237Y04269
X02443Y04235
X02624Y04082
X03146Y04043
X03146Y04138
X03146Y04232
X03146Y04264
X03153Y04327
X03146Y04515
X03146Y04421
X03146Y04295
X03146Y04358
X03146Y04391
X02371Y04327
X02368Y04389
X02368Y04484
X02367Y04421
X02367Y04516
X02359Y04295
X02146Y04299
X02125Y04367
X0208Y04302
X02066Y04345
X02051Y04296
X0203Y04344
X02006Y04394
X01979Y04442
X01938Y04485
X01844Y04417
X01816Y04463
X01702Y04513
X01673Y04272
X0144Y04485
X0144Y04394
X0144Y04296
X01409Y04453
X01409Y04355
X01235Y04484
X01235Y04358
X01235Y0439
X01235Y04453
X01235Y04295
X01103Y04421
X01103Y04516
X01103Y04327
X01103Y04736
X01234Y047677
X01234Y045473
X01234Y045788
X01234Y047047
X01234Y04672
X01253Y04642
X01253Y0461
X01406Y04674
X01409Y04547
X01409Y04767
X0144Y0458
X0144Y04705
X01555Y04534
X01679Y04659
X01728Y0458
X01757Y04753
X01839Y04557
X01957Y04528
X02066Y04705
X02102Y04639
X02186Y04682
X02436Y04579
X0244Y0461
X02504Y04703
X02504Y04735
X02656Y04642
X030007Y046417
X03146Y04704
X03146Y04674
X03146Y04578
X03146Y04545
X03146Y04768
X03153Y04736
X03153Y0483
X03146Y04799
X03146Y05019
X03146Y04988
X03001Y04959
X02822Y04917
X02779Y04942
X02704Y04964
X02628Y04773
X02609Y04868
X02581Y04771
X02502Y04942
X02466Y04844
X02373Y04893
X02368Y04799
X02198Y04841
X02198Y04878
X02189Y04775
X02159Y0485
X02135Y04985
X01958Y04799
X01837Y04954
X01781Y04894
X01648Y0487
X01562Y04847
X01494Y04821
X01486Y04777
X01463Y04997
X0144Y05018
X0144Y04799
X0144Y04894
X01409Y04988
X01409Y0486
X01261Y04955
X01234Y049882
X01234Y048937
X01234Y047992
X01234Y048622
X01234Y050197
X01103Y04831
X01103Y04922
X01099Y05207
X011Y05241
X01103Y05051
X01234Y05177
X01234Y05146
X01234Y05114
X01234Y05083
X01409Y05146
X01409Y05082
X0144Y05114
X01444Y05177
X01457Y05239
X01495Y05235
X01626Y05201
X0173Y05235
X0181Y0509
X01899Y05177
X01925Y05114
X01926Y05156
X01934Y05068
X0196Y05236
X01972Y05135
X02091Y05035
X02192Y05125
X02199Y05235
X02502Y05128
X02503Y0509
X02643Y05114
X02644Y05147
X0278Y05062
X02827Y05243
X02995Y0524
X03146Y05114
X03146Y05081
X03153Y0505
X03153Y05146
X02151Y05751
X02075Y05435
X02012Y05762
X01934Y05696
X01831Y05589
X01779Y0575
X01673Y05752
X01609Y05432
X01546Y05762
X01467Y05695
X01454Y0538
X01431Y0544
X0143Y05738
X01386Y05414
X01365Y05738
X01365Y05605
X01253Y05501
X01178Y0564
X01145Y05534
X01102Y05407
X011Y05271
X01102Y05896
X01498Y05999
X01577Y0593
X01577Y05862
X01578Y06002
X01578Y05778
X016099Y058959
X0161Y06003
X016415Y05779
X01643Y0593
X01643Y05862
X01689Y05974
X01941Y05973
X02042Y05778
X02042Y0593
X02042Y05862
X02043Y06004
X020749Y058959
X02075Y06001
X021065Y05779
X02108Y0593
X02108Y05862
X02166Y05974
X02747Y05833
X02108Y06132
X02108Y06295
X02025Y06173
X01954Y06171
X01751Y06241
X0169Y0608
X01675Y06458
X01643Y06173
X01508Y0608
X013252Y06498
X01301Y06131
X01224Y06204
X01452Y07233
X0183Y06795
X0183Y06734
X02065Y06949
X02337Y07375
X02227Y07276
X02222Y07375
T2C.03F197S55
X00995Y0111
X00995Y0107
X03255Y0107
X03255Y0111
X03255Y02605
X03255Y02645
X00995Y02645
X00995Y02605
X00995Y0423
X03255Y0423
X03255Y0427
X00995Y0427
X00991Y05895
X00991Y05855
X03255Y05855
X03255Y05895
X03255Y0739
X03255Y0743
X00991Y0739
X00991Y0743
T3C.0315F197S55
X0125Y036299
X03Y036299
T4C.03346F197S55
X01704Y011944
X01704Y011156
X03002Y029213
X03002Y03
X03002Y030787
X03002Y032713
X03002Y0335
X03002Y034287
X01245Y056794
X01245Y056006
X03002Y057287
X03002Y055713
X03002Y0565
X03002Y059213
X03002Y06
X03002Y060787
X01245Y059344
X01245Y058556
T5C.035F197S55
X01326Y029478
X01326Y032627
X01326Y03184
X01326Y031053
X01326Y030265
X01326Y033415
X01326Y034202
T6C.038F197S55
X0164Y066
X0164Y067
X0193Y066
X0193Y067
X0222Y066
X0222Y067
X0251Y066
X0251Y067
X028Y066
X028Y067
X0309Y066
X0309Y067
X0309Y068
X0309Y069
X0309Y07
X028Y068
X028Y069
X028Y07
X0251Y068
X0251Y069
X0251Y07
X0222Y07
X0222Y068
X0222Y069
X0193Y07
X0193Y069
X0193Y068
X0164Y07
X0164Y069
X0164Y068
X0164Y071
X0193Y071
X0222Y071
X0251Y071
X0251Y07275
X0251Y07375
X028Y07275
X028Y07375
X028Y071
X0309Y071
T7C.04528F139S55
X0125Y053701
X03Y053701
T8C.04724F139S55
X01302Y0132
X01302Y0142
X01302Y01751
X01302Y0152
X01302Y0162
X02948Y0132
X02948Y0142
X02948Y0162
X02948Y0152
X02948Y01751
X02948Y01951
X02948Y01851
X02948Y02051
X02948Y02182
X01302Y01851
X01302Y02051
X01302Y02182
X01302Y01951
X01302Y02382
X01302Y02282
X01302Y02482
X02948Y02382
X02948Y02282
X02948Y02482
X01346Y06842
X01346Y06942
X01346Y07042
X01346Y07142
T9C.05F107S55
X00985Y0116
X00985Y0102
X03265Y0102
X03265Y0116
X03265Y02555
X03265Y02695
X00985Y02695
X00985Y02555
X00985Y0418
X03265Y0418
X03265Y0432
X00985Y0432
X00981Y05945
X00981Y05805
X03265Y05805
X03265Y05945
X03265Y0734
X03265Y0748
X00981Y0734
X00981Y0748
T10C.1F069S658
X00775Y015
X03475Y015
X03475Y07
T11C.125F035S794
X0115Y01153
X031Y01153
X031Y02649
X0115Y02649
X0115Y06349
X031Y06349
X031Y07325
X0115Y07325
M30
