*
*
G04 PADS 9.4.1 Build Number: 494907 generated Gerber (RS-274-X) file*
G04 PC Version=2.1*
*
%IN "09051-00135-A.pcb"*%
*
%MOIN*%
*
%FSLAX35Y35*%
*
*
*
*
G04 PC Standard Apertures*
*
*
G04 Thermal Relief Aperture macro.*
%AMTER*
1,1,$1,0,0*
1,0,$1-$2,0,0*
21,0,$3,$4,0,0,45*
21,0,$3,$4,0,0,135*
%
*
*
G04 Annular Aperture macro.*
%AMANN*
1,1,$1,0,0*
1,0,$2,0,0*
%
*
*
G04 Odd Aperture macro.*
%AMODD*
1,1,$1,0,0*
1,0,$1-0.005,0,0*
%
*
*
G04 PC Custom Aperture Macros*
*
*
*
*
*
*
G04 PC Aperture Table*
*
%ADD010C,0.01*%
%ADD012C,0.001*%
%ADD033C,0.06*%
%ADD050C,0.04*%
%ADD072C,0.19*%
%ADD109R,0.072X0.072*%
%ADD110C,0.072*%
%ADD167C,0.09268*%
%ADD175R,0.06512X0.06512*%
%ADD176C,0.06512*%
%ADD231R,0.069X0.061*%
%ADD234R,0.053X0.049*%
%ADD236R,0.061X0.069*%
%ADD239C,0.05724*%
%ADD240C,0.0415*%
%ADD257C,0.07874*%
%ADD258R,0.049X0.053*%
%ADD259R,0.03953X0.04937*%
%ADD260R,0.02949X0.04563*%
%ADD261R,0.03953X0.0287*%
%ADD262R,0.16748X0.1478*%
%ADD263R,0.034X0.097*%
%ADD264R,0.05803X0.05921*%
%ADD279R,0.10843X0.06906*%
%ADD280C,0.11*%
*
*
*
*
G04 PC Circuitry*
G04 Layer Name 09051-00135-A.pcb - circuitry*
%LPD*%
*
*
G04 PC Custom Flashes*
G04 Layer Name 09051-00135-A.pcb - flashes*
%LPD*%
*
*
G04 PC Circuitry*
G04 Layer Name 09051-00135-A.pcb - circuitry*
%LPD*%
*
G54D10*
G01X1852500Y1925000D02*
X2147500D01*
Y1275000*
X1852500*
Y1925000*
G54D12*
G54D33*
X1886000Y1291000D03*
Y1277000D03*
Y1444500D03*
Y1430500D03*
Y1607000D03*
Y1593000D03*
X1885600Y1769500D03*
Y1755500D03*
Y1923000D03*
Y1909000D03*
X2114000Y1277000D03*
Y1291000D03*
Y1430500D03*
Y1444500D03*
Y1593000D03*
Y1607000D03*
Y1755500D03*
Y1769500D03*
Y1909000D03*
Y1923000D03*
G54D50*
X1887000Y1286000D03*
Y1282000D03*
Y1439500D03*
Y1435500D03*
Y1602000D03*
Y1598000D03*
X1886600Y1764500D03*
Y1760500D03*
Y1918000D03*
Y1914000D03*
X2113000Y1282000D03*
Y1286000D03*
Y1435500D03*
Y1439500D03*
Y1598000D03*
Y1602000D03*
Y1760500D03*
Y1764500D03*
Y1914000D03*
Y1918000D03*
G54D72*
X1902500Y1809900D03*
X2097500D03*
X1902500Y1907500D03*
X2097500D03*
X1902500Y1439900D03*
X2097500D03*
X1902500Y1290300D03*
X2097500D03*
G54D109*
X1951500Y1835000D03*
X1980500D03*
X2009500D03*
X2038500D03*
X2067500D03*
X1920100Y1517022D03*
X2096500Y1835000D03*
X2067500Y1902500D03*
X2038500D03*
G54D110*
X1951500Y1845000D03*
Y1855000D03*
Y1865000D03*
Y1875000D03*
Y1885000D03*
X1980500Y1845000D03*
Y1855000D03*
Y1865000D03*
Y1875000D03*
Y1885000D03*
X2009500Y1845000D03*
Y1855000D03*
Y1865000D03*
Y1875000D03*
Y1885000D03*
X2038500Y1845000D03*
Y1855000D03*
Y1865000D03*
Y1875000D03*
Y1885000D03*
X2067500Y1845000D03*
Y1855000D03*
Y1865000D03*
Y1875000D03*
Y1885000D03*
X1920100Y1509148D03*
Y1501274D03*
Y1493400D03*
Y1485526D03*
Y1477652D03*
Y1469778D03*
X2096500Y1845000D03*
Y1855000D03*
Y1865000D03*
Y1875000D03*
Y1885000D03*
X2067500Y1912500D03*
X2038500D03*
G54D167*
X1917700Y1393200D03*
Y1403200D03*
Y1413200D03*
Y1423200D03*
Y1350100D03*
Y1360100D03*
Y1370100D03*
Y1380100D03*
Y1307000D03*
Y1317000D03*
Y1327000D03*
Y1337000D03*
X2082300D03*
Y1327000D03*
Y1317000D03*
Y1307000D03*
Y1380100D03*
Y1370100D03*
Y1360100D03*
Y1350100D03*
Y1423200D03*
Y1413200D03*
Y1403200D03*
Y1393200D03*
X1922100Y1859200D03*
Y1869200D03*
Y1879200D03*
Y1889200D03*
G54D175*
X1912000Y1742937D03*
Y1768437D03*
X2087700Y1732126D03*
Y1767126D03*
Y1467126D03*
Y1502126D03*
X1957900Y1294437D03*
G54D176*
X1912000Y1735063D03*
Y1760563D03*
X2087700Y1740000D03*
Y1747874D03*
Y1775000D03*
Y1782874D03*
Y1475000D03*
Y1482874D03*
Y1510000D03*
Y1517874D03*
X1957900Y1286563D03*
G54D231*
X1932500Y1911300D03*
Y1903700D03*
X1904900Y1795400D03*
Y1787800D03*
X1970500Y1861800D03*
Y1854200D03*
X1999500Y1861800D03*
Y1854200D03*
G54D234*
X2084100Y1576100D03*
X2090900D03*
X2070800Y1579300D03*
X2077600D03*
X2057800Y1576100D03*
X2064600D03*
X2070800Y1617200D03*
X2077600D03*
X2057800Y1604500D03*
X2064600D03*
X2070800Y1607700D03*
X2077600D03*
X2084100Y1604500D03*
X2090900D03*
X2084100Y1614000D03*
X2090900D03*
X2084100Y1645400D03*
X2090900D03*
X2070800Y1648700D03*
X2077600D03*
X2057800Y1645400D03*
X2064600D03*
X2057800Y1614000D03*
X2064600D03*
X2082200Y1667500D03*
X2075400D03*
X2080500Y1699100D03*
X2073700D03*
X1929100Y1669400D03*
X1935900D03*
X1989100Y1396700D03*
X1995900D03*
X1981100Y1303500D03*
X1974300D03*
X1981100Y1389700D03*
X1974300D03*
X1989100Y1353600D03*
X1995900D03*
X1981100Y1346600D03*
X1974300D03*
X2010900Y1333500D03*
X2004100D03*
X2018900Y1340500D03*
X2025700D03*
X2010900Y1376500D03*
X2004100D03*
X2018900Y1383600D03*
X2025700D03*
X1945300Y1778600D03*
X1952100D03*
X1953900Y1698500D03*
X1947100D03*
X1988900Y1698400D03*
X1995700D03*
X1991900Y1778600D03*
X1998700D03*
X1989100Y1340500D03*
X1995900D03*
X1961600Y1303500D03*
X1954800D03*
X1989100Y1406700D03*
X1995900D03*
X1989100Y1358600D03*
X1995900D03*
Y1335500D03*
X1989100D03*
X2011200Y1404700D03*
X2004400D03*
X2011200Y1389700D03*
X2004400D03*
X1961600Y1346600D03*
X1954800D03*
X1989100Y1363600D03*
X1995900D03*
X1989100Y1315500D03*
X1995900D03*
Y1421700D03*
X1989100D03*
X2011200Y1409700D03*
X2004400D03*
X1989100Y1320500D03*
X1995900D03*
X1989100Y1411700D03*
X1995900D03*
X1989100Y1416700D03*
X1995900D03*
X1989100Y1426700D03*
X1995900D03*
X1961600Y1389700D03*
X1954800D03*
X2010900Y1318500D03*
X2004100D03*
X1989100Y1368600D03*
X1995900D03*
X1989100Y1373600D03*
X1995900D03*
X1989100Y1383600D03*
X1995900D03*
X2004100Y1308500D03*
X2010900D03*
Y1361500D03*
X2004100D03*
X2010900Y1356500D03*
X2004100D03*
X2038400Y1383600D03*
X2045200D03*
X1989100Y1325500D03*
X1995900D03*
X1989100Y1330500D03*
X1995900D03*
X2004100Y1351500D03*
X2010900D03*
X1926100Y1703000D03*
X1932900D03*
X1930800Y1768500D03*
X1924000D03*
X1930800Y1739500D03*
X1924000D03*
Y1753500D03*
X1930800D03*
X1977200Y1768500D03*
X1970400D03*
X2010900Y1303500D03*
X2004100D03*
X1996600Y1683700D03*
X2003400D03*
X1977200Y1758500D03*
X1970400D03*
X1970600Y1744500D03*
X1977400D03*
X2011200Y1414700D03*
X2004400D03*
X2084100Y1654900D03*
X2090900D03*
X2084100Y1686400D03*
X2090900D03*
X2057800Y1676900D03*
X2064600D03*
X2070800Y1680100D03*
X2077600D03*
X2057800Y1686400D03*
X2064600D03*
X2070800Y1689600D03*
X2077600D03*
X1924000Y1744500D03*
X1930800D03*
X2038400Y1426700D03*
X2045200D03*
X1989100Y1401700D03*
X1995900D03*
X1978500Y1294300D03*
X1971700D03*
X1926100Y1709200D03*
X1932900D03*
X1970400Y1753500D03*
X1977200D03*
X1940100Y1305100D03*
X1946900D03*
X1940100Y1348100D03*
X1946900D03*
X2059800Y1339100D03*
X2053000D03*
X2060200Y1382100D03*
X2053400D03*
X2084100Y1632800D03*
X2090900D03*
X2084100Y1676900D03*
X2090900D03*
X1954600Y1463300D03*
X1961400D03*
X2057800Y1632800D03*
X2064600D03*
X2070800Y1636000D03*
X2077600D03*
X1929100Y1637100D03*
X1935900D03*
X1940100Y1391100D03*
X1946900D03*
X1989100Y1310500D03*
X1995900D03*
X2011200Y1419700D03*
X2004400D03*
X1950000Y1683500D03*
X1956800D03*
X2060000Y1425500D03*
X2053200D03*
X2018900Y1426700D03*
X2025700D03*
X2011200Y1399700D03*
X2004400D03*
Y1394700D03*
X2011200D03*
X1977400Y1738000D03*
X1970600D03*
X1995900Y1378600D03*
X1989100D03*
X2010900Y1328500D03*
X2004100D03*
X2010900Y1313500D03*
X2004100D03*
X2038400Y1340500D03*
X2045200D03*
X2010900Y1323500D03*
X2004100D03*
X2010900Y1371500D03*
X2004100D03*
X2010900Y1346500D03*
X2004100D03*
X2010900Y1366500D03*
X2004100D03*
X1982900Y1783100D03*
X1976100D03*
X1952100D03*
X1945300D03*
X1930800Y1758500D03*
X1924000D03*
X2058200Y1654900D03*
X2065000D03*
X2070200Y1658100D03*
X2077000D03*
G54D236*
X2061300Y1413200D03*
X2053700D03*
X1938700D03*
X1946300D03*
X1938700Y1360300D03*
X1946300D03*
X1938700Y1370100D03*
X1946300D03*
X2061300Y1327000D03*
X2053700D03*
X2061300Y1317300D03*
X2053700D03*
X2061300Y1370100D03*
X2053700D03*
X2061300Y1360300D03*
X2053700D03*
X1938700Y1317300D03*
X1946300D03*
X1938700Y1403400D03*
X1946300D03*
X2061300D03*
X2053700D03*
X1938700Y1327000D03*
X1946300D03*
X1977500Y1798600D03*
X1969900D03*
X1970200Y1789600D03*
X1962600D03*
G54D239*
X1912500Y1712008D03*
X2087500D03*
G54D240*
X1912500Y1537992D03*
X2087500D03*
G54D257*
X2135000Y1910000D03*
X1865000Y1290000D03*
G54D258*
X1941500Y1875400D03*
Y1882200D03*
X2028500Y1875400D03*
Y1882200D03*
X2087400Y1557900D03*
Y1551100D03*
X2057500Y1875400D03*
Y1882200D03*
X2095400Y1668700D03*
Y1661900D03*
X1971600Y1333600D03*
Y1340400D03*
X1971500Y1422600D03*
Y1429400D03*
X2028600Y1310400D03*
Y1303600D03*
X1970500Y1875400D03*
Y1882200D03*
X2028600Y1353500D03*
Y1346700D03*
Y1396400D03*
Y1389600D03*
X1984600Y1746400D03*
Y1739600D03*
X1960800Y1759500D03*
Y1752700D03*
X1953100Y1739600D03*
Y1746400D03*
X1991900D03*
Y1739600D03*
X1938000Y1746400D03*
Y1739600D03*
X2006300Y1759500D03*
Y1752700D03*
X2086500Y1875400D03*
Y1882200D03*
X1999500Y1875400D03*
Y1882200D03*
X1966400Y1332300D03*
Y1339100D03*
X2033800Y1398100D03*
Y1391300D03*
X1899600Y1393200D03*
Y1400000D03*
X2033800Y1354800D03*
Y1348000D03*
X1898800Y1350200D03*
Y1357000D03*
X1898600Y1306900D03*
Y1313700D03*
X1966000Y1418600D03*
Y1425400D03*
X2100700Y1306800D03*
Y1313600D03*
X1965800Y1377100D03*
Y1383900D03*
X2100700Y1350200D03*
Y1357000D03*
X1945300Y1746400D03*
Y1739600D03*
X1963200Y1444700D03*
Y1451500D03*
X1983600Y1477200D03*
Y1484000D03*
Y1461000D03*
Y1454200D03*
X1990100Y1461000D03*
Y1467800D03*
X2006500Y1464700D03*
Y1457900D03*
X1975900Y1498000D03*
Y1491200D03*
X2001700Y1457900D03*
Y1451100D03*
X2070800Y1440800D03*
Y1447600D03*
X1960400Y1491200D03*
Y1498000D03*
X1961000Y1429400D03*
Y1422600D03*
X1960900Y1383900D03*
Y1377100D03*
X2039200Y1303600D03*
Y1310400D03*
X2039000Y1346700D03*
Y1353500D03*
X1971400Y1377300D03*
Y1384100D03*
X2100700Y1393200D03*
Y1400000D03*
X2039000Y1389600D03*
Y1396400D03*
X1961000Y1340400D03*
Y1333600D03*
X2033900Y1311700D03*
Y1304900D03*
X1996400Y1467800D03*
Y1461000D03*
X1999700Y1739600D03*
Y1746400D03*
X1996500Y1496400D03*
Y1503200D03*
G54D259*
X1905000Y1851500D03*
X1910000D03*
X1915000D03*
X1920000D03*
G54D260*
X1922451Y1841500D03*
X1902549Y1841744D03*
G54D261*
X1920177Y1828833D03*
X1904823D03*
G54D262*
X1912500Y1837799D03*
G54D263*
X2031500Y1495236D03*
X2036500D03*
X2041500D03*
X2046500D03*
Y1474764D03*
X2041500D03*
X2036500D03*
X2031500D03*
Y1463736D03*
X2036500D03*
X2041500D03*
X2046500D03*
Y1443264D03*
X2041500D03*
X2036500D03*
X2031500D03*
G54D264*
X2015693Y1902500D03*
X2027307D03*
X2015693Y1912500D03*
X2027307D03*
G54D279*
X1937679Y1813500D03*
X1921321D03*
X1937679Y1795400D03*
X1921321D03*
G54D280*
X2135000Y1325000D03*
Y1875000D03*
X1865000Y1325000D03*
X0Y0D02*
M02*
